
<svg width="294" height="226" viewBox="0 0 294 226" fill="none" xmlns="http://www.w3.org/2000/svg">
<path d="M232.343 90.6975C230.931 83.4684 229.126 76.3166 226.935 69.2723C220.348 48.8835 207.238 28.2538 184.721 21.3175C168.097 16.2021 150.157 19.7319 136.11 30.1588C114.079 46.5079 98.0445 68.8184 73.9386 82.9768C53.8138 94.8044 43.2804 113.91 50.0465 140.916C56.8126 167.921 79.4162 183.654 104.152 181.744C124.71 180.136 146.204 181.856 163.978 191.532C179.861 200.177 207.925 192.652 231.141 169.036C244.668 155.27 243.356 137.767 238.947 121.412C236.22 111.282 234.452 100.951 232.343 90.6975Z" fill="#DEEFFD"/>
<path d="M202.15 200.207C202.15 201.424 169 202.415 128.121 202.415C87.2408 202.415 54.0869 201.424 54.0869 200.207C54.0869 198.991 87.2369 198 128.121 198C169.004 198 202.15 198.991 202.15 200.207Z" fill="#90CAF9"/>
<path opacity="0.3" d="M202.063 200.258C202.063 201.475 168.913 202.466 128.034 202.466C87.1539 202.466 54 201.475 54 200.258C54 199.041 87.15 198.051 128.034 198.051C168.917 198.051 202.063 199.041 202.063 200.258Z" fill="white"/>
<path d="M120.708 39.9218L64.8301 112.518L215.105 75.1602L131.403 37.2392C129.58 36.4116 127.53 36.2262 125.587 36.7134C123.645 37.2006 121.925 38.3316 120.708 39.9218Z" fill="#EBEBEB"/>
<path d="M64.0371 113.034L120.461 39.7393C121.719 38.0912 123.501 36.9206 125.513 36.4202C127.526 35.9198 129.648 36.1194 131.532 36.9862L216.062 75.2771L64.0371 113.034ZM127.728 36.7221C126.415 36.7229 125.121 37.0276 123.946 37.6121C122.77 38.1967 121.747 39.0453 120.954 40.0915L65.6162 112.006L214.166 75.0775L131.279 37.5087C130.163 37.0055 128.952 36.7473 127.728 36.7514V36.7221Z" fill="#E0E0E0"/>
<path d="M64.8262 112.52L215.631 75.0316L235.948 156.763C236.35 158.381 236.093 160.093 235.233 161.521C234.374 162.95 232.981 163.979 231.363 164.381L92.7614 198.835C91.1432 199.238 89.4316 198.981 88.0029 198.121C86.5743 197.261 85.5457 195.869 85.1435 194.251L64.8262 112.52Z" fill="#D4D4D4"/>
<path d="M206.347 79.5088L154.103 132.886L75.1375 115.111L66.1034 73.2278C65.6034 71.0673 65.9725 68.7969 67.1309 66.906C68.2894 65.0151 70.1446 63.6552 72.2964 63.1194L186.529 34.7256C187.606 34.4569 188.725 34.4033 189.823 34.5678C190.921 34.7323 191.975 35.1116 192.926 35.6841C193.877 36.2567 194.706 37.0111 195.365 37.9042C196.024 38.7974 196.5 39.8118 196.767 40.8892L206.347 79.5088Z" fill="white"/>
<path d="M127.108 69.3025L82.4189 80.4199L83.5541 84.9828L128.243 73.8654L127.108 69.3025Z" fill="#E0E0E0"/>
<path d="M184.448 67.3237L85.2949 91.9902L86.5774 97.1456L185.731 72.479L184.448 67.3237Z" fill="#E0E0E0"/>
<path d="M187.585 79.9174L88.4316 104.584L89.7141 109.739L188.868 85.0727L187.585 79.9174Z" fill="#E0E0E0"/>
<path d="M189.669 96.6079L186.564 99.7132L103.325 121.474L92.448 118.932L92.0371 117.752L190.872 93.168L191.301 94.8762L189.669 96.6079Z" fill="#E0E0E0"/>
<path d="M168.378 118.3L130.879 127.622L119.415 125.004L175.457 111.062L168.378 118.3Z" fill="#E0E0E0"/>
<path d="M144.664 131.049C144.664 131.049 144.623 131.113 144.523 131.225L144.077 131.712L142.351 133.561L135.958 140.33C130.546 146.029 123.044 153.907 114.738 162.542C106.431 171.177 98.8003 178.926 93.2354 184.479C90.453 187.255 88.1871 189.498 86.6139 191.03L84.8 192.791L84.3187 193.243C84.2685 193.299 84.2113 193.348 84.1484 193.39C84.1918 193.328 84.2409 193.271 84.2952 193.219L84.7531 192.744L86.5141 190.942L93.071 184.326C98.5948 178.732 106.185 170.966 114.509 162.325C122.833 153.684 130.358 145.889 135.788 140.177L142.245 133.479L144.006 131.671L144.476 131.207C144.605 131.096 144.664 131.049 144.664 131.049Z" fill="#FAFAFA"/>
<path d="M235.721 155.463C235.692 155.545 218.393 149.54 197.084 142.049C175.776 134.559 158.523 128.419 158.553 128.337C158.582 128.255 175.881 134.254 197.19 141.744C218.499 149.234 235.751 155.375 235.721 155.463Z" fill="#FAFAFA"/>
<path d="M208.829 76.9375C208.797 76.9898 208.759 77.0389 208.718 77.0843L208.389 77.4893L206.998 79.0331L201.814 84.6626C197.424 89.3998 191.307 95.8921 184.451 102.977C177.594 110.063 171.266 116.385 166.676 120.928L161.211 126.282L159.708 127.72L159.315 128.09C159.221 128.172 159.174 128.213 159.168 128.207C159.205 128.157 159.246 128.11 159.291 128.066L159.661 127.673L161.123 126.194L166.512 120.77C171.067 116.185 177.33 109.834 184.186 102.754C191.043 95.6749 197.183 89.2296 201.621 84.5334L206.875 78.9744L208.313 77.4717L208.694 77.0843C208.733 77.03 208.778 76.9807 208.829 76.9375Z" fill="#FAFAFA"/>
<path d="M144.664 131.05C144.594 131.046 144.525 131.034 144.458 131.014L143.871 130.874L141.523 130.287C139.516 129.782 136.598 129.071 132.988 128.226C125.774 126.518 115.765 124.317 104.706 121.922C93.6465 119.527 83.6438 117.29 76.4412 115.523C72.8369 114.643 69.9253 113.903 67.9236 113.363L65.6167 112.735L65.0297 112.565C64.9603 112.55 64.8932 112.526 64.8301 112.494L65.0355 112.535L65.6225 112.67L67.9706 113.257C69.9841 113.762 72.9015 114.467 76.5116 115.318C83.726 117.026 93.7287 119.227 104.794 121.622C115.859 124.017 125.856 126.254 133.059 128.021C136.663 128.901 139.574 129.635 141.576 130.181L143.877 130.809L144.464 130.979L144.664 131.05Z" fill="#FAFAFA"/>
<path d="M206.346 79.509C206.346 79.509 206.287 79.3153 206.187 78.922L205.759 77.2608C205.383 75.7874 204.837 73.633 204.133 70.8565L198.222 47.3055C197.909 46.061 197.59 44.7872 197.265 43.484C197.106 42.8383 196.942 42.175 196.772 41.5117C196.69 41.1771 196.607 40.8425 196.502 40.5196C196.41 40.19 196.292 39.8681 196.15 39.5569C195.568 38.24 194.653 37.0975 193.495 36.2421C192.336 35.3866 190.975 34.8479 189.546 34.6788C188.804 34.5762 188.051 34.5762 187.309 34.6788C186.569 34.808 185.818 35.0134 185.061 35.1954L180.453 36.3694L170.82 38.7468L128.021 49.4305L85.1689 60.0672L75.5477 62.4504L73.1997 63.0374C72.4376 63.1958 71.6911 63.4217 70.969 63.7125C69.5764 64.3161 68.3749 65.2883 67.4939 66.5243C67.0676 67.125 66.7203 67.778 66.4608 68.4673C66.2187 69.1483 66.0591 69.8558 65.9853 70.5747C65.8151 72.0129 66.2142 73.3982 66.496 74.766C67.083 77.5054 67.6446 80.1293 68.1807 82.6378C70.3233 92.6699 72.055 100.782 73.2525 106.4C73.8395 109.206 74.3033 111.378 74.6203 112.857C74.767 113.591 74.8844 114.155 74.9666 114.542C75.0488 114.929 75.0723 115.129 75.0723 115.129C75.0723 115.129 75.0194 114.935 74.9314 114.542C74.8433 114.149 74.72 113.597 74.5557 112.869C74.227 111.384 73.7515 109.212 73.1351 106.412C71.9083 100.8 70.1413 92.6875 67.9577 82.673C67.4176 80.1665 66.8423 77.5425 66.2494 74.8012C65.9677 73.4511 65.5568 72.0187 65.7329 70.5336C65.8004 69.7902 65.9621 69.0584 66.2142 68.3558C66.4824 67.6445 66.8394 66.97 67.2767 66.3482C67.7215 65.7154 68.253 65.1482 68.8558 64.6635C69.4593 64.1602 70.1338 63.7488 70.8575 63.4425C71.592 63.1427 72.3524 62.9108 73.1292 62.7498L75.4773 62.1628L85.116 59.7795L127.968 49.1194L170.82 38.4827L180.441 36.0994L185.049 34.9606C185.806 34.7728 186.546 34.5732 187.321 34.4382C188.452 34.2692 189.606 34.3275 190.715 34.6097C191.824 34.8919 192.865 35.3924 193.778 36.0818C194.94 36.9612 195.857 38.1231 196.443 39.4571C196.59 39.7777 196.712 40.1094 196.807 40.4492C196.913 40.7838 196.995 41.1184 197.077 41.453C197.241 42.1163 197.4 42.7796 197.564 43.4312C197.887 44.7344 198.198 46.0082 198.509 47.2527L204.321 70.8447C204.996 73.6272 205.524 75.7874 205.882 77.2608C206.058 77.9945 206.193 78.5522 206.281 78.9338C206.369 79.3153 206.346 79.509 206.346 79.509Z" fill="#E0E0E0"/>
<path d="M146.929 128.69L84.8877 193.519C85.1068 194.401 85.4974 195.231 86.0373 195.961C86.5772 196.692 87.2557 197.309 88.0342 197.777C88.8127 198.246 89.6757 198.556 90.5742 198.69C91.4726 198.825 92.3887 198.781 93.2702 198.562L230.807 164.368C232.587 163.926 234.117 162.795 235.063 161.224C236.009 159.653 236.292 157.771 235.85 155.991L235.721 155.475L154.595 126.858C153.277 126.392 151.852 126.317 150.492 126.642C149.132 126.967 147.895 127.678 146.929 128.69Z" fill="#E3E3E3"/>
<path d="M140.715 48.5224L134.909 52.9426L135.191 61.3838L129.878 57.1632L126.943 59.6756L115.79 45.9043L140.715 48.5224Z" fill="#90CAF9"/>
<path d="M132.726 54.7383C132.726 54.9966 135.191 61.3833 135.191 61.3833L129.879 57.1626L132.726 54.7383Z" fill="#90CAF9"/>
<g opacity="0.3">
<path d="M132.725 54.7383C132.725 54.9966 135.19 61.3833 135.19 61.3833L129.878 57.1626L132.725 54.7383Z" fill="black"/>
</g>
<path d="M115.79 45.9043L132.725 54.7388L135.191 61.3838L134.909 52.9426L115.79 45.9043Z" fill="#90CAF9"/>
<path opacity="0.1" d="M115.79 45.9043L132.725 54.7388L135.191 61.3838L134.909 52.9426L115.79 45.9043Z" fill="black"/>
<path d="M162.751 159.794C161.707 159.76 160.682 159.51 159.739 159.061C160.783 159.095 161.808 159.345 162.751 159.794Z" fill="#263238"/>
<path d="M167.554 160.972C167.554 161.06 167.113 161.03 166.62 160.913C166.127 160.795 165.74 160.619 165.757 160.531C165.775 160.443 166.198 160.473 166.697 160.596C167.196 160.719 167.577 160.884 167.554 160.972Z" fill="#263238"/>
<path d="M147.735 60.2807C147.214 60.2883 146.696 60.2069 146.203 60.04C145.686 59.9765 145.184 59.8194 144.724 59.5763C145.247 59.5075 145.779 59.5597 146.279 59.7289C146.802 59.7929 147.301 59.9822 147.735 60.2807Z" fill="#263238"/>
<path d="M153.417 62.7154C152.432 62.3923 151.501 61.9255 150.652 61.3301C151.176 61.3799 151.681 61.5529 152.126 61.8349C152.895 62.2223 153.464 62.6391 153.417 62.7154Z" fill="#263238"/>
<path d="M158.342 66.449C158.277 66.5136 157.755 66.0733 157.097 65.5215C156.44 64.9698 155.923 64.5001 156 64.4238C156.5 64.6007 156.953 64.8922 157.32 65.275C157.96 65.8385 158.406 66.3903 158.342 66.449Z" fill="#263238"/>
<path d="M162.099 71.3503C162.017 71.3914 161.629 70.822 161.16 70.1176C160.831 69.7139 160.573 69.2574 160.396 68.7675C160.461 68.7146 160.954 69.2195 161.43 69.9415C161.761 70.3516 161.99 70.8344 162.099 71.3503Z" fill="#263238"/>
<path d="M164.23 77.1441C163.978 76.6889 163.804 76.1949 163.713 75.6825C163.517 75.1986 163.408 74.6839 163.391 74.1621C163.708 74.5847 163.923 75.0749 164.019 75.5944C164.216 76.0856 164.289 76.618 164.23 77.1441Z" fill="#263238"/>
<path d="M164.546 83.3104C164.442 82.8006 164.42 82.2773 164.482 81.7606C164.437 81.2417 164.485 80.7191 164.623 80.2168C164.802 80.7125 164.864 81.2428 164.805 81.7665C164.842 82.2943 164.753 82.8233 164.546 83.3104Z" fill="#263238"/>
<path d="M162.944 89.2612C163.007 88.7458 163.154 88.2442 163.379 87.776C163.498 87.2727 163.696 86.7914 163.966 86.3496C163.994 86.8785 163.887 87.4059 163.655 87.8817C163.535 88.393 163.291 88.8669 162.944 89.2612Z" fill="#263238"/>
<path d="M159.358 94.2751C159.299 94.2047 159.757 93.6881 160.314 93.0542C160.872 92.4202 161.318 91.8801 161.395 91.9447C161.228 92.4475 160.94 92.9012 160.555 93.2655C159.986 93.9229 159.416 94.3397 159.358 94.2751Z" fill="#263238"/>
<path d="M154.18 97.6081C154.576 97.2726 155.024 97.0031 155.506 96.8098C155.94 96.5223 156.418 96.3081 156.921 96.1758C156.58 96.5819 156.145 96.8984 155.653 97.0974C155.212 97.3866 154.705 97.562 154.18 97.6081Z" fill="#263238"/>
<path d="M148.157 98.9063C148.648 98.7257 149.166 98.6285 149.689 98.6186C150.197 98.502 150.72 98.4683 151.239 98.5189C150.778 98.7801 150.26 98.9233 149.73 98.9356C149.212 99.0598 148.671 99.0497 148.157 98.9063Z" fill="#263238"/>
<path d="M142.111 97.7617C143.115 97.9707 144.098 98.2714 145.046 98.6599C144.52 98.7255 143.986 98.6526 143.497 98.4485C142.983 98.3451 142.505 98.1082 142.111 97.7617Z" fill="#263238"/>
<path d="M137.826 93.5088C137.914 93.4795 138.184 94.0958 138.666 94.7885C139.147 95.4812 139.611 95.9625 139.546 96.0506C139.482 96.1386 138.906 95.6984 138.401 94.9764C138.046 94.5681 137.843 94.0497 137.826 93.5088Z" fill="#263238"/>
<path d="M140.432 88.7034C140.432 88.7973 139.792 89.0027 139.123 89.4782C138.454 89.9537 138.096 90.5466 138.014 90.4996C137.931 90.4527 138.19 89.7482 138.935 89.2199C139.35 88.8634 139.886 88.6787 140.432 88.7034Z" fill="#263238"/>
<path d="M145.739 90.9041C145.657 90.9511 145.282 90.3758 144.671 89.8123C144.061 89.2487 143.438 88.967 143.497 88.8789C144.042 88.9219 144.551 89.1718 144.918 89.5775C145.339 89.9091 145.63 90.3789 145.739 90.9041Z" fill="#263238"/>
<path d="M145.938 96.8981C145.981 96.3867 146.077 95.8811 146.225 95.3895C146.269 94.8762 146.365 94.3687 146.513 93.875C146.67 94.3876 146.67 94.9356 146.513 95.4482C146.472 95.9786 146.272 96.4843 145.938 96.8981Z" fill="#263238"/>
<path d="M141.918 101.507C141.865 101.43 142.399 100.99 143.039 100.444C143.679 99.8983 144.213 99.4287 144.254 99.4874C144.295 99.5461 143.914 100.121 143.25 100.661C142.587 101.201 141.965 101.583 141.918 101.507Z" fill="#263238"/>
<path d="M136.43 104.358C136.818 104.006 137.273 103.737 137.768 103.565C138.22 103.299 138.721 103.129 139.241 103.066C138.404 103.688 137.447 104.128 136.43 104.358Z" fill="#263238"/>
<path d="M130.905 107.163C130.858 107.087 131.416 106.67 132.155 106.224C132.587 105.923 133.08 105.722 133.599 105.637C133.646 105.725 133.048 106.083 132.314 106.505C131.895 106.82 131.415 107.043 130.905 107.163Z" fill="#263238"/>
<path d="M126.209 111.203C126.144 111.144 126.549 110.569 127.166 109.965C127.506 109.562 127.933 109.243 128.416 109.031C128.475 109.102 127.999 109.618 127.395 110.205C126.79 110.792 126.303 111.262 126.209 111.203Z" fill="#263238"/>
<path d="M122.687 116.264C122.785 115.746 123.002 115.258 123.32 114.838C123.772 114.104 124.236 113.576 124.307 113.629C124.154 114.127 123.914 114.595 123.596 115.008C123.15 115.73 122.769 116.305 122.687 116.264Z" fill="#263238"/>
<path d="M120.432 122.017C120.402 121.491 120.499 120.966 120.714 120.485C120.824 119.969 121.056 119.486 121.389 119.076C121.217 120.097 120.895 121.086 120.432 122.011V122.017Z" fill="#263238"/>
<path d="M119.623 128.142C119.41 127.113 119.483 126.045 119.835 125.055C119.924 125.567 119.924 126.092 119.835 126.604C119.855 127.125 119.783 127.646 119.623 128.142Z" fill="#263238"/>
<path d="M120.433 134.265C120.169 133.811 120.003 133.308 119.945 132.786C119.773 132.287 119.729 131.752 119.816 131.23C120.044 131.7 120.194 132.204 120.262 132.721C120.425 133.219 120.483 133.744 120.433 134.265Z" fill="#263238"/>
<path d="M122.822 139.962C122.746 140.009 122.329 139.446 121.947 138.671C121.664 138.225 121.493 137.718 121.448 137.191C121.786 137.588 122.053 138.041 122.235 138.53C122.513 138.969 122.712 139.454 122.822 139.962Z" fill="#263238"/>
<path d="M126.532 144.911C126.473 144.97 125.945 144.524 125.358 143.866C124.98 143.498 124.691 143.048 124.513 142.551C124.589 142.493 125.053 143.009 125.605 143.655C126.156 144.301 126.597 144.847 126.532 144.911Z" fill="#263238"/>
<path d="M131.299 148.841C130.789 148.704 130.318 148.449 129.925 148.096C129.232 147.591 128.751 147.086 128.798 147.016C129.283 147.211 129.73 147.489 130.119 147.837C130.8 148.336 131.346 148.765 131.299 148.841Z" fill="#263238"/>
<path d="M136.875 151.508C136.347 151.505 135.828 151.374 135.361 151.126C134.852 150.984 134.386 150.718 134.005 150.352C134.519 150.427 135.017 150.588 135.478 150.827C135.977 150.978 136.449 151.208 136.875 151.508Z" fill="#263238"/>
<path d="M139.98 152.301C139.98 152.384 139.927 152.454 139.898 152.448C139.868 152.442 139.857 152.366 139.898 152.278C139.939 152.19 139.951 152.125 139.98 152.131C140.009 152.137 139.997 152.213 139.98 152.301Z" fill="#263238"/>
<path d="M135.492 136.926L129.073 134.818L127.762 138.812L134.181 140.92L135.492 136.926Z" fill="#90CAF9"/>
<g opacity="0.3">
<path d="M135.493 136.928L129.074 134.82L127.763 138.814L134.182 140.922L135.493 136.928Z" fill="black"/>
</g>
<path d="M135.478 136.937C134.277 137.539 133.033 138.05 131.756 138.464L131.644 138.505L131.574 138.411L131.462 138.27C130.572 137.187 129.769 136.035 129.062 134.824C130.029 135.839 130.918 136.926 131.721 138.076L131.826 138.217L131.644 138.164C132.887 137.653 134.169 137.243 135.478 136.937Z" fill="#90CAF9"/>
<g opacity="0.1">
<path d="M135.478 136.937C134.277 137.539 133.033 138.05 131.756 138.464L131.644 138.505L131.574 138.411L131.462 138.27C130.572 137.187 129.769 136.035 129.062 134.824C130.029 135.839 130.918 136.926 131.721 138.076L131.826 138.217L131.644 138.164C132.887 137.653 134.169 137.243 135.478 136.937Z" fill="black"/>
</g>
<path d="M130.905 137.273C130.463 137.671 129.952 137.983 129.397 138.195C128.885 138.498 128.325 138.711 127.741 138.823C128.187 138.428 128.7 138.116 129.256 137.902C129.766 137.6 130.324 137.387 130.905 137.273Z" fill="#90CAF9"/>
<g opacity="0.1">
<path d="M130.905 137.273C130.463 137.671 129.952 137.983 129.397 138.195C128.885 138.498 128.325 138.711 127.741 138.823C128.187 138.428 128.7 138.116 129.256 137.902C129.766 137.6 130.324 137.387 130.905 137.273Z" fill="black"/>
</g>
<path d="M134.28 140.965C133.921 140.522 133.642 140.019 133.458 139.48C133.071 138.605 132.813 137.854 132.93 137.865C133.29 138.308 133.57 138.811 133.758 139.351C134.031 139.851 134.208 140.399 134.28 140.965Z" fill="#90CAF9"/>
<g opacity="0.1">
<path d="M134.28 140.965C133.921 140.522 133.642 140.019 133.458 139.48C133.071 138.605 132.813 137.854 132.93 137.865C133.29 138.308 133.57 138.811 133.758 139.351C134.031 139.851 134.208 140.399 134.28 140.965Z" fill="black"/>
</g>
<path d="M161.667 152.57L145.159 147.148L141.786 157.421L158.294 162.843L161.667 152.57Z" fill="#90CAF9"/>
<path d="M161.653 152.582C161.418 152.717 161.17 152.829 160.914 152.917L158.859 153.721C157.098 154.384 154.697 155.288 151.991 156.28L151.88 156.321L151.809 156.228L151.533 155.864C149.737 153.516 148.117 151.326 146.96 149.747L145.581 147.874C145.405 147.65 145.25 147.41 145.117 147.158C145.332 147.353 145.529 147.567 145.704 147.798L147.142 149.612C148.346 151.15 149.989 153.292 151.792 155.67L152.067 156.028L151.885 155.975C154.586 154.989 157.022 154.12 158.783 153.51L160.873 152.799C161.125 152.703 161.387 152.63 161.653 152.582Z" fill="#90CAF9"/>
<g opacity="0.2">
<path d="M161.654 152.582C161.419 152.717 161.171 152.829 160.915 152.917L158.86 153.721C157.099 154.384 154.698 155.288 151.992 156.28L151.881 156.321L151.81 156.228L151.534 155.864C149.738 153.516 148.118 151.326 146.961 149.747L145.582 147.874C145.406 147.65 145.251 147.41 145.118 147.158C145.333 147.353 145.53 147.567 145.705 147.798L147.143 149.612C148.347 151.15 149.99 153.292 151.792 155.67L152.068 156.028L151.886 155.975C154.587 154.989 157.023 154.12 158.784 153.51L160.874 152.799C161.126 152.703 161.388 152.63 161.654 152.582Z" fill="black"/>
</g>
<path d="M149.912 153.457C148.629 154.259 147.291 154.971 145.909 155.588C144.573 156.296 143.191 156.912 141.771 157.431C143.049 156.622 144.385 155.908 145.768 155.294C147.103 154.581 148.488 153.967 149.912 153.457Z" fill="#90CAF9"/>
<g opacity="0.2">
<path d="M149.914 153.455C148.631 154.257 147.293 154.969 145.911 155.586C144.575 156.294 143.193 156.91 141.772 157.429C143.051 156.62 144.387 155.906 145.77 155.292C147.105 154.579 148.49 153.965 149.914 153.455Z" fill="black"/>
</g>
<path d="M158.577 162.95C157.854 161.691 157.225 160.38 156.692 159.029C156.065 157.718 155.535 156.362 155.107 154.973C155.83 156.234 156.46 157.547 156.992 158.9C157.619 160.209 158.149 161.563 158.577 162.95Z" fill="#90CAF9"/>
<g opacity="0.2">
<path d="M158.578 162.948C157.855 161.689 157.225 160.378 156.693 159.027C156.066 157.716 155.536 156.36 155.108 154.971C155.831 156.232 156.461 157.545 156.993 158.898C157.62 160.207 158.15 161.561 158.578 162.948Z" fill="black"/>
</g>
<path d="M146.05 149.688C145.639 149.989 145.148 150.162 144.639 150.185C144.13 150.207 143.625 150.078 143.19 149.814C142.754 149.55 142.406 149.163 142.19 148.701C141.975 148.239 141.901 147.724 141.978 147.22C142.055 146.717 142.28 146.247 142.624 145.871C142.968 145.495 143.415 145.229 143.91 145.108C144.405 144.986 144.925 145.014 145.404 145.188C145.883 145.361 146.3 145.673 146.601 146.084C146.802 146.357 146.947 146.666 147.028 146.995C147.109 147.324 147.124 147.665 147.073 148C147.021 148.335 146.905 148.656 146.729 148.946C146.554 149.235 146.323 149.488 146.05 149.688Z" fill="#263238"/>
<path d="M146.169 147.135C145.623 147.54 145.044 147.898 144.437 148.203L144.026 148.432L143.95 148.473L143.909 148.403C143.631 147.962 143.395 147.496 143.204 147.012C143.531 147.418 143.816 147.857 144.055 148.321L143.944 148.286L144.355 148.051C144.931 147.693 145.538 147.387 146.169 147.135Z" fill="white"/>
<path d="M151.064 138.729L142.414 135.889L140.647 141.271L149.297 144.111L151.064 138.729Z" fill="#90CAF9"/>
<g opacity="0.2">
<path d="M151.066 138.727L142.416 135.887L140.649 141.269L149.299 144.109L151.066 138.727Z" fill="black"/>
</g>
<path d="M151.045 138.734C150.925 138.806 150.797 138.865 150.664 138.91L149.583 139.332C148.674 139.679 147.406 140.154 145.985 140.671H145.926L145.891 140.618L145.75 140.43C144.805 139.186 143.989 138.053 143.349 137.225L142.645 136.268C142.554 136.15 142.474 136.025 142.404 135.893C142.513 135.994 142.611 136.106 142.698 136.227L143.455 137.178C144.083 137.982 144.946 139.104 145.885 140.348L146.032 140.542H145.938C147.353 140.025 148.627 139.567 149.554 139.25L150.646 138.88C150.773 138.817 150.907 138.767 151.045 138.734Z" fill="#90CAF9"/>
<g opacity="0.2">
<path d="M151.046 138.738C150.926 138.81 150.798 138.869 150.665 138.914L149.584 139.336C148.675 139.683 147.407 140.158 145.986 140.675H145.927L145.892 140.622L145.751 140.434C144.806 139.19 143.99 138.057 143.35 137.229L142.646 136.272C142.555 136.154 142.475 136.028 142.405 135.896C142.514 135.998 142.612 136.11 142.699 136.231L143.456 137.182C144.084 137.986 144.947 139.107 145.886 140.352L146.033 140.546H145.939C147.354 140.029 148.628 139.571 149.555 139.254L150.647 138.884C150.774 138.821 150.908 138.771 151.046 138.738Z" fill="#90CAF9"/>
</g>
<path d="M144.9 139.191C144.228 139.61 143.527 139.982 142.805 140.307C142.104 140.679 141.378 141.002 140.633 141.275C141.303 140.851 142.003 140.476 142.728 140.154C143.428 139.781 144.154 139.46 144.9 139.191Z" fill="#90CAF9"/>
<g opacity="0.2">
<path d="M144.899 139.195C144.227 139.614 143.527 139.986 142.804 140.311C142.103 140.682 141.377 141.006 140.632 141.279C141.302 140.855 142.002 140.48 142.727 140.158C143.427 139.785 144.153 139.464 144.899 139.195Z" fill="#90CAF9"/>
</g>
<path d="M149.438 144.164C149.059 143.504 148.73 142.817 148.452 142.109C148.125 141.421 147.847 140.711 147.618 139.984C148.33 141.329 148.939 142.726 149.438 144.164Z" fill="#90CAF9"/>
<g opacity="0.2">
<path d="M149.437 144.162C149.058 143.502 148.729 142.816 148.451 142.107C148.124 141.419 147.846 140.709 147.617 139.982C148.329 141.327 148.938 142.724 149.437 144.162Z" fill="#90CAF9"/>
</g>
<path d="M81.5962 71.3611C80.9993 73.7105 79.7191 75.8301 77.9175 77.452C76.116 79.0739 73.874 80.1251 71.475 80.4728C69.076 80.8206 66.6278 80.4491 64.4399 79.4055C62.252 78.3619 60.4227 76.693 59.1833 74.6098C57.9439 72.5265 57.35 70.1226 57.4767 67.7018C57.6035 65.2811 58.4452 62.9523 59.8954 61.0099C61.3457 59.0675 63.3393 57.5988 65.6242 56.7894C67.9091 55.98 70.3827 55.8663 72.7323 56.4627C75.8827 57.2639 78.5861 59.2833 80.2482 62.077C81.9103 64.8707 82.3952 68.21 81.5962 71.3611Z" fill="#263238"/>
<path d="M74.2406 61.7C74.4578 61.7881 73.0666 65.8913 71.1295 70.8691C70.8418 71.5912 70.5425 72.2838 70.3018 72.9648L70.155 73.3346L69.7852 73.1937C65.8111 71.6616 62.9054 70.3995 62.9759 70.2176C63.0463 70.0356 66.0636 70.9865 70.067 72.4365L69.5504 72.6713C69.8087 71.9903 70.0787 71.2918 70.3546 70.5698C72.2859 65.586 74.0293 61.6354 74.2406 61.7Z" fill="white"/>
</svg>
