<svg width="344" height="230" viewBox="0 0 344 230" fill="none" xmlns="http://www.w3.org/2000/svg">
<path d="M283.99 58.7773H261.713V64.6631H283.99V58.7773Z" fill="#E0E0E0"/>
<path d="M274.572 70.8804C274.569 70.8438 274.569 70.8071 274.572 70.7706C274.572 70.6929 274.572 70.5922 274.572 70.4688C274.572 70.1944 274.572 69.8056 274.572 69.3117C274.572 68.2965 274.572 66.833 274.536 64.9946L274.604 65.0632L252.327 65.1043L252.441 64.9946V65.74C252.441 65.9915 252.441 66.2385 252.441 66.49V70.8804L252.331 70.766L268.207 70.8209L272.892 70.8483H274.16H274.49H274.609H274.503H274.188H272.947L268.285 70.8804L252.331 70.9307H252.217V64.9854L252.331 64.8711L274.609 64.9168H274.677V64.9854C274.677 66.8422 274.65 68.3193 274.641 69.3437C274.641 69.8331 274.641 70.2127 274.641 70.4871C274.641 70.606 274.641 70.702 274.641 70.7752C274.621 70.8121 274.598 70.8473 274.572 70.8804Z" fill="#E0E0E0"/>
<path d="M190.371 22.8848H168.094V28.7706H190.371V22.8848Z" fill="#E0E0E0"/>
<path d="M180.953 34.9726C180.949 34.9376 180.949 34.9023 180.953 34.8674V34.5655C180.953 34.2866 180.953 33.9024 180.953 33.4039C180.953 32.3887 180.93 30.9298 180.911 29.0868L180.985 29.1554L158.707 29.2011C158.758 29.1508 158.593 29.3154 158.817 29.0868V34.9726L158.703 34.8628L174.578 34.9131L179.267 34.9451H180.536H180.866H180.985H180.879H180.527H179.281L174.62 34.9771L158.666 35.0274H158.547V29.0959C158.776 28.8673 158.611 29.0319 158.666 28.9816L180.943 29.0273H181.012V29.0959C181.012 30.9572 180.98 32.4298 180.971 33.4542C180.971 33.9436 180.971 34.3277 180.971 34.5976C180.971 34.7165 180.971 34.8125 180.971 34.8902C180.967 34.9181 180.961 34.9456 180.953 34.9726Z" fill="#DBD9D9"/>
<path d="M127.674 103.246H105.396V109.132H127.674V103.246Z" fill="#E0E0E0"/>
<path d="M118.249 115.334C118.247 115.299 118.247 115.264 118.249 115.229V114.927C118.249 114.648 118.249 114.264 118.249 113.766C118.249 112.75 118.249 111.292 118.213 109.449L118.281 109.517L96.0038 109.563C96.0541 109.513 95.8893 109.673 96.1182 109.449V112.43C96.1182 113.415 96.1182 114.38 96.1182 115.325L96.0083 115.215L111.884 115.266L116.569 115.298H117.837H118.167H118.286C118.286 115.298 118.254 115.298 118.185 115.298H117.865H116.624L111.962 115.33L96.0083 115.38H95.8984V115.27C95.8984 114.325 95.8984 113.36 95.8984 112.375V109.394L96.0129 109.279L118.29 109.325H118.359V109.394C118.359 111.255 118.332 112.728 118.322 113.752C118.322 114.241 118.322 114.621 118.322 114.895C118.322 115.014 118.322 115.11 118.322 115.188C118.322 115.266 118.249 115.339 118.249 115.334Z" fill="#DBD9D9"/>
<path d="M240.223 119.967H217.945V125.853H240.223V119.967Z" fill="#E0E0E0"/>
<path d="M230.805 132.052C230.801 132.017 230.801 131.981 230.805 131.946V131.644C230.805 131.366 230.805 130.981 230.805 130.483C230.805 129.468 230.782 128.009 230.769 126.166L230.837 126.234L208.56 126.28C208.61 126.23 208.445 126.394 208.67 126.166V132.042L208.56 131.933L224.436 131.983L229.12 132.015H230.389H230.718H230.837H230.732H230.416H229.171L224.514 132.047L208.56 132.097H208.445V126.175L208.56 126.061L230.837 126.106H230.897V126.175C230.897 128.036 230.869 129.509 230.86 130.533C230.86 131.023 230.86 131.407 230.86 131.677C230.86 131.795 230.86 131.891 230.86 131.969C230.844 131.998 230.826 132.026 230.805 132.052Z" fill="#E0E0E0"/>
<path d="M236.464 61.7757C236.464 61.7757 236.464 61.7391 236.464 61.6705C236.464 61.6019 236.464 61.4922 236.464 61.3687C236.464 61.0897 236.464 60.701 236.464 60.2071C236.464 59.1918 236.464 57.7329 236.427 55.8899L236.496 55.9585L214.219 56.0042C214.269 55.9539 214.104 56.114 214.333 55.8899V57.3854C214.333 57.8839 214.333 58.3778 214.333 58.8717V61.7666L214.223 61.6568L230.099 61.7071L234.784 61.7391H236.052H236.382H236.501H236.4H236.079H234.838L230.177 61.7711L214.223 61.8214H214.113V61.7117C214.113 60.7665 214.113 59.8016 214.113 58.8168V55.835L214.228 55.7207L236.505 55.7664H236.574V55.835C236.574 57.6918 236.546 59.1689 236.537 60.1934C236.537 60.6827 236.537 61.0623 236.537 61.3367C236.537 61.4556 236.537 61.5516 236.537 61.6248C236.537 61.698 236.469 61.7757 236.464 61.7757Z" fill="#DBD9D9"/>
<path d="M239.487 55.8909C239.483 55.8529 239.483 55.8146 239.487 55.7766C239.487 55.6942 239.487 55.5891 239.487 55.4656C239.487 55.1775 239.487 54.7842 239.487 54.2857C239.487 53.2521 239.459 51.7978 239.441 50.0051L239.523 50.0874L226.138 50.1194C226.033 50.22 226.276 49.9777 226.248 50.0051V53.0463C226.248 54.0296 226.248 54.9854 226.248 55.9L226.143 55.7903L235.718 55.8406L238.507 55.8726H239.258H239.528C239.447 55.8791 239.366 55.8791 239.285 55.8726H238.552L235.805 55.9L226.157 55.9503H226.047V55.8406C226.047 54.9259 226.047 53.9701 226.047 52.9869V49.9639L226.161 49.8496L239.546 49.8816H239.629V49.9639C239.629 51.7932 239.592 53.2521 239.583 54.2948C239.583 54.7842 239.583 55.1729 239.583 55.4564C239.583 55.74 239.491 55.8955 239.487 55.8909Z" fill="#DBD9D9"/>
<path d="M282.498 155.596C282.494 155.561 282.494 155.526 282.498 155.491C282.498 155.413 282.498 155.312 282.498 155.189C282.498 154.91 282.498 154.526 282.498 154.027C282.498 153.012 282.498 151.553 282.462 149.71L282.53 149.779L260.253 149.825C260.303 149.774 260.138 149.939 260.363 149.71V155.587L260.202 155.486L276.078 155.537L280.763 155.569H282.031H282.361H282.48H282.375H282.059H280.813L276.156 155.596L260.202 155.646H260.088V149.655L260.202 149.541L282.48 149.587H282.549V149.655C282.549 151.517 282.521 152.989 282.512 154.014C282.512 154.503 282.512 154.887 282.512 155.157C282.512 155.276 282.512 155.372 282.512 155.45C282.514 155.499 282.509 155.548 282.498 155.596Z" fill="#DBD9D9"/>
<path d="M285.52 149.709C285.514 149.673 285.514 149.636 285.52 149.6C285.52 149.513 285.52 149.412 285.52 149.284C285.52 148.996 285.52 148.603 285.52 148.104C285.52 147.075 285.498 145.616 285.479 143.824L285.557 143.906L272.172 143.938L272.287 143.824V146.846C272.287 147.83 272.287 148.785 272.287 149.7L272.177 149.595L281.752 149.645L284.545 149.673H285.296H285.566H285.319H284.591L281.843 149.7L272.195 149.755H272.09V149.645C272.09 148.731 272.09 147.775 272.09 146.792V143.769L272.204 143.654L285.589 143.686H285.672V143.769C285.672 145.598 285.64 147.057 285.63 148.1C285.63 148.589 285.63 148.978 285.63 149.261C285.63 149.545 285.525 149.714 285.52 149.709Z" fill="#DBD9D9"/>
<path d="M76.121 172.21C76.121 172.21 76.121 172.169 76.121 172.1C76.121 172.032 76.121 171.922 76.121 171.798C76.121 171.524 76.121 171.135 76.121 170.641C76.121 169.626 76.0981 168.163 76.0798 166.324L76.1485 166.393L53.8709 166.434L53.9854 166.324V169.306C53.9854 170.285 53.9854 171.254 53.9854 172.201L53.8755 172.086L69.7514 172.137L74.4405 172.169H75.7043H76.0386H76.153H76.0523H75.7318H74.4908L69.8293 172.201L53.8755 172.251H53.7656V172.141C53.7656 171.195 53.7656 170.225 53.7656 169.246V166.265L53.8801 166.15L76.1576 166.196H76.2263V166.265C76.2263 168.121 76.1988 169.599 76.1897 170.623C76.1897 171.112 76.1897 171.492 76.1897 171.766C76.1897 171.885 76.1897 171.981 76.1897 172.054C76.1786 172.111 76.1551 172.164 76.121 172.21Z" fill="#DBD9D9"/>
<path d="M79.124 166.326C79.1206 166.288 79.1206 166.25 79.124 166.211C79.124 166.129 79.124 166.024 79.124 165.9C79.124 165.612 79.124 165.215 79.124 164.721C79.124 163.687 79.0965 162.228 79.0782 160.44L79.1606 160.518L65.7758 160.55C65.675 160.65 65.9132 160.413 65.8903 160.44V163.463C65.8903 164.446 65.8903 165.402 65.8903 166.317L65.7849 166.207L75.3599 166.257L78.1486 166.289H78.8996H79.1698C79.089 166.296 79.0078 166.296 78.9271 166.289H78.199L75.4515 166.321L65.8033 166.372H65.6934V166.266C65.6934 165.352 65.6934 164.396 65.6934 163.413V160.39L65.8078 160.275L79.1927 160.307H79.2751V160.39C79.2751 162.219 79.2385 163.673 79.2293 164.721C79.2293 165.21 79.2293 165.594 79.2293 165.882C79.2293 166.17 79.1286 166.33 79.124 166.326Z" fill="#DBD9D9"/>
<path d="M81.4785 58.8259C81.4785 58.8259 81.4785 58.7847 81.4785 58.7161C81.4785 58.6475 81.4785 58.5377 81.4785 58.4143C81.4785 58.1399 81.4785 57.7511 81.4785 57.2572C81.4785 56.242 81.4786 54.7785 81.4373 52.9401L81.506 53.0087L59.201 53.0453L59.3155 52.9355V55.9173C59.3155 56.8959 59.3155 57.8655 59.3155 58.8121L59.2056 58.7024L75.0815 58.7527L79.7705 58.7801H81.0344H81.3687C81.4067 58.7764 81.4451 58.7764 81.4831 58.7801H81.3824H81.0618H79.8209L75.1593 58.8121L59.2056 58.8625H59.0957V58.7527C59.0957 57.806 59.0957 56.8365 59.0957 55.8578V52.8761L59.2102 52.7617L81.4877 52.8075H81.561V52.8761C81.561 54.7328 81.5289 56.21 81.5198 57.2344C81.5198 57.7237 81.5198 58.1033 81.5198 58.3777C81.5198 58.4966 81.5198 58.5926 81.5198 58.6658C81.5177 58.7215 81.5036 58.7761 81.4785 58.8259Z" fill="#DBD9D9"/>
<path d="M84.5006 52.9402C84.4972 52.9022 84.4972 52.8639 84.5006 52.8259C84.5006 52.7435 84.5006 52.6384 84.5006 52.5149C84.5006 52.2268 84.5006 51.8335 84.5006 51.335C84.5006 50.3014 84.4731 48.8471 84.4548 47.0544L84.5372 47.1321L71.1524 47.1642C71.0517 47.2693 71.2898 47.027 71.2669 47.0544V48.5773C71.2669 49.0849 71.2669 49.5834 71.2669 50.0773C71.2669 51.0606 71.2669 52.0164 71.2669 52.931L71.1615 52.8213L80.7365 52.8716L83.5252 52.9036H84.2762H84.5464C84.4656 52.9101 84.3845 52.9101 84.3037 52.9036H83.5756L80.8281 52.931L71.1158 53.0454H71.0059V52.9402C71.0059 52.0255 71.0059 51.0697 71.0059 50.0865V47.0636L71.1203 46.9492L84.5052 46.9812H84.5876V47.0636C84.5876 48.8929 84.5555 50.3472 84.5418 51.3944C84.5418 51.8838 84.5418 52.2679 84.5418 52.556C84.536 52.6848 84.5222 52.8131 84.5006 52.9402Z" fill="#DBD9D9"/>
<path d="M256.498 29.3965C256.494 29.3615 256.494 29.3262 256.498 29.2913C256.498 29.2135 256.498 29.1129 256.498 28.9894C256.498 28.7105 256.498 28.3263 256.498 27.8324C256.498 26.8126 256.475 25.3537 256.462 23.5107L256.53 23.5793L234.253 23.625C234.303 23.5747 234.138 23.7393 234.363 23.5107V29.3965L234.248 29.2867L250.124 29.337L254.813 29.369H256.081H256.411H256.53H256.425H256.081H254.836L250.174 29.3965L234.221 29.4468H234.102V23.5198C234.326 23.2957 234.161 23.4558 234.216 23.4055L256.494 23.4512H256.562V23.5198C256.562 25.3811 256.53 26.8537 256.521 27.8781C256.521 28.3675 256.521 28.7516 256.521 29.0215V29.3141C256.516 29.3421 256.508 29.3696 256.498 29.3965Z" fill="#DBD9D9"/>
<path d="M93.3391 31.9128C93.3391 31.9128 93.3391 31.8717 93.3391 31.8031V31.5013C93.3391 31.2269 93.3391 30.8381 93.3391 30.3442C93.3391 29.329 93.3391 27.8701 93.2979 26.0271L93.3666 26.0957L71.0891 26.1414C71.1395 26.0911 70.9746 26.2511 71.2036 26.0271V29.0088C71.2036 29.9936 71.2036 30.9586 71.2036 31.9037L71.0937 31.7939L86.9696 31.8442L91.6586 31.8763H92.9224H93.2567C93.2948 31.8725 93.3331 31.8725 93.3712 31.8763H93.2705H92.9545H91.709L87.0474 31.9083L71.0845 32.0089H70.9746V29.018C70.9746 28.5241 70.9746 28.0301 70.9746 27.5317V26.0362L71.0891 25.9219L93.3666 25.9676H93.4399V26.0362C93.4399 27.893 93.4078 29.3701 93.3987 30.3945C93.3987 30.8839 93.3987 31.2634 93.3987 31.5378V31.826C93.3829 31.8575 93.3628 31.8867 93.3391 31.9128Z" fill="#DBD9D9"/>
<path d="M127.096 62.7449C127.092 62.7099 127.092 62.6746 127.096 62.6397C127.096 62.5619 127.096 62.4613 127.096 62.3379C127.096 62.0589 127.096 61.6747 127.096 61.1762C127.096 60.161 127.073 58.7021 127.06 56.8591L127.128 56.9277L104.851 56.9734C104.901 56.9231 104.736 57.0878 104.961 56.8591V62.7357L104.851 62.626L120.727 62.6763L125.411 62.7083H126.68H127.009H127.128H127.023H126.707H125.462L120.805 62.7403L104.851 62.7906H104.736V56.8682L104.851 56.7539L127.128 56.7996H127.197V56.8682C127.197 58.7296 127.17 60.2021 127.16 61.2266C127.16 61.7159 127.16 62.1 127.16 62.3699C127.16 62.4888 127.16 62.5848 127.16 62.6626C127.142 62.6919 127.12 62.7195 127.096 62.7449Z" fill="#E0E0E0"/>
<path d="M136.236 168.103C138.595 166.886 141.369 166.731 143.989 167.161C145.395 167.394 146.86 167.815 147.817 168.867C148.774 169.918 148.957 171.78 147.858 172.685C147.203 173.225 146.292 173.307 145.44 173.298C143.393 173.275 141.118 172.914 139.487 174.144C138.572 174.848 137.931 176.015 136.813 176.362C135.696 176.71 134.487 176.056 133.91 175.072C133.376 174.046 133.258 172.854 133.58 171.743C133.712 170.973 134.02 170.244 134.481 169.612C134.942 168.981 135.542 168.464 136.236 168.103Z" fill="#E0E0E0"/>
<path d="M130.833 157.686C132.275 159.744 135.078 159.058 136.378 157.81C137.678 156.561 138.21 154.732 138.723 152.999C139.867 149.034 141.012 144.876 140.17 140.838C139.964 139.614 139.425 138.47 138.613 137.532C138.201 137.07 137.675 136.723 137.088 136.528C136.501 136.332 135.872 136.293 135.265 136.416C133.85 136.791 132.976 138.172 132.339 139.489C130.471 143.372 129.491 147.621 129.473 151.928C129.473 153.932 129.702 156.044 130.846 157.686" fill="#EBEBEB"/>
<path d="M127.033 167.194C128.599 165.338 128.897 162.621 128.201 160.307C127.505 157.993 125.911 156.004 124.116 154.389C121.979 152.49 119.49 151.026 116.79 150.081C115.748 149.657 114.625 149.467 113.502 149.523C112.943 149.556 112.4 149.725 111.921 150.015C111.443 150.306 111.042 150.708 110.754 151.188C109.985 152.656 110.722 154.435 111.519 155.885C112.925 158.446 114.531 160.893 116.323 163.202C117.765 165.059 119.414 166.888 121.607 167.725C123.8 168.562 126.081 168.461 127.244 166.943" fill="#E0E0E0"/>
<path d="M130.737 188.712C130.808 188.412 130.851 188.106 130.865 187.798C130.932 187.115 131.015 186.264 131.112 185.246C131.241 183.99 131.434 182.741 131.689 181.505C132.027 179.999 132.487 178.523 133.063 177.092C133.622 175.659 134.382 174.313 135.32 173.095C136.084 172.104 137.059 171.295 138.173 170.726C138.93 170.351 139.741 170.099 140.577 169.98C140.887 169.966 141.193 169.92 141.493 169.843C141.178 169.807 140.86 169.807 140.545 169.843C139.677 169.908 138.827 170.128 138.036 170.493C136.862 171.048 135.833 171.867 135.027 172.884C134.051 174.12 133.263 175.493 132.687 176.959C132.1 178.413 131.64 179.916 131.314 181.45C131.08 182.694 130.922 183.951 130.842 185.214C130.76 186.298 130.732 187.176 130.714 187.779C130.686 188.09 130.693 188.403 130.737 188.712Z" fill="#E0E0E0"/>
<path d="M130.911 186.749C130.938 186.606 130.946 186.46 130.934 186.315V185.076C130.934 184.001 130.934 182.441 130.989 180.502C131.085 176.656 131.415 172.517 132.056 166.682C132.661 161.194 133.476 154.791 134.346 150.676C134.529 149.733 134.717 148.883 134.891 148.137C135.065 147.392 135.198 146.765 135.349 146.23C135.5 145.695 135.564 145.339 135.638 145.023C135.681 144.885 135.707 144.742 135.716 144.598C135.648 144.725 135.597 144.86 135.564 145L135.203 146.189C135.042 146.706 134.882 147.346 134.694 148.087C134.506 148.828 134.296 149.679 134.09 150.621C133.027 155.53 132.227 160.493 131.694 165.488C131.053 171.338 130.778 176.665 130.737 180.521C130.714 182.446 130.737 184.01 130.806 185.094C130.838 185.597 130.861 186.009 130.879 186.333C130.873 186.473 130.884 186.612 130.911 186.749Z" fill="#DBD9D9"/>
<path d="M131.097 183.036C131.132 182.604 131.132 182.169 131.097 181.737C131.047 180.905 130.933 179.702 130.699 178.229C130.417 176.504 130.035 174.797 129.554 173.116C128.996 171.047 128.278 169.024 127.407 167.066C125.92 163.454 123.79 160.141 121.119 157.288C120.655 156.801 120.161 156.343 119.64 155.916C119.411 155.729 119.21 155.537 119.008 155.386L118.432 154.988C118.088 154.727 117.723 154.494 117.342 154.293C117.278 154.375 118.889 155.322 120.923 157.494C123.506 160.369 125.578 163.663 127.049 167.235C127.902 169.183 128.623 171.186 129.206 173.231C129.765 175.11 130.122 176.839 130.42 178.293C130.717 179.748 130.846 180.946 130.937 181.769C130.958 182.195 131.011 182.618 131.097 183.036Z" fill="#DBD9D9"/>
<path d="M120.771 184.217L121.802 198.316H139.935L140.965 184.217H120.771Z" fill="#E0E0E0"/>
<path d="M143.131 178.66H119.018V184.217H143.131V178.66Z" fill="#E0E0E0"/>
<path d="M119.018 197.775V199.317H120.153H142.733V197.775H119.018Z" fill="#EBEBEB"/>
<path d="M121.262 202.028L120.154 199.316H141.869L140.573 202.028H121.262Z" fill="#E0E0E0"/>
<path d="M141.219 184.124C141.219 184.188 136.676 184.239 131.071 184.239C125.466 184.239 120.924 184.188 120.924 184.124C120.924 184.06 125.466 184.01 131.071 184.01C136.676 184.01 141.219 184.06 141.219 184.124Z" fill="#F5F5F5"/>
<path d="M142.138 199.467C142.138 199.531 137.198 199.582 131.107 199.582C125.017 199.582 120.076 199.531 120.076 199.467C120.076 199.403 125.012 199.357 131.107 199.357C137.202 199.357 142.138 199.389 142.138 199.467Z" fill="#F5F5F5"/>
<path d="M328.838 201.648C328.838 201.717 259.56 201.767 174.122 201.767C88.6848 201.767 19.3887 201.717 19.3887 201.648C19.3887 201.58 88.6528 201.529 174.122 201.529C259.592 201.529 328.838 201.584 328.838 201.648Z" fill="#263238"/>
<path d="M256.299 105.506L257.49 100.435C255.203 96.9224 254.314 92.6828 254.999 88.5495C255.683 84.4161 257.891 80.688 261.188 78.0981C264.486 75.5082 268.634 74.2439 272.817 74.5538C277.001 74.8637 280.917 76.7254 283.795 79.7728C286.674 82.8203 288.307 86.8329 288.373 91.0219C288.439 95.2109 286.934 99.2731 284.153 102.41C281.373 105.547 277.518 107.531 273.346 107.973C269.175 108.415 264.989 107.282 261.611 104.797L256.299 105.506Z" fill="white"/>
<path d="M256.299 105.506L256.638 105.469L257.65 105.346L261.639 104.847H261.717L261.666 104.788L261.607 104.847C264.566 107.035 268.165 108.187 271.846 108.126C272.778 108.099 273.707 108.001 274.625 107.833C276.64 107.456 278.568 106.712 280.312 105.638C282.317 104.415 284.044 102.788 285.385 100.861C286.725 98.9347 287.649 96.7503 288.097 94.4474C288.59 91.9012 288.482 89.2752 287.781 86.7781C287.068 84.1537 285.715 81.7466 283.843 79.7719C283.6 79.5249 283.385 79.2688 283.12 79.0264L282.336 78.3496L281.947 78.0157L281.531 77.7139L280.693 77.1239C280.409 76.9364 280.106 76.7809 279.813 76.6117C279.518 76.44 279.212 76.2872 278.898 76.1544C278.295 75.8609 277.674 75.6058 277.038 75.3907C274.573 74.5422 271.947 74.2669 269.359 74.5858C265.984 75.029 262.822 76.4813 260.289 78.752C257.756 81.0226 255.969 84.0054 255.164 87.3086C254.941 88.2103 254.788 89.1276 254.706 90.0525C254.655 90.9222 254.655 91.7942 254.706 92.6639C254.94 95.4384 255.864 98.1108 257.394 100.438V100.406C257.018 102.062 256.725 103.333 256.528 104.202C256.437 104.623 256.364 104.943 256.313 105.167L256.245 105.487C256.245 105.487 256.277 105.373 256.332 105.153C256.386 104.934 256.464 104.605 256.57 104.179C256.776 103.32 257.083 102.062 257.485 100.425C255.98 98.1013 255.077 95.4407 254.857 92.6822C254.807 91.8216 254.807 90.9588 254.857 90.0983C254.938 89.1731 255.091 88.2557 255.315 87.3543C256.122 84.091 257.895 81.1463 260.403 78.9045C262.91 76.6627 266.036 75.2277 269.373 74.787C271.933 74.4718 274.532 74.7455 276.97 75.5873C277.597 75.7968 278.209 76.0489 278.801 76.3419C279.105 76.4763 279.4 76.629 279.685 76.7992C279.974 76.9684 280.276 77.1239 280.555 77.3069L281.379 77.8922L281.796 78.1849L282.181 78.5188L282.955 79.1865C283.197 79.4289 283.413 79.6804 283.669 79.9228C285.516 81.875 286.852 84.2515 287.561 86.8421C288.181 89.0649 288.33 91.3921 288.001 93.6758C287.672 95.9595 286.87 98.1498 285.647 100.108C284.425 102.065 282.808 103.748 280.899 105.048C278.991 106.348 276.832 107.237 274.561 107.66C273.654 107.83 272.736 107.931 271.814 107.961C270.95 107.981 270.087 107.932 269.231 107.815C266.483 107.437 263.872 106.386 261.63 104.756L261.378 104.573L261.57 104.82L261.598 104.751L257.646 105.3L256.62 105.446L256.299 105.506Z" fill="#263238"/>
<path d="M278.651 89.5357C278.515 88.6615 278.116 87.8494 277.506 87.2079C276.932 86.5594 276.17 86.1054 275.326 85.9091C274.875 85.8211 274.412 85.8247 273.962 85.9198C273.513 86.0149 273.088 86.1995 272.711 86.4625C272.266 86.7767 271.906 87.1962 271.663 87.6836C271.296 87.0768 270.746 86.6014 270.092 86.3254C269.438 86.0494 268.714 85.9869 268.022 86.1469C267.181 86.367 266.431 86.8472 265.879 87.5189C265.286 88.1765 264.911 89.0004 264.803 89.8787C264.688 90.9932 264.933 92.1152 265.504 93.08C266.167 94.0632 267.058 94.8726 268.1 95.4398C269.79 96.423 272.011 97.6533 272.011 97.6533C272.011 97.6533 273.842 96.2355 275.514 95.2066C276.539 94.6085 277.405 93.7743 278.042 92.7736C278.585 91.7869 278.799 90.6523 278.651 89.5357Z" fill="#F6B801"/>
<path d="M151.678 78.9487L150.185 73.9593C152.464 70.2659 153.278 65.8545 152.465 61.5925C151.653 57.3304 149.274 53.5258 145.796 50.9267C142.318 48.3275 137.992 47.1217 133.668 47.5464C129.345 47.971 125.337 49.9953 122.432 53.2214C119.528 56.4475 117.936 60.6421 117.971 64.9805C118.006 69.3189 119.664 73.4875 122.62 76.6667C125.577 79.8459 129.616 81.8059 133.946 82.1613C138.275 82.5167 142.582 81.2419 146.018 78.5874L151.678 78.9487Z" fill="white"/>
<path d="M151.677 78.9494H151.32L150.244 78.89L146.008 78.6567H145.912L145.971 78.579L146.045 78.6476C143.766 80.4281 141.077 81.6104 138.223 82.0867C137.335 82.2373 136.436 82.3168 135.535 82.3245C134.571 82.3191 133.608 82.2427 132.655 82.0958C130.56 81.7769 128.542 81.0746 126.702 80.0241C124.599 78.8176 122.769 77.1889 121.328 75.2408C119.886 73.2927 118.864 71.0674 118.327 68.7053C117.412 64.618 118 60.3384 119.983 56.6482C121.967 52.958 125.213 50.1034 129.129 48.6058C131.671 47.6429 134.399 47.2737 137.106 47.5265C140.627 47.8818 143.957 49.2962 146.655 51.5828C149.353 53.8693 151.293 56.9201 152.217 60.3317C152.466 61.2697 152.644 62.2252 152.748 63.1899C152.819 64.0906 152.836 64.9947 152.799 65.8973C152.629 68.7695 151.743 71.5537 150.221 73.9966V73.9554C150.679 75.5835 151.059 76.8366 151.306 77.6918L151.581 78.643L151.668 78.9631C151.668 78.9631 151.627 78.8488 151.562 78.6293C151.498 78.4098 151.393 78.0896 151.26 77.6735C151.004 76.8274 150.619 75.5881 150.129 73.9874C151.616 71.5484 152.476 68.7804 152.634 65.9293C152.666 65.0356 152.646 64.1408 152.574 63.2494C152.467 62.2949 152.286 61.3501 152.034 60.4231C151.111 57.0557 149.188 54.0463 146.52 51.7909C143.851 49.5355 140.561 48.1397 137.083 47.7872C134.425 47.5242 131.742 47.8715 129.239 48.8025C126.609 49.8013 124.267 51.4335 122.421 53.5541C120.745 55.4743 119.516 57.7414 118.822 60.1926C118.128 62.6437 117.987 65.218 118.408 67.7302C118.829 70.2424 119.803 72.6302 121.258 74.722C122.714 76.8137 124.615 78.5573 126.826 79.8275C128.64 80.8692 130.629 81.5699 132.696 81.8946C133.64 82.047 134.594 82.1265 135.549 82.1324C136.44 82.1267 137.33 82.0518 138.21 81.9083C141.043 81.4473 143.717 80.2925 145.994 78.547L146.31 78.3046L146.067 78.6156L146.026 78.5332L150.225 78.8259L151.315 78.9083L151.677 78.9494Z" fill="#263238"/>
<path d="M131.827 64.8727C131.828 65.2973 131.703 65.7126 131.467 66.0661C131.232 66.4195 130.896 66.6951 130.503 66.858C130.111 67.0209 129.678 67.0638 129.261 66.9812C128.844 66.8985 128.461 66.6942 128.16 66.3939C127.86 66.0937 127.655 65.7111 127.572 65.2946C127.49 64.8781 127.532 64.4465 127.696 64.0544C127.859 63.6623 128.135 63.3273 128.489 63.092C128.843 62.8567 129.259 62.7315 129.684 62.7324C130.252 62.7336 130.796 62.9595 131.198 63.3606C131.6 63.7618 131.826 64.3054 131.827 64.8727Z" fill="#263238"/>
<path d="M138.243 64.8727C138.244 65.2971 138.119 65.7123 137.884 66.0656C137.648 66.4189 137.313 66.6945 136.92 66.8576C136.528 67.0206 136.096 67.0637 135.679 66.9815C135.262 66.8992 134.879 66.6953 134.578 66.3955C134.277 66.0958 134.072 65.7136 133.989 65.2974C133.906 64.8812 133.948 64.4497 134.11 64.0575C134.273 63.6654 134.548 63.3301 134.901 63.0942C135.255 62.8583 135.67 62.7324 136.095 62.7324C136.664 62.7324 137.21 62.9578 137.613 63.359C138.015 63.7603 138.242 64.3047 138.243 64.8727Z" fill="#263238"/>
<path d="M144.667 64.8727C144.668 65.2971 144.543 65.7123 144.307 66.0656C144.072 66.4189 143.737 66.6945 143.344 66.8576C142.952 67.0206 142.52 67.0637 142.103 66.9815C141.686 66.8992 141.303 66.6953 141.002 66.3955C140.701 66.0958 140.496 65.7136 140.413 65.2974C140.329 64.8812 140.372 64.4497 140.534 64.0575C140.697 63.6654 140.972 63.3301 141.325 63.0942C141.679 62.8583 142.094 62.7324 142.519 62.7324C143.088 62.7324 143.634 62.9578 144.036 63.359C144.439 63.7603 144.666 64.3047 144.667 64.8727Z" fill="#263238"/>
<path d="M86.4555 102.088L84.8207 97.1766C86.9188 93.6259 87.6111 89.4199 86.7616 85.3853C85.9121 81.3508 83.5823 77.7795 80.23 75.3734C76.8778 72.9674 72.7457 71.9007 68.6459 72.383C64.5461 72.8652 60.7753 74.8617 58.0746 77.9797C55.3738 81.0978 53.9386 85.1121 54.0511 89.2333C54.1635 93.3546 55.8154 97.2849 58.6821 100.251C61.5488 103.218 65.4229 105.006 69.5429 105.265C73.6628 105.524 77.7307 104.234 80.9468 101.649L86.4555 102.088Z" fill="white"/>
<path d="M86.4548 102.089H86.1114L85.0627 102.02L80.914 101.746C80.9044 101.745 80.895 101.743 80.8863 101.738C80.8777 101.734 80.8699 101.728 80.8635 101.721C80.8572 101.714 80.8523 101.706 80.8491 101.696C80.846 101.687 80.8447 101.678 80.8454 101.668C80.8428 101.656 80.8428 101.643 80.8454 101.631L80.9507 101.727C78.8073 103.476 76.2577 104.657 73.537 105.162C71.7842 105.488 69.9896 105.523 68.2252 105.267C64.6022 104.758 61.2485 103.07 58.6842 100.464C56.1198 97.8573 54.4881 94.4789 54.042 90.8522C53.5959 87.2254 54.3604 83.5531 56.2169 80.4044C58.0733 77.2558 60.9181 74.8068 64.3101 73.4373C66.7104 72.4677 69.3018 72.0624 71.884 72.2528C74.6951 72.4704 77.4043 73.4004 79.7554 74.9548C82.1065 76.5093 84.0218 78.6368 85.3204 81.1363C86.619 83.6358 87.2579 86.4248 87.1768 89.2396C87.0956 92.0544 86.2971 94.802 84.8567 97.2228V97.1634L86.061 100.859C86.1892 101.256 86.29 101.567 86.3586 101.773C86.4273 101.979 86.4502 102.08 86.4502 102.08C86.4502 102.08 86.4044 101.965 86.3312 101.75C86.2579 101.535 86.1388 101.211 85.9923 100.808L84.7239 97.1908C84.7173 97.1715 84.7173 97.1506 84.7239 97.1313C86.1142 94.7371 86.8751 92.0304 86.9358 89.2633C86.9965 86.4962 86.355 83.7588 85.0711 81.306C83.7871 78.8532 81.9025 76.7649 79.5927 75.2355C77.2829 73.7061 74.6231 72.7854 71.8611 72.5592C69.3354 72.3761 66.8012 72.7718 64.452 73.7163C61.9898 74.7053 59.8099 76.2855 58.1053 78.317C56.2244 80.5431 54.9744 83.2315 54.4852 86.103C53.996 88.9745 54.2853 91.9245 55.3231 94.6466C56.3609 97.3688 58.1094 99.7639 60.3871 101.583C62.6648 103.403 65.3885 104.58 68.2756 104.993C70.0137 105.258 71.7836 105.235 73.5141 104.924C76.2072 104.442 78.7377 103.298 80.8774 101.595C80.8838 101.588 80.8916 101.582 80.9003 101.579C80.909 101.575 80.9183 101.573 80.9278 101.573C80.9372 101.573 80.9466 101.575 80.9553 101.579C80.9639 101.582 80.9717 101.588 80.9782 101.595C80.9878 101.608 80.993 101.624 80.993 101.641C80.993 101.657 80.9878 101.673 80.9782 101.686L80.9232 101.572L85.017 101.938L86.0839 102.034L86.4548 102.089Z" fill="#263238"/>
<path d="M65.8852 85.474H68.3946C68.3926 85.1883 68.4482 84.9052 68.5581 84.6414C68.6679 84.3776 68.8297 84.1385 69.0339 83.9384C69.2381 83.7383 69.4805 83.5813 69.7467 83.4766C70.0129 83.372 70.2974 83.3218 70.5834 83.3292C71.0054 83.3146 71.4216 83.4312 71.7743 83.6631C72.127 83.8949 72.3989 84.2305 72.5524 84.6234C72.6848 84.952 72.7376 85.3072 72.7066 85.66C72.6755 86.0129 72.5615 86.3534 72.3738 86.6539C71.948 87.3536 71.0001 87.9939 69.3241 87.6921V93.3446H71.806V90.0336C72.8248 89.7351 73.7171 89.1107 74.3459 88.2563C74.9747 87.4019 75.305 86.365 75.2862 85.3048C75.2862 81.6462 71.9938 80.791 70.5834 80.791C69.5073 80.791 65.8394 81.0517 65.8852 85.474Z" fill="#263238"/>
<path d="M71.8335 94.5098H69.3145V96.8604H71.8335V94.5098Z" fill="#263238"/>
<path d="M156.547 201.648V193.833L214.583 193.279L215.389 201.648H156.547Z" fill="#263238"/>
<path d="M157.257 105.287L159.309 104.857C159.309 104.857 163.43 100.457 165.646 101.605C165.646 101.605 167.395 102.63 165.646 104.194C163.897 105.758 160.76 107.93 160.037 108.657C159.313 109.384 157.17 113.413 154.189 113.528C151.208 113.642 157.257 105.287 157.257 105.287Z" fill="#FFBF9D"/>
<path d="M160.376 98.6682C160.376 98.9701 160.976 103.36 160.976 103.836C160.976 103.836 161.022 104.609 162.143 104.568C163.265 104.527 163.435 103.328 163.435 103.328L167.446 96.2124L170.72 90.9577L168.783 83.8966C168.783 83.8966 168.353 83.4393 167.487 83.8966C166.622 84.3539 159.918 95.2703 159.918 95.2703L160.376 98.6682Z" fill="#263238"/>
<path d="M162.812 90.8569C162.639 90.7604 162.446 90.7056 162.248 90.6968C161.076 90.6328 156.831 90.4087 156.186 90.5002C155.435 90.6053 150.965 95.2152 150.965 95.2152C150.965 95.2152 148.177 96.7838 148.103 98.4165C148.03 100.049 146.423 105.098 145.777 107.705C145.132 110.312 144.921 111.24 144.17 112.63L152.467 114.812C152.467 114.812 152.252 114.382 153.933 113.668C155.613 112.955 157.866 106.383 157.257 105.276C156.648 104.17 154.51 103.205 154.51 103.205L154.331 102.061L157.514 97.4881L158.979 97.8128C158.979 97.8128 159.052 100.845 161.195 100.813C161.195 100.813 162.161 100.383 161.946 99.8113C161.946 99.8113 163.018 100.561 163.879 100.095C164.739 99.6284 163.421 96.0978 162.77 95.2746C162.12 94.4515 160.302 93.3447 160.302 93.3447L161.516 93.0978C161.516 93.0978 164.021 95.5262 166.2 93.738C166.259 93.6327 166.297 93.5168 166.311 93.3969C166.325 93.277 166.315 93.1556 166.282 93.0395C166.249 92.9234 166.193 92.8151 166.117 92.7207C166.042 92.6263 165.949 92.5477 165.843 92.4895L162.812 90.8569Z" fill="#FFBF9D"/>
<path d="M154.452 102.438C154.426 102.953 154.358 103.465 154.25 103.97C154.095 104.912 153.866 106.21 153.6 107.628C153.463 108.342 153.334 109 153.215 109.645C153.133 110.202 153.006 110.751 152.835 111.287C152.721 111.652 152.555 111.999 152.341 112.316C152.18 112.535 152.066 112.636 152.057 112.627C152.32 112.197 152.528 111.736 152.675 111.255C152.818 110.72 152.925 110.176 152.996 109.627C153.11 108.996 153.234 108.319 153.367 107.605C153.632 106.174 153.889 104.861 154.086 103.947C154.168 103.435 154.29 102.93 154.452 102.438Z" fill="#FF9A6C"/>
<path d="M161.942 99.8198C161.896 99.6526 161.869 99.4808 161.86 99.3076C161.814 98.9234 161.755 98.4569 161.686 97.9082C161.645 97.6155 161.599 97.2908 161.53 96.9523C161.496 96.7816 161.451 96.6135 161.393 96.4493C161.347 96.3075 161.182 96.2023 161.036 96.088C160.323 95.6295 159.572 95.2317 158.792 94.899C158.375 94.7206 157.968 94.5514 157.565 94.4142C157.374 94.345 157.178 94.2915 156.979 94.2541C156.798 94.2382 156.616 94.2764 156.457 94.3639C155.849 94.6895 155.276 95.0772 154.749 95.5209C154.291 95.8913 153.92 96.2069 153.663 96.4356C153.537 96.5541 153.401 96.6612 153.256 96.7557C153.352 96.6109 153.467 96.4801 153.599 96.367C153.837 96.1292 154.185 95.7953 154.639 95.4066C155.165 94.9318 155.744 94.519 156.365 94.1764C156.562 94.0681 156.787 94.0203 157.011 94.0392C157.22 94.0799 157.427 94.1349 157.629 94.2038C158.046 94.3456 158.458 94.5102 158.879 94.6977C159.679 95.0328 160.446 95.4432 161.169 95.9234C161.351 96.0317 161.497 96.1906 161.59 96.3807C161.651 96.5578 161.697 96.7399 161.727 96.9249C161.791 97.2725 161.828 97.6017 161.86 97.899C161.92 98.4935 161.942 98.9737 161.956 99.3076C161.975 99.4781 161.971 99.6505 161.942 99.8198Z" fill="#FF9A6C"/>
<path d="M152.641 95.2692C152.94 94.9517 153.27 94.6637 153.625 94.4094C154.437 93.748 155.282 93.1283 156.157 92.5527C156.404 92.3595 156.679 92.2053 156.973 92.0954C157.121 92.0536 157.276 92.0367 157.43 92.0451C157.576 92.0582 157.719 92.0905 157.856 92.1411C158.305 92.2964 158.743 92.4829 159.166 92.699C159.566 92.871 159.945 93.0873 160.297 93.3439C159.883 93.2106 159.481 93.0454 159.093 92.85C158.378 92.6167 157.261 91.7844 156.295 92.7402C155.26 93.4079 154.381 94.0664 153.726 94.5329C153.386 94.8088 153.023 95.0551 152.641 95.2692Z" fill="#FF9A6C"/>
<path d="M212.707 172.233C213.275 166.036 216.279 116.439 215.134 114.82C213.989 113.201 195.636 109.199 195.636 109.199L192.847 104.265L191.785 103.936L171.105 106.222L168.298 112.167L159.232 115.771C159.232 115.771 152.674 125.558 153.448 132.235L155.175 166.928C155.175 166.928 155.486 188.92 155.056 196.375C155.02 196.951 155.14 197.527 155.403 198.041C155.665 198.556 156.061 198.991 156.548 199.302H215.161C218.687 198.597 212.121 178.429 212.707 172.233Z" fill="#47A1DC"/>
<path d="M157.597 146.825L160.102 115.525C160.102 115.525 154.607 117.007 152.922 118.759C150.966 120.766 144.171 131.664 144.171 131.664L137.16 157.215C137.16 157.215 137.444 160.188 139.555 160.417C143.914 160.874 147.985 155.962 150.376 153.858C152.766 151.755 157.597 146.825 157.597 146.825Z" fill="#47A1DC"/>
<path d="M177.919 198.549C177.919 198.549 177.919 198.471 177.919 198.325C177.919 198.178 177.919 197.954 177.919 197.68C177.919 197.099 177.919 196.258 177.892 195.183C177.892 193.006 177.85 189.878 177.818 186.013C177.759 178.266 177.676 167.565 177.708 155.748C177.74 143.93 177.928 133.22 178.263 125.482C178.363 123.547 178.459 121.796 178.542 120.259C178.624 118.723 178.757 117.405 178.84 116.322C178.922 115.238 179.05 114.419 179.114 113.843C179.146 113.568 179.169 113.354 179.192 113.198C179.215 113.043 179.224 112.979 179.224 112.979C179.224 112.979 179.224 113.056 179.224 113.203C179.224 113.349 179.192 113.573 179.169 113.847C179.114 114.428 179.041 115.261 178.94 116.331C178.84 117.401 178.785 118.736 178.684 120.268C178.583 121.8 178.528 123.556 178.441 125.486C178.148 133.224 177.983 143.926 177.956 155.748C177.928 167.57 177.979 178.266 177.997 186.009V195.183C177.997 196.258 177.997 197.099 177.974 197.68V198.325C177.928 198.476 177.919 198.549 177.919 198.549Z" fill="#263238"/>
<path d="M152.921 125.668C152.926 125.704 152.926 125.741 152.921 125.778C152.921 125.865 152.921 125.97 152.921 126.102C152.921 126.404 152.958 126.816 152.985 127.337C153.04 128.43 153.123 129.981 153.219 131.883C153.443 135.738 153.75 141.03 154.089 146.879C154.428 152.728 154.735 158.038 154.923 161.879C155.005 163.782 155.069 165.332 155.12 166.425C155.12 166.946 155.147 167.362 155.156 167.664C155.156 167.792 155.156 167.897 155.156 167.984C155.163 168.021 155.163 168.058 155.156 168.094C155.15 168.058 155.15 168.021 155.156 167.984C155.156 167.902 155.156 167.797 155.129 167.664C155.108 167.359 155.08 166.948 155.046 166.429C154.978 165.336 154.886 163.791 154.772 161.888C154.538 158.033 154.222 152.742 153.856 146.892C153.489 141.043 153.219 135.734 153.054 131.892C152.976 129.971 152.921 128.417 152.898 127.319C152.898 126.793 152.898 126.404 152.898 126.08V125.759C152.903 125.728 152.911 125.698 152.921 125.668Z" fill="#263238"/>
<path d="M195.635 109.201C195.563 109.281 195.485 109.356 195.401 109.425L194.719 110.047C194.115 110.587 193.254 111.387 192.182 112.398C191.111 113.409 189.824 114.625 188.318 115.928C186.678 117.392 184.893 118.685 182.992 119.788L182.923 119.825L182.873 119.784C182.793 119.717 182.722 119.64 182.662 119.555C182.605 119.482 182.551 119.405 182.502 119.326C182.397 119.171 182.31 119.011 182.209 118.869C182.026 118.549 181.843 118.224 181.664 117.895C181.307 117.233 180.95 116.56 180.593 115.874C180.093 114.909 179.603 113.957 179.109 113.052H179.324L178.024 116.372C177.593 117.433 177.213 118.444 176.755 119.395L176.7 119.514L176.595 119.422L170.573 114.241C169.864 113.614 169.296 113.12 168.893 112.768L168.435 112.375C168.382 112.332 168.335 112.283 168.293 112.229C168.351 112.263 168.406 112.303 168.458 112.348C168.572 112.444 168.723 112.567 168.916 112.718L170.637 114.145L176.714 119.262L176.554 119.294C176.984 118.38 177.373 117.342 177.795 116.285C178.216 115.229 178.642 114.113 179.086 112.965L179.178 112.732L179.301 112.951C179.8 113.866 180.286 114.813 180.789 115.778L181.852 117.794C182.03 118.124 182.214 118.444 182.397 118.764C182.561 119.067 182.758 119.353 182.983 119.614H182.864C184.754 118.524 186.53 117.248 188.166 115.805C189.678 114.515 190.969 113.308 192.059 112.316C193.149 111.323 194.028 110.537 194.646 110.029C194.953 109.764 195.2 109.572 195.365 109.439C195.444 109.348 195.535 109.268 195.635 109.201Z" fill="#263238"/>
<path opacity="0.3" d="M168.82 112.643L176.312 121.41L177.159 121.185L178.496 114.44L176.651 119.315L168.82 112.643Z" fill="black"/>
<path opacity="0.3" d="M171.402 180.886C171.402 180.886 173.843 183.886 180.048 184.238C186.253 184.59 189.811 182.866 189.811 182.866H214.08C214.08 182.866 213.599 178.041 213.256 178.041C212.912 178.041 172.043 180.447 172.043 180.447" fill="black"/>
<path opacity="0.3" d="M206.73 136.447C206.73 136.447 207.761 148.265 209.02 151.626C210.279 154.987 213.714 158.865 213.714 158.865L206.73 136.447Z" fill="black"/>
<path d="M192.265 104.952L196.597 76.0673C197.97 66.9665 193.625 58.6158 184.233 57.5502L183.358 57.4999C174.543 57.0105 166.818 63.1707 165.605 71.677C164.478 79.5704 163.315 88.3054 163.137 92.5585C162.725 101.376 171.723 103.255 171.723 103.255L171.366 106.827L179.26 112.548L192.265 104.952Z" fill="#FFBF9D"/>
<path d="M171.631 103.222C175.835 103.461 180.022 102.522 183.72 100.51C183.72 100.51 180.551 106.693 171.539 105.394L171.631 103.222Z" fill="#FF9A6C"/>
<path d="M168.127 79.8476C168.108 80.1797 168.22 80.506 168.439 80.7565C168.659 81.007 168.967 81.1618 169.3 81.1875C169.462 81.2107 169.627 81.2017 169.786 81.1608C169.944 81.1199 170.093 81.0481 170.224 80.9495C170.355 80.8509 170.464 80.7274 170.547 80.5861C170.63 80.4449 170.684 80.2887 170.706 80.1266C170.725 79.7944 170.612 79.4681 170.393 79.2176C170.174 78.9671 169.865 78.8124 169.533 78.7866C169.371 78.7627 169.205 78.7714 169.047 78.812C168.888 78.8526 168.738 78.9244 168.608 79.0231C168.477 79.1218 168.367 79.2456 168.284 79.3871C168.202 79.5287 168.148 79.6852 168.127 79.8476Z" fill="#263238"/>
<path d="M167.28 76.0752C167.432 76.249 168.458 75.6179 169.854 75.6774C171.251 75.7368 172.227 76.496 172.392 76.3359C172.47 76.2673 172.323 75.9609 171.897 75.6225C171.313 75.1809 170.609 74.9272 169.877 74.8953C169.153 74.8507 168.433 75.0312 167.816 75.4121C167.372 75.7094 167.207 75.9975 167.28 76.0752Z" fill="#263238"/>
<path d="M180.189 80.68C180.172 81.0113 180.284 81.3365 180.503 81.586C180.722 81.8355 181.03 81.9896 181.362 82.0154C181.525 82.0391 181.691 82.03 181.851 81.9886C182.011 81.9471 182.161 81.8742 182.292 81.774C182.423 81.6738 182.532 81.5485 182.614 81.4054C182.696 81.2623 182.748 81.1043 182.768 80.9407C182.787 80.6086 182.675 80.2823 182.456 80.0317C182.236 79.7812 181.928 79.6265 181.595 79.6007C181.432 79.577 181.265 79.5863 181.105 79.628C180.945 79.6697 180.795 79.7431 180.664 79.8437C180.533 79.9443 180.423 80.0702 180.342 80.2138C180.26 80.3575 180.208 80.516 180.189 80.68Z" fill="#263238"/>
<path d="M180.981 77.0944C181.133 77.2682 182.159 76.6142 183.551 76.6965C184.943 76.7788 185.928 77.5106 186.088 77.3551C186.166 77.2865 186.024 76.9801 185.594 76.6416C185.01 76.1997 184.306 75.9446 183.574 75.9099C182.851 75.8691 182.133 76.0511 181.517 76.4313C181.068 76.7285 180.904 77.0167 180.981 77.0944Z" fill="#263238"/>
<path d="M175.323 86.8541C175.323 86.7764 174.476 86.5797 173.079 86.3282C172.726 86.2733 172.392 86.1864 172.346 85.944C172.338 85.5844 172.442 85.2311 172.644 84.9333L173.853 82.3586C175.538 78.7 176.779 75.6725 176.628 75.6085C176.477 75.5444 174.984 78.4622 173.299 82.1299L172.135 84.7184C171.88 85.1273 171.786 85.616 171.87 86.0904C171.915 86.2162 171.989 86.3302 172.085 86.4236C172.181 86.5171 172.297 86.5876 172.424 86.63C172.619 86.69 172.82 86.7283 173.024 86.7443C174.434 86.8861 175.314 86.9273 175.323 86.8541Z" fill="#263238"/>
<path d="M180.931 71.7667C181.045 72.1417 182.451 72.0457 184.072 72.3292C185.693 72.6127 186.998 73.1204 187.232 72.7865C187.342 72.6356 187.131 72.2743 186.618 71.8719C185.926 71.393 185.136 71.074 184.305 70.9379C183.474 70.8019 182.624 70.8522 181.815 71.0853C181.201 71.3368 180.881 71.5883 180.931 71.7667Z" fill="#263238"/>
<path d="M168.028 72.1843C168.257 72.509 169.237 72.2438 170.391 72.2941C171.545 72.3444 172.512 72.6188 172.759 72.2941C172.864 72.1431 172.731 71.8367 172.301 71.512C171.743 71.1294 171.086 70.9166 170.41 70.8995C169.733 70.8825 169.067 71.0619 168.49 71.416C168.083 71.7224 167.927 72.0288 168.028 72.1843Z" fill="#263238"/>
<path d="M166.699 67.6799C166.699 67.6799 169.419 62.2971 172.235 61.1584C175.647 59.7864 176.865 63.4039 180.079 62.7224C183.294 62.041 186.545 60.7193 189.636 63.2758C193.02 66.0701 191.257 67.7988 191.243 71.718C191.188 87.6193 193.904 92.2657 195.195 84.8479C195.337 84.0338 197.714 83.5171 198.263 80.078C198.982 75.6236 199.481 70.1951 198.639 66.9573C197.929 64.2133 196.464 62.288 193.762 60.0974C189.499 56.6263 183.381 56.2147 179.2 56.3885C175.02 56.5623 166.731 60.7331 166.699 67.6799Z" fill="#263238"/>
<path d="M194.633 84.5637C194.669 84.236 194.77 83.9189 194.932 83.6314C195.093 83.3439 195.311 83.0918 195.572 82.8903C195.833 82.6888 196.132 82.542 196.452 82.4586C196.771 82.3752 197.104 82.357 197.431 82.4051C199.111 82.6566 200.938 83.6948 200.636 87.0836C200.082 93.0974 193.978 91.3138 193.982 91.1446C193.987 90.9754 194.376 87.0744 194.633 84.5637Z" fill="#FFBF9D"/>
<path d="M195.529 88.9952C195.557 88.9952 195.63 89.0821 195.804 89.1781C196.053 89.3043 196.34 89.3352 196.61 89.265C197.288 89.0866 197.929 88.1262 198.062 87.047C198.124 86.5319 198.068 86.0095 197.897 85.5195C197.855 85.3247 197.766 85.1432 197.637 84.9909C197.509 84.8386 197.345 84.7202 197.16 84.646C197.039 84.6029 196.907 84.6026 196.786 84.645C196.665 84.6875 196.563 84.7702 196.495 84.8792C196.399 85.0393 196.427 85.1628 196.39 85.1673C196.353 85.1719 196.266 85.0576 196.34 84.8106C196.39 84.6647 196.488 84.5404 196.619 84.4585C196.803 84.3471 197.023 84.3111 197.233 84.3579C197.479 84.427 197.704 84.5578 197.886 84.7378C198.068 84.9179 198.201 85.1413 198.272 85.3869C198.487 85.9282 198.563 86.5147 198.492 87.0927C198.341 88.3046 197.576 89.3793 196.66 89.5531C196.49 89.5855 196.314 89.5807 196.146 89.5388C195.977 89.497 195.82 89.4192 195.685 89.3107C195.529 89.1461 195.506 89.0043 195.529 88.9952Z" fill="#FF9A6C"/>
<path d="M165.871 66.4078C167.703 67.4826 170.322 66.6594 171.43 64.885C172.804 66.1243 175.373 65.5801 176.083 63.9063C177.044 65.0222 178.83 65.0496 180.25 64.5648C181.669 64.0801 182.906 63.1928 184.325 62.7355C185.748 62.2962 187.272 62.3057 188.689 62.763C187.663 64.2676 188.914 66.4627 190.136 68.818C190.837 70.1899 191.753 71.5894 192.33 73.0025C192.907 74.4156 194.541 75.5361 196.02 75.0513C197.238 74.6534 197.884 73.4004 198.411 72.2662C199.377 70.1671 200.361 67.8393 199.688 65.635C199.23 64.1578 198.214 62.0907 196.968 61.1349C195.004 59.6303 194.358 59.9458 194.358 59.9458C194.358 59.9458 194.239 57.5129 192.389 56.2872C191.707 55.8192 190.916 55.5339 190.092 55.4587C189.267 55.3834 188.438 55.5207 187.682 55.8573C187.682 55.8573 186.372 52.8984 182.288 52.9122C179.142 52.9122 178.34 54.4396 176.271 54.6454C174.988 54.7735 173.638 54.2201 172.438 54.6729C170.414 55.432 170.341 58.3315 168.619 59.6303C167.671 60.3346 166.361 60.4352 165.413 61.1303C163.678 62.3925 164.04 65.3377 165.871 66.4078Z" fill="#263238"/>
<path d="M199.005 70.8531C198.718 71.2843 198.477 71.7441 198.286 72.2251C198.063 72.7161 197.71 73.1367 197.265 73.4416C196.671 73.7438 195.988 73.8202 195.342 73.6566C194.675 73.5378 194.042 73.2791 193.483 72.8974C193.04 72.5638 192.635 72.1836 192.274 71.7632C191.961 71.3427 191.614 70.9495 191.234 70.5879C191.444 71.0705 191.725 71.5191 192.068 71.9187C192.414 72.3867 192.822 72.8053 193.281 73.1626C193.873 73.5935 194.556 73.883 195.278 74.0087C195.931 74.213 196.639 74.1512 197.247 73.8369C197.855 73.5226 198.314 72.9811 198.524 72.3303C198.751 71.8618 198.912 71.3649 199.005 70.8531Z" fill="#455A64"/>
<path d="M198.771 75.5001C198.394 75.7739 197.981 75.9954 197.544 76.1586C197.065 76.3014 196.561 76.3435 196.065 76.2821C195.459 76.1957 194.878 75.9805 194.362 75.651C193.431 75.0216 192.636 74.2112 192.026 73.2683C191.787 72.858 191.505 72.4747 191.184 72.125C191.325 72.5793 191.535 73.0096 191.806 73.4009C192.377 74.4264 193.183 75.3012 194.16 75.9528C194.722 76.3127 195.36 76.5381 196.024 76.6114C196.57 76.666 197.122 76.5924 197.636 76.3964C198.51 76.0489 198.808 75.5092 198.771 75.5001Z" fill="#455A64"/>
<path d="M179.279 89.0684C179.491 89.7239 179.609 90.4058 179.631 91.0943C179.718 91.8032 179.407 92.3062 178.954 92.8687C178.705 93.1572 178.398 93.3883 178.051 93.5463C177.705 93.7042 177.329 93.7851 176.948 93.7834H176.925C176.241 93.7907 175.577 93.5537 175.052 93.1152C174.527 92.6767 174.176 92.0654 174.063 91.3916L173.82 89.8961C175.276 89.5028 179.173 89.1735 179.279 89.0684Z" fill="#FF9A6C"/>
<path d="M175.486 93.3384C175.486 93.311 175.669 93.3384 175.981 93.3887C176.416 93.4547 176.859 93.4547 177.295 93.3887C177.921 93.2914 178.489 92.9655 178.888 92.4741C179.355 91.8729 179.578 91.1191 179.516 90.3612C179.48 89.9433 179.355 89.5379 179.149 89.1722L179.342 89.2682C177.968 89.4694 176.732 89.6341 175.857 89.7255C175.394 89.8128 174.922 89.845 174.451 89.8216C174.896 89.664 175.357 89.5552 175.825 89.4969C176.686 89.3322 177.899 89.1264 179.291 88.9023H179.42L179.484 89.0121C179.792 89.6008 179.923 90.2663 179.861 90.9279C179.798 91.5895 179.545 92.2187 179.131 92.7393C178.664 93.2765 178.008 93.6138 177.299 93.6814C176.837 93.726 176.371 93.6825 175.926 93.5533C175.766 93.5131 175.616 93.4399 175.486 93.3384Z" fill="#263238"/>
<path d="M161.918 156.672L164.446 175.861L174.437 175.633L176.035 156.672H161.918Z" fill="#AE7461"/>
<path d="M176.989 155.176H160.902V157.266H176.989V155.176Z" fill="#E0E0E0"/>
<path d="M162.35 155.59C162.386 155.49 163.183 153.628 163.183 153.628L174.406 152.133L175.606 155.59H162.35Z" fill="#E0E0E0"/>
<path d="M176.99 155.176C176.99 155.244 173.427 155.295 169.036 155.295C164.645 155.295 161.082 155.244 161.082 155.176C161.082 155.107 164.64 155.057 169.036 155.057C173.432 155.057 176.99 155.112 176.99 155.176Z" fill="#263238"/>
<path d="M187.049 170.12C187.049 170.12 182.887 164.956 180.703 164.426C178.962 164.091 177.19 163.953 175.418 164.014L174.924 167.293C174.924 167.293 164.667 167.668 163.54 167.934C162.414 168.199 161.818 169.786 162.345 170.513C162.872 171.24 163.009 171.176 165.459 171.176C167.909 171.176 170.697 171.176 170.761 171.771C170.826 172.365 170.83 172.896 169.901 172.896C168.971 172.896 164.932 173.293 164.268 173.161C163.604 173.028 161.887 173.495 162.153 174.816C162.418 176.138 164.268 177.066 165.262 177.002C165.68 176.95 166.103 176.95 166.521 177.002C166.521 177.002 166.191 179.385 168.509 179.513C168.654 179.846 168.872 180.142 169.147 180.379C169.422 180.617 169.747 180.79 170.097 180.885C171.357 181.283 178.116 182.938 181.234 182.874C184.352 182.81 187.727 180.885 187.727 180.885L187.049 170.12Z" fill="#FFBF9D"/>
<path d="M171.404 176.604C170.605 176.782 169.79 176.882 168.972 176.902C168.159 176.998 167.338 177.017 166.521 176.957C167.321 176.781 168.135 176.683 168.953 176.663C169.766 176.564 170.587 176.544 171.404 176.604Z" fill="#FF9A6C"/>
<path d="M173.972 179.515C173.73 179.394 173.467 179.321 173.198 179.299C172.699 179.272 171.98 179.345 171.197 179.386C170.25 179.494 169.297 179.538 168.344 179.519C169.276 179.306 170.227 179.181 171.183 179.148C171.859 179.094 172.539 179.094 173.216 179.148C173.761 179.203 174.004 179.501 173.972 179.515Z" fill="#FF9A6C"/>
<path d="M187.049 170.119C187.049 170.119 201.217 168.678 204.747 167.777C209.871 166.474 218.443 162.591 218.443 162.591L223.938 159.902L233.82 164.819C233.82 164.819 234.077 170.412 232.497 173.174C230.778 175.97 228.04 177.989 224.859 178.808C221.901 179.531 187.727 180.884 187.727 180.884L187.049 170.119Z" fill="#FFBF9D"/>
<path d="M214.625 114.377C214.625 114.377 220.903 116.568 222.812 122.609C224.392 127.589 234.407 157.315 233.903 161.568C233.903 161.568 235.172 162.337 235.158 163.622C235.158 165.483 233.944 165.383 233.944 165.383C232.31 165.259 219.181 162.392 215.39 163.901L206.73 137.975C206.73 137.211 207.733 127.836 208.864 122.426C209.995 117.016 214.625 114.377 214.625 114.377Z" fill="#47A1DC"/>
<path d="M204.51 127.237C204.539 127.002 204.586 126.77 204.652 126.542C204.712 126.273 204.787 126.007 204.876 125.746C204.986 125.44 205.078 125.083 205.247 124.708C205.408 124.295 205.592 123.89 205.797 123.496C206.025 123.038 206.277 122.592 206.552 122.161C207.184 121.166 207.926 120.246 208.764 119.417C209.611 118.606 210.548 117.894 211.557 117.295C212.001 117.036 212.459 116.804 212.931 116.6C213.335 116.42 213.751 116.267 214.176 116.143C214.523 116.021 214.876 115.921 215.234 115.841C215.502 115.768 215.774 115.713 216.049 115.676C216.28 115.63 216.514 115.602 216.75 115.594C216.75 115.649 215.756 115.763 214.231 116.298C213.816 116.444 213.41 116.611 213.013 116.801C212.554 117.013 212.106 117.248 211.672 117.505C210.681 118.105 209.759 118.812 208.924 119.614C208.103 120.426 207.368 121.321 206.731 122.284C206.451 122.742 206.181 123.167 205.971 123.592C205.76 123.979 205.569 124.376 205.398 124.781C204.794 126.263 204.565 127.251 204.51 127.237Z" fill="#263238"/>
<path d="M206.195 134.395C206.238 134.49 206.272 134.59 206.296 134.692L206.548 135.561C206.768 136.338 207.07 137.422 207.464 138.762C208.228 141.451 209.332 145.165 210.628 149.216C211.924 153.268 213.146 156.95 214.026 159.602C214.456 160.915 214.809 161.98 215.061 162.753L215.331 163.613C215.368 163.711 215.394 163.812 215.409 163.915C215.359 163.823 215.317 163.726 215.285 163.627L214.974 162.781C214.703 162.017 214.328 160.951 213.865 159.657C212.95 157.018 211.699 153.355 210.404 149.29C209.108 145.224 208.022 141.515 207.299 138.803C206.937 137.454 206.653 136.356 206.475 135.602C206.388 135.236 206.324 134.948 206.269 134.724C206.233 134.617 206.209 134.506 206.195 134.395Z" fill="#263238"/>
<path d="M232.584 161.586C232.355 161.576 232.128 161.542 231.906 161.485C231.476 161.403 230.853 161.293 230.075 161.179C226.032 160.564 221.917 160.612 217.89 161.321C217.116 161.453 216.493 161.577 216.058 161.668C215.837 161.727 215.612 161.767 215.385 161.787C215.595 161.695 215.815 161.625 216.04 161.577C216.461 161.458 217.079 161.307 217.871 161.152C221.909 160.352 226.06 160.304 230.116 161.01C230.894 161.152 231.517 161.284 231.948 161.394C232.165 161.441 232.377 161.505 232.584 161.586Z" fill="#263238"/>
<path d="M144.17 112.639C144.17 112.639 130.131 138.249 128.867 141.066C127.603 143.883 124.086 156.089 129.851 160.022C135.616 163.955 140.255 159.318 140.255 159.318C140.255 159.318 145.457 153.139 145.036 146.682C144.614 140.225 149.157 125.668 149.157 125.668L152.458 114.82L144.17 112.639Z" fill="#FFBF9D"/>
</svg>
