<svg width="195" height="195" viewBox="0 0 195 195" fill="none" xmlns="http://www.w3.org/2000/svg">
<path d="M156.336 77.8053C155.382 72.7733 154.164 67.7951 152.685 62.8917C148.239 48.6996 139.39 34.3398 124.192 29.5116C112.971 25.9509 100.862 28.4079 91.381 35.6658C76.5103 47.046 65.6878 62.5758 49.417 72.4311C35.8333 80.664 28.7236 93.963 33.2905 112.761C37.8574 131.559 53.1142 142.51 69.8101 141.18C83.6863 140.061 98.1943 141.258 110.191 147.994C120.912 154.011 139.854 148.774 155.524 132.335C164.654 122.753 163.769 110.569 160.793 99.1851C158.952 92.1339 157.759 84.9423 156.336 77.8053Z" fill="#90CAF9"/>
<path opacity="0.7" d="M156.336 77.8053C155.382 72.7733 154.164 67.7951 152.685 62.8917C148.239 48.6996 139.39 34.3398 124.192 29.5116C112.971 25.9509 100.862 28.4079 91.381 35.6658C76.5103 47.046 65.6878 62.5758 49.417 72.4311C35.8333 80.664 28.7236 93.963 33.2905 112.761C37.8574 131.559 53.1142 142.51 69.8101 141.18C83.6863 140.061 98.1943 141.258 110.191 147.994C120.912 154.011 139.854 148.774 155.524 132.335C164.654 122.753 163.769 110.569 160.793 99.1851C158.952 92.1339 157.759 84.9423 156.336 77.8053Z" fill="white"/>
<path d="M172.15 165.157C172.15 166.373 139 167.364 98.1206 167.364C57.2408 167.364 24.0869 166.373 24.0869 165.157C24.0869 163.94 57.2369 162.949 98.1206 162.949C139.004 162.949 172.15 163.94 172.15 165.157Z" fill="#90CAF9"/>
<path opacity="0.3" d="M172.15 165.157C172.15 166.373 139 167.364 98.1206 167.364C57.2408 167.364 24.0869 166.373 24.0869 165.157C24.0869 163.94 57.2369 162.949 98.1206 162.949C139.004 162.949 172.15 163.94 172.15 165.157Z" fill="white"/>
<path d="M128.01 47.3867H67.7936C66.3397 47.3867 65.1611 48.5653 65.1611 50.0192V162.764C65.1611 164.218 66.3397 165.397 67.7936 165.397H128.01C129.464 165.397 130.642 164.218 130.642 162.764V50.0192C130.642 48.5653 129.464 47.3867 128.01 47.3867Z" fill="#263238" stroke="#263238" stroke-width="0.39" stroke-miterlimit="10"/>
<path d="M102.429 54.4368H94.278C94.1678 54.4368 94.0588 54.4151 93.9571 54.373C93.8553 54.3308 93.7629 54.2691 93.685 54.1912C93.6072 54.1133 93.5454 54.0209 93.5033 53.9192C93.4611 53.8174 93.4395 53.7084 93.4395 53.5983C93.4395 53.4884 93.4612 53.3795 93.5034 53.278C93.5455 53.1765 93.6074 53.0843 93.6853 53.0067C93.7632 52.9292 93.8557 52.8678 93.9574 52.8261C94.0591 52.7844 94.168 52.7632 94.278 52.7637H102.429C102.65 52.7637 102.863 52.8516 103.019 53.0081C103.176 53.1647 103.264 53.3769 103.264 53.5983C103.264 53.7082 103.243 53.8172 103.201 53.9189C103.159 54.0206 103.098 54.113 103.02 54.191C102.943 54.2689 102.851 54.3307 102.749 54.3729C102.648 54.4151 102.539 54.4368 102.429 54.4368Z" fill="#90CAF9"/>
<path d="M126.504 154.851H69.2988V54.5352H82.8591L84.384 55.7988C84.9156 56.2431 85.5866 56.4862 86.2794 56.4852H110.202C110.92 56.4812 111.613 56.2181 112.152 55.7442L113.529 54.5352H126.492L126.504 154.851Z" fill="white" stroke="#263238" stroke-width="0.366061" stroke-linecap="round" stroke-linejoin="round"/>
<path d="M92.1453 61.9313L91.3653 59.3105H71.8965V61.9313V149.525V152.15H124.082V61.9313H92.1453Z" fill="#90CAF9"/>
<path d="M122.245 66.6543H73.7285V149.264H122.245V66.6543Z" fill="white"/>
<path d="M99.7302 157.951C99.731 157.693 99.6552 157.441 99.5126 157.226C99.3699 157.012 99.1667 156.844 98.9288 156.745C98.6908 156.646 98.4288 156.619 98.1759 156.669C97.9229 156.719 97.6905 156.843 97.5079 157.025C97.3253 157.207 97.2009 157.439 97.1503 157.692C97.0997 157.944 97.1253 158.206 97.2238 158.445C97.3223 158.683 97.4892 158.887 97.7035 159.03C97.9178 159.173 98.1698 159.25 98.4276 159.25C98.7721 159.249 99.1022 159.112 99.3462 158.868C99.5901 158.625 99.7281 158.296 99.7302 157.951Z" fill="#90CAF9"/>
<path d="M94.3445 145.654C103.167 145.654 110.319 135.478 110.319 122.925C110.319 110.372 103.167 100.195 94.3445 100.195C85.5221 100.195 78.3701 110.372 78.3701 122.925C78.3701 135.478 85.5221 145.654 94.3445 145.654Z" fill="#90CAF9"/>
<path opacity="0.5" d="M94.3445 145.654C103.167 145.654 110.319 135.478 110.319 122.925C110.319 110.372 103.167 100.195 94.3445 100.195C85.5221 100.195 78.3701 110.372 78.3701 122.925C78.3701 135.478 85.5221 145.654 94.3445 145.654Z" fill="white"/>
<path d="M96.6104 97.5565C96.6104 97.5565 95.612 95.8873 94.6955 95.8054C93.779 95.7235 82.8668 102.572 81.1976 106.137C79.5284 109.701 77.9489 116.854 82.3676 123.737C86.6771 130.434 93.4319 130.211 96.9341 129.876C100.436 129.54 102.784 128.402 106.333 125.555C109.882 122.708 113.139 118.515 113.61 115.668C114.082 112.821 112.347 111.238 111.239 110.844C110.132 110.45 103.724 110.528 99.0557 105.774C94.3874 101.02 96.6104 97.5565 96.6104 97.5565Z" fill="#263238" stroke="#263238" stroke-width="0.39" stroke-linecap="round" stroke-linejoin="round"/>
<path d="M98.0265 95.3867C98.0265 95.3867 95.1951 96.4709 93.444 98.3858C91.6929 100.301 90.6126 103.304 90.5307 107.719C90.4488 112.133 91.8644 117.129 97.3595 119.298C102.855 121.466 107.773 119.797 109.356 118.295C110.939 116.794 112.866 112.551 112.866 112.551C112.866 112.551 104.122 114.891 99.9569 109.965C95.7917 105.039 98.0265 95.3867 98.0265 95.3867Z" fill="white" stroke="#263238" stroke-width="0.39" stroke-linecap="round" stroke-linejoin="round"/>
<path d="M146.963 98.4651C144.826 95.2593 139.725 94.3116 135.692 93.0051C131.66 91.6986 129.285 89.1051 130.353 82.6857C131.422 76.2663 136.983 65.8377 136.878 63.9384C136.773 62.0391 117.659 62.16 115.876 62.7684C114.094 63.3768 113.743 63.2403 112.082 65.3775C111.161 66.5317 110.328 67.7532 109.59 69.0318L111.649 64.7028H111.801C112.025 64.1338 112.342 63.6065 112.741 63.1428C114.553 61.0406 115.58 58.3749 115.646 55.6002C115.724 51.5169 112.819 51.9108 112.269 53.1666C111.719 54.4224 108.501 58.7436 107.558 59.9214C106.614 61.0992 104.652 64.3206 104.652 64.3206L102.472 71.8788C102.472 71.8788 101.996 74.133 99.2663 82.6779C96.5363 91.2228 97.7258 95.1618 97.7258 95.1618C97.7258 95.1618 97.0121 94.8069 95.3507 99.9081C93.6893 105.009 94.403 111.534 97.367 114.619C100.331 117.704 104.25 117.587 108.642 115.808C111.343 114.651 113.593 112.644 115.05 110.091C115.05 110.091 119.679 108.921 123.119 106.296C126.558 103.672 129.168 100.957 134.16 101.195C139.152 101.433 144.838 104.28 146.737 104.159C148.636 104.038 149.1 101.667 146.963 98.4651Z" fill="white"/>
<mask id="mask0_1682_20772" style="mask-type:luminance" maskUnits="userSpaceOnUse" x="94" y="52" width="55" height="66">
<path d="M146.963 98.4651C144.826 95.2593 139.725 94.3116 135.692 93.0051C131.66 91.6986 129.285 89.1051 130.353 82.6857C131.422 76.2663 136.983 65.8377 136.878 63.9384C136.773 62.0391 117.659 62.16 115.876 62.7684C114.094 63.3768 113.743 63.2403 112.082 65.3775C111.161 66.5317 110.328 67.7532 109.59 69.0318L111.649 64.7028H111.801C112.025 64.1338 112.342 63.6065 112.741 63.1428C114.553 61.0406 115.58 58.3749 115.646 55.6002C115.724 51.5169 112.819 51.9108 112.269 53.1666C111.719 54.4224 108.501 58.7436 107.558 59.9214C106.614 61.0992 104.652 64.3206 104.652 64.3206L102.472 71.8788C102.472 71.8788 101.996 74.133 99.2663 82.6779C96.5363 91.2228 97.7258 95.1618 97.7258 95.1618C97.7258 95.1618 97.0121 94.8069 95.3507 99.9081C93.6893 105.009 94.403 111.534 97.367 114.619C100.331 117.704 104.25 117.587 108.642 115.808C111.343 114.651 113.593 112.644 115.05 110.091C115.05 110.091 119.679 108.921 123.119 106.296C126.558 103.672 129.168 100.957 134.16 101.195C139.152 101.433 144.838 104.28 146.737 104.159C148.636 104.038 149.1 101.667 146.963 98.4651Z" fill="white"/>
</mask>
<g mask="url(#mask0_1682_20772)">
<path d="M116.361 87.3598C103.159 89.3293 99.0098 92.4805 100.328 96.8173C100.602 97.6773 101.046 98.4732 101.635 99.1573C101.635 99.2392 101.635 99.3289 101.658 99.4225C101.658 99.4225 101.892 99.5629 102.243 99.8125C102.705 100.259 103.205 100.665 103.737 101.025C104.602 101.848 105.379 102.878 105.219 103.833C104.879 105.869 100.149 109.426 97.7579 109.598C95.3672 109.769 94.5365 107.394 94.1972 109.937C93.8579 112.48 99.1151 118.751 104.201 118.072C109.286 117.394 113.526 110.272 113.526 110.272C113.526 110.272 112.847 109.102 116.256 105.526C118.494 103.186 121.696 102.152 124.149 101.193C126.465 100.512 128.723 99.6459 130.9 98.6035C136.933 95.6473 144.102 97.6207 144.102 97.6207C144.102 97.6207 129.562 85.3669 116.361 87.3598Z" fill="#90CAF9"/>
<path opacity="0.5" d="M116.361 87.3598C103.159 89.3293 99.0098 92.4805 100.328 96.8173C100.602 97.6773 101.046 98.4732 101.635 99.1573C101.635 99.2392 101.635 99.3289 101.658 99.4225C101.658 99.4225 101.892 99.5629 102.243 99.8125C102.705 100.259 103.205 100.665 103.737 101.025C104.602 101.848 105.379 102.878 105.219 103.833C104.879 105.869 100.149 109.426 97.7579 109.598C95.3672 109.769 94.5365 107.394 94.1972 109.937C93.8579 112.48 99.1151 118.751 104.201 118.072C109.286 117.394 113.526 110.272 113.526 110.272C113.526 110.272 112.847 109.102 116.256 105.526C118.494 103.186 121.696 102.152 124.149 101.193C126.465 100.512 128.723 99.6459 130.9 98.6035C136.933 95.6473 144.102 97.6207 144.102 97.6207C144.102 97.6207 129.562 85.3669 116.361 87.3598Z" fill="white"/>
</g>
<path d="M146.963 98.4651C144.826 95.2593 139.725 94.3116 135.692 93.0051C131.66 91.6986 129.285 89.1051 130.353 82.6857C131.422 76.2663 136.983 65.8377 136.878 63.9384C136.773 62.0391 117.659 62.16 115.876 62.7684C114.094 63.3768 113.743 63.2403 112.082 65.3775C111.161 66.5317 110.328 67.7532 109.59 69.0318L111.649 64.7028H111.801C112.025 64.1338 112.342 63.6065 112.741 63.1428C114.553 61.0406 115.58 58.3749 115.646 55.6002C115.724 51.5169 112.819 51.9108 112.269 53.1666C111.719 54.4224 108.501 58.7436 107.558 59.9214C106.614 61.0992 104.652 64.3206 104.652 64.3206L102.472 71.8788C102.472 71.8788 101.996 74.133 99.2663 82.6779C96.5363 91.2228 97.7258 95.1618 97.7258 95.1618C97.7258 95.1618 97.0121 94.8069 95.3507 99.9081C93.6893 105.009 94.403 111.534 97.367 114.619C100.331 117.704 104.25 117.587 108.642 115.808C111.343 114.651 113.593 112.644 115.05 110.091C115.05 110.091 119.679 108.921 123.119 106.296C126.558 103.672 129.168 100.957 134.16 101.195C139.152 101.433 144.838 104.28 146.737 104.159C148.636 104.038 149.1 101.667 146.963 98.4651Z" stroke="#263238" stroke-width="0.39" stroke-linecap="round" stroke-linejoin="round"/>
<path d="M147.029 104.132C147.029 104.132 147.279 103.134 144.448 101.792C141.616 100.45 140.45 101.375 140.45 102.042C140.45 102.708 146.593 104.132 147.029 104.132Z" fill="white" stroke="#263238" stroke-width="0.39" stroke-linecap="round" stroke-linejoin="round"/>
<path d="M120.201 58.435L113.057 63.934H122.639C122.639 63.934 122.639 57.1792 120.201 58.435Z" fill="white" stroke="#263238" stroke-width="0.39" stroke-linecap="round" stroke-linejoin="round"/>
<path d="M111.239 98.0974C112.254 96.9505 113.519 96.0524 114.936 95.4727" stroke="#263238" stroke-width="0.39" stroke-linecap="round" stroke-linejoin="round"/>
<path d="M109.94 100.231C110.05 99.914 110.192 99.6094 110.366 99.3223" stroke="#263238" stroke-width="0.39" stroke-linecap="round" stroke-linejoin="round"/>
<path d="M107.093 107.641C106.711 107.305 106.354 106.941 106.024 106.553" stroke="#263238" stroke-width="0.39" stroke-linecap="round" stroke-linejoin="round"/>
<path d="M115.049 110.092C112.846 110.342 110.62 109.886 108.692 108.789" stroke="#263238" stroke-width="0.39" stroke-linecap="round" stroke-linejoin="round"/>
<path d="M141.765 63.4609H105.76C100.787 63.4609 96.7588 67.3102 96.7588 72.0409V89.0059C96.7588 93.1321 99.8047 96.5797 103.868 97.4104L101.969 103.03L110.76 97.6171H141.765C146.733 97.6171 150.766 93.7678 150.766 89.0371V72.0721C150.766 67.3102 146.733 63.4609 141.765 63.4609Z" fill="#90CAF9" stroke="#263238" stroke-width="0.78" stroke-miterlimit="10"/>
<path d="M102.62 74.8848H143.094" stroke="#263238" stroke-width="0.804995" stroke-miterlimit="10" stroke-linecap="round"/>
<path d="M102.62 79.0547H143.094" stroke="#263238" stroke-width="0.804995" stroke-miterlimit="10" stroke-linecap="round"/>
<path d="M102.62 83.2188H143.094" stroke="#263238" stroke-width="0.804995" stroke-miterlimit="10" stroke-linecap="round"/>
<path d="M102.62 87.3848H143.094" stroke="#263238" stroke-width="0.804995" stroke-miterlimit="10" stroke-linecap="round"/>
<path d="M150.438 78.3323C153.21 78.3323 155.458 76.1863 155.458 73.5392C155.458 70.892 153.21 68.7461 150.438 68.7461C147.666 68.7461 145.419 70.892 145.419 73.5392C145.419 76.1863 147.666 78.3323 150.438 78.3323Z" fill="#263238"/>
<path d="M150.049 76.9248C149.884 76.5953 149.81 76.2277 149.834 75.8601V71.9601L148.953 72.4515C148.858 72.5063 148.75 72.5359 148.641 72.5373C148.559 72.5381 148.477 72.5215 148.402 72.4886C148.327 72.4556 148.259 72.4071 148.204 72.3462C148.089 72.2269 148.026 72.0671 148.028 71.9016C148.026 71.7891 148.059 71.6786 148.122 71.5857C148.213 71.4768 148.321 71.3833 148.442 71.3088L150.15 70.4352C150.341 70.2983 150.564 70.2136 150.797 70.1895C151.379 70.1895 151.667 70.6263 151.667 71.4999V75.9966C151.667 76.8507 151.363 77.2758 150.751 77.2758C150.613 77.2879 150.474 77.2616 150.35 77.1996C150.226 77.1376 150.122 77.0425 150.049 76.9248Z" fill="white"/>
<path d="M131.18 60.9506C131.18 60.9506 131.34 64.0901 134.168 65.5838C136.995 67.0775 140.606 66.7538 140.684 64.8779C140.762 63.002 138.563 61.0286 137.073 58.5131C135.583 55.9976 132.28 57.4172 130.868 59.1449" fill="white"/>
<path d="M131.18 60.9506C131.18 60.9506 131.34 64.0901 134.168 65.5838C136.995 67.0775 140.606 66.7538 140.684 64.8779C140.762 63.002 138.563 61.0286 137.073 58.5131C135.583 55.9976 132.28 57.4172 130.868 59.1449" stroke="#263238" stroke-width="0.39" stroke-linecap="round" stroke-linejoin="round"/>
<path d="M136.051 63.4625C135.813 64.7183 136.679 65.4125 137.463 65.8025C138.247 66.1925 139.803 65.9624 140.684 64.8626C140.723 63.9422 140.22 63.0062 139.514 61.9961C138.531 62.1209 136.234 62.4797 136.051 63.4625Z" fill="white" stroke="#263238" stroke-width="0.39" stroke-linecap="round" stroke-linejoin="round"/>
<path d="M125.291 60.9506C125.291 60.9506 125.447 64.0901 128.274 65.5838C131.102 67.0775 134.717 66.7538 134.795 64.8779C134.873 63.002 132.673 61.0286 131.179 58.5131C129.686 55.9976 126.39 57.4172 124.975 59.1449" fill="white"/>
<path d="M125.291 60.9506C125.291 60.9506 125.447 64.0901 128.274 65.5838C131.102 67.0775 134.717 66.7538 134.795 64.8779C134.873 63.002 132.673 61.0286 131.179 58.5131C129.686 55.9976 126.39 57.4172 124.975 59.1449" stroke="#263238" stroke-width="0.39" stroke-linecap="round" stroke-linejoin="round"/>
<path d="M130.162 63.4625C129.924 64.7183 130.79 65.4125 131.574 65.8025C132.358 66.1925 133.914 65.9624 134.795 64.8626C134.83 63.9422 134.327 63.0062 133.625 61.9961C132.643 62.1209 130.345 62.4797 130.162 63.4625Z" fill="white" stroke="#263238" stroke-width="0.39" stroke-linecap="round" stroke-linejoin="round"/>
<path d="M119.811 60.9506C119.811 60.9506 119.967 64.0901 122.795 65.5838C125.622 67.0775 129.233 66.7538 129.311 64.8779C129.389 63.002 127.194 61.0286 125.7 58.5131C124.206 55.9976 120.907 57.4172 119.495 59.1449" fill="white"/>
<path d="M119.811 60.9506C119.811 60.9506 119.967 64.0901 122.795 65.5838C125.622 67.0775 129.233 66.7538 129.311 64.8779C129.389 63.002 127.194 61.0286 125.7 58.5131C124.206 55.9976 120.907 57.4172 119.495 59.1449" stroke="#263238" stroke-width="0.39" stroke-linecap="round" stroke-linejoin="round"/>
<path d="M124.679 63.4625C124.445 64.7183 125.307 65.4125 126.094 65.8025C126.882 66.1925 128.434 65.9624 129.312 64.8626C129.351 63.9422 128.848 63.0062 128.142 61.9961C127.159 62.1209 124.862 62.4797 124.679 63.4625Z" fill="white" stroke="#263238" stroke-width="0.39" stroke-linecap="round" stroke-linejoin="round"/>
<path d="M97.7256 95.1621C97.7256 95.1621 97.944 99.9903 100.608 103.239" stroke="#263238" stroke-width="0.39" stroke-linecap="round" stroke-linejoin="round"/>
<path d="M89.9729 115.312C89.9729 116.294 89.3177 117.09 88.5104 117.09C87.7031 117.09 87.0479 116.31 87.0479 115.312C87.0479 114.313 87.7031 113.533 88.5104 113.533C89.3177 113.533 89.9729 114.329 89.9729 115.312Z" fill="white"/>
<path d="M86.3342 117.526C86.3342 118.509 85.679 119.305 84.8717 119.305C84.0644 119.305 83.4092 118.525 83.4092 117.526C83.4092 116.528 84.0644 115.744 84.8717 115.744C85.679 115.744 86.3342 116.544 86.3342 117.526Z" stroke="#263238" stroke-width="0.39" stroke-linecap="round" stroke-linejoin="round"/>
</svg>
