<svg width="24" height="24" viewBox="0 0 24 24" fill="none" xmlns="http://www.w3.org/2000/svg">
<path d="M15.5532 11.9157C15.6717 11.7971 15.7383 11.6364 15.7383 11.4688C15.7383 11.3011 15.6717 11.1404 15.5532 11.0218C15.4346 10.9033 15.2739 10.8367 15.1063 10.8367C14.9386 10.8367 14.7779 10.9033 14.6593 11.0218L10.6875 14.9949L9.24068 13.5468C9.18199 13.4881 9.11231 13.4416 9.03563 13.4098C8.95894 13.3781 8.87675 13.3617 8.79375 13.3617C8.71075 13.3617 8.62856 13.3781 8.55188 13.4098C8.47519 13.4416 8.40552 13.4881 8.34683 13.5468C8.28814 13.6055 8.24158 13.6752 8.20982 13.7519C8.17805 13.8286 8.1617 13.9107 8.1617 13.9938C8.1617 14.0768 8.17805 14.1589 8.20982 14.2356C8.24158 14.3123 8.28814 14.382 8.34683 14.4407L10.2406 16.3344C10.2992 16.3932 10.3689 16.4399 10.4456 16.4717C10.5223 16.5035 10.6045 16.5199 10.6875 16.5199C10.7705 16.5199 10.8527 16.5035 10.9294 16.4717C11.0061 16.4399 11.0758 16.3932 11.1344 16.3344L15.5532 11.9157ZM10.0563 2C9.66446 1.99979 9.28226 2.12111 8.96231 2.34722C8.64235 2.57334 8.40041 2.89312 8.26981 3.2625H6.26875C5.7665 3.2625 5.28481 3.46202 4.92967 3.81717C4.57452 4.17231 4.375 4.654 4.375 5.15625V20.3063C4.375 20.8085 4.57452 21.2902 4.92967 21.6453C5.28481 22.0005 5.7665 22.2 6.26875 22.2H17.6313C18.1335 22.2 18.6152 22.0005 18.9703 21.6453C19.3255 21.2902 19.525 20.8085 19.525 20.3063V5.15625C19.525 4.654 19.3255 4.17231 18.9703 3.81717C18.6152 3.46202 18.1335 3.2625 17.6313 3.2625H15.6302C15.4996 2.89312 15.2576 2.57334 14.9377 2.34722C14.6177 2.12111 14.2355 1.99979 13.8438 2H10.0563ZM9.425 3.89375C9.425 3.72633 9.49151 3.56577 9.60989 3.44739C9.72827 3.32901 9.88883 3.2625 10.0563 3.2625H13.8438C14.0112 3.2625 14.1717 3.32901 14.2901 3.44739C14.4085 3.56577 14.475 3.72633 14.475 3.89375C14.475 4.06117 14.4085 4.22173 14.2901 4.34011C14.1717 4.45849 14.0112 4.525 13.8438 4.525H10.0563C9.88883 4.525 9.72827 4.45849 9.60989 4.34011C9.49151 4.22173 9.425 4.06117 9.425 3.89375ZM6.26875 4.525H8.26981C8.40041 4.89438 8.64235 5.21416 8.96231 5.44028C9.28226 5.66639 9.66446 5.78771 10.0563 5.7875H13.8438C14.2355 5.78771 14.6177 5.66639 14.9377 5.44028C15.2576 5.21416 15.4996 4.89438 15.6302 4.525H17.6313C17.7987 4.525 17.9592 4.59151 18.0776 4.70989C18.196 4.82827 18.2625 4.98883 18.2625 5.15625V20.3063C18.2625 20.4737 18.196 20.6342 18.0776 20.7526C17.9592 20.871 17.7987 20.9375 17.6313 20.9375H6.26875C6.10133 20.9375 5.94077 20.871 5.82239 20.7526C5.70401 20.6342 5.6375 20.4737 5.6375 20.3063V5.15625C5.6375 4.98883 5.70401 4.82827 5.82239 4.70989C5.94077 4.59151 6.10133 4.525 6.26875 4.525Z" fill="black"/>
</svg>
