<svg width="16" height="21" viewBox="0 0 16 21" fill="none" xmlns="http://www.w3.org/2000/svg">
<path d="M11.5532 9.91568C11.6717 9.79714 11.7383 9.63638 11.7383 9.46875C11.7383 9.30112 11.6717 9.14036 11.5532 9.02182C11.4346 8.90329 11.2739 8.8367 11.1063 8.8367C10.9386 8.8367 10.7779 8.90329 10.6593 9.02182L6.6875 12.9949L5.24068 11.5468C5.18199 11.4881 5.11231 11.4416 5.03563 11.4098C4.95894 11.3781 4.87675 11.3617 4.79375 11.3617C4.71075 11.3617 4.62856 11.3781 4.55188 11.4098C4.47519 11.4416 4.40552 11.4881 4.34683 11.5468C4.28814 11.6055 4.24158 11.6752 4.20982 11.7519C4.17805 11.8286 4.1617 11.9107 4.1617 11.9938C4.1617 12.0768 4.17805 12.1589 4.20982 12.2356C4.24158 12.3123 4.28814 12.382 4.34683 12.4407L6.24058 14.3344C6.29921 14.3932 6.36887 14.4399 6.44557 14.4717C6.52226 14.5035 6.60447 14.5199 6.6875 14.5199C6.77053 14.5199 6.85275 14.5035 6.92944 14.4717C7.00613 14.4399 7.07579 14.3932 7.13443 14.3344L11.5532 9.91568ZM6.05625 2.60374e-07C5.66446 -0.000205131 5.28226 0.121109 4.96231 0.347223C4.64235 0.573337 4.40041 0.89312 4.26981 1.2625H2.26875C1.7665 1.2625 1.28481 1.46202 0.929666 1.81717C0.574519 2.17231 0.375 2.654 0.375 3.15625V18.3063C0.375 18.8085 0.574519 19.2902 0.929666 19.6453C1.28481 20.0005 1.7665 20.2 2.26875 20.2H13.6313C14.1335 20.2 14.6152 20.0005 14.9703 19.6453C15.3255 19.2902 15.525 18.8085 15.525 18.3063V3.15625C15.525 2.654 15.3255 2.17231 14.9703 1.81717C14.6152 1.46202 14.1335 1.2625 13.6313 1.2625H11.6302C11.4996 0.89312 11.2576 0.573337 10.9377 0.347223C10.6177 0.121109 10.2355 -0.000205131 9.84375 2.60374e-07H6.05625ZM5.425 1.89375C5.425 1.72633 5.49151 1.56577 5.60989 1.44739C5.72827 1.32901 5.88883 1.2625 6.05625 1.2625H9.84375C10.0112 1.2625 10.1717 1.32901 10.2901 1.44739C10.4085 1.56577 10.475 1.72633 10.475 1.89375C10.475 2.06117 10.4085 2.22173 10.2901 2.34011C10.1717 2.45849 10.0112 2.525 9.84375 2.525H6.05625C5.88883 2.525 5.72827 2.45849 5.60989 2.34011C5.49151 2.22173 5.425 2.06117 5.425 1.89375ZM2.26875 2.525H4.26981C4.40041 2.89438 4.64235 3.21416 4.96231 3.44028C5.28226 3.66639 5.66446 3.78771 6.05625 3.7875H9.84375C10.2355 3.78771 10.6177 3.66639 10.9377 3.44028C11.2576 3.21416 11.4996 2.89438 11.6302 2.525H13.6313C13.7987 2.525 13.9592 2.59151 14.0776 2.70989C14.196 2.82827 14.2625 2.98883 14.2625 3.15625V18.3063C14.2625 18.4737 14.196 18.6342 14.0776 18.7526C13.9592 18.871 13.7987 18.9375 13.6313 18.9375H2.26875C2.10133 18.9375 1.94077 18.871 1.82239 18.7526C1.70401 18.6342 1.6375 18.4737 1.6375 18.3063V3.15625C1.6375 2.98883 1.70401 2.82827 1.82239 2.70989C1.94077 2.59151 2.10133 2.525 2.26875 2.525Z" fill="black"/>
</svg>
