<svg xmlns="http://www.w3.org/2000/svg"  viewBox="0 0 50 50" width="50px" height="50px"><path d="M 9 4 C 6.2504839 4 4 6.2504839 4 9 L 4 41 C 4 43.749516 6.2504839 46 9 46 L 41 46 C 43.749516 46 46 43.749516 46 41 L 46 9 C 46 6.2504839 43.749516 4 41 4 L 9 4 z M 18 14 L 28 14 C 33.741 14 38.366563 18.861594 37.976562 24.683594 C 37.621563 29.993594 32.967484 34 27.646484 34 L 22 34 L 22 32 C 22 30.895 22.895 30 24 30 L 27.791016 30 C 30.840016 30 33.561219 27.814062 33.949219 24.789062 C 34.419219 21.130062 31.568 18 28 18 L 14 18 C 14 15.791 15.791 14 18 14 z M 18 22 L 28 22 C 29.105 22 30 22.895 30 24 C 30 25.105 29.105 26 28 26 L 20 26 C 18.895 26 18 26.895 18 28 L 18 38 C 15.791 38 14 36.209 14 34 L 14 26 C 14 23.791 15.791 22 18 22 z"/></svg>