<svg width="50" height="45" viewBox="0 0 50 45" fill="none" xmlns="http://www.w3.org/2000/svg">
<rect x="0.392578" y="0.660156" width="48.7143" height="43.7874" rx="14" fill="#6D5DD3" fill-opacity="0.0968094"/>
<path fill-rule="evenodd" clip-rule="evenodd" d="M25.0179 12.0713C27.1807 10.1273 30.6873 10.1273 32.8501 12.0713C34.9473 13.9565 35.0109 16.9774 33.0403 18.9317L32.8497 19.1117L22.6644 28.257C21.3668 29.4233 19.263 29.4233 17.9654 28.257C16.7197 27.1373 16.6699 25.3497 17.8163 24.1762L17.9659 24.0328L27.3655 15.5938C27.7981 15.2054 28.4991 15.2058 28.9313 15.5946C29.3301 15.9536 29.3605 16.5181 29.0225 16.9083L28.9303 17.002L19.5311 25.4406C19.0983 25.8297 19.0983 26.4605 19.5311 26.8496C19.9307 27.2087 20.5594 27.2363 20.9945 26.9322L21.0991 26.8492L31.2843 17.704C32.5824 16.5372 32.5824 14.6455 31.2843 13.4787C30.0382 12.3586 28.0488 12.3138 26.7432 13.3443L26.5836 13.4787L16.409 22.6243C14.2457 24.5688 14.2457 27.7214 16.409 29.6659C18.5067 31.5515 21.8683 31.6086 24.0426 29.8373L24.2429 29.6659L34.4176 20.5203C34.8499 20.1317 35.5509 20.1317 35.9833 20.5203C36.3824 20.879 36.4131 21.4435 36.0754 21.8339L35.9833 21.9277L25.8086 31.0733C22.7806 33.7951 17.8713 33.7951 14.8433 31.0733C11.8841 28.4134 11.8168 24.1384 14.6415 21.4051L14.8433 21.2169L25.0179 12.0713Z" fill="#6D5DD3"/>
</svg>
