<svg width="12" height="6" viewBox="0 0 12 6" fill="none" xmlns="http://www.w3.org/2000/svg">
<path d="M11.8116 5.82986C11.8713 5.776 11.9187 5.71203 11.951 5.64162C11.9834 5.57121 12 5.49573 12 5.41951C12 5.34328 11.9834 5.26781 11.951 5.1974C11.9187 5.12698 11.8713 5.06302 11.8116 5.00916L6.45421 0.170143C6.39458 0.116206 6.32377 0.0734162 6.24581 0.0442214C6.16786 0.0150266 6.08429 0 5.9999 0C5.91551 0 5.83195 0.0150266 5.754 0.0442214C5.67604 0.0734162 5.60523 0.116206 5.5456 0.170143L0.18818 5.00916C0.128519 5.06305 0.0811939 5.12702 0.0489063 5.19743C0.0166178 5.26784 0 5.3433 0 5.41951C0 5.49572 0.0166178 5.57118 0.0489063 5.64159C0.0811939 5.712 0.128519 5.77597 0.18818 5.82986C0.24784 5.88374 0.318667 5.92649 0.396618 5.95565C0.474568 5.98482 0.558116 5.99983 0.642489 5.99983C0.726862 5.99983 0.81041 5.98482 0.88836 5.95565C0.966311 5.92649 1.03714 5.88374 1.0968 5.82986L5.9999 1.40196L10.903 5.82986C10.9626 5.88379 11.0335 5.92658 11.1114 5.95578C11.1894 5.98497 11.2729 6 11.3573 6C11.4417 6 11.5253 5.98497 11.6032 5.95578C11.6812 5.92658 11.752 5.88379 11.8116 5.82986Z" fill="black"/>
</svg>
