<svg width="34" height="34" viewBox="0 0 34 34" fill="none" xmlns="http://www.w3.org/2000/svg">
<rect width="34" height="34" rx="8" fill="#6D5DD3" fill-opacity="0.0968094"/>
<path fill-rule="evenodd" clip-rule="evenodd" d="M17.1854 8.8587C18.6949 7.34918 21.1424 7.34918 22.6519 8.8587C24.1156 10.3225 24.16 12.6682 22.7847 14.1856L22.6516 14.3254L15.5428 21.4265C14.6371 22.3321 13.1688 22.3321 12.2632 21.4265C11.3937 20.5571 11.359 19.1691 12.1591 18.2579L12.2635 18.1466L18.8239 11.5938C19.1259 11.2922 19.6151 11.2925 19.9167 11.5945C20.1951 11.8732 20.2163 12.3115 19.9804 12.6145L19.9161 12.6873L13.356 19.2397C13.0539 19.5418 13.0539 20.0316 13.356 20.3337C13.6348 20.6126 14.0736 20.634 14.3773 20.3978L14.4503 20.3334L21.5591 13.2323C22.465 12.3264 22.465 10.8575 21.5591 9.9515C20.6893 9.08176 19.3008 9.04697 18.3896 9.84713L18.2782 9.9515L11.1769 17.0529C9.66702 18.5627 9.66702 21.0107 11.1769 22.5205C12.641 23.9846 14.9872 24.029 16.5047 22.6536L16.6445 22.5205L23.7459 15.4192C24.0477 15.1174 24.5369 15.1174 24.8387 15.4192C25.1172 15.6977 25.1387 16.136 24.903 16.4392L24.8387 16.512L17.7373 23.6133C15.6239 25.7267 12.1975 25.7267 10.0841 23.6133C8.01871 21.548 7.97177 18.2285 9.94324 16.1062L10.0841 15.9601L17.1854 8.8587Z" fill="#6D5DD3"/>
</svg>
