<svg width="12" height="6" viewBox="0 0 12 6" fill="none" xmlns="http://www.w3.org/2000/svg">
<path d="M0.18837 0.170143C0.128655 0.224003 0.0812819 0.287968 0.0489595 0.358379C0.0166371 0.428791 0 0.504267 0 0.580492C0 0.656716 0.0166371 0.732192 0.0489595 0.802604C0.0812819 0.873015 0.128655 0.93698 0.18837 0.99084L5.54579 5.82986C5.60542 5.88379 5.67623 5.92658 5.75419 5.95578C5.83214 5.98497 5.91571 6 6.0001 6C6.08449 6 6.16805 5.98497 6.246 5.95578C6.32396 5.92658 6.39477 5.88379 6.4544 5.82986L11.8118 0.99084C11.8715 0.936952 11.9188 0.872978 11.9511 0.80257C11.9834 0.732163 12 0.6567 12 0.580492C12 0.504283 11.9834 0.42882 11.9511 0.358413C11.9188 0.288005 11.8715 0.224031 11.8118 0.170143C11.7522 0.116255 11.6813 0.0735092 11.6034 0.0443453C11.5254 0.0151815 11.4419 0.000170563 11.3575 0.000170565C11.2731 0.000170566 11.1896 0.0151815 11.1116 0.0443453C11.0337 0.0735092 10.9629 0.116255 10.9032 0.170143L6.0001 4.59804L1.09699 0.170143C1.03736 0.116206 0.96654 0.0734161 0.888586 0.0442213C0.810631 0.0150265 0.727069 0 0.642679 0C0.55829 0 0.474728 0.0150265 0.396773 0.0442213C0.318818 0.0734161 0.248001 0.116206 0.18837 0.170143Z" fill="#3485BB"/>
</svg>
