<svg width="30" height="39" viewBox="0 0 30 39" fill="none" xmlns="http://www.w3.org/2000/svg">
<path d="M22.1788 3.82422H26.4146C27.1635 3.82422 27.8818 4.12173 28.4114 4.6513C28.9409 5.18088 29.2385 5.89913 29.2385 6.64807V34.8865C29.2385 35.6355 28.9409 36.3537 28.4114 36.8833C27.8818 37.4129 27.1635 37.7104 26.4146 37.7104H3.82385C3.07492 37.7104 2.35666 37.4129 1.82709 36.8833C1.29751 36.3537 1 35.6355 1 34.8865V6.64807C1 5.89913 1.29751 5.18088 1.82709 4.6513C2.35666 4.12173 3.07492 3.82422 3.82385 3.82422H8.05962" stroke="black" stroke-width="1.5" stroke-linecap="round" stroke-linejoin="round"/>
<path d="M19.354 1H10.8824C9.32287 1 8.05859 2.26428 8.05859 3.82385V5.23577C8.05859 6.79534 9.32287 8.05962 10.8824 8.05962H19.354C20.9135 8.05962 22.1778 6.79534 22.1778 5.23577V3.82385C22.1778 2.26428 20.9135 1 19.354 1Z" stroke="black" stroke-width="1.5" stroke-linecap="round" stroke-linejoin="round"/>
<path d="M8.05859 15.1191H22.1778M8.05859 22.1788H22.1778M8.05859 29.2384H22.1778" stroke="black" stroke-width="1.5" stroke-linecap="round" stroke-linejoin="round"/>
</svg>
