<svg width="41" height="37" viewBox="0 0 41 37" fill="none" xmlns="http://www.w3.org/2000/svg">
<path d="M20.3524 10.7118C25.7082 10.7118 29.993 14.9965 29.993 20.3524C29.993 25.7082 25.7082 29.9929 20.3524 29.9929C14.9965 29.9929 10.7118 25.7082 10.7118 20.3524C10.7118 14.9965 14.9965 10.7118 20.3524 10.7118ZM20.3524 12.8541C18.3637 12.8541 16.4565 13.6441 15.0503 15.0503C13.6441 16.4565 12.8541 18.3637 12.8541 20.3524C12.8541 22.341 13.6441 24.2482 15.0503 25.6544C16.4565 27.0606 18.3637 27.8506 20.3524 27.8506C22.341 27.8506 24.2482 27.0606 25.6544 25.6544C27.0606 24.2482 27.8506 22.341 27.8506 20.3524C27.8506 18.3637 27.0606 16.4565 25.6544 15.0503C24.2482 13.6441 22.341 12.8541 20.3524 12.8541ZM6.42706 4.28471H10.7118L14.9965 0H25.7082L29.993 4.28471H34.2777C35.9822 4.28471 37.617 4.96184 38.8223 6.16715C40.0276 7.37246 40.7047 9.0072 40.7047 10.7118V29.9929C40.7047 31.6975 40.0276 33.3322 38.8223 34.5376C37.617 35.7429 35.9822 36.42 34.2777 36.42H6.42706C4.7225 36.42 3.08775 35.7429 1.88244 34.5376C0.677135 33.3322 0 31.6975 0 29.9929V10.7118C0 9.0072 0.677135 7.37246 1.88244 6.16715C3.08775 4.96184 4.7225 4.28471 6.42706 4.28471ZM15.8748 2.14235L11.5901 6.42706H6.42706C5.29069 6.42706 4.20085 6.87848 3.39732 7.68202C2.59378 8.48556 2.14235 9.57539 2.14235 10.7118V29.9929C2.14235 31.1293 2.59378 32.2191 3.39732 33.0227C4.20085 33.8262 5.29069 34.2776 6.42706 34.2776H34.2777C35.414 34.2776 36.5039 33.8262 37.3074 33.0227C38.1109 32.2191 38.5624 31.1293 38.5624 29.9929V10.7118C38.5624 9.57539 38.1109 8.48556 37.3074 7.68202C36.5039 6.87848 35.414 6.42706 34.2777 6.42706H29.1146L24.8299 2.14235H15.8748Z" fill="black"/>
</svg>
