<svg width="15" height="21" viewBox="0 0 15 21" fill="none" xmlns="http://www.w3.org/2000/svg">
<path d="M7.50028 6.39062C6.73778 6.39062 6.00651 6.69353 5.46735 7.23269C4.92818 7.77186 4.62528 8.50313 4.62528 9.26562C4.62528 10.0281 4.92818 10.7594 5.46735 11.2986C6.00651 11.8377 6.73778 12.1406 7.50028 12.1406C8.26278 12.1406 8.99405 11.8377 9.53321 11.2986C10.0724 10.7594 10.3753 10.0281 10.3753 9.26562C10.3753 8.50313 10.0724 7.77186 9.53321 7.23269C8.99405 6.69353 8.26278 6.39062 7.50028 6.39062ZM4.78956 12.9621C4.08314 12.9621 3.31428 13.4566 3.29456 14.3355C3.27978 14.9507 3.38985 15.8576 4.02892 16.6158C4.68278 17.392 5.78678 17.8906 7.50028 17.8906C9.21378 17.8906 10.3178 17.392 10.9716 16.6158C11.6107 15.8576 11.7208 14.9507 11.7068 14.3355C11.6863 13.4566 10.9174 12.9621 10.211 12.9621H4.78956ZM11.5228 2.28348H12.6342C13.2333 2.28348 13.8079 2.52148 14.2315 2.94511C14.6551 3.36874 14.8931 3.94331 14.8931 4.54241V18.096C14.8931 18.6951 14.6551 19.2697 14.2315 19.6933C13.8079 20.1169 13.2333 20.3549 12.6342 20.3549H2.36635C1.76725 20.3549 1.19268 20.1169 0.769047 19.6933C0.345415 19.2697 0.107422 18.6951 0.107422 18.096V4.54241C0.107422 3.94331 0.345415 3.36874 0.769047 2.94511C1.19268 2.52148 1.76725 2.28348 2.36635 2.28348H3.47856C3.61279 1.81047 3.89764 1.39414 4.28988 1.09766C4.68213 0.801174 5.16037 0.640716 5.65206 0.640625H9.34849C9.84022 0.640581 10.3185 0.800987 10.7108 1.09749C11.1031 1.39399 11.3887 1.8104 11.5228 2.28348ZM3.47856 3.51562H2.36635C1.79956 3.51562 1.33956 3.97562 1.33956 4.54241V18.096C1.33956 18.6628 1.79956 19.1228 2.36635 19.1228H12.6342C13.201 19.1228 13.661 18.6628 13.661 18.096V4.54241C13.661 3.97562 13.201 3.51562 12.6342 3.51562H11.522C11.3878 3.98864 11.1029 4.40497 10.7107 4.70145C10.3184 4.99793 9.84018 5.15839 9.34849 5.15848H5.65206C5.16037 5.15839 4.68213 4.99793 4.28988 4.70145C3.89764 4.40497 3.61279 3.98864 3.47856 3.51562ZM4.62528 2.89955C4.62528 3.46634 5.08528 3.92634 5.65206 3.92634H9.34849C9.62081 3.92634 9.88198 3.81816 10.0745 3.6256C10.2671 3.43304 10.3753 3.17187 10.3753 2.89955C10.3753 2.62723 10.2671 2.36607 10.0745 2.17351C9.88198 1.98095 9.62081 1.87277 9.34849 1.87277H5.65206C5.08528 1.87277 4.62528 2.33277 4.62528 2.89955Z" fill="url(#paint0_linear_1340_34234)"/>
<defs>
<linearGradient id="paint0_linear_1340_34234" x1="1.95564" y1="0.640625" x2="17.3574" y2="16.0424" gradientUnits="userSpaceOnUse">
<stop offset="0.4375" stop-color="#F6B801"/>
<stop offset="1" stop-color="#FF8024"/>
</linearGradient>
</defs>
</svg>
