<svg width="21" height="21" viewBox="0 0 21 21" fill="none" xmlns="http://www.w3.org/2000/svg">
<path d="M4.44464 5.79581C3.29871 7.27084 2.73068 9.11346 2.84721 10.9777C2.96375 12.8419 3.75684 14.5994 5.07755 15.9202C6.39826 17.2411 8.15573 18.0343 10.0199 18.151C11.8841 18.2677 13.7268 17.6999 15.2019 16.5541L4.44464 5.79581ZM5.79972 4.44073L16.558 15.199C17.7046 13.7239 18.2732 11.8809 18.1569 10.0163C18.0406 8.15157 17.2474 6.39352 15.9263 5.07243C14.6052 3.75133 12.8471 2.9581 10.9824 2.84178C9.11775 2.72546 7.27476 3.29405 5.79972 4.44073ZM0.917969 10.4974C0.917969 5.20452 5.20843 0.914062 10.5013 0.914062C15.7942 0.914062 20.0846 5.20452 20.0846 10.4974C20.0846 15.7903 15.7942 20.0807 10.5013 20.0807C5.20843 20.0807 0.917969 15.7903 0.917969 10.4974Z" fill="url(#paint0_linear_1340_34240)"/>
<defs>
<linearGradient id="paint0_linear_1340_34240" x1="3.3138" y1="0.914063" x2="17.6888" y2="20.0807" gradientUnits="userSpaceOnUse">
<stop offset="0.4375" stop-color="#F6B801"/>
<stop offset="1" stop-color="#FF8024"/>
</linearGradient>
</defs>
</svg>
