<svg width="39" height="39" viewBox="0 0 39 39" fill="none" xmlns="http://www.w3.org/2000/svg">
<path d="M37.33 19.165H1M28.2475 1H32.7888C33.9932 1 35.1482 1.47845 35.9999 2.3301C36.8515 3.18175 37.33 4.33684 37.33 5.54125V10.0825M10.0825 37.33H5.54125C4.33684 37.33 3.18175 36.8515 2.3301 35.9999C1.47845 35.1482 1 33.9932 1 32.7888V28.2475M37.33 28.2475V32.7888C37.33 33.9932 36.8515 35.1482 35.9999 35.9999C35.1482 36.8515 33.9932 37.33 32.7888 37.33H28.2475M1 10.0825V5.54125C1 4.33684 1.47845 3.18175 2.3301 2.3301C3.18175 1.47845 4.33684 1 5.54125 1H10.0825" stroke="black" stroke-width="1.5" stroke-linecap="round" stroke-linejoin="round"/>
</svg>
