<svg width="23" height="23" viewBox="0 0 23 23" fill="none" xmlns="http://www.w3.org/2000/svg">
<g clip-path="url(#clip0_1340_34245)">
<path d="M19.6256 3.36759C18.5586 2.29832 17.2909 1.45037 15.8953 0.872456C14.4997 0.294543 13.0037 -0.0019496 11.4931 9.64699e-06C5.14131 9.64699e-06 -0.0078125 5.14913 -0.0078125 11.501C-0.0078125 14.6769 1.28019 17.5528 3.36169 19.6343C4.42863 20.7036 5.69631 21.5516 7.09192 22.1295C8.48753 22.7074 9.98357 23.0039 11.4941 23.0019C17.8459 23.0019 22.9951 17.8528 22.9951 11.501C22.9951 8.32505 21.7071 5.44909 19.6256 3.36759ZM18.1478 18.1518C17.275 19.0269 16.2378 19.7208 15.096 20.1938C13.9541 20.6668 12.7301 20.9095 11.4941 20.908C6.29706 20.908 2.08423 16.6951 2.08423 11.4981C2.08268 10.2621 2.32537 9.03807 2.79837 7.89621C3.27136 6.75435 3.96533 5.71721 4.84039 4.84438C5.71301 3.9693 6.74998 3.27532 7.89169 2.80232C9.0334 2.32932 10.2573 2.08664 11.4931 2.08822C16.6892 2.08822 20.9021 6.30105 20.9021 11.4971C20.9037 12.733 20.661 13.9569 20.188 15.0986C19.715 16.2403 19.021 17.2773 18.1459 18.1499L18.1478 18.1518Z" fill="url(#paint0_linear_1340_34245)"/>
<path d="M12.972 11.5019L16.6664 7.80755C16.8486 7.60891 16.9471 7.34757 16.9413 7.07807C16.9354 6.80856 16.8257 6.55173 16.635 6.36118C16.4444 6.17063 16.1875 6.06109 15.9179 6.05542C15.6484 6.04975 15.3872 6.14839 15.1886 6.33076L15.1896 6.3298L11.4952 10.0242L7.80085 6.3298C7.60221 6.14756 7.34086 6.04909 7.07136 6.05493C6.80186 6.06078 6.54503 6.17049 6.35448 6.36116C6.16393 6.55183 6.05438 6.80874 6.04872 7.07824C6.04305 7.34775 6.14169 7.60903 6.32405 7.80755L6.3231 7.80659L10.0175 11.501L6.3231 15.1953C6.21915 15.2907 6.13558 15.4061 6.07741 15.5346C6.01924 15.6631 5.98768 15.8021 5.98462 15.9431C5.98156 16.0841 6.00707 16.2243 6.05962 16.3552C6.11216 16.4861 6.19066 16.6051 6.29037 16.7048C6.39008 16.8046 6.50895 16.8832 6.63983 16.9358C6.7707 16.9884 6.91087 17.014 7.0519 17.0111C7.19293 17.0081 7.3319 16.9766 7.46045 16.9186C7.589 16.8605 7.70446 16.777 7.79989 16.6731L7.80085 16.6721L11.4952 12.9778L15.1896 16.6721C15.285 16.7761 15.4004 16.8596 15.5289 16.9178C15.6574 16.976 15.7963 17.0076 15.9374 17.0106C16.0784 17.0137 16.2186 16.9882 16.3495 16.9356C16.4804 16.8831 16.5993 16.8046 16.6991 16.7049C16.7989 16.6051 16.8774 16.4863 16.9301 16.3554C16.9827 16.2245 17.0083 16.0844 17.0053 15.9433C17.0024 15.8023 16.9709 15.6633 16.9128 15.5348C16.8547 15.4062 16.7712 15.2908 16.6673 15.1953L16.6664 15.1944L12.972 11.5019Z" fill="url(#paint1_linear_1340_34245)"/>
</g>
<defs>
<linearGradient id="paint0_linear_1340_34245" x1="2.86755" y1="2.57067e-07" x2="20.1188" y2="23.0026" gradientUnits="userSpaceOnUse">
<stop offset="0.4375" stop-color="#F6B801"/>
<stop offset="1" stop-color="#FF8024"/>
</linearGradient>
<linearGradient id="paint1_linear_1340_34245" x1="7.36202" y1="6.05469" x2="15.5659" y2="17.0576" gradientUnits="userSpaceOnUse">
<stop offset="0.4375" stop-color="#F6B801"/>
<stop offset="1" stop-color="#FF8024"/>
</linearGradient>
<clipPath id="clip0_1340_34245">
<rect width="23" height="23" fill="white"/>
</clipPath>
</defs>
</svg>
