<svg width="34" height="34" viewBox="0 0 34 34" fill="none" xmlns="http://www.w3.org/2000/svg">
<rect width="34" height="34" rx="17" fill="#F7F1E1"/>
<path d="M25.3073 8H8.77883C8.04184 8 7.33503 8.29277 6.8139 8.8139C6.29277 9.33503 6 10.0418 6 10.7788V22.8612C6 23.5982 6.29277 24.305 6.8139 24.8261C7.33503 25.3472 8.04184 25.64 8.77883 25.64H25.3073C26.0443 25.64 26.7511 25.3472 27.2722 24.8261C27.7934 24.305 28.0861 23.5982 28.0861 22.8612V10.7788C28.0861 10.0418 27.7934 9.33503 27.2722 8.8139C26.7511 8.29277 26.0443 8 25.3073 8ZM8.77883 9.11153H25.3073C25.728 9.11032 26.1334 9.26938 26.4411 9.55638C26.7487 9.84337 26.9355 10.2368 26.9635 10.6566C24.218 12.1238 21.4614 13.5799 18.7048 15.0471C18.3319 15.2808 17.9373 15.4781 17.5266 15.6362C17.2041 15.6999 16.8718 15.6941 16.5518 15.6194C16.2317 15.5446 15.9312 15.4026 15.6703 15.2027C14.092 14.3691 12.5136 13.5243 10.9463 12.6907C9.67917 12.0237 8.38979 11.3457 7.12265 10.6677C7.14843 10.2461 7.3342 9.85025 7.64201 9.56103C7.94983 9.27181 8.35646 9.11103 8.77883 9.11153ZM26.9746 22.8612C26.9746 23.3034 26.7989 23.7275 26.4863 24.0401C26.1736 24.3528 25.7495 24.5285 25.3073 24.5285H8.77883C8.33663 24.5285 7.91255 24.3528 7.59987 24.0401C7.28719 23.7275 7.11153 23.3034 7.11153 22.8612V11.9293C9.73475 13.3076 12.3468 14.7081 14.9701 16.0975C15.4387 16.3848 15.9433 16.6091 16.4706 16.7644C17.2425 16.8899 18.0335 16.7277 18.6937 16.3087C20.3054 15.4639 21.906 14.6081 23.5177 13.7633C24.6737 13.1408 25.8186 12.5406 26.9746 11.9293V22.8612Z" fill="black"/>
</svg>
