<svg width="16" height="16" viewBox="0 0 16 16" fill="none" xmlns="http://www.w3.org/2000/svg">
<path d="M5.97374 9.50017C5.48449 9.50011 5.00625 9.35501 4.59947 9.08319C4.19268 8.81137 3.87563 8.42504 3.68838 7.97305C3.50113 7.52106 3.45209 7.0237 3.54747 6.54385C3.64285 6.06399 3.87837 5.62319 4.22424 5.27717L6.77724 2.72467C7.24123 2.26067 7.87055 2 8.52674 2C9.18293 2 9.81224 2.26067 10.2762 2.72467C10.7402 3.18866 11.0009 3.81798 11.0009 4.47417C11.0009 5.13036 10.7402 5.75967 10.2762 6.22367L9.99974 6.49967L9.29224 5.79317L9.57074 5.51467C9.84618 5.23791 10.0006 4.86322 10.0003 4.47275C9.9999 4.08228 9.84471 3.7079 9.56874 3.43167C9.28785 3.16361 8.91451 3.01405 8.52624 3.01405C8.13797 3.01405 7.76462 3.16361 7.48374 3.43167L4.93174 5.98367C4.79474 6.12051 4.68605 6.28302 4.6119 6.4619C4.53775 6.64078 4.49958 6.83253 4.49958 7.02617C4.49958 7.21981 4.53775 7.41155 4.6119 7.59043C4.68605 7.76931 4.79474 7.93182 4.93174 8.06867C5.21262 8.33673 5.58597 8.48629 5.97424 8.48629C6.3625 8.48629 6.73585 8.33673 7.01674 8.06867L7.72374 8.77567C7.49442 9.00612 7.22167 9.18881 6.92129 9.31317C6.62091 9.43753 6.29884 9.50109 5.97374 9.50017Z" fill="black"/>
<path d="M9.97374 8.50067C9.48449 8.50061 9.00625 8.35551 8.59947 8.08369C8.19268 7.81187 7.87563 7.42554 7.68838 6.97355C7.50113 6.52156 7.45209 6.0242 7.54747 5.54435C7.64285 5.06449 7.87837 4.62369 8.22424 4.27767L8.50074 4.00067L9.20774 4.70817L8.93174 4.98417C8.65532 5.26059 8.50004 5.6355 8.50004 6.02642C8.50004 6.41733 8.65532 6.79224 8.93174 7.06867C9.21262 7.33673 9.58597 7.48629 9.97424 7.48629C10.3625 7.48629 10.7359 7.33673 11.0167 7.06867L13.5692 4.51617C13.8451 4.23957 14.0001 3.86484 14.0001 3.47417C14.0001 3.08349 13.8451 2.70877 13.5692 2.43217C13.2884 2.16411 12.915 2.01455 12.5267 2.01455C12.1385 2.01455 11.7651 2.16411 11.4842 2.43217L10.7772 1.72467C11.2412 1.26067 11.8705 1 12.5267 1C13.1829 1 13.8122 1.26067 14.2762 1.72467C14.7402 2.18866 15.0009 2.81798 15.0009 3.47417C15.0009 4.13036 14.7402 4.75967 14.2762 5.22367L11.7242 7.77517C11.4949 8.00566 11.2222 8.18842 10.9218 8.31286C10.6214 8.4373 10.2994 8.50097 9.97424 8.50017" fill="black"/>
<path d="M12 15H2C1.73486 14.9997 1.48066 14.8943 1.29319 14.7068C1.10571 14.5193 1.00026 14.2651 1 14V4C1.00026 3.73486 1.10571 3.48066 1.29319 3.29319C1.48066 3.10571 1.73486 3.00026 2 3H4V4H2V14H12V9H13V14C12.9997 14.2651 12.8943 14.5193 12.7068 14.7068C12.5193 14.8943 12.2651 14.9997 12 15Z" fill="black"/>
</svg>
