<svg width="18" height="19" viewBox="0 0 18 19" fill="none" xmlns="http://www.w3.org/2000/svg">
<path fill-rule="evenodd" clip-rule="evenodd" d="M9.27888 1.8587C10.7933 0.349184 13.2486 0.349184 14.763 1.8587C16.2314 3.32247 16.2759 5.66815 14.8962 7.18565L14.7627 7.32543L7.63093 14.4265C6.72236 15.3321 5.24929 15.3321 4.34073 14.4265C3.46851 13.5571 3.43362 12.1691 4.23635 11.2579L4.34105 11.1466L10.9227 4.59383C11.2256 4.29224 11.7164 4.29253 12.019 4.59447C12.2983 4.87319 12.3195 5.31152 12.0829 5.61452L12.0183 5.68728L5.43705 12.2397C5.13398 12.5418 5.13398 13.0316 5.43705 13.3337C5.71682 13.6126 6.15704 13.634 6.46172 13.3978L6.5349 13.3334L13.6666 6.23233C14.5755 5.32636 14.5755 3.85748 13.6666 2.9515C12.7941 2.08176 11.4011 2.04697 10.4869 2.84713L10.3752 2.9515L3.25093 10.0529C1.73621 11.5627 1.73621 14.0107 3.25093 15.5205C4.71975 16.9846 7.07353 17.029 8.59598 15.6536L8.73623 15.5205L15.8605 8.41915C16.1632 8.11738 16.6541 8.11738 16.9568 8.41915C17.2363 8.69771 17.2578 9.13602 17.0213 9.43916L16.9568 9.51195L9.83255 16.6133C7.71235 18.7267 4.27481 18.7267 2.15461 16.6133C0.0825881 14.548 0.0354969 11.2285 2.01333 9.10616L2.15461 8.96006L9.27888 1.8587Z" fill="#6D5DD3"/>
</svg>