<svg width="24" height="24" viewBox="0 0 24 24" fill="none" xmlns="http://www.w3.org/2000/svg">
<path d="M18.4385 4.95334H16.5005V3.54534C16.5005 3.28334 16.2705 3.03334 16.0005 3.04534C15.8686 3.04765 15.7428 3.10107 15.6495 3.19434C15.5562 3.28761 15.5028 3.41345 15.5005 3.54534V4.95334H8.5005V3.54534C8.5005 3.28334 8.2705 3.03334 8.0005 3.04534C7.86861 3.04765 7.74278 3.10107 7.6495 3.19434C7.55623 3.28761 7.50281 3.41345 7.5005 3.54534V4.95334H5.5625C4.8997 4.95413 4.26428 5.21778 3.79561 5.68645C3.32694 6.15512 3.06329 6.79054 3.0625 7.45334V18.4533C3.0625 19.8323 4.1845 20.9533 5.5625 20.9533H18.4375C19.8165 20.9533 20.9375 19.8323 20.9375 18.4533V7.45334C20.937 6.79063 20.6735 6.15521 20.205 5.68651C19.7365 5.21781 19.1012 4.95413 18.4385 4.95334ZM5.5625 5.95334H7.5005V6.54534C7.5005 6.80734 7.7305 7.05734 8.0005 7.04534C8.2715 7.03334 8.5005 6.82534 8.5005 6.54534V5.95334H15.5005V6.54534C15.5005 6.80734 15.7305 7.05734 16.0005 7.04534C16.2715 7.03334 16.5005 6.82534 16.5005 6.54534V5.95334H18.4375C19.2645 5.95334 19.9375 6.62634 19.9375 7.45334V9.03734H4.0625V7.45334C4.0625 6.62634 4.7355 5.95334 5.5625 5.95334ZM18.4385 19.9533H5.5625C4.7355 19.9533 4.0625 19.2803 4.0625 18.4533V10.0373H19.9375V18.4533C19.9375 18.851 19.7796 19.2324 19.4985 19.5136C19.2174 19.7949 18.8362 19.9531 18.4385 19.9533Z" fill="black"/>
</svg>
