<svg width="34" height="34" viewBox="0 0 34 34" fill="none" xmlns="http://www.w3.org/2000/svg">
<rect width="34" height="34" rx="17" fill="#F7F1E1"/>
<path d="M22.7314 19.2412L19.7442 17.7476C19.6854 17.7183 19.62 17.705 19.5544 17.7091C19.4888 17.7132 19.4255 17.7346 19.3708 17.7709L17.8175 18.8071C16.9636 18.3976 16.275 17.709 15.8655 16.8552L16.9017 15.3018C16.9381 15.2471 16.9594 15.1838 16.9635 15.1183C16.9676 15.0527 16.9544 14.9872 16.9251 14.9284L15.4315 11.9412C15.4005 11.8789 15.3527 11.8264 15.2935 11.7898C15.2342 11.7532 15.166 11.7339 15.0963 11.734C14.205 11.734 13.3503 12.0881 12.72 12.7183C12.0898 13.3485 11.7357 14.2033 11.7357 15.0946C11.738 17.1736 12.5648 19.1668 14.0349 20.6368C15.5049 22.1069 17.4981 22.9338 19.5771 22.936C20.4684 22.936 21.3232 22.5819 21.9534 21.9517C22.5837 21.3215 22.9377 20.4667 22.9377 19.5754C22.9378 19.506 22.9185 19.438 22.8821 19.379C22.8456 19.32 22.7935 19.2722 22.7314 19.2412ZM19.5771 22.1892C17.6961 22.1872 15.8927 21.4391 14.5627 20.1091C13.2326 18.779 12.4845 16.9756 12.4825 15.0946C12.4824 14.4404 12.7276 13.81 13.1697 13.3278C13.6118 12.8456 14.2187 12.5467 14.8704 12.4901L16.1587 15.0675L15.1318 16.6115C15.0976 16.6625 15.0764 16.7211 15.0703 16.7821C15.0641 16.8432 15.073 16.9048 15.0963 16.9616C15.5924 18.141 16.5307 19.0793 17.7101 19.5754C17.767 19.599 17.8287 19.6082 17.89 19.6022C17.9512 19.5962 18.01 19.5751 18.0611 19.5409L19.6051 18.514L22.1825 19.8022C22.1258 20.454 21.8266 21.0607 21.3443 21.5027C20.8619 21.9446 20.2313 22.1896 19.5771 22.1892ZM17.3367 8C15.7116 7.9997 14.1145 8.42367 12.7035 9.22997C11.2925 10.0363 10.1164 11.197 9.29162 12.5973C8.46682 13.9975 8.02187 15.5889 8.00079 17.2139C7.9797 18.8389 8.38322 20.4413 9.17141 21.8625L8.06055 25.1941C7.99472 25.3915 7.98517 25.6033 8.03296 25.8058C8.08075 26.0083 8.18399 26.1935 8.33111 26.3406C8.47823 26.4877 8.66342 26.591 8.86592 26.6388C9.06842 26.6866 9.28022 26.677 9.4776 26.6112L12.8093 25.5003C14.0555 26.1909 15.4433 26.587 16.8663 26.6583C18.2894 26.7296 19.7098 26.4742 21.0189 25.9118C22.328 25.3493 23.4909 24.4946 24.4186 23.4132C25.3463 22.3318 26.0142 21.0524 26.3711 19.6731C26.7279 18.2937 26.7643 16.8509 26.4774 15.4553C26.1905 14.0597 25.5879 12.7483 24.7159 11.6215C23.8438 10.4947 22.7254 9.58256 21.4464 8.95483C20.1673 8.32709 18.7615 8.00048 17.3367 8ZM17.3367 25.9232C15.8268 25.9237 14.3434 25.526 13.0361 24.7703C12.9793 24.7376 12.915 24.7202 12.8494 24.7199C12.8091 24.7199 12.769 24.7265 12.7308 24.7395L9.24142 25.9027C9.17563 25.9246 9.10503 25.9278 9.03753 25.9119C8.97003 25.8959 8.9083 25.8615 8.85926 25.8125C8.81022 25.7634 8.77581 25.7017 8.75988 25.6342C8.74395 25.5667 8.74713 25.4961 8.76907 25.4303L9.93221 21.9409C9.94899 21.8907 9.95492 21.8376 9.94961 21.785C9.9443 21.7323 9.92787 21.6814 9.90141 21.6356C8.95456 19.999 8.5743 18.0956 8.81962 16.2207C9.06494 14.3459 9.92212 12.6044 11.2582 11.2665C12.5943 9.92855 14.3345 9.06892 16.209 8.82096C18.0835 8.57301 19.9874 8.95059 21.6254 9.89514C23.2634 10.8397 24.5439 12.2984 25.2682 14.045C25.9926 15.7915 26.1203 17.7283 25.6316 19.5549C25.1428 21.3814 24.065 22.9957 22.5652 24.1471C21.0654 25.2985 19.2275 25.9229 17.3367 25.9232Z" fill="black"/>
</svg>
