<svg width="10" height="14" viewBox="0 0 10 14" fill="none" xmlns="http://www.w3.org/2000/svg">
<path d="M3.4002 0.601562C2.97585 0.601563 2.56888 0.770133 2.26882 1.07019C1.96877 1.37025 1.8002 1.77722 1.8002 2.20156V10.2016C1.8002 10.6259 1.96877 11.0329 2.26882 11.3329C2.56888 11.633 2.97585 11.8016 3.4002 11.8016H8.20019C8.62454 11.8016 9.03151 11.633 9.33156 11.3329C9.63162 11.0329 9.80019 10.6259 9.80019 10.2016V2.20156C9.80019 1.77722 9.63162 1.37025 9.33156 1.07019C9.03151 0.770133 8.62454 0.601563 8.20019 0.601562H3.4002ZM2.6002 2.20156C2.6002 1.98939 2.68448 1.78591 2.83451 1.63588C2.98454 1.48585 3.18802 1.40156 3.4002 1.40156H8.20019C8.41237 1.40156 8.61585 1.48585 8.76588 1.63588C8.91591 1.78591 9.00019 1.98939 9.00019 2.20156V10.2016C9.00019 10.4137 8.91591 10.6172 8.76588 10.7672C8.61585 10.9173 8.41237 11.0016 8.20019 11.0016H3.4002C3.18802 11.0016 2.98454 10.9173 2.83451 10.7672C2.68448 10.6172 2.6002 10.4137 2.6002 10.2016V2.20156ZM0.200195 3.80156C0.200202 3.52071 0.274136 3.24481 0.414565 3.00159C0.554994 2.75836 0.756971 2.55639 1.0002 2.41596V10.6016C1.0002 11.132 1.21091 11.6407 1.58598 12.0158C1.96105 12.3908 2.46976 12.6016 3.0002 12.6016H7.9858C7.84537 12.8448 7.64339 13.0468 7.40017 13.1872C7.15695 13.3276 6.88105 13.4016 6.60019 13.4016H3.0002C2.25759 13.4016 1.5454 13.1066 1.0203 12.5815C0.495195 12.0564 0.200195 11.3442 0.200195 10.6016V3.80156Z" fill="black"/>
</svg>
