<svg width="8" height="10" viewBox="0 0 8 10" fill="none" xmlns="http://www.w3.org/2000/svg">
<path d="M2 6.44422C1.89667 6.44422 1.80667 6.40589 1.73 6.32922C1.65333 6.25255 1.615 6.16255 1.615 6.05922C1.615 5.95588 1.65333 5.86605 1.73 5.78972C1.80667 5.71305 1.89667 5.67472 2 5.67472C2.10333 5.67472 2.19333 5.71305 2.27 5.78972C2.34667 5.86639 2.385 5.95639 2.385 6.05972C2.385 6.16272 2.34667 6.25255 2.27 6.32922C2.19333 6.40589 2.10333 6.44422 2 6.44422ZM4 6.44422C3.89667 6.44422 3.80667 6.40589 3.73 6.32922C3.65333 6.25255 3.615 6.16255 3.615 6.05922C3.615 5.95588 3.65333 5.86605 3.73 5.78972C3.80667 5.71305 3.89667 5.67472 4 5.67472C4.10333 5.67472 4.19333 5.71305 4.27 5.78972C4.34667 5.86639 4.385 5.95639 4.385 6.05972C4.385 6.16272 4.34667 6.25255 4.27 6.32922C4.19333 6.40589 4.10333 6.44422 4 6.44422ZM6 6.44422C5.89667 6.44422 5.80667 6.40589 5.73 6.32922C5.65333 6.25255 5.615 6.16255 5.615 6.05922C5.615 5.95588 5.65333 5.86605 5.73 5.78972C5.80667 5.71305 5.89667 5.67472 6 5.67472C6.10333 5.67472 6.19333 5.71305 6.27 5.78972C6.34667 5.86639 6.385 5.95639 6.385 6.05972C6.385 6.16272 6.34667 6.25255 6.27 6.32922C6.19333 6.40589 6.10333 6.44422 6 6.44422ZM0.8075 10.0017C0.5775 10.0017 0.3855 9.92472 0.2315 9.77072C0.0771666 9.61639 0 9.42422 0 9.19422V2.80922C0 2.57922 0.0771666 2.38722 0.2315 2.23322C0.3855 2.07889 0.5775 2.00172 0.8075 2.00172H1.6925V0.886719H2.231V2.00172H5.8075V0.886719H6.3075V2.00172H7.1925C7.4225 2.00172 7.6145 2.07889 7.7685 2.23322C7.92283 2.38722 8 2.57922 8 2.80922V9.19422C8 9.42422 7.923 9.61622 7.769 9.77022C7.61467 9.92455 7.4225 10.0017 7.1925 10.0017H0.8075ZM0.8075 9.50172H7.1925C7.26917 9.50172 7.33967 9.46972 7.404 9.40572C7.468 9.34139 7.5 9.27089 7.5 9.19422V4.80922H0.5V9.19422C0.5 9.27089 0.532 9.34139 0.596 9.40572C0.660333 9.46972 0.730833 9.50172 0.8075 9.50172ZM0.5 4.30922H7.5V2.80922C7.5 2.73255 7.468 2.66205 7.404 2.59772C7.33967 2.53372 7.26917 2.50172 7.1925 2.50172H0.8075C0.730833 2.50172 0.660333 2.53372 0.596 2.59772C0.532 2.66205 0.5 2.73255 0.5 2.80922V4.30922Z" fill="#9F9F9F"/>
</svg>
