<svg width="48" height="49" viewBox="0 0 48 49" fill="none" xmlns="http://www.w3.org/2000/svg">
<g filter="url(#filter0_f_3172_17429)">
<circle cx="24" cy="24.5" r="22" fill="url(#paint0_linear_3172_17429)" fill-opacity="0.15"/>
</g>
<path d="M32.4853 16.0137C31.372 14.898 30.0493 14.0133 28.5932 13.4103C27.137 12.8073 25.5761 12.498 24 12.5C17.3725 12.5 12 17.8726 12 24.5C12 27.8137 13.3439 30.8145 15.5157 32.9863C16.6289 34.102 17.9516 34.9867 19.4078 35.5897C20.864 36.1927 22.4249 36.502 24.001 36.5C30.6284 36.5 36.001 31.1274 36.001 24.5C36.001 21.1863 34.6571 18.1855 32.4853 16.0137ZM30.9434 31.4394C30.0327 32.3525 28.9506 33.0765 27.7592 33.57C26.5677 34.0636 25.2906 34.3168 24.001 34.3152C18.5784 34.3152 14.1828 29.9195 14.1828 24.497C14.1812 23.2074 14.4344 21.9302 14.9279 20.7388C15.4215 19.5474 16.1455 18.4653 17.0586 17.5546C17.9691 16.6415 19.051 15.9174 20.2423 15.4239C21.4335 14.9304 22.7106 14.6772 24 14.6788C29.4215 14.6788 33.8172 19.0745 33.8172 24.496C33.8189 25.7854 33.5657 27.0625 33.0721 28.2538C32.5786 29.445 31.8545 30.527 30.9414 31.4374L30.9434 31.4394Z" fill="url(#paint1_linear_3172_17429)"/>
<path d="M24 18.5V25.31H29.88" stroke="#FC9419" stroke-linecap="round" stroke-linejoin="round"/>
<defs>
<filter id="filter0_f_3172_17429" x="0" y="0.5" width="48" height="48" filterUnits="userSpaceOnUse" color-interpolation-filters="sRGB">
<feFlood flood-opacity="0" result="BackgroundImageFix"/>
<feBlend mode="normal" in="SourceGraphic" in2="BackgroundImageFix" result="shape"/>
<feGaussianBlur stdDeviation="1" result="effect1_foregroundBlur_3172_17429"/>
</filter>
<linearGradient id="paint0_linear_3172_17429" x1="7.5" y1="2.5" x2="40.5" y2="46.5" gradientUnits="userSpaceOnUse">
<stop stop-color="#FFBF1A"/>
<stop offset="1" stop-color="#FF4080"/>
</linearGradient>
<linearGradient id="paint1_linear_3172_17429" x1="15.0001" y1="12.5" x2="32.9999" y2="36.5007" gradientUnits="userSpaceOnUse">
<stop offset="0.4375" stop-color="#F6B801"/>
<stop offset="1" stop-color="#FF8024"/>
</linearGradient>
</defs>
</svg>
