<svg width="12" height="5" viewBox="0 0 12 5" fill="none" xmlns="http://www.w3.org/2000/svg">
<path d="M3.375 3C3.165 3 3 2.835 3 2.625V0.375C3 0.165 3.165 0 3.375 0C3.585 0 3.75 0.165 3.75 0.375V2.625C3.75 2.835 3.585 3 3.375 3ZM8.625 3C8.415 3 8.25 2.835 8.25 2.625V0.375C8.25 0.165 8.415 0 8.625 0C8.835 0 9 0.165 9 0.375V2.625C9 2.835 8.835 3 8.625 3ZM11.625 4.5H0.375C0.165 4.5 0 4.335 0 4.125C0 3.915 0.165 3.75 0.375 3.75H11.625C11.835 3.75 12 3.915 12 4.125C12 4.335 11.835 4.5 11.625 4.5Z" fill="#828282"/>
</svg>
