<svg width="16" height="16" viewBox="0 0 16 16" fill="none" xmlns="http://www.w3.org/2000/svg">
<path d="M12.9452 3H3.5753C3.1575 3 2.75682 3.16597 2.46139 3.46139C2.16597 3.75682 2 4.1575 2 4.5753V11.4247C2 11.8425 2.16597 12.2432 2.46139 12.5386C2.75682 12.834 3.1575 13 3.5753 13H12.9452C13.363 13 13.7637 12.834 14.0591 12.5386C14.3545 12.2432 14.5205 11.8425 14.5205 11.4247V4.5753C14.5205 4.1575 14.3545 3.75682 14.0591 3.46139C13.7637 3.16597 13.363 3 12.9452 3ZM3.5753 3.63012H12.9452C13.1837 3.62943 13.4135 3.7196 13.5879 3.8823C13.7623 4.045 13.8682 4.26801 13.8841 4.50599C12.3277 5.33774 10.765 6.1632 9.20227 6.99496C8.99086 7.12745 8.76718 7.23928 8.53435 7.32892C8.35155 7.365 8.16317 7.36174 7.98173 7.31937C7.80029 7.277 7.62995 7.19648 7.48204 7.08318C6.58727 6.61059 5.6925 6.1317 4.80403 5.65911C4.0857 5.28103 3.35476 4.89666 2.63642 4.51229C2.65103 4.27329 2.75635 4.0489 2.93085 3.88494C3.10534 3.72098 3.33586 3.62983 3.5753 3.63012ZM13.8904 11.4247C13.8904 11.6754 13.7908 11.9158 13.6135 12.093C13.4363 12.2703 13.1959 12.3699 12.9452 12.3699H3.5753C3.32462 12.3699 3.08421 12.2703 2.90696 12.093C2.7297 11.9158 2.63012 11.6754 2.63012 11.4247V5.22747C4.1172 6.00882 5.59799 6.80277 7.08507 7.59042C7.35076 7.75332 7.63678 7.88044 7.93573 7.96849C8.37327 8.03963 8.82171 7.9477 9.19597 7.71014C10.1096 7.23125 11.017 6.74606 11.9307 6.26717C12.586 5.9143 13.235 5.57404 13.8904 5.22747V11.4247Z" fill="#828282"/>
</svg>
