<svg width="17" height="19" viewBox="0 0 17 19" fill="none" xmlns="http://www.w3.org/2000/svg">
<path d="M1.76328 16.8753C2.66116 16.0086 3.70471 15.3262 4.89391 14.8282C6.08311 14.3301 7.36742 14.0808 8.74685 14.0801C10.1269 14.0801 11.4116 14.3295 12.6008 14.8282C13.79 15.3269 14.8332 16.0089 15.7304 16.8743V4.61535C15.7304 4.46502 15.6666 4.32678 15.5389 4.20064C15.4105 4.07515 15.2698 4.0124 15.1169 4.0124H2.37683C2.22386 4.0124 2.08319 4.07515 1.95483 4.20064C1.82713 4.32678 1.76328 4.46502 1.76328 4.61535V16.8753ZM8.74685 11.3654C7.91015 11.3654 7.20215 11.0808 6.62284 10.5115C6.04354 9.94219 5.75389 9.24644 5.75389 8.42421C5.75389 7.60198 6.04354 6.90622 6.62284 6.33693C7.20215 5.76765 7.91015 5.483 8.74685 5.483C9.58354 5.483 10.2915 5.76765 10.8708 6.33693C11.4502 6.90622 11.7398 7.60198 11.7398 8.42421C11.7398 9.24644 11.4502 9.94219 10.8708 10.5115C10.2915 11.0808 9.58354 11.3654 8.74685 11.3654ZM2.37683 18.7184C1.91791 18.7184 1.53481 18.5674 1.22754 18.2655C0.919596 17.9629 0.765625 17.5861 0.765625 17.1351V4.61535C0.765625 4.16436 0.919596 3.78789 1.22754 3.48592C1.53481 3.18331 1.91791 3.032 2.37683 3.032H4.14268V0.845703H5.21715V3.032H12.3534V0.845703H13.351V3.032H15.1169C15.5758 3.032 15.9589 3.18331 16.2662 3.48592C16.5741 3.78789 16.7281 4.16436 16.7281 4.61535V17.1351C16.7281 17.5861 16.5744 17.9625 16.2671 18.2645C15.9592 18.5671 15.5758 18.7184 15.1169 18.7184H2.37683Z" fill="url(#paint0_linear_1340_34214)"/>
<defs>
<linearGradient id="paint0_linear_1340_34214" x1="2.76093" y1="0.845703" x2="16.5137" y2="17.2229" gradientUnits="userSpaceOnUse">
<stop offset="0.4375" stop-color="#F6B801"/>
<stop offset="1" stop-color="#FF8024"/>
</linearGradient>
</defs>
</svg>
