<svg width="34" height="34" viewBox="0 0 34 34" fill="none" xmlns="http://www.w3.org/2000/svg">
<rect width="34" height="34" rx="17" fill="#D5F0FF" fill-opacity="0.5"/>
<path d="M19.2849 10.0646C19.3022 9.99942 19.3323 9.9383 19.3733 9.88473C19.4144 9.83116 19.4655 9.78621 19.5239 9.75243C19.5824 9.71866 19.6468 9.69673 19.7137 9.6879C19.7806 9.67907 19.8486 9.68351 19.9138 9.70097C21.1538 10.0244 22.2851 10.6726 23.1913 11.5788C24.0974 12.4849 24.7456 13.6162 25.069 14.8562C25.0865 14.9214 25.0909 14.9894 25.0821 15.0563C25.0733 15.1232 25.0513 15.1877 25.0176 15.2461C24.9838 15.3045 24.9388 15.3556 24.8853 15.3967C24.8317 15.4377 24.7706 15.4678 24.7054 15.4851C24.6621 15.4967 24.6175 15.5024 24.5728 15.5022C24.4596 15.5023 24.3497 15.465 24.2599 15.3962C24.1702 15.3273 24.1057 15.2308 24.0765 15.1215C23.7988 14.0564 23.2421 13.0846 22.4638 12.3062C21.6854 11.5279 20.7136 10.9712 19.6485 10.6935C19.5833 10.6761 19.5222 10.6461 19.4686 10.6051C19.4151 10.564 19.3701 10.5129 19.3363 10.4544C19.3026 10.396 19.2806 10.3315 19.2718 10.2647C19.263 10.1978 19.2674 10.1298 19.2849 10.0646ZM18.964 13.4316C20.209 13.7636 21.0064 14.561 21.3384 15.806C21.3676 15.9153 21.4321 16.0118 21.5219 16.0807C21.6116 16.1495 21.7216 16.1868 21.8347 16.1868C21.8795 16.1869 21.9241 16.1812 21.9673 16.1696C22.0325 16.1523 22.0936 16.1222 22.1472 16.0812C22.2008 16.0402 22.2457 15.989 22.2795 15.9306C22.3133 15.8722 22.3352 15.8077 22.344 15.7408C22.3529 15.6739 22.3484 15.6059 22.331 15.5407C21.9031 13.9398 20.8302 12.8669 19.2293 12.439C19.1641 12.4216 19.0961 12.4172 19.0292 12.4261C18.9624 12.4349 18.8979 12.4568 18.8395 12.4906C18.7215 12.5588 18.6355 12.6711 18.6004 12.8027C18.5652 12.9343 18.5837 13.0745 18.6519 13.1924C18.7201 13.3104 18.8324 13.3964 18.964 13.4316ZM25.7613 21.7313C25.6147 22.8499 25.0657 23.8767 24.2171 24.62C23.3685 25.3633 22.2783 25.7721 21.1502 25.77C14.4505 25.77 9.00001 20.3195 9.00001 13.6198C8.99785 12.4921 9.40629 11.4022 10.149 10.5536C10.8918 9.70508 11.918 9.15592 13.0361 9.00875C13.2935 8.97747 13.554 9.03054 13.7787 9.15999C14.0033 9.28944 14.1799 9.48827 14.2819 9.72664L16.0873 13.7567C16.167 13.9392 16.2 14.1386 16.1833 14.337C16.1666 14.5354 16.1006 14.7265 15.9915 14.893C15.9805 14.91 15.9685 14.9263 15.9556 14.9418L14.1527 17.086C14.1418 17.1083 14.1361 17.1327 14.1361 17.1575C14.1361 17.1823 14.1418 17.2067 14.1527 17.2289C14.8081 18.5706 16.2148 19.967 17.5753 20.6216C17.598 20.6319 17.6228 20.6369 17.6478 20.636C17.6727 20.6351 17.6971 20.6284 17.719 20.6164L19.8316 18.8196C19.8467 18.8065 19.8627 18.7944 19.8795 18.7836C20.0453 18.6731 20.2361 18.6057 20.4345 18.5875C20.6329 18.5692 20.8327 18.6008 21.0158 18.6793L25.0579 20.4907C25.2931 20.5949 25.4885 20.7721 25.6152 20.996C25.7418 21.2199 25.7931 21.4786 25.7613 21.7339V21.7313ZM24.7439 21.6047C24.7468 21.5689 24.7383 21.5332 24.7197 21.5024C24.7011 21.4717 24.6734 21.4476 24.6404 21.4336L20.5974 19.6222C20.5753 19.6137 20.5517 19.61 20.528 19.6115C20.5044 19.613 20.4814 19.6195 20.4605 19.6307L18.3488 21.4276C18.3334 21.4404 18.3171 21.4524 18.3009 21.4635C18.1286 21.5784 17.9295 21.6467 17.723 21.6616C17.5166 21.6766 17.3097 21.6379 17.1227 21.5491C15.5517 20.7901 13.9859 19.2388 13.2269 17.6824C13.1376 17.4965 13.0979 17.2906 13.1115 17.0848C13.1252 16.879 13.1917 16.6802 13.3048 16.5076C13.3158 16.4905 13.3281 16.4742 13.3416 16.4589L15.1435 14.3146C15.1538 14.2922 15.1592 14.2678 15.1592 14.2432C15.1592 14.2185 15.1538 14.1941 15.1435 14.1717L13.3416 10.1382C13.3297 10.1058 13.3083 10.0778 13.2802 10.0578C13.2521 10.0378 13.2186 10.0268 13.1841 10.0261H13.1644C12.2942 10.1419 11.4958 10.5704 10.9184 11.2317C10.3411 11.8931 10.0241 12.7419 10.0268 13.6198C10.0268 19.7531 15.0169 24.7432 21.1502 24.7432C22.0282 24.7459 22.8772 24.4288 23.5385 23.8512C24.1999 23.2737 24.6283 22.4751 24.7439 21.6047Z" fill="black"/>
</svg>
