<svg width="20" height="20" viewBox="0 0 20 20" fill="none" xmlns="http://www.w3.org/2000/svg">
<path d="M7.2575 0.5C6.87855 0.500014 6.5065 0.601362 6.1799 0.793542C5.8533 0.985722 5.58403 1.26174 5.4 1.593L4.757 2.75H2.875C2.1125 2.75 1.38123 3.0529 0.842068 3.59207C0.302901 4.13124 0 4.8625 0 5.625V14.125C0 14.8875 0.302901 15.6188 0.842068 16.1579C1.38123 16.6971 2.1125 17 2.875 17H8.498C8.33003 16.5972 8.20338 16.1784 8.12 15.75H2.875C2.44402 15.75 2.0307 15.5788 1.72595 15.274C1.4212 14.9693 1.25 14.556 1.25 14.125V5.625C1.25 5.19402 1.4212 4.7807 1.72595 4.47595C2.0307 4.17121 2.44402 4 2.875 4H5.4925L6.4925 2.2C6.5683 2.06359 6.6792 1.94993 6.81371 1.87081C6.94822 1.79168 7.10144 1.74997 7.2575 1.75H10.7425C10.8986 1.74997 11.0518 1.79168 11.1863 1.87081C11.3208 1.94993 11.4317 2.06359 11.5075 2.2L12.5075 4H15.125C15.556 4 15.9693 4.17121 16.274 4.47595C16.5788 4.7807 16.75 5.19402 16.75 5.625V8.4C17.191 8.5625 17.61 8.772 18 9.022V5.625C18 4.8625 17.6971 4.13124 17.1579 3.59207C16.6188 3.0529 15.8875 2.75 15.125 2.75H13.243L12.6 1.593C12.416 1.26174 12.1467 0.985722 11.8201 0.793542C11.4935 0.601362 11.1214 0.500014 10.7425 0.5H7.2575ZM9 5.5C9.83812 5.49999 10.6551 5.76314 11.3356 6.25233C12.0162 6.74153 12.5259 7.43206 12.793 8.2265C12.3855 8.337 11.994 8.4865 11.623 8.67C11.477 8.20933 11.2121 7.79528 10.8551 7.46956C10.4981 7.14383 10.0616 6.91794 9.58947 6.81463C9.11738 6.71132 8.6264 6.73423 8.16598 6.88108C7.70557 7.02792 7.29198 7.2935 6.96687 7.65106C6.64177 8.00862 6.41663 8.44555 6.31414 8.91782C6.21164 9.39009 6.23541 9.88103 6.38305 10.3412C6.53069 10.8013 6.79699 11.2145 7.15511 11.539C7.51324 11.8634 7.95055 12.0878 8.423 12.1895C8.276 12.5755 8.1645 12.9795 8.093 13.397C7.13559 13.1754 6.29324 12.6092 5.72664 11.8062C5.16005 11.0033 4.90886 10.0199 5.02099 9.04358C5.13312 8.06728 5.60073 7.16642 6.33461 6.51285C7.06849 5.85928 8.01728 5.49874 9 5.5ZM20 14.5C20 17.5375 17.5375 20 14.5 20C11.4625 20 9 17.5375 9 14.5C9 11.4625 11.4625 9 14.5 9C17.5375 9 20 11.4625 20 14.5ZM15 11.5C15 11.3674 14.9473 11.2402 14.8536 11.1464C14.7598 11.0527 14.6326 11 14.5 11C14.3674 11 14.2402 11.0527 14.1464 11.1464C14.0527 11.2402 14 11.3674 14 11.5V14H11.5C11.3674 14 11.2402 14.0527 11.1464 14.1464C11.0527 14.2402 11 14.3674 11 14.5C11 14.6326 11.0527 14.7598 11.1464 14.8536C11.2402 14.9473 11.3674 15 11.5 15H14V17.5C14 17.6326 14.0527 17.7598 14.1464 17.8536C14.2402 17.9473 14.3674 18 14.5 18C14.6326 18 14.7598 17.9473 14.8536 17.8536C14.9473 17.7598 15 17.6326 15 17.5V15H17.5C17.6326 15 17.7598 14.9473 17.8535 14.8536C17.9473 14.7598 18 14.6326 18 14.5C18 14.3674 17.9473 14.2402 17.8535 14.1464C17.7598 14.0527 17.6326 14 17.5 14H15V11.5Z" fill="#828282"/>
</svg>
