<svg width="16" height="16" viewBox="0 0 16 16" fill="none" xmlns="http://www.w3.org/2000/svg">
<path d="M13.7402 2H2.83365C2.34734 2 1.88094 2.19319 1.53706 2.53706C1.19319 2.88094 1 3.34733 1 3.83365V11.8064C1 12.2927 1.19319 12.7591 1.53706 13.1029C1.88094 13.4468 2.34734 13.64 2.83365 13.64H13.7402C14.2265 13.64 14.6929 13.4468 15.0368 13.1029C15.3807 12.7591 15.5738 12.2927 15.5738 11.8064V3.83365C15.5738 3.34733 15.3807 2.88094 15.0368 2.53706C14.6929 2.19319 14.2265 2 13.7402 2ZM2.83365 2.73346H13.7402C14.0178 2.73266 14.2853 2.83762 14.4883 3.027C14.6913 3.21638 14.8146 3.47596 14.833 3.75297C13.0214 4.72113 11.2024 5.68197 9.38344 6.65013C9.13736 6.80435 8.877 6.93453 8.60598 7.03887C8.3932 7.08086 8.17393 7.07706 7.96273 7.02774C7.75154 6.97842 7.55327 6.8847 7.3811 6.75282C6.33959 6.20272 5.29807 5.64529 4.2639 5.0952C3.42775 4.65512 2.57694 4.20771 1.74079 3.7603C1.7578 3.48211 1.88039 3.22092 2.0835 3.03007C2.28662 2.83922 2.55494 2.73313 2.83365 2.73346ZM14.8404 11.8064C14.8404 12.0981 14.7245 12.378 14.5181 12.5843C14.3118 12.7906 14.032 12.9065 13.7402 12.9065H2.83365C2.54186 12.9065 2.26202 12.7906 2.0557 12.5843C1.84937 12.378 1.73346 12.0981 1.73346 11.8064V4.59278C3.46442 5.50227 5.18806 6.42643 6.91902 7.34325C7.22828 7.53286 7.56121 7.68083 7.90919 7.78333C8.41849 7.86613 8.94047 7.75913 9.37611 7.48261C10.4396 6.92518 11.4958 6.36042 12.5593 5.80299C13.3221 5.39225 14.0776 4.99618 14.8404 4.59278V11.8064Z" fill="black"/>
</svg>
