<svg width="34" height="35" viewBox="0 0 34 35" fill="none" xmlns="http://www.w3.org/2000/svg">
<ellipse cx="17" cy="17.8398" rx="17" ry="16.9179" fill="url(#paint0_linear_1683_31356)" fill-opacity="0.15"/>
<path d="M7.84375 11.0301C7.84375 10.185 8.17945 9.37455 8.777 8.777C9.37455 8.17945 10.185 7.84375 11.0301 7.84375H22.3047C23.1497 7.84375 23.9602 8.17945 24.5577 8.777C25.1553 9.37455 25.491 10.185 25.491 11.0301V22.3047C25.491 23.1497 25.1553 23.9602 24.5577 24.5577C23.9602 25.1553 23.1497 25.491 22.3047 25.491H11.0301C10.185 25.491 9.37455 25.1553 8.777 24.5577C8.17945 23.9602 7.84375 23.1497 7.84375 22.3047V11.0301ZM17.1576 13.9713C17.1576 14.3771 17.487 14.7066 17.8929 14.7066H21.3243C21.5193 14.7066 21.7063 14.6291 21.8442 14.4912C21.9821 14.3533 22.0596 14.1663 22.0596 13.9713C22.0596 13.7762 21.9821 13.5892 21.8442 13.4513C21.7063 13.3134 21.5193 13.236 21.3243 13.236H17.8929C17.6979 13.236 17.5108 13.3134 17.3729 13.4513C17.235 13.5892 17.1576 13.7762 17.1576 13.9713ZM17.8929 18.6282C17.6979 18.6282 17.5108 18.7056 17.3729 18.8435C17.235 18.9814 17.1576 19.1685 17.1576 19.3635C17.1576 19.5585 17.235 19.7455 17.3729 19.8834C17.5108 20.0213 17.6979 20.0988 17.8929 20.0988H21.3243C21.5193 20.0988 21.7063 20.0213 21.8442 19.8834C21.9821 19.7455 22.0596 19.5585 22.0596 19.3635C22.0596 19.1685 21.9821 18.9814 21.8442 18.8435C21.7063 18.7056 21.5193 18.6282 21.3243 18.6282H17.8929ZM15.4713 13.5105C15.5435 13.4432 15.6015 13.362 15.6416 13.2718C15.6818 13.1816 15.7034 13.0842 15.7052 12.9855C15.7069 12.8868 15.6888 12.7887 15.6518 12.6971C15.6148 12.6056 15.5598 12.5224 15.4899 12.4526C15.4201 12.3828 15.3369 12.3277 15.2454 12.2907C15.1538 12.2537 15.0558 12.2356 14.957 12.2373C14.8583 12.2391 14.7609 12.2607 14.6707 12.3009C14.5805 12.3411 14.4994 12.399 14.432 12.4712L12.9909 13.9124L12.5301 13.4516C12.3907 13.3218 12.2063 13.2511 12.0158 13.2544C11.8253 13.2578 11.6436 13.3349 11.5089 13.4697C11.3741 13.6044 11.297 13.7861 11.2936 13.9766C11.2903 14.1671 11.361 14.3515 11.4908 14.4909L12.4712 15.4713C12.6091 15.609 12.796 15.6863 12.9909 15.6863C13.1857 15.6863 13.3726 15.609 13.5105 15.4713L15.4713 13.5105ZM15.4713 17.8635C15.3334 17.7258 15.1465 17.6484 14.9517 17.6484C14.7568 17.6484 14.5699 17.7258 14.432 17.8635L12.9909 19.3046L12.5301 18.8439C12.3907 18.714 12.2063 18.6433 12.0158 18.6466C11.8253 18.65 11.6436 18.7272 11.5089 18.8619C11.3741 18.9966 11.297 19.1783 11.2936 19.3688C11.2903 19.5593 11.361 19.7437 11.4908 19.8831L12.4712 20.8635C12.6091 21.0012 12.796 21.0785 12.9909 21.0785C13.1857 21.0785 13.3726 21.0012 13.5105 20.8635L15.4713 18.9027C15.609 18.7648 15.6863 18.5779 15.6863 18.3831C15.6863 18.1882 15.609 18.0013 15.4713 17.8635Z" fill="url(#paint1_linear_1683_31356)"/>
<defs>
<linearGradient id="paint0_linear_1683_31356" x1="28.73" y1="19.2495" x2="4.93" y2="19.2495" gradientUnits="userSpaceOnUse">
<stop stop-color="#B015E6"/>
<stop offset="1" stop-color="#FF3FD5"/>
</linearGradient>
<linearGradient id="paint1_linear_1683_31356" x1="16.6674" y1="7.84375" x2="16.6674" y2="25.491" gradientUnits="userSpaceOnUse">
<stop stop-color="#FF3FEC"/>
<stop offset="1" stop-color="#FDC748"/>
</linearGradient>
</defs>
</svg>
