<svg width="19" height="19" viewBox="0 0 19 19" fill="none" xmlns="http://www.w3.org/2000/svg">
<path d="M8.75753 13.9974V2.87601L5.76182 5.87172L4.85153 4.9473L9.40039 0.398438L13.9492 4.9473L13.0402 5.87301L10.0432 2.87601V13.9974H8.75753ZM2.47682 18.3984C1.88539 18.3984 1.39168 18.2004 0.995676 17.8044C0.598819 17.4076 0.400391 16.9134 0.400391 16.322V13.2067H1.68611V16.322C1.68611 16.5192 1.76839 16.7004 1.93296 16.8659C2.09839 17.0304 2.27968 17.1127 2.47682 17.1127H16.324C16.5211 17.1127 16.7024 17.0304 16.8678 16.8659C17.0324 16.7004 17.1147 16.5192 17.1147 16.322V13.2067H18.4004V16.322C18.4004 16.9134 18.2024 17.4072 17.8064 17.8032C17.4095 18.2 16.9154 18.3984 16.324 18.3984H2.47682Z" fill="#333333"/>
</svg>
