<svg width="16" height="16" viewBox="0 0 16 16" fill="none" xmlns="http://www.w3.org/2000/svg">
<path d="M1.615 16C1.155 16 0.771 15.846 0.463 15.538C0.154333 15.2293 0 14.845 0 14.385V1.615C0 1.155 0.154333 0.771 0.463 0.463C0.771 0.154333 1.155 0 1.615 0H14.385C14.845 0 15.229 0.154333 15.537 0.463C15.8457 0.771 16 1.155 16 1.615V14.385C16 14.845 15.846 15.229 15.538 15.537C15.2293 15.8457 14.845 16 14.385 16H1.615ZM1.615 15H7.5V1H1.615C1.46167 1 1.32067 1.064 1.192 1.192C1.064 1.32067 1 1.46167 1 1.615V14.385C1 14.5383 1.064 14.6793 1.192 14.808C1.32067 14.936 1.46167 15 1.615 15ZM8.5 15H14.385C14.5383 15 14.6793 14.936 14.808 14.808C14.936 14.6793 15 14.5383 15 14.385V8H8.5V15ZM8.5 7H15V1.615C15 1.46167 14.936 1.32067 14.808 1.192C14.6793 1.064 14.5383 1 14.385 1H8.5V7Z" fill="#333333"/>
</svg>
