<svg width="18" height="19" viewBox="0 0 18 19" fill="none" xmlns="http://www.w3.org/2000/svg">
<path d="M15.002 19C14.3087 19 13.7183 18.7567 13.231 18.27C12.7437 17.7847 12.5 17.1947 12.5 16.5C12.5 16.3667 12.5117 16.229 12.535 16.087C12.5577 15.9443 12.592 15.8103 12.638 15.685L4.896 11.123C4.65133 11.399 4.36667 11.614 4.042 11.768C3.718 11.9227 3.37067 12 3 12C2.30533 12 1.71533 11.7573 1.23 11.272C0.743333 10.786 0.5 10.196 0.5 9.502C0.5 8.80867 0.743333 8.21833 1.23 7.731C1.71467 7.24367 2.30467 7 3 7C3.37067 7 3.718 7.07733 4.042 7.232C4.36667 7.386 4.65133 7.601 4.896 7.877L12.638 3.315C12.592 3.18967 12.5577 3.05567 12.535 2.913C12.5117 2.771 12.5 2.63333 12.5 2.5C12.5 1.80533 12.743 1.21533 13.229 0.73C13.7143 0.243333 14.304 0 14.998 0C15.6913 0 16.2817 0.243 16.769 0.729C17.2563 1.21433 17.5 1.804 17.5 2.498C17.5 3.19133 17.2567 3.78167 16.77 4.269C16.2847 4.75633 15.6947 5 15 5C14.6293 5 14.282 4.92267 13.958 4.768C13.6333 4.614 13.3487 4.399 13.104 4.123L5.362 8.685C5.408 8.81033 5.44233 8.94367 5.465 9.085C5.48833 9.227 5.5 9.364 5.5 9.496C5.5 9.628 5.48833 9.76633 5.465 9.911C5.44233 10.055 5.408 10.1897 5.362 10.315L13.104 14.877C13.3487 14.601 13.6333 14.386 13.958 14.232C14.282 14.0773 14.6293 14 15 14C15.6947 14 16.2847 14.243 16.77 14.729C17.2567 15.2143 17.5 15.804 17.5 16.498C17.5 17.1913 17.2573 17.7817 16.772 18.269C16.286 18.7563 15.696 19 15.002 19ZM15 4C15.4113 4 15.7643 3.853 16.059 3.559C16.353 3.26433 16.5 2.91133 16.5 2.5C16.5 2.08867 16.353 1.73567 16.059 1.441C15.7643 1.147 15.4113 1 15 1C14.5887 1 14.2357 1.147 13.941 1.441C13.647 1.73567 13.5 2.08867 13.5 2.5C13.5 2.91133 13.647 3.26433 13.941 3.559C14.2357 3.853 14.5887 4 15 4ZM3 11C3.41133 11 3.76433 10.853 4.059 10.559C4.353 10.2643 4.5 9.91133 4.5 9.5C4.5 9.08867 4.353 8.73567 4.059 8.441C3.76433 8.147 3.41133 8 3 8C2.58867 8 2.23567 8.147 1.941 8.441C1.647 8.73567 1.5 9.08867 1.5 9.5C1.5 9.91133 1.647 10.2643 1.941 10.559C2.23567 10.853 2.58867 11 3 11ZM15 18C15.4113 18 15.7643 17.853 16.059 17.559C16.353 17.2643 16.5 16.9113 16.5 16.5C16.5 16.0887 16.353 15.7357 16.059 15.441C15.7643 15.147 15.4113 15 15 15C14.5887 15 14.2357 15.147 13.941 15.441C13.647 15.7357 13.5 16.0887 13.5 16.5C13.5 16.9113 13.647 17.2643 13.941 17.559C14.2357 17.853 14.5887 18 15 18Z" fill="black"/>
</svg>
