<svg width="23" height="15" viewBox="0 0 23 15" fill="none" xmlns="http://www.w3.org/2000/svg">
<path d="M8.00916 1.01071C7.96374 0.914071 7.89175 0.832361 7.8016 0.775127C7.71145 0.717893 7.60688 0.6875 7.5001 0.6875C7.39332 0.6875 7.28875 0.717893 7.1986 0.775127C7.10846 0.832361 7.03646 0.914071 6.99104 1.01071L0.991039 13.7607C0.927511 13.8957 0.920219 14.0504 0.970765 14.1908C1.02131 14.3312 1.12556 14.4458 1.26057 14.5093C1.39558 14.5728 1.5503 14.5801 1.69069 14.5296C1.83108 14.479 1.94564 14.3748 2.00916 14.2398L3.62166 10.8123H11.3785L12.991 14.2388C13.0225 14.3057 13.0668 14.3657 13.1215 14.4154C13.1761 14.4651 13.24 14.5036 13.3095 14.5286C13.379 14.5537 13.4528 14.5648 13.5266 14.5613C13.6004 14.5578 13.6728 14.5398 13.7396 14.5084C13.8065 14.4769 13.8665 14.4326 13.9162 14.3779C13.9659 14.3233 14.0044 14.2594 14.0294 14.1899C14.0545 14.1204 14.0656 14.0466 14.0621 13.9728C14.0586 13.899 14.0406 13.8266 14.0092 13.7598L8.00916 1.01071ZM4.15135 9.68727L7.5001 2.57071L10.8489 9.68727H4.15135ZM18.7501 5.18727C17.6054 5.18727 16.7148 5.49477 16.1035 6.10039C16.0511 6.15247 16.0094 6.21437 15.9809 6.28255C15.9524 6.35074 15.9375 6.42387 15.9373 6.49778C15.937 6.57169 15.9513 6.64493 15.9794 6.71331C16.0074 6.78169 16.0486 6.84388 16.1007 6.89633C16.2059 7.00225 16.3488 7.06205 16.4981 7.06258C16.572 7.06284 16.6453 7.04854 16.7136 7.0205C16.782 6.99246 16.8442 6.95122 16.8967 6.89914C17.2885 6.51008 17.9129 6.31227 18.7501 6.31227C20.0945 6.31227 21.1876 7.23758 21.1876 8.37477V9.05352C20.5021 8.48737 19.6391 8.18068 18.7501 8.18727C16.786 8.18727 15.1876 9.61696 15.1876 11.3748C15.1876 13.1326 16.786 14.5623 18.7501 14.5623C19.6391 14.5689 20.5021 14.2622 21.1876 13.696V13.9998C21.1876 14.149 21.2469 14.292 21.3524 14.3975C21.4578 14.503 21.6009 14.5623 21.7501 14.5623C21.8993 14.5623 22.0424 14.503 22.1479 14.3975C22.2533 14.292 22.3126 14.149 22.3126 13.9998V8.37477C22.3126 6.61696 20.7189 5.18727 18.7501 5.18727ZM18.7501 13.4373C17.4057 13.4373 16.3126 12.512 16.3126 11.3748C16.3126 10.2376 17.4057 9.31227 18.7501 9.31227C20.0945 9.31227 21.1876 10.2376 21.1876 11.3748C21.1876 12.512 20.0945 13.4373 18.7501 13.4373Z" fill="#333333"/>
</svg>
