<svg width="20" height="20" viewBox="0 0 20 20" fill="none" xmlns="http://www.w3.org/2000/svg">
<path d="M1 19H3M3 19H17M3 19V7.328M19 19H17M17 19V7.328M3 7.328C2.96261 7.30652 2.92592 7.28385 2.89 7.26L2.35 6.9C1.96826 6.64537 1.68568 6.26722 1.54967 5.82896C1.41366 5.39071 1.43249 4.91902 1.603 4.493L2.497 2.257C2.64549 1.88591 2.90176 1.56781 3.23276 1.34376C3.56376 1.11971 3.9543 0.999973 4.354 1H15.646C16.0457 0.999973 16.4362 1.11971 16.7672 1.34376C17.0982 1.56781 17.3545 1.88591 17.503 2.257L18.397 4.493C18.5675 4.91902 18.5863 5.39071 18.4503 5.82896C18.3143 6.26722 18.0317 6.64537 17.65 6.9L17.11 7.26C17.0741 7.28385 17.0374 7.30652 17 7.328M3 7.328C3.32305 7.51458 3.69184 7.60709 4.0647 7.59507C4.43757 7.58306 4.79964 7.46699 5.11 7.26L7 6L8.89 7.26C9.21866 7.47928 9.6049 7.5963 10 7.5963C10.3951 7.5963 10.7813 7.47928 11.11 7.26L13 6L14.89 7.26C15.2004 7.46699 15.5624 7.58306 15.9353 7.59507C16.3082 7.60709 16.677 7.51458 17 7.328" stroke="black" stroke-linecap="round" stroke-linejoin="round"/>
<path d="M12 19V14C12 13.4696 11.7893 12.9609 11.4142 12.5858C11.0391 12.2107 10.5304 12 10 12C9.46957 12 8.96086 12.2107 8.58579 12.5858C8.21071 12.9609 8 13.4696 8 14V19" stroke="black"/>
</svg>
