<svg width="24" height="24" viewBox="0 0 24 24" fill="none" xmlns="http://www.w3.org/2000/svg">
<path d="M0 17.9974C0 18.7046 0.280952 19.3829 0.781049 19.883C1.28115 20.3831 1.95942 20.6641 2.66667 20.6641H21.3333C22.0406 20.6641 22.7189 20.3831 23.219 19.883C23.719 19.3829 24 18.7046 24 17.9974V14.6641H0V17.9974Z" fill="#138808"/>
<path d="M24 9.33594V6.0026C24 5.29536 23.719 4.61708 23.219 4.11699C22.7189 3.61689 22.0406 3.33594 21.3333 3.33594H2.66667C1.95942 3.33594 1.28115 3.61689 0.781049 4.11699C0.280952 4.61708 0 5.29536 0 6.0026L0 9.33594H24Z" fill="#FF9933"/>
<path d="M0 9.11328H24V14.8913H0V9.11328Z" fill="#F7F7F7"/>
<path d="M11.9987 14.6654C13.4715 14.6654 14.6654 13.4715 14.6654 11.9987C14.6654 10.5259 13.4715 9.33203 11.9987 9.33203C10.5259 9.33203 9.33203 10.5259 9.33203 11.9987C9.33203 13.4715 10.5259 14.6654 11.9987 14.6654Z" fill="#000080"/>
<path d="M12 14.25C13.2426 14.25 14.25 13.2426 14.25 12C14.25 10.7574 13.2426 9.75 12 9.75C10.7574 9.75 9.75 10.7574 9.75 12C9.75 13.2426 10.7574 14.25 12 14.25Z" fill="#F7F7F7"/>
<path d="M12.0672 11.1672L12.0005 11.6005L11.9339 11.1672L12.0005 9.86719L12.0672 11.1672ZM11.4485 9.93985L11.7205 11.2125L11.8972 11.6139L11.8492 11.1785L11.4485 9.93985ZM10.9339 10.1532L11.5259 11.3119L11.8005 11.6539L11.6419 11.2452L10.9339 10.1532ZM10.4919 10.4919L11.3639 11.4585L11.7179 11.7179L11.4585 11.3639L10.4919 10.4919ZM10.1532 10.9339L11.2452 11.6419L11.6539 11.8005L11.3119 11.5259L10.1532 10.9339ZM9.93985 11.4485L11.1785 11.8492L11.6139 11.8972L11.2125 11.7205L9.93985 11.4485ZM9.86719 12.0005L11.1672 12.0672L11.6005 12.0005L11.1672 11.9339L9.86719 12.0005ZM9.93985 12.5525L11.2125 12.2805L11.6139 12.1039L11.1785 12.1519L9.93985 12.5525ZM10.1532 13.0672L11.3119 12.4752L11.6539 12.2005L11.2452 12.3592L10.1532 13.0672ZM10.4919 13.5092L11.4585 12.6372L11.7179 12.2832L11.3639 12.5425L10.4919 13.5092ZM10.9339 13.8479L11.6419 12.7559L11.8005 12.3472L11.5259 12.6892L10.9339 13.8479ZM11.4485 14.0612L11.8492 12.8225L11.8972 12.3872L11.7205 12.7885L11.4485 14.0612ZM12.0005 14.1339L12.0672 12.8339L12.0005 12.4005L11.9339 12.8339L12.0005 14.1339ZM12.5525 14.0612L12.2805 12.7885L12.1039 12.3872L12.1519 12.8225L12.5525 14.0612ZM13.0672 13.8479L12.4752 12.6892L12.2005 12.3472L12.3592 12.7559L13.0672 13.8479ZM13.5092 13.5092L12.6372 12.5425L12.2832 12.2832L12.5425 12.6372L13.5092 13.5092ZM13.8479 13.0672L12.7559 12.3592L12.3472 12.2005L12.6892 12.4752L13.8479 13.0672ZM14.0612 12.5525L12.8225 12.1519L12.3872 12.1039L12.7885 12.2805L14.0612 12.5525ZM14.1339 12.0005L12.8339 11.9339L12.4005 12.0005L12.8339 12.0672L14.1339 12.0005ZM14.0612 11.4485L12.7885 11.7205L12.3872 11.8972L12.8225 11.8492L14.0612 11.4485ZM13.8479 10.9339L12.6892 11.5259L12.3472 11.8005L12.7559 11.6419L13.8479 10.9339ZM13.5092 10.4919L12.5425 11.3639L12.2832 11.7179L12.6372 11.4585L13.5092 10.4919ZM13.0672 10.1532L12.3592 11.2452L12.2005 11.6539L12.4752 11.3119L13.0672 10.1532ZM12.5525 9.93985L12.1519 11.1785L12.1039 11.6139L12.2805 11.2125L12.5525 9.93985Z" fill="#6666B3"/>
<path d="M11.7076 9.90729C11.7812 9.90729 11.8409 9.8476 11.8409 9.77396C11.8409 9.70032 11.7812 9.64062 11.7076 9.64062C11.6339 9.64062 11.5742 9.70032 11.5742 9.77396C11.5742 9.8476 11.6339 9.90729 11.7076 9.90729Z" fill="#000080"/>
<path d="M11.1411 10.0596C11.2148 10.0596 11.2745 9.99994 11.2745 9.9263C11.2745 9.85266 11.2148 9.79297 11.1411 9.79297C11.0675 9.79297 11.0078 9.85266 11.0078 9.9263C11.0078 9.99994 11.0675 10.0596 11.1411 10.0596Z" fill="#000080"/>
<path d="M10.6333 10.3526C10.707 10.3526 10.7667 10.2929 10.7667 10.2193C10.7667 10.1456 10.707 10.0859 10.6333 10.0859C10.5597 10.0859 10.5 10.1456 10.5 10.2193C10.5 10.2929 10.5597 10.3526 10.6333 10.3526Z" fill="#000080"/>
<path d="M10.2193 10.7667C10.2929 10.7667 10.3526 10.707 10.3526 10.6333C10.3526 10.5597 10.2929 10.5 10.2193 10.5C10.1456 10.5 10.0859 10.5597 10.0859 10.6333C10.0859 10.707 10.1456 10.7667 10.2193 10.7667Z" fill="#000080"/>
<path d="M9.9263 11.2745C9.99994 11.2745 10.0596 11.2148 10.0596 11.1411C10.0596 11.0675 9.99994 11.0078 9.9263 11.0078C9.85266 11.0078 9.79297 11.0675 9.79297 11.1411C9.79297 11.2148 9.85266 11.2745 9.9263 11.2745Z" fill="#000080"/>
<path d="M9.77396 11.8409C9.8476 11.8409 9.90729 11.7812 9.90729 11.7076C9.90729 11.6339 9.8476 11.5742 9.77396 11.5742C9.70032 11.5742 9.64062 11.6339 9.64062 11.7076C9.64062 11.7812 9.70032 11.8409 9.77396 11.8409Z" fill="#000080"/>
<path d="M9.77396 12.4307C9.8476 12.4307 9.90729 12.371 9.90729 12.2974C9.90729 12.2238 9.8476 12.1641 9.77396 12.1641C9.70032 12.1641 9.64062 12.2238 9.64062 12.2974C9.64062 12.371 9.70032 12.4307 9.77396 12.4307Z" fill="#000080"/>
<path d="M9.9263 12.9932C9.99994 12.9932 10.0596 12.9335 10.0596 12.8599C10.0596 12.7863 9.99994 12.7266 9.9263 12.7266C9.85266 12.7266 9.79297 12.7863 9.79297 12.8599C9.79297 12.9335 9.85266 12.9932 9.9263 12.9932Z" fill="#000080"/>
<path d="M10.2193 13.501C10.2929 13.501 10.3526 13.4413 10.3526 13.3677C10.3526 13.2941 10.2929 13.2344 10.2193 13.2344C10.1456 13.2344 10.0859 13.2941 10.0859 13.3677C10.0859 13.4413 10.1456 13.501 10.2193 13.501Z" fill="#000080"/>
<path d="M10.6333 13.919C10.707 13.919 10.7667 13.8593 10.7667 13.7857C10.7667 13.712 10.707 13.6523 10.6333 13.6523C10.5597 13.6523 10.5 13.712 10.5 13.7857C10.5 13.8593 10.5597 13.919 10.6333 13.919Z" fill="#000080"/>
<path d="M11.1411 14.2081C11.2148 14.2081 11.2745 14.1484 11.2745 14.0747C11.2745 14.0011 11.2148 13.9414 11.1411 13.9414C11.0675 13.9414 11.0078 14.0011 11.0078 14.0747C11.0078 14.1484 11.0675 14.2081 11.1411 14.2081Z" fill="#000080"/>
<path d="M11.7076 14.3604C11.7812 14.3604 11.8409 14.3007 11.8409 14.2271C11.8409 14.1534 11.7812 14.0938 11.7076 14.0938C11.6339 14.0938 11.5742 14.1534 11.5742 14.2271C11.5742 14.3007 11.6339 14.3604 11.7076 14.3604Z" fill="#000080"/>
<path d="M12.2954 14.3604C12.3691 14.3604 12.4288 14.3007 12.4288 14.2271C12.4288 14.1534 12.3691 14.0938 12.2954 14.0938C12.2218 14.0938 12.1621 14.1534 12.1621 14.2271C12.1621 14.3007 12.2218 14.3604 12.2954 14.3604Z" fill="#000080"/>
<path d="M12.8599 14.212C12.9335 14.212 12.9932 14.1523 12.9932 14.0786C12.9932 14.005 12.9335 13.9453 12.8599 13.9453C12.7863 13.9453 12.7266 14.005 12.7266 14.0786C12.7266 14.1523 12.7863 14.212 12.8599 14.212Z" fill="#000080"/>
<path d="M13.3697 13.9151C13.4433 13.9151 13.503 13.8554 13.503 13.7818C13.503 13.7081 13.4433 13.6484 13.3697 13.6484C13.296 13.6484 13.2363 13.7081 13.2363 13.7818C13.2363 13.8554 13.296 13.9151 13.3697 13.9151Z" fill="#000080"/>
<path d="M13.7837 13.501C13.8574 13.501 13.9171 13.4413 13.9171 13.3677C13.9171 13.2941 13.8574 13.2344 13.7837 13.2344C13.7101 13.2344 13.6504 13.2941 13.6504 13.3677C13.6504 13.4413 13.7101 13.501 13.7837 13.501Z" fill="#000080"/>
<path d="M14.0767 12.9932C14.1503 12.9932 14.21 12.9335 14.21 12.8599C14.21 12.7863 14.1503 12.7266 14.0767 12.7266C14.0031 12.7266 13.9434 12.7863 13.9434 12.8599C13.9434 12.9335 14.0031 12.9932 14.0767 12.9932Z" fill="#000080"/>
<path d="M14.229 12.4268C14.3027 12.4268 14.3624 12.3671 14.3624 12.2935C14.3624 12.2199 14.3027 12.1602 14.229 12.1602C14.1554 12.1602 14.0957 12.2199 14.0957 12.2935C14.0957 12.3671 14.1554 12.4268 14.229 12.4268Z" fill="#000080"/>
<path d="M14.229 11.8409C14.3027 11.8409 14.3624 11.7812 14.3624 11.7076C14.3624 11.6339 14.3027 11.5742 14.229 11.5742C14.1554 11.5742 14.0957 11.6339 14.0957 11.7076C14.0957 11.7812 14.1554 11.8409 14.229 11.8409Z" fill="#000080"/>
<path d="M14.0767 11.2745C14.1503 11.2745 14.21 11.2148 14.21 11.1411C14.21 11.0675 14.1503 11.0078 14.0767 11.0078C14.0031 11.0078 13.9434 11.0675 13.9434 11.1411C13.9434 11.2148 14.0031 11.2745 14.0767 11.2745Z" fill="#000080"/>
<path d="M13.7837 10.7667C13.8574 10.7667 13.9171 10.707 13.9171 10.6333C13.9171 10.5597 13.8574 10.5 13.7837 10.5C13.7101 10.5 13.6504 10.5597 13.6504 10.6333C13.6504 10.707 13.7101 10.7667 13.7837 10.7667Z" fill="#000080"/>
<path d="M13.3697 10.3526C13.4433 10.3526 13.503 10.2929 13.503 10.2193C13.503 10.1456 13.4433 10.0859 13.3697 10.0859C13.296 10.0859 13.2363 10.1456 13.2363 10.2193C13.2363 10.2929 13.296 10.3526 13.3697 10.3526Z" fill="#000080"/>
<path d="M12.8599 10.0596C12.9335 10.0596 12.9932 9.99994 12.9932 9.9263C12.9932 9.85266 12.9335 9.79297 12.8599 9.79297C12.7863 9.79297 12.7266 9.85266 12.7266 9.9263C12.7266 9.99994 12.7863 10.0596 12.8599 10.0596Z" fill="#000080"/>
<path d="M12.2954 9.90729C12.3691 9.90729 12.4288 9.8476 12.4288 9.77396C12.4288 9.70032 12.3691 9.64062 12.2954 9.64062C12.2218 9.64062 12.1621 9.70032 12.1621 9.77396C12.1621 9.8476 12.2218 9.90729 12.2954 9.90729Z" fill="#000080"/>
<path d="M12.0004 12.6023C12.3318 12.6023 12.6004 12.3337 12.6004 12.0023C12.6004 11.671 12.3318 11.4023 12.0004 11.4023C11.669 11.4023 11.4004 11.671 11.4004 12.0023C11.4004 12.3337 11.669 12.6023 12.0004 12.6023Z" fill="#000080"/>
</svg>
