<svg width="20" height="20" viewBox="0 0 20 20" fill="none" xmlns="http://www.w3.org/2000/svg">
<path d="M4.18837 7.17014C4.12866 7.224 4.08128 7.28797 4.04896 7.35838C4.01664 7.42879 4 7.50427 4 7.58049C4 7.65672 4.01664 7.73219 4.04896 7.8026C4.08128 7.87302 4.12866 7.93698 4.18837 7.99084L9.54579 12.8299C9.60542 12.8838 9.67623 12.9266 9.75419 12.9558C9.83214 12.985 9.91571 13 10.0001 13C10.0845 13 10.168 12.985 10.246 12.9558C10.324 12.9266 10.3948 12.8838 10.4544 12.8299L15.8118 7.99084C15.8715 7.93695 15.9188 7.87298 15.9511 7.80257C15.9834 7.73216 16 7.6567 16 7.58049C16 7.50428 15.9834 7.42882 15.9511 7.35841C15.9188 7.288 15.8715 7.22403 15.8118 7.17014C15.7522 7.11626 15.6813 7.07351 15.6034 7.04435C15.5254 7.01518 15.4419 7.00017 15.3575 7.00017C15.2731 7.00017 15.1896 7.01518 15.1116 7.04435C15.0337 7.07351 14.9629 7.11626 14.9032 7.17014L10.0001 11.598L5.09699 7.17014C5.03736 7.11621 4.96654 7.07342 4.88859 7.04422C4.81063 7.01503 4.72707 7 4.64268 7C4.55829 7 4.47473 7.01503 4.39677 7.04422C4.31882 7.07342 4.248 7.11621 4.18837 7.17014Z" fill="#3485BB"/>
</svg>
