<svg width="44" height="44" viewBox="0 0 44 44" fill="none" xmlns="http://www.w3.org/2000/svg">
<g clip-path="url(#clip0_1683_30961)">
<circle cx="22" cy="22" r="22" fill="url(#paint0_linear_1683_30961)" fill-opacity="0.6"/>
<path d="M22.5538 30.168C21.4338 30.168 20.4258 29.976 19.5298 29.592C18.6338 29.192 17.9298 28.632 17.4178 27.912C16.9058 27.192 16.6498 26.352 16.6498 25.392H19.5778C19.6418 26.112 19.9218 26.704 20.4178 27.168C20.9298 27.632 21.6418 27.864 22.5538 27.864C23.4978 27.864 24.2338 27.64 24.7618 27.192C25.2898 26.728 25.5538 26.136 25.5538 25.416C25.5538 24.856 25.3858 24.4 25.0498 24.048C24.7298 23.696 24.3218 23.424 23.8258 23.232C23.3458 23.04 22.6738 22.832 21.8098 22.608C20.7218 22.32 19.8338 22.032 19.1458 21.744C18.4738 21.44 17.8978 20.976 17.4178 20.352C16.9378 19.728 16.6978 18.896 16.6978 17.856C16.6978 16.896 16.9378 16.056 17.4178 15.336C17.8978 14.616 18.5698 14.064 19.4338 13.68C20.2978 13.296 21.2978 13.104 22.4338 13.104C24.0498 13.104 25.3698 13.512 26.3938 14.328C27.4338 15.128 28.0098 16.232 28.1218 17.64H25.0978C25.0498 17.032 24.7618 16.512 24.2338 16.08C23.7058 15.648 23.0098 15.432 22.1458 15.432C21.3618 15.432 20.7218 15.632 20.2258 16.032C19.7298 16.432 19.4818 17.008 19.4818 17.76C19.4818 18.272 19.6338 18.696 19.9378 19.032C20.2578 19.352 20.6578 19.608 21.1378 19.8C21.6178 19.992 22.2738 20.2 23.1058 20.424C24.2098 20.728 25.1058 21.032 25.7938 21.336C26.4978 21.64 27.0898 22.112 27.5698 22.752C28.0658 23.376 28.3138 24.216 28.3138 25.272C28.3138 26.12 28.0818 26.92 27.6178 27.672C27.1698 28.424 26.5058 29.032 25.6258 29.496C24.7618 29.944 23.7378 30.168 22.5538 30.168Z" fill="black"/>
</g>
<defs>
<linearGradient id="paint0_linear_1683_30961" x1="5.5" y1="4.91738e-07" x2="38.5" y2="44" gradientUnits="userSpaceOnUse">
<stop offset="0.166667" stop-color="#FFA800"/>
<stop offset="0.380208" stop-color="#FF8A00"/>
<stop offset="0.59375" stop-color="#FF467B"/>
<stop offset="1" stop-color="#FF4080"/>
</linearGradient>
<clipPath id="clip0_1683_30961">
<rect width="44" height="44" fill="white"/>
</clipPath>
</defs>
</svg>
