<svg width="34" height="34" viewBox="0 0 34 34" fill="none" xmlns="http://www.w3.org/2000/svg">
<path d="M17 2.125C8.78555 2.125 2.125 8.78555 2.125 17C2.125 25.2145 8.78555 31.875 17 31.875C25.2145 31.875 31.875 25.2145 31.875 17C31.875 8.78555 25.2145 2.125 17 2.125ZM22.5449 23.1625C21.1969 24.4043 19.3574 25.1348 17.1627 25.1348C13.9852 25.1348 11.2359 23.3119 9.89785 20.6557C9.34668 19.5566 9.03125 18.3148 9.03125 17C9.03125 15.6852 9.34668 14.4434 9.89785 13.3443C11.2359 10.6848 13.9852 8.86191 17.1627 8.86191C19.3541 8.86191 21.1936 9.66875 22.6047 10.9803L20.2738 13.3145C19.4305 12.5076 18.358 12.0992 17.166 12.0992C15.0477 12.0992 13.2547 13.5303 12.6139 15.4527C12.4512 15.9408 12.3582 16.4621 12.3582 17C12.3582 17.5379 12.4512 18.0592 12.6139 18.5473C13.2547 20.4697 15.0477 21.9008 17.1627 21.9008C18.2584 21.9008 19.1881 21.6119 19.9152 21.1238C20.7785 20.5461 21.3496 19.6861 21.5389 18.6668H17.1627V15.5191H24.8227C24.9189 16.0537 24.9688 16.6082 24.9688 17.1826C24.9688 19.6629 24.0822 21.7447 22.5449 23.1625Z" fill="#F6B801"/>
</svg>
