<svg width="24" height="24" viewBox="0 0 24 24" fill="none" xmlns="http://www.w3.org/2000/svg">
<path fill-rule="evenodd" clip-rule="evenodd" d="M22 12C22 17.523 17.523 22 12 22C6.477 22 2 17.523 2 12C2 6.477 6.477 2 12 2C17.523 2 22 6.477 22 12ZM20.488 9C20.828 9.96361 21.0012 10.9782 21 12H16.833C16.5221 11.9997 16.2203 12.1046 15.9765 12.2975C15.7327 12.4904 15.5599 12.7588 15.485 13.0605V13.062L15.0405 14.869C14.9903 15.0749 14.9868 15.2894 15.0303 15.4968C15.0738 15.7042 15.1632 15.8992 15.292 16.0675C15.4215 16.2355 15.587 16.372 15.777 16.466C15.967 16.5605 16.1765 16.6095 16.3885 16.6095H16.6075L17.1025 19.415C15.652 20.415 13.894 21 12 21C10.1982 21.0029 8.43737 20.4623 6.9475 19.449L7.7125 15.1565H8.2165C8.48792 15.1567 8.75579 15.0947 8.99952 14.9753C9.24326 14.8559 9.45637 14.6821 9.6225 14.4675C9.78919 14.2531 9.90505 14.0038 9.96135 13.7381C10.0176 13.4725 10.0129 13.1975 9.9475 12.934L9.306 10.3525L9.3055 10.351C9.20847 9.96494 8.98556 9.62222 8.672 9.377C8.35866 9.13206 7.97221 8.99931 7.5745 9H3.512C4.7475 5.5045 8.0815 3 12 3C12.672 3 13.327 3.0735 13.9575 3.2135L13.741 3.922H13.646C13.4721 3.92214 13.3004 3.96185 13.1441 4.03812C12.9878 4.11439 12.8509 4.22523 12.7438 4.36224C12.6366 4.49926 12.5621 4.65885 12.5257 4.82894C12.4894 4.99903 12.4922 5.17516 12.534 5.344C12.5419 5.37623 12.5532 5.40756 12.5675 5.4375L13.8725 8.19C13.9443 8.42479 14.0897 8.63027 14.2873 8.77611C14.4848 8.92196 14.724 9.00045 14.9695 9H20.488ZM20.0645 8C19.0088 5.87792 17.1611 4.25605 14.92 3.4845L14.589 4.568C14.5577 4.67041 14.4944 4.76008 14.4084 4.82381C14.3223 4.88754 14.2181 4.92195 14.111 4.922H13.646C13.6127 4.92211 13.5803 4.93355 13.5543 4.95445C13.5284 4.97534 13.5103 5.00445 13.503 5.037C13.5007 5.04801 13.4997 5.05925 13.5 5.0705L14.794 7.799C14.8075 7.8285 14.819 7.859 14.827 7.8905C14.8349 7.92186 14.8531 7.94968 14.8786 7.96952C14.9042 7.98936 14.9356 8.00009 14.968 8H20.0645ZM16.8315 13H20.945C20.7003 15.2035 19.6492 17.2386 17.994 18.7135L17.5195 16.023C17.4992 15.9072 17.4387 15.8023 17.3487 15.7267C17.2588 15.6511 17.145 15.6096 17.0275 15.6095H16.3885C16.3306 15.6095 16.2734 15.5962 16.2215 15.5705C16.168 15.5439 16.1213 15.5054 16.085 15.458C16.047 15.4088 16.0207 15.3515 16.008 15.2907C15.9954 15.2298 15.9967 15.1668 16.012 15.1065L16.4555 13.302C16.4769 13.2151 16.5265 13.1377 16.5965 13.082C16.6633 13.0289 16.7462 13 16.8315 13ZM3.223 10C3.07438 10.6563 2.99958 11.3271 3 12C2.99854 13.279 3.27035 14.5435 3.79722 15.7089C4.32409 16.8743 5.09386 17.9137 6.055 18.7575L6.8015 14.569C6.82206 14.4533 6.88268 14.3486 6.97273 14.2732C7.06279 14.1978 7.17653 14.1564 7.294 14.1565H8.2165C8.33556 14.1566 8.45307 14.1294 8.55996 14.077C8.66684 14.0246 8.76026 13.9483 8.833 13.854C8.90688 13.7589 8.95818 13.6483 8.98304 13.5305C9.0079 13.4127 9.00567 13.2908 8.9765 13.174L8.3355 10.5955V10.5945C8.29261 10.4243 8.19427 10.2732 8.056 10.165C7.91898 10.0578 7.74996 9.99972 7.576 10H3.223Z" fill="#A7A7A7"/>
</svg>
