<svg width="38" height="37" viewBox="0 0 38 37" fill="none" xmlns="http://www.w3.org/2000/svg">
<ellipse cx="18.608" cy="18.5" rx="18.442" ry="18.5" fill="#F5F3F3"/>
<g clip-path="url(#clip0_1683_24678)">
<path d="M18.1144 9C14.2557 9 11.1348 12.13 11.1348 16C11.1348 21.25 18.1144 29 18.1144 29C18.1144 29 25.0941 21.25 25.0941 16C25.0941 12.13 21.9732 9 18.1144 9ZM18.1144 18.5C16.7384 18.5 15.6217 17.38 15.6217 16C15.6217 14.62 16.7384 13.5 18.1144 13.5C19.4904 13.5 20.6072 14.62 20.6072 16C20.6072 17.38 19.4904 18.5 18.1144 18.5Z" fill="#F6B801"/>
</g>
<defs>
<clipPath id="clip0_1683_24678">
<rect width="23.9302" height="24" fill="white" transform="translate(6.14844 7)"/>
</clipPath>
</defs>
</svg>
