<svg width="19" height="16" viewBox="0 0 19 16" fill="none" xmlns="http://www.w3.org/2000/svg">
<path d="M11.8953 7.70701C12.9533 7.70701 13.8692 7.32726 14.6178 6.57802C15.3662 5.8289 15.7458 4.91231 15.7458 3.85338C15.7458 2.79483 15.3663 1.87811 14.6177 1.12875C13.8691 0.379748 12.9531 0 11.8953 0C10.8373 0 9.92147 0.379748 9.17297 1.12887C8.42448 1.87799 8.04492 2.7947 8.04492 3.85338C8.04492 4.91231 8.42448 5.82902 9.17297 6.57814C9.92172 7.32714 10.8377 7.70701 11.8953 7.70701ZM9.83549 1.79181C10.4098 1.217 11.0836 0.93759 11.8953 0.93759C12.707 0.93759 13.3809 1.217 13.9553 1.79181C14.5297 2.36674 14.809 3.04116 14.809 3.85338C14.809 4.66586 14.5297 5.34015 13.9553 5.91508C13.3809 6.49001 12.707 6.76942 11.8953 6.76942C11.0838 6.76942 10.4101 6.48989 9.83549 5.91508C9.26103 5.34027 8.98173 4.66586 8.98173 3.85338C8.98173 3.04116 9.26103 2.36674 9.83549 1.79181Z" fill="#141414"/>
<path d="M18.6331 12.3049C18.6115 11.9931 18.5679 11.6531 18.5036 11.2939C18.4387 10.9321 18.3552 10.5901 18.2552 10.2775C18.1517 9.95439 18.0114 9.63531 17.8376 9.32954C17.6574 9.01216 17.4457 8.73581 17.2081 8.5084C16.9597 8.27049 16.6555 8.07921 16.3037 7.93969C15.9532 7.8009 15.5647 7.73059 15.1492 7.73059C14.986 7.73059 14.8282 7.79761 14.5234 7.99621C14.3358 8.11864 14.1164 8.26024 13.8715 8.41685C13.6621 8.55039 13.3784 8.6755 13.028 8.78878C12.6861 8.8995 12.339 8.95565 11.9963 8.95565C11.6538 8.95565 11.3067 8.8995 10.9646 8.78878C10.6146 8.67563 10.3308 8.55051 10.1217 8.41697C9.87912 8.26182 9.65958 8.12023 9.46919 7.99608C9.16465 7.79748 9.00683 7.73047 8.84364 7.73047C8.42798 7.73047 8.03964 7.8009 7.68924 7.93981C7.33774 8.07909 7.03344 8.27037 6.78475 8.50852C6.54716 8.73605 6.33543 9.01229 6.15541 9.32954C5.98186 9.63531 5.84135 9.95427 5.73793 10.2776C5.63804 10.5902 5.55449 10.9321 5.48961 11.2939C5.42521 11.6526 5.38167 11.9928 5.36008 12.3053C5.33886 12.6108 5.32812 12.9288 5.32812 13.2501C5.32812 14.0852 5.5934 14.7614 6.11651 15.26C6.63315 15.752 7.31664 16.0015 8.14807 16.0015H15.8455C16.6767 16.0015 17.3602 15.752 17.877 15.26C18.4002 14.7617 18.6655 14.0854 18.6655 13.2499C18.6653 12.9276 18.6545 12.6096 18.6331 12.3049ZM17.231 14.5807C16.8896 14.9059 16.4364 15.064 15.8454 15.064H8.14807C7.55691 15.064 7.10369 14.9059 6.76243 14.5808C6.42764 14.2619 6.26494 13.8265 6.26494 13.2501C6.26494 12.9503 6.27482 12.6543 6.29457 12.3701C6.31384 12.0913 6.35324 11.785 6.41166 11.4596C6.46935 11.1382 6.54277 10.8366 6.6301 10.5635C6.71389 10.3017 6.82817 10.0424 6.96989 9.79265C7.10515 9.55463 7.26078 9.35041 7.4325 9.18586C7.59313 9.03194 7.79559 8.90597 8.03416 8.81149C8.25479 8.72409 8.50274 8.67624 8.77192 8.66904C8.80473 8.68649 8.86315 8.71981 8.9578 8.78158C9.15038 8.90719 9.37235 9.05049 9.61775 9.20735C9.89436 9.38385 10.2507 9.54327 10.6765 9.68084C11.1118 9.82171 11.5558 9.89324 11.9964 9.89324C12.4371 9.89324 12.8812 9.82171 13.3162 9.68096C13.7423 9.54315 14.0986 9.38385 14.3756 9.2071C14.6267 9.04646 14.8425 8.90731 15.0351 8.78158C15.1297 8.71994 15.1881 8.68649 15.2209 8.66904C15.4902 8.67624 15.7382 8.72409 15.9589 8.81149C16.1974 8.90597 16.3998 9.03206 16.5605 9.18586C16.7322 9.35029 16.8878 9.5545 17.0231 9.79278C17.1649 10.0424 17.2793 10.3018 17.363 10.5634C17.4504 10.8368 17.524 11.1383 17.5816 11.4595C17.6399 11.7855 17.6794 12.0919 17.6986 12.3702C17.7185 12.6533 17.7285 12.9494 17.7286 13.2501C17.7285 13.8266 17.5658 14.2619 17.231 14.5807Z" fill="#141414"/>
<path d="M5.32812 0H10.6569L12.6551 15.9995H5.32812V0Z" fill="white"/>
<path d="M6.56722 7.70701C7.62515 7.70701 8.5411 7.32726 9.28972 6.57802C10.0381 5.8289 10.4177 4.91231 10.4177 3.85338C10.4177 2.79483 10.0382 1.87811 9.2896 1.12875C8.54098 0.379748 7.62502 0 6.56722 0C5.50918 0 4.59335 0.379748 3.84485 1.12887C3.09635 1.87799 2.7168 2.7947 2.7168 3.85338C2.7168 4.91231 3.09635 5.82902 3.84485 6.57814C4.59359 7.32714 5.50955 7.70701 6.56722 7.70701ZM4.50736 1.79181C5.08169 1.217 5.75543 0.93759 6.56722 0.93759C7.3789 0.93759 8.05275 1.217 8.62721 1.79181C9.20154 2.36674 9.48084 3.04116 9.48084 3.85338C9.48084 4.66586 9.20154 5.34015 8.62721 5.91508C8.05275 6.49001 7.3789 6.76942 6.56722 6.76942C5.75567 6.76942 5.08194 6.48989 4.50736 5.91508C3.93291 5.34027 3.65361 4.66586 3.65361 3.85338C3.65361 3.04116 3.93291 2.36674 4.50736 1.79181Z" fill="#141414"/>
<path d="M13.305 12.3049C13.2834 11.9931 13.2398 11.6531 13.1755 11.2939C13.1106 10.9321 13.0271 10.5901 12.927 10.2775C12.8236 9.95439 12.6832 9.63531 12.5094 9.32954C12.3293 9.01216 12.1176 8.73581 11.88 8.5084C11.6315 8.27049 11.3274 8.07921 10.9756 7.93969C10.6251 7.8009 10.2366 7.73059 9.82109 7.73059C9.6579 7.73059 9.50008 7.79761 9.19529 7.99621C9.00771 8.11864 8.78829 8.26024 8.54339 8.41685C8.33397 8.55039 8.05028 8.6755 7.69988 8.78878C7.35801 8.8995 7.0109 8.95565 6.66818 8.95565C6.3257 8.95565 5.97859 8.8995 5.63648 8.78878C5.28644 8.67563 5.00263 8.55051 4.79358 8.41697C4.55099 8.26182 4.33146 8.12023 4.14107 7.99608C3.83652 7.79748 3.6787 7.73047 3.51551 7.73047C3.09986 7.73047 2.71152 7.8009 2.36112 7.93981C2.00961 8.07909 1.70531 8.27037 1.45662 8.50852C1.21904 8.73605 1.00731 9.01229 0.827287 9.32954C0.653731 9.63531 0.513228 9.95427 0.409802 10.2776C0.309912 10.5902 0.226367 10.9321 0.161481 11.2939C0.0970839 11.6526 0.0535425 11.9928 0.0319548 12.3053C0.0107329 12.6108 0 12.9288 0 13.2501C0 14.0852 0.265273 14.7614 0.78838 15.26C1.30502 15.752 1.98851 16.0015 2.81995 16.0015H10.5174C11.3486 16.0015 12.0321 15.752 12.5488 15.26C13.0721 14.7617 13.3373 14.0854 13.3373 13.2499C13.3372 12.9276 13.3264 12.6096 13.305 12.3049ZM11.9029 14.5807C11.5615 14.9059 11.1083 15.064 10.5173 15.064H2.81995C2.22878 15.064 1.77556 14.9059 1.43431 14.5808C1.09951 14.2619 0.936811 13.8265 0.936811 13.2501C0.936811 12.9503 0.94669 12.6543 0.966449 12.3701C0.985719 12.0913 1.02511 11.785 1.08353 11.4596C1.14122 11.1382 1.21465 10.8366 1.30197 10.5635C1.38576 10.3017 1.50004 10.0424 1.64177 9.79265C1.77703 9.55463 1.93265 9.35041 2.10438 9.18586C2.26501 9.03194 2.46747 8.90597 2.70603 8.81149C2.92667 8.72409 3.17462 8.67624 3.4438 8.66904C3.4766 8.68649 3.53503 8.71981 3.62967 8.78158C3.82225 8.90719 4.04423 9.05049 4.28962 9.20735C4.56624 9.38385 4.92262 9.54327 5.3484 9.68084C5.78369 9.82171 6.22764 9.89324 6.6683 9.89324C7.10896 9.89324 7.55303 9.82171 7.98808 9.68096C8.41423 9.54315 8.77048 9.38385 9.04747 9.2071C9.29859 9.04646 9.51435 8.90731 9.70693 8.78158C9.80157 8.71994 9.85999 8.68649 9.8928 8.66904C10.1621 8.67624 10.4101 8.72409 10.6308 8.81149C10.8693 8.90597 11.0717 9.03206 11.2323 9.18586C11.4041 9.35029 11.5597 9.5545 11.695 9.79278C11.8368 10.0424 11.9512 10.3018 12.0349 10.5634C12.1223 10.8368 12.1959 11.1383 12.2534 11.4595C12.3117 11.7855 12.3512 12.0919 12.3705 12.3702V12.3704C12.3904 12.6535 12.4004 12.9494 12.4005 13.2501C12.4004 13.8266 12.2377 14.2619 11.9029 14.5807Z" fill="#141414"/>
</svg>
