<svg width="24" height="19" viewBox="0 0 24 19" fill="none" xmlns="http://www.w3.org/2000/svg">
<path d="M20.4018 0H2.93636C2.15759 0 1.41071 0.309365 0.86004 0.860039C0.309366 1.41071 0 2.15759 0 2.93636V15.7036C0 16.4824 0.309366 17.2293 0.86004 17.78C1.41071 18.3306 2.15759 18.64 2.93636 18.64H20.4018C21.1806 18.64 21.9275 18.3306 22.4781 17.78C23.0288 17.2293 23.3382 16.4824 23.3382 15.7036V2.93636C23.3382 2.15759 23.0288 1.41071 22.4781 0.860039C21.9275 0.309365 21.1806 0 20.4018 0ZM2.93636 1.17454H20.4018C20.8464 1.17326 21.2748 1.34134 21.5999 1.64461C21.925 1.94787 22.1223 2.36356 22.1519 2.80716C19.2508 4.35756 16.3379 5.89621 13.425 7.4466C13.031 7.69356 12.614 7.90203 12.18 8.06911C11.8393 8.13635 11.4881 8.13028 11.1499 8.0513C10.8117 7.97232 10.4942 7.82224 10.2185 7.61104C8.55068 6.73013 6.88283 5.83748 5.22672 4.95657C3.88774 4.25185 2.52527 3.53538 1.18629 2.8189C1.21353 2.37342 1.40983 1.95514 1.7351 1.64952C2.06036 1.34391 2.49004 1.17401 2.93636 1.17454ZM22.1636 15.7036C22.1636 16.1709 21.978 16.619 21.6476 16.9494C21.3172 17.2798 20.8691 17.4655 20.4018 17.4655H2.93636C2.4691 17.4655 2.02097 17.2798 1.69057 16.9494C1.36016 16.619 1.17454 16.1709 1.17454 15.7036V4.15201C3.94647 5.60844 6.70665 7.08837 9.47857 8.55655C9.97381 8.86018 10.507 9.09713 11.0642 9.26127C11.8798 9.39388 12.7157 9.22252 13.4133 8.77971C15.1164 7.88706 16.8077 6.98266 18.5108 6.09001C19.7323 5.43226 20.9421 4.79801 22.1636 4.15201V15.7036Z" fill="black"/>
</svg>
