
<svg width="13" height="10" viewBox="0 0 13 10" fill="none" xmlns="http://www.w3.org/2000/svg">
<path d="M10.9452 0H1.5753C1.1575 0 0.756821 0.165969 0.461395 0.461394C0.165969 0.75682 0 1.1575 0 1.5753V8.4247C0 8.8425 0.165969 9.24318 0.461395 9.5386C0.756821 9.83403 1.1575 10 1.5753 10H10.9452C11.363 10 11.7637 9.83403 12.0591 9.5386C12.3545 9.24318 12.5205 8.8425 12.5205 8.4247V1.5753C12.5205 1.1575 12.3545 0.75682 12.0591 0.461394C11.7637 0.165969 11.363 0 10.9452 0ZM1.5753 0.63012H10.9452C11.1837 0.629432 11.4135 0.719603 11.5879 0.8823C11.7623 1.045 11.8682 1.26801 11.8841 1.50599C10.3277 2.33774 8.76497 3.1632 7.20227 3.99496C6.99086 4.12745 6.76718 4.23928 6.53435 4.32892C6.35155 4.365 6.16317 4.36174 5.98173 4.31937C5.80029 4.277 5.62995 4.19648 5.48204 4.08318C4.58727 3.61059 3.6925 3.1317 2.80403 2.65911C2.0857 2.28103 1.35476 1.89666 0.636421 1.51229C0.651035 1.27329 0.756348 1.0489 0.930846 0.884938C1.10534 0.72098 1.33586 0.629834 1.5753 0.63012ZM11.8904 8.4247C11.8904 8.67538 11.7908 8.91579 11.6135 9.09304C11.4363 9.2703 11.1959 9.36988 10.9452 9.36988H1.5753C1.32462 9.36988 1.08421 9.2703 0.906957 9.09304C0.729701 8.91579 0.63012 8.67538 0.63012 8.4247V2.22747C2.1172 3.00882 3.59799 3.80277 5.08507 4.59042C5.35076 4.75332 5.63678 4.88044 5.93573 4.96849C6.37327 5.03963 6.82171 4.9477 7.19597 4.71014C8.10964 4.23125 9.01702 3.74606 9.93069 3.26717C10.586 2.9143 11.235 2.57404 11.8904 2.22747V8.4247Z" fill="#828282"/>
</svg>
