<svg width="18" height="20" viewBox="0 0 18 20" fill="none" xmlns="http://www.w3.org/2000/svg">
<path d="M13.9873 7.9756C16.1865 7.9756 17.9756 6.1865 17.9756 3.9878C17.9756 1.7891 16.1865 0 13.9873 0C11.7881 0 9.99902 1.7891 9.99902 3.9878C9.99902 6.1865 11.7881 7.9756 13.9873 7.9756ZM13.9873 2C15.084 2 15.9756 2.8916 15.9756 3.9878C15.9756 5.084 15.084 5.9756 13.9873 5.9756C12.8906 5.9756 11.999 5.084 11.999 3.9878C11.999 2.8916 12.8906 2 13.9873 2Z" fill="#A7A7A7"/>
<path d="M17.551 14.0427C15.8088 11.7927 15.7209 10.9411 15.7209 10.7932V10.1365C15.7209 9.58431 15.2736 9.13651 14.7209 9.13651C14.1682 9.13651 13.7209 9.58431 13.7209 10.1365V10.7932C13.7209 11.8494 14.4563 13.3127 15.9689 15.2668C15.9933 15.2985 16.0148 15.3342 15.9835 15.3972C15.963 15.4387 15.9103 15.508 15.7843 15.508H2.21597C2.08997 15.508 2.03727 15.4387 2.01677 15.3972C1.98557 15.3342 2.00697 15.2986 2.03137 15.2673C3.54407 13.3127 4.27937 11.8493 4.27937 10.7932V7.43781C4.27937 5.20291 6.02447 3.28501 8.33897 2.97591C8.88687 2.90271 9.27157 2.39971 9.19837 1.85241C9.12517 1.30551 8.61437 0.919307 8.07537 0.993507C4.77067 1.43431 2.27947 4.20481 2.27947 7.43781V10.7933C2.27947 10.9412 2.19157 11.7928 0.449371 14.0433C-0.0506286 14.6898 -0.138528 15.5462 0.220872 16.2782C0.593872 17.037 1.35757 17.5082 2.21597 17.5082H5.31337C5.90387 18.9707 7.32807 20.0097 9.00017 20.0097C10.6723 20.0097 12.0965 18.9707 12.687 17.5082H15.7844C16.6428 17.5082 17.4065 17.037 17.7795 16.2782C18.1389 15.5462 18.051 14.6897 17.551 14.0427ZM7.71457 17.5081H10.2858C9.93777 17.8111 9.49747 18.0096 9.00017 18.0096C8.50287 18.0096 8.06257 17.811 7.71457 17.5081Z" fill="#A7A7A7"/>
</svg>
