<svg width="16" height="16" viewBox="0 0 16 16" fill="none" xmlns="http://www.w3.org/2000/svg">
<path d="M9.35948 2.7618C9.37191 2.71515 9.39342 2.67141 9.42278 2.63308C9.45213 2.59475 9.48875 2.56258 9.53055 2.53841C9.57234 2.51425 9.61849 2.49856 9.66636 2.49224C9.71422 2.48592 9.76286 2.48909 9.80949 2.50159C10.6968 2.73304 11.5063 3.19685 12.1547 3.84526C12.8031 4.49367 13.267 5.30321 13.4984 6.19051C13.5109 6.23714 13.5141 6.28578 13.5078 6.33364C13.5014 6.38151 13.4858 6.42766 13.4616 6.46945C13.4374 6.51125 13.4053 6.54787 13.3669 6.57722C13.3286 6.60658 13.2849 6.62809 13.2382 6.64052C13.2072 6.64877 13.1753 6.65288 13.1433 6.65277C13.0624 6.65282 12.9837 6.62614 12.9195 6.57687C12.8552 6.5276 12.8091 6.4585 12.7882 6.38031C12.5895 5.61815 12.1911 4.92276 11.6342 4.36582C11.0772 3.80888 10.3819 3.41052 9.61969 3.21182C9.57304 3.19938 9.5293 3.17787 9.49097 3.14852C9.45264 3.11916 9.42047 3.08254 9.39631 3.04075C9.37214 2.99895 9.35645 2.9528 9.35013 2.90494C9.34381 2.85708 9.34698 2.80844 9.35948 2.7618ZM9.12988 5.17108C10.0207 5.40864 10.5914 5.97927 10.8289 6.87012C10.8498 6.94832 10.896 7.01741 10.9602 7.06668C11.0244 7.11595 11.1031 7.14263 11.184 7.14258C11.2161 7.1427 11.248 7.13858 11.2789 7.13034C11.3256 7.1179 11.3693 7.09639 11.4077 7.06704C11.446 7.03768 11.4782 7.00106 11.5023 6.95927C11.5265 6.91747 11.5422 6.87132 11.5485 6.82346C11.5548 6.7756 11.5516 6.72696 11.5392 6.68032C11.233 5.53477 10.4652 4.76698 9.31968 4.46085C9.27305 4.44838 9.22441 4.44523 9.17656 4.45156C9.12871 4.45789 9.08257 4.47359 9.04078 4.49775C8.95638 4.54655 8.89483 4.62688 8.86966 4.72106C8.84449 4.81524 8.85777 4.91557 8.90657 4.99996C8.95537 5.08436 9.03569 5.14591 9.12988 5.17108ZM13.9937 11.1101C13.8888 11.9105 13.4961 12.6453 12.8888 13.1771C12.2816 13.709 11.5014 14.0015 10.6942 14C5.90016 14 2.00001 10.0998 2.00001 5.30578C1.99846 4.49883 2.29072 3.71892 2.8222 3.11172C3.35369 2.50453 4.08803 2.11157 4.88808 2.00626C5.07225 1.98388 5.25871 2.02186 5.41945 2.11448C5.5802 2.20711 5.70655 2.34939 5.77954 2.51995L7.07143 5.40374C7.12847 5.53429 7.15207 5.677 7.1401 5.81897C7.12813 5.96094 7.08096 6.09768 7.00285 6.21683C6.99498 6.22896 6.98639 6.24062 6.97714 6.25173L5.68709 7.78608C5.67926 7.80198 5.67518 7.81947 5.67518 7.8372C5.67518 7.85493 5.67926 7.87242 5.68709 7.88833C6.15609 8.84836 7.16266 9.84759 8.13616 10.316C8.15242 10.3234 8.17018 10.3269 8.18803 10.3263C8.20588 10.3256 8.22334 10.3209 8.23903 10.3123L9.75072 9.02654C9.76151 9.01714 9.77297 9.00855 9.785 9.00082C9.90363 8.92173 10.0401 8.87348 10.1821 8.86044C10.3241 8.84739 10.467 8.86997 10.5981 8.92612L13.4905 10.2223C13.6587 10.2969 13.7986 10.4237 13.8892 10.5839C13.9798 10.7441 14.0165 10.9293 13.9937 11.1119V11.1101ZM13.2658 11.0195C13.2678 10.9939 13.2618 10.9683 13.2485 10.9463C13.2352 10.9243 13.2153 10.9071 13.1917 10.897L10.2987 9.60084C10.2829 9.59474 10.266 9.59213 10.249 9.59319C10.2321 9.59425 10.2157 9.59895 10.2007 9.60697L8.68965 10.8927C8.67863 10.9019 8.667 10.9105 8.65537 10.9184C8.53211 11.0006 8.38965 11.0495 8.24189 11.0602C8.09413 11.0709 7.94611 11.0432 7.81227 10.9797C6.68815 10.4366 5.5677 9.32655 5.02461 8.21283C4.96074 8.07977 4.93231 7.93247 4.94207 7.78519C4.95183 7.63791 4.99945 7.49565 5.08033 7.37218C5.08821 7.35991 5.09702 7.34824 5.10666 7.33729L6.3961 5.80294C6.40346 5.7869 6.40728 5.76946 6.40728 5.75182C6.40728 5.73417 6.40346 5.71673 6.3961 5.70069L5.10666 2.81446C5.09815 2.79129 5.08284 2.77124 5.06274 2.75693C5.04263 2.74261 5.01867 2.73471 4.994 2.73425H4.97992C4.35721 2.81708 3.78593 3.12374 3.37277 3.59695C2.95961 4.07017 2.73281 4.67758 2.73473 5.30578C2.73473 9.69452 6.30548 13.2653 10.6942 13.2653C11.3225 13.2672 11.93 13.0403 12.4032 12.627C12.8765 12.2137 13.1831 11.6423 13.2658 11.0195Z" fill="#828282"/>
</svg>
