<svg width="24" height="24" viewBox="0 0 24 24" fill="none" xmlns="http://www.w3.org/2000/svg">
<rect width="24" height="24" rx="4" fill="#F7F7FF"/>
<path d="M11.9992 6.64297C11.597 6.64297 11.2709 6.96905 11.2709 7.37128V16.6243C11.2709 17.0265 11.597 17.3526 11.9992 17.3526C12.4014 17.3526 12.7275 17.0265 12.7275 16.6243V7.37128C12.7275 6.96905 12.4014 6.64297 11.9992 6.64297Z" fill="#6F6C90" stroke="#6F6C90" stroke-width="0.3" stroke-linecap="round"/>
<path d="M7.37324 11.268C6.971 11.268 6.64492 11.594 6.64492 11.9963C6.64492 12.3985 6.971 12.7246 7.37323 12.7246H16.6262C17.0285 12.7246 17.3546 12.3985 17.3546 11.9963C17.3546 11.594 17.0285 11.268 16.6262 11.268H7.37324Z" fill="#6F6C90" stroke="#6F6C90" stroke-width="0.3" stroke-linecap="round"/>
</svg>
