<svg width="12" height="12" viewBox="0 0 12 12" fill="none" xmlns="http://www.w3.org/2000/svg">
<path d="M7.35948 0.761801C7.37191 0.715151 7.39342 0.671411 7.42278 0.63308C7.45213 0.59475 7.48875 0.562582 7.53055 0.538414C7.57234 0.514247 7.61849 0.498556 7.66636 0.492236C7.71422 0.485917 7.76286 0.489095 7.80949 0.501587C8.69679 0.733037 9.50634 1.19685 10.1547 1.84526C10.8031 2.49367 11.267 3.30321 11.4984 4.19051C11.5109 4.23714 11.5141 4.28578 11.5078 4.33364C11.5014 4.38151 11.4858 4.42766 11.4616 4.46945C11.4374 4.51125 11.4053 4.54787 11.3669 4.57722C11.3286 4.60658 11.2849 4.62809 11.2382 4.64052C11.2072 4.64877 11.1753 4.65288 11.1433 4.65277C11.0624 4.65282 10.9837 4.62614 10.9195 4.57687C10.8552 4.5276 10.8091 4.4585 10.7882 4.38031C10.5895 3.61815 10.1911 2.92276 9.63418 2.36582C9.07724 1.80888 8.38185 1.41052 7.61969 1.21182C7.57304 1.19938 7.5293 1.17787 7.49097 1.14852C7.45264 1.11916 7.42047 1.08254 7.39631 1.04075C7.37214 0.998952 7.35645 0.952803 7.35013 0.904939C7.34381 0.857076 7.34698 0.808436 7.35948 0.761801ZM7.12988 3.17108C8.02073 3.40864 8.59136 3.97927 8.82892 4.87012C8.84983 4.94832 8.89598 5.01741 8.96019 5.06668C9.02441 5.11595 9.1031 5.14263 9.18404 5.14258C9.21607 5.1427 9.24798 5.13858 9.27894 5.13034C9.32559 5.1179 9.36933 5.09639 9.40766 5.06704C9.44599 5.03768 9.47816 5.00106 9.50233 4.95927C9.52649 4.91747 9.54219 4.87132 9.5485 4.82346C9.55482 4.7756 9.55165 4.72696 9.53916 4.68032C9.23302 3.53477 8.46523 2.76698 7.31968 2.46085C7.27305 2.44838 7.22441 2.44523 7.17656 2.45156C7.12871 2.45789 7.08257 2.47359 7.04078 2.49775C6.95638 2.54655 6.89483 2.62688 6.86966 2.72106C6.84449 2.81524 6.85777 2.91557 6.90657 2.99996C6.95537 3.08436 7.03569 3.14591 7.12988 3.17108ZM11.9937 9.11009C11.8888 9.91046 11.4961 10.6453 10.8888 11.1771C10.2816 11.709 9.50145 12.0015 8.69422 12C3.90016 12 6.10566e-06 8.09984 6.10566e-06 3.30578C-0.00154034 2.49883 0.290723 1.71892 0.822204 1.11172C1.35369 0.504526 2.08803 0.111572 2.88808 0.00626134C3.07225 -0.0161198 3.25871 0.0218551 3.41945 0.114483C3.5802 0.207111 3.70655 0.349391 3.77954 0.519955L5.07143 3.40374C5.12847 3.53429 5.15207 3.677 5.1401 3.81897C5.12813 3.96094 5.08096 4.09768 5.00285 4.21683C4.99498 4.22896 4.98639 4.24062 4.97714 4.25173L3.68709 5.78608C3.67926 5.80198 3.67518 5.81947 3.67518 5.8372C3.67518 5.85493 3.67926 5.87242 3.68709 5.88833C4.15609 6.84836 5.16266 7.84759 6.13616 8.31597C6.15242 8.32339 6.17018 8.32691 6.18803 8.32627C6.20588 8.32564 6.22334 8.32085 6.23903 8.3123L7.75072 7.02654C7.76151 7.01714 7.77297 7.00855 7.785 7.00082C7.90363 6.92173 8.04011 6.87348 8.18209 6.86044C8.32406 6.84739 8.46705 6.86997 8.5981 6.92612L11.4905 8.2223C11.6587 8.29688 11.7986 8.42367 11.8892 8.58389C11.9798 8.74411 12.0165 8.92925 11.9937 9.11192V9.11009ZM11.2658 9.01947C11.2678 8.99387 11.2618 8.96827 11.2485 8.94629C11.2352 8.92432 11.2153 8.90708 11.1917 8.89702L8.2987 7.60084C8.28289 7.59474 8.26596 7.59213 8.24905 7.59319C8.23214 7.59425 8.21566 7.59895 8.20074 7.60697L6.68965 8.89273C6.67863 8.90191 6.667 8.91049 6.65537 8.91845C6.53211 9.00064 6.38965 9.04948 6.24189 9.06021C6.09413 9.07094 5.94611 9.04319 5.81227 8.97967C4.68815 8.43659 3.5677 7.32655 3.02461 6.21283C2.96074 6.07977 2.93231 5.93247 2.94207 5.78519C2.95183 5.63791 2.99945 5.49565 3.08033 5.37218C3.08821 5.35991 3.09702 5.34824 3.10666 5.33729L4.3961 3.80294C4.40346 3.7869 4.40728 3.76946 4.40728 3.75182C4.40728 3.73417 4.40346 3.71673 4.3961 3.70069L3.10666 0.814456C3.09815 0.791292 3.08284 0.771239 3.06274 0.756927C3.04263 0.742614 3.01867 0.73471 2.994 0.734249H2.97992C2.35721 0.817084 1.78593 1.12374 1.37277 1.59695C0.95961 2.07017 0.732813 2.67758 0.734729 3.30578C0.734729 7.69452 4.30548 11.2653 8.69422 11.2653C9.32251 11.2672 9.93 11.0403 10.4032 10.627C10.8765 10.2137 11.1831 9.64229 11.2658 9.01947Z" fill="#828282"/>
</svg>
