<svg width="19" height="19" viewBox="0 0 19 19" fill="none" xmlns="http://www.w3.org/2000/svg">
<path d="M9.165 0C9.51151 0 9.79274 0.281227 9.79274 0.62774V8.53726H17.7023C17.8687 8.53726 18.0284 8.6034 18.1461 8.72112C18.2639 8.83884 18.33 8.99851 18.33 9.165C18.33 9.33149 18.2639 9.49116 18.1461 9.60888C18.0284 9.7266 17.8687 9.79274 17.7023 9.79274H9.79274V17.7023C9.79274 17.8687 9.7266 18.0284 9.60888 18.1461C9.49116 18.2639 9.33149 18.33 9.165 18.33C8.99851 18.33 8.83884 18.2639 8.72112 18.1461C8.6034 18.0284 8.53726 17.8687 8.53726 17.7023V9.79274H0.62774C0.461253 9.79274 0.301585 9.7266 0.183861 9.60888C0.0661367 9.49116 0 9.33149 0 9.165C0 8.99851 0.0661367 8.83884 0.183861 8.72112C0.301585 8.6034 0.461253 8.53726 0.62774 8.53726H8.53726V0.62774C8.53726 0.281227 8.81849 0 9.165 0Z" fill="black"/>
</svg>
