<svg width="17" height="17" viewBox="0 0 17 17" fill="none" xmlns="http://www.w3.org/2000/svg">
<path d="M8.165 0C8.4737 0 8.72425 0.250542 8.72425 0.559247V7.60575H15.7708C15.9191 7.60575 16.0613 7.66467 16.1662 7.76955C16.2711 7.87443 16.33 8.01668 16.33 8.165C16.33 8.31332 16.2711 8.45557 16.1662 8.56045C16.0613 8.66533 15.9191 8.72425 15.7708 8.72425H8.72425V15.7708C8.72425 15.9191 8.66533 16.0613 8.56045 16.1662C8.45557 16.2711 8.31332 16.33 8.165 16.33C8.01668 16.33 7.87443 16.2711 7.76955 16.1662C7.66467 16.0613 7.60575 15.9191 7.60575 15.7708V8.72425H0.559247C0.410925 8.72425 0.268679 8.66533 0.1638 8.56045C0.0589205 8.45557 0 8.31332 0 8.165C0 8.01668 0.0589205 7.87443 0.1638 7.76955C0.268679 7.66467 0.410925 7.60575 0.559247 7.60575H7.60575V0.559247C7.60575 0.250542 7.8563 0 8.165 0Z" fill="black"/>
</svg>
