<svg width="21" height="21" viewBox="0 0 21 21" fill="none" xmlns="http://www.w3.org/2000/svg">
<path d="M5.59 14.7H5.46574L5.37787 14.7879L2.3 17.8657V4C2.3 3.54913 2.47911 3.11673 2.79792 2.79792C3.11673 2.47911 3.54913 2.3 4 2.3H17C17.4509 2.3 17.8833 2.47911 18.2021 2.79792C18.5209 3.11673 18.7 3.54913 18.7 4V13C18.7 13.4509 18.5209 13.8833 18.2021 14.2021C17.8833 14.5209 17.4509 14.7 17 14.7H5.59ZM2 20.3H2.12426L2.21213 20.2121L6.12426 16.3H17C17.8752 16.3 18.7146 15.9523 19.3335 15.3335C19.9523 14.7146 20.3 13.8752 20.3 13V4C20.3 3.12479 19.9523 2.28542 19.3335 1.66655C18.7146 1.04768 17.8752 0.7 17 0.7H4C3.12479 0.7 2.28542 1.04768 1.66655 1.66655C1.04768 2.28542 0.7 3.12479 0.7 4V20V20.3H1H2ZM5 4.7H4.7V5V6V6.3H5H16H16.3V6V5V4.7H16H5ZM5 7.7H4.7V8V9V9.3H5H16H16.3V9V8V7.7H16H5ZM5 10.7H4.7V11V12V12.3H5H13H13.3V12V11V10.7H13H5Z" stroke="black" stroke-width="0.6"/>
</svg>
