<svg width="16" height="16" viewBox="0 0 16 16" fill="none" xmlns="http://www.w3.org/2000/svg">
<g clip-path="url(#clip0_1441_45717)">
<path d="M7.25825 2.2451C8.22097 2.24422 9.16233 2.52889 9.96323 3.06312C10.7641 3.59734 11.3886 4.3571 11.7576 5.24629C12.1267 6.13548 12.2237 7.11414 12.0364 8.05847C11.8491 9.00281 11.386 9.87038 10.7055 10.5514C10.0251 11.2325 9.15793 11.6964 8.21377 11.8846C7.26961 12.0727 6.29085 11.9766 5.40133 11.6084C4.5118 11.2402 3.75147 10.6164 3.21652 9.816C2.68156 9.01558 2.39603 8.07449 2.39603 7.11176C2.40186 5.82361 2.91587 4.58981 3.82632 3.67852C4.73678 2.76724 5.9701 2.25211 7.25825 2.2451ZM7.25825 1.33398C6.11551 1.33398 4.99844 1.67285 4.04829 2.30772C3.09814 2.94259 2.35758 3.84495 1.92028 4.9007C1.48297 5.95645 1.36855 7.11817 1.59149 8.23895C1.81443 9.35973 2.36471 10.3892 3.17274 11.1973C3.98078 12.0053 5.01028 12.5556 6.13106 12.7785C7.25184 13.0015 8.41356 12.887 9.46931 12.4497C10.5251 12.0124 11.4274 11.2719 12.0623 10.3217C12.6972 9.37157 13.036 8.2545 13.036 7.11176C13.036 5.5794 12.4273 4.1098 11.3438 3.02626C10.2602 1.94271 8.79061 1.33398 7.25825 1.33398Z" fill="#98A2B3"/>
<path d="M15.5551 14.7958L12.2795 11.498L11.6484 12.1247L14.924 15.4225C14.9651 15.4639 15.014 15.4969 15.0679 15.5194C15.1218 15.5419 15.1796 15.5536 15.238 15.5538C15.2964 15.5541 15.3542 15.5428 15.4083 15.5206C15.4623 15.4984 15.5114 15.4659 15.5529 15.4247C15.5943 15.3836 15.6272 15.3347 15.6498 15.2808C15.6723 15.2269 15.684 15.1691 15.6842 15.1107C15.6844 15.0523 15.6731 14.9945 15.651 14.9404C15.6288 14.8864 15.5963 14.8373 15.5551 14.7958Z" fill="#98A2B3"/>
</g>
<defs>
<clipPath id="clip0_1441_45717">
<rect width="16" height="16" fill="white"/>
</clipPath>
</defs>
</svg>
