<svg width="24" height="24" viewBox="0 0 24 24" fill="none" xmlns="http://www.w3.org/2000/svg">
<path d="M3.3 7.25494V17.7H20.7V7.25494L12.5985 12.8615L3.3 7.25494ZM3.3 7.25494L11.4015 12.8615L3.3 7.25494ZM12 13.0488C11.7862 13.0488 11.5775 12.9835 11.4018 12.8617L12 13.0488ZM12 13.0488C12.2138 13.0488 12.4225 12.9835 12.5982 12.8617L12 13.0488ZM21 4.2H3C2.52261 4.2 2.06477 4.38964 1.72721 4.72721C1.38964 5.06477 1.2 5.52261 1.2 6V18C1.2 18.4774 1.38964 18.9352 1.72721 19.2728C2.06477 19.6104 2.52261 19.8 3 19.8H21C21.4774 19.8 21.9352 19.6104 22.2728 19.2728C22.6104 18.9352 22.8 18.4774 22.8 18V6C22.8 5.52261 22.6104 5.06477 22.2728 4.72721C21.9352 4.38964 21.4774 4.2 21 4.2ZM12 10.7202L5.61092 6.3H18.3891L12 10.7202Z" stroke="black" stroke-width="0.6"/>
</svg>
