<svg width="22" height="22" viewBox="0 0 22 22" fill="none" xmlns="http://www.w3.org/2000/svg">
<path d="M14.5086 2.25662L14.5086 2.25659C15.2028 1.56255 16.1443 1.17266 17.1259 1.17266C18.1076 1.17266 19.0491 1.56255 19.7433 2.25659L19.7433 2.25665C20.4374 2.95088 20.8273 3.89234 20.8273 4.874C20.8273 5.85566 20.4374 6.79712 19.7433 7.49136L19.7433 7.49138L13.3683 13.8664C13.3683 13.8664 13.3683 13.8664 13.3683 13.8664C13.2528 13.9819 13.112 14.0688 12.9571 14.1204L14.5086 2.25662ZM14.5086 2.25662L8.13387 8.6313C8.13382 8.63135 8.13376 8.63141 8.1337 8.63147C8.01849 8.74639 7.93155 8.88652 7.87977 9.0408L7.87958 9.04138L6.00467 14.6661L14.5086 2.25662ZM10.6651 4.82607L10.5294 4.8171C10.3529 4.80543 10.1766 4.79825 10.0002 4.79825L10.6651 4.82607ZM10.6651 4.82607L10.7613 4.72988M10.6651 4.82607L10.7613 4.72988M10.7613 4.72988L12.0858 3.40538L12.4765 3.01471M10.7613 4.72988L12.4765 3.01471M12.4765 3.01471L11.9361 2.89981M12.4765 3.01471L11.9361 2.89981M11.9361 2.89981C9.97429 2.4827 7.93024 2.71097 6.1088 3.55057C4.28736 4.39017 2.78615 5.7961 1.82909 7.55866C0.872038 9.32121 0.510423 11.3459 0.798187 13.3308C1.08595 15.3157 2.00768 17.1544 3.42587 18.5726C4.84407 19.9908 6.68274 20.9125 8.66762 21.2003C10.6525 21.488 12.6772 21.1264 14.4398 20.1693C16.2023 19.2123 17.6083 17.7111 18.4479 15.8896C19.2875 14.0682 19.5157 12.0241 19.0986 10.0624L18.9836 9.52158M11.9361 2.89981L18.9836 9.52158M18.9836 9.52158L18.5929 9.91274M18.9836 9.52158L18.5929 9.91274M18.5929 9.91274L17.2684 11.2387L17.1715 11.3358M18.5929 9.91274L17.1715 11.3358M17.1715 11.3358L17.1815 11.4727M17.1715 11.3358L17.1815 11.4727M17.1815 11.4727C17.2871 12.9152 16.9557 14.3561 16.2306 15.6077M17.1815 11.4727L16.2306 15.6077M16.2306 15.6077C15.5055 16.8592 14.4203 17.8633 13.1163 18.4892M16.2306 15.6077L13.1163 18.4892M13.1163 18.4892C11.8123 19.1151 10.3501 19.3338 8.92005 19.1167M13.1163 18.4892L8.92005 19.1167M8.92005 19.1167C7.49002 18.8996 6.15853 18.2568 5.09905 17.2721M8.92005 19.1167L5.09905 17.2721M5.09905 17.2721C4.03958 16.2874 3.30124 15.0065 2.98024 13.5961M5.09905 17.2721L2.98024 13.5961M2.98024 13.5961C2.65924 12.1858 2.77046 10.7115 3.29941 9.36523M2.98024 13.5961L3.29941 9.36523M3.29941 9.36523C3.82836 8.01901 4.75051 6.8633 5.94573 6.04869M3.29941 9.36523L5.94573 6.04869M5.94573 6.04869C7.14093 5.23409 8.55378 4.79835 10.0002 4.79825L5.94573 6.04869ZM7.33205 15.9954L12.9567 14.1205L6.00458 14.6664C5.94281 14.8513 5.93373 15.0497 5.97836 15.2394C6.023 15.4293 6.11963 15.603 6.25743 15.741C6.39522 15.879 6.56872 15.9759 6.7585 16.0208C6.94827 16.0658 7.14681 16.057 7.33187 15.9954L7.33205 15.9954ZM15.9916 3.74315C16.2934 3.45151 16.6976 3.28994 17.1174 3.29325C17.5378 3.29657 17.9402 3.46508 18.2375 3.76242C18.5349 4.05976 18.7034 4.46209 18.7067 4.88258C18.71 5.30231 18.5484 5.70654 18.2568 6.00836L12.0581 12.2055L8.65963 13.3388L9.79288 9.94034L15.9916 3.74315Z" stroke="black" stroke-width="0.6"/>
</svg>
