<svg width="15" height="15" viewBox="0 0 15 15" fill="none" xmlns="http://www.w3.org/2000/svg">
<path d="M5.95846 0.939603C6.95129 0.938697 7.92209 1.23228 8.74804 1.7832C9.57399 2.33413 10.218 3.11765 10.5985 4.03465C10.9791 4.95164 11.0792 5.96091 10.886 6.93478C10.6929 7.90864 10.2153 8.80334 9.51354 9.5057C8.81182 10.2081 7.91755 10.6865 6.94386 10.8805C5.97018 11.0746 4.96082 10.9754 4.04347 10.5957C3.12613 10.216 2.34202 9.57271 1.79034 8.74726C1.23866 7.92182 0.94419 6.95129 0.944189 5.95846C0.950208 4.63002 1.48028 3.35764 2.41921 2.41786C3.35814 1.47807 4.63003 0.946836 5.95846 0.939603ZM5.95846 0C4.77999 0 3.62798 0.349458 2.64812 1.00418C1.66826 1.65891 0.904545 2.58949 0.453564 3.67826C0.00258179 4.76702 -0.115416 5.96507 0.114493 7.1209C0.344401 8.27672 0.91189 9.33842 1.7452 10.1717C2.5785 11.005 3.6402 11.5725 4.79603 11.8024C5.95185 12.0323 7.1499 11.9143 8.23867 11.4634C9.32743 11.0124 10.258 10.2487 10.9127 9.2688C11.5675 8.28894 11.9169 7.13693 11.9169 5.95846C11.9169 4.37818 11.2892 2.86262 10.1717 1.74519C9.0543 0.627764 7.53875 0 5.95846 0Z" fill="black"/>
<path d="M14.5142 13.8775L11.1362 10.4766L10.4854 11.1228L13.8633 14.5237C13.9058 14.5665 13.9562 14.6004 14.0118 14.6237C14.0673 14.6469 14.1269 14.659 14.1871 14.6592C14.2474 14.6594 14.307 14.6478 14.3628 14.6249C14.4185 14.6021 14.4692 14.5685 14.5119 14.526C14.5546 14.4836 14.5886 14.4332 14.6118 14.3776C14.6351 14.322 14.6471 14.2624 14.6474 14.2022C14.6476 14.142 14.6359 14.0823 14.6131 14.0266C14.5902 13.9709 14.5566 13.9202 14.5142 13.8775Z" fill="black"/>
</svg>
