<svg width="36" height="36" viewBox="0 0 36 36" fill="none" xmlns="http://www.w3.org/2000/svg">
<g clip-path="url(#clip0_1719_34637)">
<path d="M18.0111 17.5609C19.5994 17.5609 20.9745 16.9913 22.0984 15.8674C23.2219 14.7436 23.7917 13.3687 23.7917 11.7803C23.7917 10.1924 23.2221 8.81726 22.0982 7.69317C20.9743 6.56964 19.5992 6 18.0111 6C16.4227 6 15.0477 6.56964 13.924 7.69336C12.8003 8.81707 12.2305 10.1922 12.2305 11.7803C12.2305 13.3687 12.8003 14.7438 13.924 15.8675C15.0481 16.9911 16.4232 17.5609 18.0111 17.5609ZM14.9186 8.6878C15.7809 7.82556 16.7923 7.40643 18.0111 7.40643C19.2297 7.40643 20.2413 7.82556 21.1037 8.6878C21.966 9.55023 22.3853 10.5619 22.3853 11.7803C22.3853 12.999 21.966 14.0105 21.1037 14.8729C20.2413 15.7353 19.2297 16.1545 18.0111 16.1545C16.7927 16.1545 15.7812 15.7352 14.9186 14.8729C14.0562 14.0107 13.6369 12.999 13.6369 11.7803C13.6369 10.5619 14.0562 9.55023 14.9186 8.6878Z" fill="url(#paint0_linear_1719_34637)"/>
<path d="M27.9748 24.4244C27.9423 23.9567 27.8768 23.4466 27.7803 22.9079C27.6829 22.3652 27.5575 21.8521 27.4073 21.3832C27.252 20.8985 27.0413 20.4199 26.7804 19.9612C26.5099 19.4851 26.192 19.0706 25.8354 18.7294C25.4624 18.3726 25.0057 18.0856 24.4776 17.8763C23.9514 17.6682 23.3682 17.5627 22.7444 17.5627C22.4994 17.5627 22.2624 17.6632 21.8048 17.9611C21.5232 18.1448 21.1938 18.3572 20.8261 18.5921C20.5118 18.7924 20.0859 18.9801 19.5598 19.15C19.0465 19.3161 18.5254 19.4003 18.0109 19.4003C17.4967 19.4003 16.9756 19.3161 16.462 19.15C15.9365 18.9803 15.5104 18.7926 15.1966 18.5923C14.8324 18.3596 14.5028 18.1472 14.217 17.9609C13.7598 17.663 13.5228 17.5625 13.2778 17.5625C12.6538 17.5625 12.0708 17.6682 11.5447 17.8765C11.017 18.0854 10.5602 18.3724 10.1868 18.7296C9.83014 19.0709 9.51227 19.4853 9.242 19.9612C8.98144 20.4199 8.77051 20.8983 8.61523 21.3834C8.46527 21.8523 8.33984 22.3652 8.24243 22.9079C8.14575 23.4459 8.08038 23.9562 8.04797 24.4249C8.01611 24.8832 8 25.3602 8 25.8421C8 27.095 8.39825 28.1092 9.18359 28.8572C9.95922 29.5953 10.9853 29.9695 12.2336 29.9695H23.7897C25.0376 29.9695 26.0637 29.5953 26.8395 28.8572C27.625 28.1097 28.0233 27.0951 28.0233 25.842C28.0231 25.3584 28.0068 24.8814 27.9748 24.4244ZM25.8698 27.8382C25.3573 28.326 24.6768 28.5631 23.7895 28.5631H12.2336C11.3461 28.5631 10.6656 28.326 10.1533 27.8384C9.65069 27.3599 9.40643 26.7068 9.40643 25.8421C9.40643 25.3924 9.42126 24.9484 9.45092 24.5221C9.47986 24.1039 9.539 23.6445 9.62671 23.1564C9.71331 22.6742 9.82354 22.2218 9.95465 21.8122C10.0804 21.4194 10.252 21.0305 10.4648 20.6559C10.6678 20.2988 10.9015 19.9925 11.1593 19.7457C11.4004 19.5148 11.7044 19.3258 12.0626 19.1841C12.3938 19.053 12.766 18.9812 13.1702 18.9704C13.2194 18.9966 13.3071 19.0466 13.4492 19.1392C13.7383 19.3276 14.0716 19.5426 14.44 19.7779C14.8553 20.0427 15.3903 20.2818 16.0295 20.4882C16.683 20.6995 17.3495 20.8068 18.0111 20.8068C18.6726 20.8068 19.3393 20.6995 19.9925 20.4883C20.6322 20.2816 21.1671 20.0427 21.5829 19.7775C21.9599 19.5366 22.2838 19.3278 22.573 19.1392C22.7151 19.0468 22.8028 18.9966 22.852 18.9704C23.2563 18.9812 23.6286 19.053 23.96 19.1841C24.318 19.3258 24.6219 19.5149 24.8631 19.7457C25.1209 19.9923 25.3545 20.2986 25.5576 20.6561C25.7705 21.0305 25.9423 21.4196 26.0679 21.812C26.1992 22.2222 26.3096 22.6744 26.396 23.1562C26.4835 23.6453 26.5429 24.1048 26.5718 24.5223V24.5227C26.6016 24.9473 26.6167 25.3912 26.6168 25.8421C26.6167 26.707 26.3724 27.3599 25.8698 27.8382Z" fill="url(#paint1_linear_1719_34637)"/>
<g filter="url(#filter0_f_1719_34637)">
<circle cx="18" cy="18" r="17" fill="url(#paint2_linear_1719_34637)" fill-opacity="0.15"/>
</g>
</g>
<defs>
<filter id="filter0_f_1719_34637" x="-1" y="-1" width="38" height="38" filterUnits="userSpaceOnUse" color-interpolation-filters="sRGB">
<feFlood flood-opacity="0" result="BackgroundImageFix"/>
<feBlend mode="normal" in="SourceGraphic" in2="BackgroundImageFix" result="shape"/>
<feGaussianBlur stdDeviation="1" result="effect1_foregroundBlur_1719_34637"/>
</filter>
<linearGradient id="paint0_linear_1719_34637" x1="13.6756" y1="6" x2="22.3462" y2="17.5612" gradientUnits="userSpaceOnUse">
<stop offset="0.4375" stop-color="#F6B801"/>
<stop offset="1" stop-color="#FF8024"/>
</linearGradient>
<linearGradient id="paint1_linear_1719_34637" x1="10.5029" y1="17.5625" x2="17.9119" y2="33.5053" gradientUnits="userSpaceOnUse">
<stop offset="0.4375" stop-color="#F6B801"/>
<stop offset="1" stop-color="#FF8024"/>
</linearGradient>
<linearGradient id="paint2_linear_1719_34637" x1="5.25" y1="1" x2="30.75" y2="35" gradientUnits="userSpaceOnUse">
<stop stop-color="#FFBF1A"/>
<stop offset="1" stop-color="#FF4080"/>
</linearGradient>
<clipPath id="clip0_1719_34637">
<rect width="36" height="36" fill="white"/>
</clipPath>
</defs>
</svg>
