<svg width="24" height="24" viewBox="0 0 24 24" fill="none" xmlns="http://www.w3.org/2000/svg">
<mask id="path-1-outside-1_1562_10935" maskUnits="userSpaceOnUse" x="0.5" y="0.5" width="23" height="23" fill="black">
<rect fill="white" x="0.5" y="0.5" width="23" height="23"/>
<path d="M20.638 14.135L20.588 13.638L20.573 13.639L20.556 13.642L20.638 14.135ZM20.638 14.135L20.688 14.633L20.705 14.631L20.721 14.628L20.638 14.135ZM16.598 19.617L16.915 19.23L16.91 19.227L16.598 19.617ZM16.598 19.617L16.281 20.004L16.286 20.008L16.598 19.617ZM7.402 19.617L7.085 19.231L7.078 19.237L7.07 19.244L7.402 19.617ZM7.402 19.617L7.719 20.005L7.727 19.998L7.734 19.992L7.402 19.617ZM3.361 9.863V9.363H3.337L3.312 9.365L3.361 9.863ZM3.361 9.863V10.363H3.386L3.411 10.36L3.361 9.863ZM14.632 3.31C14.617 3.12869 14.596 2.94792 14.569 2.768C14.5461 2.6088 14.4982 2.45422 14.427 2.31L13.538 2.769C13.548 2.789 13.565 2.829 13.582 2.933C13.601 3.043 13.615 3.186 13.638 3.409L14.632 3.31ZM14.828 4.513C14.816 4.498 14.78 4.437 14.741 4.223C14.6945 3.92001 14.6594 3.61549 14.634 3.31L13.638 3.409C13.678 3.81 13.711 4.142 13.757 4.4C13.802 4.652 13.872 4.909 14.033 5.12L14.828 4.513ZM15.292 4.705C15.2046 4.71676 15.1156 4.70519 15.0341 4.67147C14.9527 4.63775 14.8815 4.58308 14.828 4.513L14.032 5.119C14.1926 5.32958 14.4061 5.4939 14.6507 5.59524C14.8954 5.69659 15.1625 5.73135 15.425 5.696L15.292 4.705ZM16.28 3.992C15.955 4.259 15.733 4.44 15.558 4.561C15.379 4.685 15.31 4.702 15.292 4.705L15.425 5.696C15.687 5.661 15.918 5.529 16.129 5.382C16.344 5.232 16.601 5.022 16.914 4.766L16.28 3.992ZM17.132 3.431C16.972 3.482 16.837 3.563 16.709 3.654C16.585 3.742 16.444 3.858 16.28 3.992L16.914 4.766C17.087 4.624 17.199 4.533 17.289 4.469C17.3337 4.433 17.3836 4.404 17.437 4.383L17.132 3.431ZM18.185 3.483C17.8519 3.33882 17.4777 3.32035 17.132 3.431L17.437 4.383C17.552 4.34658 17.6763 4.35297 17.787 4.401L18.185 3.483ZM18.977 4.127C18.827 3.977 18.698 3.847 18.584 3.747C18.4657 3.63854 18.3311 3.54944 18.185 3.483L17.787 4.401C17.808 4.41 17.846 4.431 17.926 4.501C18.009 4.573 18.111 4.675 18.27 4.834L18.977 4.127ZM19.87 5.02L18.977 4.127L18.27 4.834L19.163 5.727L19.87 5.02ZM20.514 5.812C20.4472 5.66589 20.3578 5.53123 20.249 5.413C20.149 5.299 20.019 5.17 19.87 5.02L19.163 5.727C19.322 5.886 19.423 5.988 19.497 6.071C19.567 6.151 19.587 6.189 19.596 6.21L20.514 5.812ZM20.566 6.865C20.6767 6.51927 20.6582 6.14514 20.514 5.812L19.596 6.21C19.6437 6.3208 19.6497 6.4451 19.613 6.56L20.566 6.865ZM20.005 7.717C20.139 7.553 20.255 7.412 20.343 7.288C20.433 7.16 20.515 7.025 20.566 6.865L19.613 6.56C19.5923 6.61335 19.5637 6.66326 19.528 6.708C19.4327 6.83592 19.3337 6.96097 19.231 7.083L20.005 7.717ZM19.292 8.705C19.295 8.687 19.312 8.618 19.436 8.439C19.557 8.264 19.738 8.042 20.005 7.717L19.231 7.083C18.975 7.396 18.764 7.653 18.615 7.868C18.468 8.078 18.336 8.31 18.301 8.572L19.292 8.705ZM19.484 9.169C19.4139 9.11546 19.3592 9.04434 19.3255 8.96285C19.2918 8.88136 19.2802 8.7924 19.292 8.705L18.301 8.572C18.2658 8.8343 18.3007 9.10123 18.402 9.34571C18.5034 9.59019 18.6676 9.8035 18.878 9.964L19.484 9.169ZM20.687 9.364C20.268 9.322 19.984 9.294 19.774 9.256C19.56 9.217 19.499 9.181 19.484 9.169L18.878 9.964C19.088 10.124 19.345 10.194 19.598 10.24C19.855 10.286 20.186 10.32 20.588 10.36L20.687 9.364ZM21.687 9.57C21.5428 9.49881 21.3882 9.45089 21.229 9.428C21.079 9.403 20.897 9.385 20.687 9.364L20.587 10.359C20.811 10.382 20.954 10.396 21.064 10.415C21.1206 10.4214 21.1758 10.4362 21.228 10.459L21.687 9.57ZM22.394 10.351C22.2605 10.0138 22.0093 9.73629 21.687 9.57L21.228 10.459C21.3355 10.5143 21.4194 10.6067 21.464 10.719L22.394 10.351ZM22.499 11.366C22.499 11.155 22.499 10.972 22.489 10.82C22.4823 10.6596 22.4502 10.5013 22.394 10.351L21.464 10.719C21.472 10.74 21.484 10.782 21.491 10.887C21.4988 11.0469 21.5015 11.207 21.499 11.367L22.499 11.366ZM22.499 12.63V11.366H21.499V12.63H22.499ZM22.394 13.644C22.456 13.488 22.479 13.332 22.489 13.175C22.499 13.024 22.499 12.841 22.499 12.63H21.499C21.499 12.854 21.499 12.998 21.491 13.109C21.4905 13.166 21.4814 13.2227 21.464 13.277L22.394 13.644ZM21.687 14.426C22.0095 14.2595 22.2607 13.9816 22.394 13.644L21.464 13.277C21.4194 13.3893 21.3355 13.4817 21.228 13.537L21.687 14.426ZM20.687 14.632C20.897 14.611 21.08 14.592 21.229 14.567C21.384 14.542 21.537 14.503 21.686 14.427L21.228 13.537C21.1759 13.5598 21.1206 13.5747 21.064 13.581C20.954 13.6 20.811 13.614 20.588 13.637L20.687 14.632ZM19.485 14.827C19.5 14.815 19.561 14.778 19.775 14.74C19.985 14.702 20.269 14.673 20.687 14.632L20.588 13.637C20.187 13.677 19.855 13.709 19.597 13.756C19.345 13.801 19.089 13.871 18.878 14.031L19.485 14.827ZM19.292 15.291C19.2804 15.2035 19.2921 15.1145 19.326 15.033C19.3599 14.9515 19.4147 14.8804 19.485 14.827L18.878 14.031C18.6674 14.1916 18.5031 14.4051 18.4018 14.6497C18.3004 14.8944 18.2656 15.1615 18.301 15.424L19.292 15.291ZM20.005 16.279C19.8071 16.0449 19.6173 15.8041 19.436 15.557C19.312 15.379 19.295 15.309 19.292 15.291L18.302 15.425C18.337 15.687 18.469 15.917 18.615 16.128C18.765 16.342 18.975 16.6 19.231 16.912L20.005 16.279ZM20.566 17.131C20.5144 16.9788 20.4392 16.8357 20.343 16.707C20.2348 16.5608 20.1221 16.4181 20.005 16.279L19.231 16.912C19.373 17.086 19.464 17.197 19.528 17.288C19.5636 17.3325 19.5922 17.382 19.613 17.435L20.566 17.131ZM20.514 18.184C20.6582 17.8509 20.6767 17.4767 20.566 17.131L19.613 17.435C19.65 17.5502 19.6439 17.6749 19.596 17.786L20.514 18.184ZM19.871 18.975C20.02 18.826 20.149 18.697 20.249 18.583C20.353 18.464 20.447 18.339 20.514 18.184L19.596 17.786C19.5698 17.8368 19.5361 17.8833 19.496 17.924C19.3885 18.042 19.2774 18.1567 19.163 18.268L19.871 18.975ZM18.977 19.869L19.871 18.975L19.163 18.268L18.27 19.162L18.977 19.869ZM18.185 20.512C18.339 20.445 18.465 20.352 18.584 20.248C18.698 20.148 18.827 20.018 18.977 19.868L18.27 19.162C18.111 19.321 18.009 19.422 17.926 19.495C17.885 19.5352 17.8381 19.5689 17.787 19.595L18.185 20.512ZM17.132 20.565C17.4778 20.6753 17.852 20.6565 18.185 20.512L17.787 19.595C17.6762 19.6427 17.5519 19.6487 17.437 19.612L17.132 20.565ZM16.28 20.003C16.444 20.137 16.585 20.253 16.709 20.341C16.837 20.432 16.972 20.514 17.132 20.565L17.437 19.612C17.3836 19.5913 17.3337 19.5627 17.289 19.527C17.1611 19.4314 17.036 19.332 16.914 19.229L16.28 20.003ZM15.292 19.291C15.31 19.293 15.38 19.311 15.558 19.435C15.733 19.556 15.955 19.737 16.28 20.003L16.914 19.229C16.601 18.974 16.344 18.763 16.129 18.613C15.919 18.467 15.687 18.335 15.425 18.3L15.292 19.291ZM14.828 19.483C14.8815 19.4129 14.9527 19.3582 15.0341 19.3245C15.1156 19.2908 15.2046 19.2792 15.292 19.291L15.425 18.3C15.1628 18.2647 14.8959 18.2994 14.6514 18.4006C14.407 18.5017 14.1936 18.6658 14.033 18.876L14.828 19.483ZM14.633 20.686C14.675 20.267 14.703 19.983 14.741 19.773C14.78 19.559 14.816 19.498 14.828 19.483L14.033 18.876C13.873 19.086 13.803 19.344 13.757 19.596C13.711 19.853 13.677 20.184 13.637 20.586L14.633 20.686ZM14.427 21.686C14.504 21.536 14.542 21.383 14.568 21.228C14.594 21.078 14.612 20.896 14.633 20.686L13.637 20.586C13.6231 20.7455 13.6054 20.9046 13.582 21.063C13.5756 21.1196 13.5608 21.1749 13.538 21.227L14.427 21.686ZM13.646 22.393C13.9832 22.2595 14.2607 22.0083 14.427 21.686L13.538 21.227C13.4827 21.3345 13.3903 21.4184 13.278 21.463L13.646 22.393ZM12.631 22.498C12.842 22.498 13.025 22.498 13.177 22.488C13.333 22.478 13.49 22.455 13.646 22.393L13.278 21.463C13.2237 21.4804 13.167 21.4895 13.11 21.49C13 21.498 12.855 21.498 12.63 21.498L12.631 22.498ZM11.367 22.498H12.631L12.63 21.498H11.367V22.498ZM10.352 22.393C10.509 22.455 10.665 22.478 10.822 22.488C10.973 22.498 11.156 22.498 11.367 22.498V21.498C11.143 21.498 10.999 21.498 10.888 21.49C10.831 21.4895 10.7743 21.4804 10.72 21.463L10.352 22.393ZM9.571 21.686C9.73729 22.0083 10.0148 22.2595 10.352 22.393L10.72 21.463C10.6077 21.4184 10.5153 21.3345 10.46 21.227L9.571 21.686ZM9.365 20.686C9.386 20.896 9.405 21.079 9.429 21.228C9.455 21.383 9.494 21.536 9.571 21.686L10.46 21.227C10.4372 21.1748 10.4224 21.1196 10.416 21.063C10.3926 20.9049 10.3739 20.7462 10.36 20.587L9.365 20.686ZM9.17 19.483C9.182 19.498 9.218 19.559 9.257 19.773C9.295 19.983 9.323 20.268 9.365 20.686L10.36 20.587C10.32 20.186 10.287 19.854 10.241 19.596C10.196 19.344 10.126 19.087 9.965 18.876L9.17 19.483ZM8.706 19.291C8.7934 19.2792 8.88236 19.2908 8.96385 19.3245C9.04534 19.3582 9.11646 19.4129 9.17 19.483L9.965 18.876C9.8045 18.6656 9.59119 18.5024 9.34671 18.401C9.10223 18.2997 8.8353 18.2648 8.573 18.3L8.706 19.291ZM7.718 20.004C8.043 19.737 8.265 19.556 8.44 19.435C8.619 19.311 8.688 19.293 8.706 19.291L8.573 18.3C8.311 18.335 8.08 18.467 7.869 18.614C7.654 18.763 7.397 18.974 7.084 19.23L7.718 20.004ZM6.866 20.565C7.026 20.514 7.161 20.433 7.289 20.342C7.413 20.254 7.554 20.138 7.718 20.004L7.084 19.23C6.96197 19.3327 6.83692 19.4317 6.709 19.527C6.66427 19.5627 6.61437 19.5914 6.561 19.612L6.866 20.565ZM5.813 20.514C6.14614 20.6582 6.52027 20.6757 6.866 20.565L6.561 19.612C6.4461 19.6487 6.3218 19.6427 6.211 19.595L5.813 20.514ZM5.021 19.869C5.171 20.019 5.3 20.149 5.414 20.249C5.532 20.352 5.659 20.447 5.813 20.514L6.211 19.595C6.15986 19.5689 6.11298 19.5352 6.072 19.495C5.95407 19.3874 5.83935 19.2764 5.728 19.162L5.021 19.869ZM4.128 18.976L5.021 19.869L5.728 19.162L4.835 18.269L4.128 18.976ZM3.484 18.184C3.551 18.338 3.645 18.464 3.749 18.583C3.849 18.697 3.979 18.826 4.128 18.976L4.835 18.269C4.72028 18.1577 4.6089 18.0429 4.501 17.925C4.46082 17.884 4.4271 17.8371 4.401 17.786L3.484 18.184ZM3.432 17.131C3.32135 17.4767 3.33982 17.8509 3.484 18.184L4.401 17.786C4.35297 17.6753 4.34758 17.551 4.384 17.436L3.432 17.131ZM3.993 16.279C3.859 16.443 3.743 16.584 3.655 16.708C3.55893 16.8364 3.48367 16.9792 3.432 17.131L4.384 17.436C4.405 17.3826 4.434 17.3327 4.47 17.288C4.534 17.198 4.625 17.086 4.767 16.913L3.993 16.279ZM4.706 15.291C4.703 15.309 4.686 15.378 4.562 15.557C4.44 15.732 4.26 15.954 3.993 16.279L4.767 16.913C5.023 16.6 5.234 16.343 5.383 16.128C5.53 15.918 5.662 15.686 5.697 15.424L4.706 15.291ZM4.514 14.827C4.58408 14.8805 4.63875 14.9517 4.67247 15.0331C4.70619 15.1146 4.71776 15.2036 4.706 15.291L5.697 15.424C5.73217 15.1617 5.69732 14.8948 5.59598 14.6503C5.49464 14.4058 5.33042 14.1925 5.12 14.032L4.514 14.827ZM3.311 14.633C3.73 14.674 4.014 14.702 4.224 14.74C4.438 14.779 4.499 14.815 4.514 14.827L5.12 14.031C4.91 13.871 4.653 13.801 4.4 13.756C4.143 13.71 3.812 13.676 3.41 13.636L3.311 14.633ZM2.311 14.426C2.461 14.503 2.614 14.541 2.769 14.567C2.919 14.593 3.1 14.612 3.311 14.633L3.411 13.637C3.25147 13.6231 3.0924 13.6045 2.934 13.581C2.87744 13.5746 2.82215 13.5598 2.77 13.537L2.311 14.426ZM1.604 13.644C1.73729 13.9816 1.98848 14.2595 2.311 14.426L2.77 13.537C2.66249 13.4817 2.57865 13.3893 2.534 13.277L1.604 13.644ZM1.5 12.632C1.5 12.843 1.5 13.026 1.51 13.178C1.51647 13.3381 1.54854 13.4961 1.605 13.646L2.535 13.279C2.51762 13.2247 2.50851 13.168 2.508 13.111C2.50057 12.9511 2.4979 12.791 2.5 12.631L1.5 12.632ZM1.5 11.368V12.632H2.5V11.368H1.5ZM1.605 10.353C1.54876 10.5037 1.5167 10.6623 1.51 10.823C1.5 10.974 1.5 11.157 1.5 11.368H2.5C2.5 11.144 2.5 11 2.508 10.889C2.50848 10.832 2.51759 10.7753 2.535 10.721L1.605 10.353ZM2.312 9.572C1.98966 9.73829 1.73849 10.0158 1.605 10.353L2.535 10.721C2.57965 10.6087 2.66349 10.5163 2.771 10.461L2.312 9.572ZM3.312 9.365C3.102 9.386 2.919 9.406 2.77 9.43C2.6108 9.45289 2.45622 9.50081 2.312 9.572L2.771 10.461C2.791 10.451 2.831 10.434 2.935 10.417C3.045 10.398 3.188 10.384 3.411 10.361L3.312 9.365ZM4.515 9.171C4.5 9.183 4.439 9.219 4.225 9.258C4.015 9.296 3.731 9.323 3.312 9.365L3.411 10.361C3.812 10.321 4.145 10.288 4.402 10.242C4.655 10.197 4.912 10.127 5.122 9.966L4.515 9.171ZM4.707 8.707C4.71876 8.7944 4.70719 8.88336 4.67347 8.96485C4.63975 9.04634 4.58508 9.11746 4.515 9.171L5.122 9.966C5.33224 9.80539 5.49626 9.59202 5.59742 9.34755C5.69858 9.10308 5.73328 8.83521 5.698 8.573L4.707 8.707ZM3.994 7.718C4.261 8.044 4.442 8.266 4.564 8.441C4.688 8.62 4.704 8.689 4.707 8.707L5.698 8.573C5.663 8.311 5.531 8.081 5.384 7.87C5.235 7.655 5.024 7.398 4.768 7.085L3.994 7.718ZM3.433 6.866C3.483 7.026 3.565 7.162 3.656 7.29C3.744 7.413 3.86 7.555 3.994 7.718L4.768 7.085C4.66529 6.96264 4.56625 6.83725 4.471 6.709C4.43508 6.66462 4.40609 6.61506 4.385 6.562L3.433 6.866ZM3.485 5.814C3.34107 6.14685 3.3226 6.52058 3.433 6.866L4.385 6.562C4.34858 6.44698 4.35497 6.32267 4.403 6.212L3.485 5.814ZM4.129 5.022C3.979 5.171 3.849 5.3 3.749 5.415C3.64056 5.53328 3.55146 5.66794 3.485 5.814L4.403 6.212C4.42918 6.16122 4.46289 6.11369 4.503 6.073C4.61013 5.95465 4.72119 5.83992 4.836 5.729L4.129 5.022ZM5.022 4.128L4.129 5.022L4.836 5.729L5.729 4.835L5.022 4.128ZM5.814 3.485C5.66798 3.55153 5.53333 3.64062 5.415 3.749C5.301 3.849 5.171 3.978 5.022 4.128L5.729 4.835C5.888 4.677 5.99 4.575 6.073 4.502C6.153 4.432 6.191 4.412 6.212 4.402L5.814 3.485ZM6.867 3.432C6.52115 3.32166 6.14702 3.34049 5.814 3.485L6.212 4.402C6.32267 4.35397 6.44698 4.34858 6.562 4.385L6.867 3.432ZM7.719 3.994C7.555 3.86 7.414 3.744 7.29 3.656C7.16167 3.55953 7.01891 3.48394 6.867 3.432L6.562 4.385C6.61535 4.40569 6.66525 4.43435 6.71 4.47C6.8 4.535 6.912 4.626 7.086 4.768L7.719 3.994ZM8.707 4.707C8.689 4.704 8.62 4.687 8.441 4.563C8.19385 4.38136 7.95304 4.19225 7.719 3.994L7.086 4.768C7.398 5.024 7.656 5.235 7.87 5.384C8.08 5.53 8.312 5.662 8.574 5.698L8.707 4.707ZM9.171 4.514C9.11758 4.58426 9.04651 4.63913 8.96501 4.67303C8.88351 4.70693 8.79449 4.71865 8.707 4.707L8.574 5.698C8.83637 5.73347 9.10345 5.69786 9.34811 5.59669C9.59277 5.49552 9.8063 5.3314 9.967 5.121L9.171 4.514ZM9.366 3.312C9.324 3.73 9.296 4.015 9.258 4.224C9.219 4.438 9.183 4.499 9.171 4.514L9.967 5.121C10.127 4.911 10.197 4.654 10.242 4.401C10.288 4.144 10.322 3.813 10.362 3.411L9.366 3.312ZM9.572 2.312C9.495 2.462 9.456 2.615 9.43 2.77C9.405 2.92 9.387 3.101 9.366 3.312L10.361 3.412C10.3749 3.25247 10.3935 3.0934 10.417 2.935C10.4233 2.87843 10.4381 2.82313 10.461 2.771L9.572 2.312ZM10.354 1.605C10.0162 1.73853 9.73835 1.9891 9.572 2.312L10.461 2.771C10.5163 2.66349 10.6087 2.57965 10.721 2.535L10.354 1.605ZM11.368 1.5C11.157 1.5 10.974 1.5 10.822 1.51C10.6619 1.51647 10.5039 1.54854 10.354 1.605L10.721 2.535C10.7753 2.51759 10.832 2.50848 10.889 2.508C10.999 2.5 11.144 2.5 11.369 2.5L11.368 1.5ZM12.632 1.5H11.368V2.5H12.632V1.5ZM13.647 1.605C13.4963 1.54875 13.3377 1.51668 13.177 1.51C13.026 1.5 12.843 1.5 12.632 1.5V2.5C12.856 2.5 13 2.5 13.111 2.508C13.168 2.50881 13.2246 2.5179 13.279 2.535L13.647 1.605ZM14.428 2.312C14.2615 1.98948 13.9836 1.73829 13.646 1.605L13.279 2.535C13.3913 2.57965 13.4837 2.66349 13.539 2.771L14.428 2.312ZM15.5 11.999C15.5 12.9273 15.1313 13.8175 14.4749 14.4739C13.8185 15.1303 12.9283 15.499 12 15.499V16.499C13.1935 16.499 14.3381 16.0249 15.182 15.181C16.0259 14.3371 16.5 13.1925 16.5 11.999H15.5ZM12 8.499C12.9283 8.499 13.8185 8.86775 14.4749 9.52413C15.1313 10.1805 15.5 11.0707 15.5 11.999H16.5C16.5 10.8055 16.0259 9.66093 15.182 8.81702C14.3381 7.97311 13.1935 7.499 12 7.499V8.499ZM8.5 11.999C8.5 11.0707 8.86875 10.1805 9.52513 9.52413C10.1815 8.86775 11.0717 8.499 12 8.499V7.499C10.8065 7.499 9.66193 7.97311 8.81802 8.81702C7.97411 9.66093 7.5 10.8055 7.5 11.999H8.5ZM12 15.499C11.0717 15.499 10.1815 15.1303 9.52513 14.4739C8.86875 13.8175 8.5 12.9273 8.5 11.999H7.5C7.5 13.1925 7.97411 14.3371 8.81802 15.181C9.66193 16.0249 10.8065 16.499 12 16.499V15.499Z"/>
</mask>
<path d="M5.813 20.514L5.53771 20.3948L6.08803 20.6338L5.813 20.514ZM5.698 8.573L5.73824 8.87029L5.6578 8.27571L5.698 8.573ZM14.166 3.6585L14.664 3.6085L14.604 3.0115L14.106 3.0615L14.166 3.6585ZM13.8463 2.27349L13.4013 2.50349L13.6767 3.03651L14.1217 2.80651L13.8463 2.27349ZM14.6127 5.0557L15.0107 4.7527L14.6473 4.2753L14.2493 4.5783L14.6127 5.0557ZM15.6573 5.16076L15.5903 4.66576L14.9957 4.74624L15.0627 5.24124L15.6573 5.16076ZM16.3662 4.5714L16.6832 4.9574L17.1468 4.5766L16.8298 4.1906L16.3662 4.5714ZM16.9992 3.99926L17.1512 4.47526L17.7228 4.29274L17.5708 3.81674L16.9992 3.99926ZM18.2622 4.06233L18.4612 3.60333L17.9108 3.36467L17.7118 3.82367L18.2622 4.06233ZM18.4116 4.26917L18.0586 4.62317L18.4834 5.04683L18.8364 4.69283L18.4116 4.26917ZM19.7304 5.58683L20.0834 5.23283L19.6586 4.80917L19.3056 5.16317L19.7304 5.58683ZM20.1753 6.28724L20.6343 6.08824L20.3957 5.53776L19.9367 5.73676L20.1753 6.28724ZM19.9997 6.99978L20.4757 7.15178L20.6583 6.58022L20.1823 6.42822L19.9997 6.99978ZM19.8091 7.16892L19.4221 6.85192L19.0419 7.31608L19.4289 7.63308L19.8091 7.16892ZM18.8372 8.34271L18.3422 8.27571L18.2618 8.87029L18.7568 8.93729L18.8372 8.34271ZM18.9435 9.38599L18.6405 9.78299L19.1175 10.147L19.4205 9.75001L18.9435 9.38599ZM20.9375 9.89297L20.9875 9.39497L20.3905 9.33503L20.3405 9.83303L20.9375 9.89297ZM21.7256 10.1525L21.9546 9.70852L21.4214 9.43348L21.1924 9.87748L21.7256 10.1525ZM22.0392 10.815L22.5052 10.631L22.2848 10.073L21.8188 10.257L22.0392 10.815ZM22.0404 13.183L21.5754 12.999L21.3546 13.557L21.8196 13.741L22.0404 13.183ZM21.1915 14.1197L21.4215 14.5647L21.9545 14.2893L21.7245 13.8443L21.1915 14.1197ZM19.4207 14.2483L19.1177 13.8503L18.6403 14.2137L18.9433 14.6117L19.4207 14.2483ZM18.7584 15.0616L18.2624 15.1276L18.3416 15.7224L18.8376 15.6564L18.7584 15.0616ZM19.4293 16.3646L19.0423 16.6806L19.4217 17.1454L19.8087 16.8294L19.4293 16.3646ZM19.9999 16.9982L19.5229 17.1502L19.7051 17.7218L20.1821 17.5698L19.9999 16.9982ZM20.1753 17.7108L19.7163 17.5118L19.4777 18.0622L19.9367 18.2612L20.1753 17.7108ZM19.3062 18.8354L19.6602 19.1884L20.0838 18.7636L19.7298 18.4106L19.3062 18.8354ZM18.8361 19.3039L18.4831 18.9509L18.0589 19.3751L18.4119 19.7281L18.8361 19.3039ZM17.7119 20.1736L17.9119 20.6336L18.4621 20.3944L18.2621 19.9344L17.7119 20.1736ZM16.9992 19.9979L16.8472 20.4749L17.4188 20.6571L17.5708 20.1801L16.9992 19.9979ZM15.6574 18.8366L15.7234 18.3406L15.1286 18.2614L15.0626 18.7574L15.6574 18.8366ZM14.2493 19.4197L14.6473 19.7227L15.0107 19.2453L14.6127 18.9423L14.2493 19.4197ZM14.166 20.3385L13.669 20.2885L13.609 20.8855L14.106 20.9355L14.166 20.3385ZM14.1213 21.1902L13.6763 20.9612L13.4017 21.4948L13.8467 21.7238L14.1213 21.1902ZM13.742 21.8186L13.558 21.3536L13 21.5744L13.184 22.0394L13.742 21.8186ZM10.816 22.0394L11 21.5744L10.442 21.3536L10.258 21.8186L10.816 22.0394ZM10.1545 21.7236L10.5985 21.4946L10.3235 20.9614L9.87948 21.1904L10.1545 21.7236ZM9.83403 20.3385L9.33603 20.3885L9.39597 20.9855L9.89397 20.9355L9.83403 20.3385ZM9.38728 18.9423L8.98928 19.2453L9.35272 19.7227L9.75072 19.4197L9.38728 18.9423ZM8.9383 18.7568L8.8713 18.2608L8.2767 18.3412L8.3437 18.8372L8.9383 18.7568ZM6.42922 20.1813L6.58122 20.6573L7.15278 20.4747L7.00078 19.9987L6.42922 20.1813ZM5.73797 19.9352L5.53797 20.3942L6.08803 20.6338L6.28803 20.1748L5.73797 19.9352ZM5.58843 19.7288L5.94143 19.3748L5.51657 18.9512L5.16357 19.3052L5.58843 19.7288ZM4.26957 18.4112L3.91657 18.7652L4.34143 19.1888L4.69443 18.8348L4.26957 18.4112ZM4.06283 18.2615L4.52183 18.0635L4.28417 17.5125L3.82517 17.7105L4.06283 18.2615ZM3.81774 17.5698L4.29374 17.7218L4.47626 17.1502L4.00026 16.9982L3.81774 17.5698ZM4.1909 16.8291L4.5779 17.1461L4.9581 16.6819L4.5711 16.3649L4.1909 16.8291ZM5.16184 15.6553L5.65784 15.7223L5.73816 15.1277L5.24216 15.0607L5.16184 15.6553ZM5.05648 14.612L5.35948 14.215L4.88252 13.851L4.57952 14.248L5.05648 14.612ZM3.0625 14.105L3.0125 14.603L3.6095 14.663L3.6595 14.165L3.0625 14.105ZM2.80751 14.1207L3.03751 13.6757L2.50449 13.4003L2.27449 13.8453L2.80751 14.1207ZM1.96082 13.183L1.49482 13.367L1.71518 13.925L2.18118 13.741L1.96082 13.183ZM2.18118 10.257L1.71518 10.073L1.49482 10.631L1.96082 10.815L2.18118 10.257ZM2.80775 9.87873L2.57875 9.43373L2.04525 9.70827L2.27425 10.1533L2.80775 9.87873ZM5.0567 9.38628L4.7537 8.98828L4.2763 9.35172L4.5793 9.74972L5.0567 9.38628ZM5.24324 8.93729L5.73824 8.87029L5.65776 8.27571L5.16276 8.34271L5.24324 8.93729ZM4.56974 7.63137L4.95674 7.31537L4.57726 6.85063L4.19026 7.16663L4.56974 7.63137ZM3.99926 6.99778L4.47526 6.84578L4.29274 6.27422L3.81674 6.42622L3.99926 6.99778ZM4.06183 5.73454L3.60283 5.53654L3.36517 6.08746L3.82417 6.28546L4.06183 5.73454ZM4.26887 5.58513L4.62287 5.93913L5.04713 5.51487L4.69313 5.16087L4.26887 5.58513ZM5.58713 4.26787L5.23313 3.91387L4.80887 4.33813L5.16287 4.69213L5.58713 4.26787ZM6.28734 3.82289L6.08834 3.36289L5.53766 3.60111L5.73666 4.06111L6.28734 3.82289ZM6.99984 3.99808L7.15184 3.52108L6.58016 3.33892L6.42816 3.81592L6.99984 3.99808ZM7.63308 4.5691L7.95008 4.1821L7.48592 3.8019L7.16892 4.1889L7.63308 4.5691ZM8.93629 5.24024L9.00329 4.74524L8.40871 4.66476L8.34171 5.15976L8.93629 5.24024ZM9.75043 4.57608L9.35143 4.27308L8.98857 4.75092L9.38757 5.05392L9.75043 4.57608ZM9.83297 3.65749L10.33 3.70749L10.39 3.11051L9.89303 3.06051L9.83297 3.65749ZM10.152 2.27213L9.70804 2.04413L9.43396 2.57787L9.87796 2.80587L10.152 2.27213ZM10.257 2.17838L10.441 2.64338L10.999 2.42262L10.815 1.95762L10.257 2.17838ZM13.741 2.17838L13.925 1.71338L13.367 1.49262L13.183 1.95762L13.741 2.17838ZM15.7223 5.6561L15.5893 4.6651L14.9947 4.7449L15.1277 5.7359L15.7223 5.6561ZM17.1461 4.5759L16.5121 3.8019L16.0479 4.1821L16.6819 4.9561L17.1461 4.5759ZM17.7227 4.29147L17.4177 3.33947L16.8463 3.52253L17.1513 4.47453L17.7227 4.29147ZM18.0622 4.52033L18.4602 3.60233L17.9098 3.36367L17.5118 4.28167L18.0622 4.52033ZM18.4821 5.04613L19.1891 4.33913L18.7649 3.91487L18.0579 4.62187L18.4821 5.04613ZM19.3751 5.93913L20.0821 5.23213L19.6579 4.80787L18.9509 5.51487L19.3751 5.93913ZM19.7153 6.48524L20.6333 6.08724L20.3947 5.53676L19.4767 5.93476L19.7153 6.48524ZM19.5216 6.84572L20.4746 7.15072L20.6574 6.57928L19.7044 6.27428L19.5216 6.84572ZM19.0409 7.31508L19.8149 7.94908L20.1951 7.48492L19.4211 6.85092L19.0409 7.31508ZM18.2611 8.86933L19.2521 9.00233L19.3319 8.40767L18.3409 8.27467L18.2611 8.86933ZM19.1166 10.1459L19.7226 9.35087L19.2454 8.98713L18.6394 9.78213L19.1166 10.1459ZM21.4946 10.5966L21.9536 9.70763L21.4204 9.43237L20.9614 10.3214L21.4946 10.5966ZM21.5744 10.998L22.5044 10.63L22.2836 10.072L21.3536 10.44L21.5744 10.998ZM21.499 12.93H22.499V12.33H21.499V12.93ZM21.3539 13.5561L22.2839 13.9231L22.5041 13.3649L21.5741 12.9979L21.3539 13.5561ZM20.2895 13.6667L20.3885 14.6617L20.9855 14.6023L20.8865 13.6073L20.2895 13.6667ZM21.0159 14.5775L20.8509 13.5915L20.2591 13.6905L20.4241 14.6765L21.0159 14.5775ZM18.6394 14.2129L19.2464 15.0089L19.7236 14.6451L19.1166 13.8491L18.6394 14.2129ZM19.4209 17.1442L20.1949 16.5112L19.8151 16.0468L19.0411 16.6798L19.4209 17.1442ZM19.7042 17.7208L20.6572 17.4168L20.4748 16.8452L19.5218 17.1492L19.7042 17.7208ZM19.4767 18.0612L20.3947 18.4592L20.6333 17.9088L19.7153 17.5108L19.4767 18.0612ZM18.951 18.4803L19.659 19.1873L20.083 18.7627L19.375 18.0557L18.951 18.4803ZM17.5118 19.7144L17.9098 20.6314L18.4602 20.3926L18.0622 19.4756L17.5118 19.7144ZM17.1513 19.5206L16.8463 20.4736L17.4177 20.6564L17.7227 19.7034L17.1513 19.5206ZM16.6819 19.0389L16.0479 19.8129L16.5121 20.1931L17.1461 19.4191L16.6819 19.0389ZM16.5194 20.1943L17.1434 19.4133L16.6746 19.0387L16.0506 19.8197L16.5194 20.1943ZM15.1277 18.2601L14.9947 19.2511L15.5893 19.3309L15.7223 18.3399L15.1277 18.2601ZM13.8509 19.1144L14.6459 19.7214L15.0101 19.2446L14.2151 18.6376L13.8509 19.1144ZM13.607 20.8845L14.603 20.9845L14.663 20.3875L13.667 20.2875L13.607 20.8845ZM13.4004 21.4936L14.2894 21.9526L14.5646 21.4194L13.6756 20.9604L13.4004 21.4936ZM12.999 21.5734L13.367 22.5034L13.925 22.2826L13.557 21.3526L12.999 21.5734ZM12.33 21.4983L12.331 22.4983L12.931 22.4977L12.93 21.4977L12.33 21.4983ZM11.067 21.498V22.498H11.667V21.498H11.067ZM10.441 21.3526L10.073 22.2826L10.631 22.5034L10.999 21.5734L10.441 21.3526ZM10.3224 20.9604L9.43337 21.4194L9.70863 21.9526L10.5976 21.4936L10.3224 20.9604ZM10.3303 20.2885L9.3353 20.3875L9.3947 20.9845L10.3897 20.8855L10.3303 20.2885ZM9.78294 18.6376L8.98794 19.2446L9.35206 19.7214L10.1471 19.1144L9.78294 18.6376ZM8.27567 18.3399L8.40867 19.3309L9.00333 19.2511L8.87033 18.2601L8.27567 18.3399ZM6.85192 19.4201L7.48592 20.1941L7.95008 19.8139L7.31608 19.0399L6.85192 19.4201ZM7.95736 19.7918L7.29335 19.0438L6.84464 19.4422L7.50864 20.1902L7.95736 19.7918ZM6.27528 19.7034L6.58028 20.6564L7.15172 20.4736L6.84672 19.5206L6.27528 19.7034ZM5.93571 19.4758L5.53771 20.3948L6.08829 20.6332L6.48629 19.7142L5.93571 19.4758ZM5.51587 18.9499L4.80887 19.6569L5.23313 20.0811L5.94013 19.3741L5.51587 18.9499ZM4.62287 18.0569L3.91587 18.7639L4.34013 19.1881L5.04713 18.4811L4.62287 18.0569ZM4.28156 17.5108L3.36456 17.9088L3.60344 18.4592L4.52044 18.0612L4.28156 17.5108ZM4.47553 17.1503L3.52353 16.8453L3.34047 17.4167L4.29247 17.7217L4.47553 17.1503ZM4.9571 16.6809L4.1831 16.0469L3.8029 16.5111L4.5769 17.1451L4.9571 16.6809ZM5.7369 15.1267L4.7459 14.9937L4.6661 15.5883L5.6571 15.7213L5.7369 15.1267ZM2.50343 13.3994L2.04443 14.2884L2.57757 14.5636L3.03657 13.6746L2.50343 13.3994ZM2.5 11.068H1.5V11.668H2.5V11.068ZM2.64538 10.442L1.71538 10.074L1.49462 10.632L2.42462 11L2.64538 10.442ZM3.03757 10.3234L2.57857 9.43437L2.04543 9.70963L2.50443 10.5986L3.03757 10.3234ZM3.70953 10.3313L3.61053 9.33533L3.01347 9.39467L3.11247 10.3907L3.70953 10.3313ZM3.062 9.364V10.364H3.662V9.364H3.062ZM5.36044 9.78394L4.75344 8.98894L4.27656 9.35306L4.88356 10.1481L5.36044 9.78394ZM5.6578 8.27571L4.6668 8.40971L4.7472 9.00429L5.7382 8.8703L5.6578 8.27571ZM4.57808 6.85277L3.80408 7.48577L4.18392 7.95023L4.95792 7.31723L4.57808 6.85277ZM4.29374 6.27622L3.34174 6.58022L3.52426 7.15178L4.47626 6.84778L4.29374 6.27622ZM4.52233 5.93676L3.60433 5.53876L3.36567 6.08924L4.28367 6.48724L4.52233 5.93676ZM5.04813 5.51687L4.34113 4.80987L3.91687 5.23413L4.62387 5.94113L5.04813 5.51687ZM5.94113 4.62287L5.23413 3.91587L4.80987 4.34013L5.51687 5.04713L5.94113 4.62287ZM6.4872 4.28256L6.0892 3.36556L5.5388 3.60444L5.9368 4.52144L6.4872 4.28256ZM6.84772 4.47644L7.15272 3.52344L6.58128 3.34056L6.27628 4.29356L6.84772 4.47644ZM7.31823 4.95792L7.95123 4.18392L7.48677 3.80408L6.85377 4.57808L7.31823 4.95792ZM8.87133 5.7379L9.00433 4.7469L8.40967 4.6671L8.27667 5.6581L8.87133 5.7379ZM10.1489 4.88245L9.35291 4.27545L8.98909 4.75255L9.78509 5.35955L10.1489 4.88245ZM10.5986 2.50443L9.70963 2.04543L9.43437 2.57857L10.3234 3.03757L10.5986 2.50443ZM11.0001 2.42488L10.6331 1.49488L10.0749 1.71512L10.4419 2.64512L11.0001 2.42488ZM12.932 2.5V1.5H12.332V2.5H12.932ZM11.7 15.499V16.499H12.3V15.499H11.7ZM16.5 11.699H15.5V12.299H16.5V11.699ZM11.7 7.499V8.499H12.3V7.499H11.7ZM7.5 12.299H8.5V11.699H7.5V12.299ZM14.634 3.31L15.2319 3.2602L15.1813 2.65264L14.5747 2.71294L14.634 3.31ZM20.588 13.638L21.185 13.5779L21.1269 13.0007L20.5481 13.0393L20.588 13.638ZM20.573 13.639L20.5331 13.0403L20.5007 13.0425L20.4688 13.0481L20.573 13.639ZM20.556 13.642L20.4518 13.0511L19.8666 13.1544L19.9641 13.7404L20.556 13.642ZM20.688 14.633L20.091 14.6929L20.152 15.3002L20.7581 15.2289L20.688 14.633ZM20.705 14.631L20.7751 15.2269L20.7954 15.2245L20.8156 15.2207L20.705 14.631ZM20.721 14.628L20.8316 15.2177L21.4105 15.1092L21.3127 14.5284L20.721 14.628ZM18.302 15.425L18.2215 14.8304L17.628 14.9108L17.7073 15.5044L18.302 15.425ZM16.915 19.23L17.3792 19.6102L17.8193 19.0728L17.2237 18.7155L16.915 19.23ZM16.91 19.227L17.2187 18.7125L16.769 18.4427L16.4415 18.8522L16.91 19.227ZM16.281 20.004L15.8168 19.6238L15.4323 20.0932L15.9061 20.4724L16.281 20.004ZM16.286 20.008L15.9111 20.4764L16.3802 20.8519L16.755 20.3822L16.286 20.008ZM7.085 19.231L7.54868 18.8502L7.15976 18.3766L6.6945 18.7755L7.085 19.231ZM7.078 19.237L6.68748 18.7814L6.6829 18.7855L7.078 19.237ZM7.07 19.244L6.6749 18.7925L6.21951 19.1909L6.62182 19.6429L7.07 19.244ZM7.719 20.005L7.25436 20.3846L7.64702 20.8652L8.11409 20.4566L7.719 20.005ZM7.727 19.998L7.33648 19.5424L7.33191 19.5464L7.727 19.998ZM7.734 19.992L8.1245 20.4475L8.58737 20.0508L8.18324 19.5943L7.734 19.992ZM5.813 20.514L5.57363 21.0642L5.57469 21.0646L5.813 20.514ZM3.311 14.633L3.25158 15.2301L3.25257 15.2301L3.311 14.633ZM1.605 13.646L1.04349 13.8574L1.25828 14.4279L1.82525 14.2041L1.605 13.646ZM3.361 9.363H3.961V8.763H3.361V9.363ZM3.337 9.363V8.763H3.31304L3.28916 8.76491L3.337 9.363ZM3.361 10.363H2.761V10.963H3.361V10.363ZM3.386 10.363V10.963H3.42187L3.45749 10.9587L3.386 10.363ZM3.411 10.36L3.48249 10.9557L4.06691 10.8856L4.00799 10.2999L3.411 10.36ZM5.698 8.573L5.10328 8.65245L5.10336 8.65301L5.698 8.573ZM14.632 3.31L14.6915 3.90705L15.2786 3.84857L15.23 3.26057L14.632 3.31ZM14.569 2.768L13.9751 2.85338L13.9756 2.85704L14.569 2.768ZM14.427 2.31L14.965 2.04443L14.6946 1.49658L14.1517 1.77687L14.427 2.31ZM13.538 2.769L13.2627 2.23587L12.7365 2.50758L13.0013 3.03733L13.538 2.769ZM13.582 2.933L12.9898 3.0298L12.9908 3.03512L13.582 2.933ZM14.828 4.513L15.3049 4.14867L15.2965 4.13818L14.828 4.513ZM14.741 4.223L14.148 4.31408L14.1492 4.32235L14.1507 4.33057L14.741 4.223ZM13.757 4.4L13.1663 4.50532L13.1663 4.50547L13.757 4.4ZM14.033 5.12L13.556 5.48397L13.9201 5.96111L14.3971 5.59689L14.033 5.12ZM15.292 4.705L15.372 5.29964L15.3813 5.29839L15.3906 5.29684L15.292 4.705ZM14.032 5.119L13.6686 4.6416L13.1908 5.00534L13.5549 5.48283L14.032 5.119ZM15.425 5.696L15.3456 5.10128L15.3449 5.10137L15.425 5.696ZM16.28 3.992L15.9004 3.52737L15.8991 3.52839L16.28 3.992ZM15.558 4.561L15.2168 4.06748L15.2163 4.06778L15.558 4.561ZM16.129 5.382L16.472 5.87431L16.4723 5.87408L16.129 5.382ZM16.914 4.766L17.2939 5.23044L17.2947 5.22978L16.914 4.766ZM17.132 3.431L17.3142 4.00266L17.3149 4.00245L17.132 3.431ZM16.709 3.654L17.0562 4.1433L17.0567 4.14301L16.709 3.654ZM17.289 4.469L17.6367 4.95797L17.6514 4.94753L17.6654 4.93623L17.289 4.469ZM17.437 4.383L17.2559 3.811L17.2364 3.81715L17.2175 3.82461L17.437 4.383ZM18.185 3.483L18.4335 2.93676L18.4233 2.93235L18.185 3.483ZM17.787 4.401L17.5481 4.95141L17.5506 4.95249L17.787 4.401ZM18.977 4.127L18.5527 4.55126L18.5527 4.55126L18.977 4.127ZM18.584 3.747L18.1784 4.18932L18.1883 4.19806L18.584 3.747ZM17.926 4.501L17.5309 4.95255L17.5328 4.95423L17.926 4.501ZM18.27 4.834L18.6943 4.40974V4.40974L18.27 4.834ZM19.87 5.02L20.2957 4.59715L20.2943 4.59574L19.87 5.02ZM19.163 5.727L18.7387 6.15126L19.163 5.727ZM20.514 5.812L21.0648 5.57365L21.0597 5.56254L20.514 5.812ZM20.249 5.413L19.7979 5.80866L19.8026 5.814L19.8074 5.81923L20.249 5.413ZM19.497 6.071L19.9486 5.67588L19.9448 5.67171L19.497 6.071ZM19.596 6.21L19.0445 6.44635L19.0449 6.44726L19.596 6.21ZM20.566 6.865L19.9946 6.68211L19.9943 6.68278L20.566 6.865ZM19.613 6.56L20.1725 6.77681L20.179 6.75995L20.1845 6.74274L19.613 6.56ZM20.005 7.717L20.4686 8.09788L20.4696 8.09663L20.005 7.717ZM20.343 7.288L20.8323 7.63525L20.8338 7.63311L20.343 7.288ZM19.528 6.708L19.0588 6.33403L19.0527 6.34173L19.0468 6.34964L19.528 6.708ZM19.231 7.083L18.7719 6.69662L18.7666 6.70314L19.231 7.083ZM19.292 8.705L18.7002 8.60636L18.6986 8.61565L18.6974 8.62499L19.292 8.705ZM19.436 8.439L19.9292 8.78067L19.9295 8.78023L19.436 8.439ZM18.615 7.868L19.1065 8.21208L19.1082 8.20976L18.615 7.868ZM18.301 8.572L18.8957 8.65173L18.8957 8.65145L18.301 8.572ZM19.484 9.169L19.8589 8.70036L19.8482 8.69221L19.484 9.169ZM18.878 9.964L18.5141 10.4411L18.5144 10.4413L18.878 9.964ZM19.774 9.256L19.6664 9.84628L19.6672 9.84641L19.774 9.256ZM19.598 10.24L19.4907 10.8303L19.4923 10.8306L19.598 10.24ZM20.588 10.36L20.5286 10.9571L21.1257 11.0165L21.1851 10.4193L20.588 10.36ZM21.687 9.57L21.9621 9.03669L21.9526 9.03197L21.687 9.57ZM21.229 9.428L21.1303 10.02L21.1436 10.0219L21.229 9.428ZM20.587 10.359L19.99 10.299L19.9301 10.8947L20.5257 10.9559L20.587 10.359ZM21.064 10.415L20.9619 11.0062L20.9793 11.0093L20.9969 11.0112L21.064 10.415ZM21.228 10.459L21.5024 9.92541L21.4856 9.91679L21.4684 9.90924L21.228 10.459ZM22.394 10.351L22.9561 10.1409L22.9519 10.1302L22.394 10.351ZM21.464 10.719L22.0247 10.5054L22.0216 10.4974L21.464 10.719ZM22.489 10.82L21.8895 10.8452L21.8898 10.8523L21.8903 10.8594L22.489 10.82ZM21.491 10.887L22.0904 10.8578L22.0897 10.8471L21.491 10.887ZM21.499 11.367L20.8991 11.3578L20.8897 11.9676L21.4996 11.967L21.499 11.367ZM21.499 11.366V10.766H20.899V11.366H21.499ZM22.394 13.644L21.8364 13.4224L21.8359 13.4237L22.394 13.644ZM22.489 13.175L21.8903 13.1354L21.8902 13.1369L22.489 13.175ZM21.491 13.109L20.8926 13.0659L20.8912 13.0848L20.891 13.1038L21.491 13.109ZM21.464 13.277L22.0216 13.4986L22.0292 13.4795L22.0354 13.46L21.464 13.277ZM21.687 14.426L21.1539 14.7013L21.4291 15.2344L21.9623 14.9591L21.687 14.426ZM20.687 14.632L20.7456 15.2291L20.7467 15.229L20.687 14.632ZM21.229 14.567L21.1335 13.9746L21.1297 13.9753L21.229 14.567ZM21.686 14.427L21.9586 14.9615L22.495 14.6879L22.2195 14.1525L21.686 14.427ZM21.064 13.581L20.9974 12.9847L20.9795 12.9867L20.9619 12.9898L21.064 13.581ZM20.588 13.637L20.6476 14.234L20.6496 14.2338L20.588 13.637ZM19.485 14.827L19.8482 15.3046L19.854 15.3001L19.8598 15.2955L19.485 14.827ZM19.775 14.74L19.8799 15.3308L19.8818 15.3304L19.775 14.74ZM19.597 13.756L19.7025 14.3467L19.7045 14.3463L19.597 13.756ZM18.878 14.031L18.5155 13.5529L18.5142 13.5539L18.878 14.031ZM18.301 15.424L17.7064 15.5041L17.7864 16.0984L18.3808 16.0187L18.301 15.424ZM20.005 16.279L20.464 15.8926L20.4632 15.8916L20.005 16.279ZM19.436 15.557L18.9437 15.9L18.9479 15.906L18.9523 15.912L19.436 15.557ZM18.615 16.128L18.1216 16.4694L18.1237 16.4724L18.615 16.128ZM19.231 16.912L19.6959 16.5326L19.6948 16.5314L19.231 16.912ZM20.566 17.131L21.1375 16.9481L21.1342 16.9384L20.566 17.131ZM20.343 16.707L19.8607 17.0639L19.8623 17.0661L20.343 16.707ZM19.528 17.288L19.0372 17.6332L19.0479 17.6483L19.0594 17.6627L19.528 17.288ZM19.613 17.435L20.1843 17.2516L20.1785 17.2335L20.1715 17.2158L19.613 17.435ZM20.514 18.184L19.9634 17.9457L19.9633 17.9459L20.514 18.184ZM19.596 17.786L20.1293 18.0609L20.1387 18.0426L20.1469 18.0238L19.596 17.786ZM20.249 18.583L20.7001 18.9787L20.7008 18.9778L20.249 18.583ZM19.496 17.924L19.0687 17.5028L19.0605 17.5111L19.0526 17.5198L19.496 17.924ZM19.163 18.268L18.7445 17.8379L18.7385 17.844L19.163 18.268ZM18.977 19.869L18.5527 20.2933L18.977 20.7175L19.4013 20.2933L18.977 19.869ZM18.185 20.512L18.4238 21.0624L18.4244 21.0622L18.185 20.512ZM18.584 20.248L18.9788 20.6998L18.9797 20.6991L18.584 20.248ZM18.977 19.868L19.4013 20.2923L19.8258 19.8677L19.401 19.4434L18.977 19.868ZM17.926 19.495L17.5297 19.0445L17.5177 19.0551L17.5062 19.0663L17.926 19.495ZM17.787 19.595L18.0243 20.1461L18.0424 20.1383L18.06 20.1293L17.787 19.595ZM17.132 20.565L17.3144 19.9934L17.3142 19.9933L17.132 20.565ZM17.437 19.612L17.2202 20.1715L17.237 20.178L17.2543 20.1835L17.437 19.612ZM16.28 20.003L15.9 20.4673L15.9004 20.4676L16.28 20.003ZM16.709 20.341L17.0567 19.852L17.0562 19.8517L16.709 20.341ZM17.289 19.527L17.663 19.0578L17.6556 19.052L17.6481 19.0463L17.289 19.527ZM16.914 19.229L17.3012 18.7705L17.293 18.7638L16.914 19.229ZM15.292 19.291L15.212 19.8858L15.2257 19.8873L15.292 19.291ZM15.558 19.435L15.215 19.9273L15.2168 19.9285L15.558 19.435ZM16.129 18.613L16.4723 18.1209L16.4715 18.1204L16.129 18.613ZM15.425 18.3L15.345 18.8946L15.3456 18.8947L15.425 18.3ZM14.828 19.483L15.2966 19.8579L15.3048 19.8472L14.828 19.483ZM14.033 18.876L13.5562 18.5118L13.5557 18.5124L14.033 18.876ZM14.633 20.686L14.036 20.6262L14.036 20.6263L14.633 20.686ZM14.741 19.773L14.1507 19.6654L14.1506 19.6662L14.741 19.773ZM13.757 19.596L13.1667 19.4883L13.1664 19.4903L13.757 19.596ZM13.637 20.586L13.0399 20.5266L13.0393 20.534L13.637 20.586ZM14.427 21.686L14.9602 21.9611L14.9608 21.96L14.427 21.686ZM14.568 21.228L13.9768 21.1255L13.9763 21.1287L14.568 21.228ZM13.582 21.063L12.9885 20.9752L12.9869 20.9856L12.9857 20.996L13.582 21.063ZM13.538 21.227L14.0716 21.5014L14.0802 21.4847L14.0877 21.4675L13.538 21.227ZM13.646 22.393L13.4252 21.8351L13.4244 21.8354L13.646 22.393ZM13.278 21.463L13.461 22.0344L13.4805 22.0282L13.4996 22.0206L13.278 21.463ZM13.177 22.488L13.1386 21.8892L13.1376 21.8893L13.177 22.488ZM13.11 21.49L13.1048 20.89L13.0856 20.8902L13.0665 20.8916L13.11 21.49ZM10.352 22.393L10.1312 22.9509L10.1316 22.9511L10.352 22.393ZM10.822 22.488L10.8616 21.8893L10.8601 21.8892L10.822 22.488ZM10.888 21.49L10.9311 20.8916L10.9123 20.8902L10.8934 20.89L10.888 21.49ZM10.72 21.463L10.4984 22.0206L10.5175 22.0282L10.5371 22.0345L10.72 21.463ZM9.571 21.686L9.03722 21.96L9.03778 21.9611L9.571 21.686ZM10.46 21.227L9.91024 21.4674L9.91779 21.4846L9.92641 21.5014L10.46 21.227ZM9.365 20.686L9.96202 20.6263L9.96199 20.626L9.365 20.686ZM9.429 21.228L8.83662 21.3234L8.83727 21.3273L9.429 21.228ZM10.416 21.063L11.0122 20.9959L11.0111 20.9854L11.0095 20.975L10.416 21.063ZM10.36 20.587L10.9578 20.5348L10.957 20.5274L10.36 20.587ZM9.17 19.483L8.69309 19.8473L8.70148 19.8578L9.17 19.483ZM9.257 19.773L9.84741 19.6662L9.84728 19.6654L9.257 19.773ZM10.241 19.596L10.8317 19.4907L10.8317 19.4905L10.241 19.596ZM9.965 18.876L9.48793 19.2399L9.488 19.24L9.965 18.876ZM8.706 19.291L8.77228 19.8875L8.78601 19.8856L8.706 19.291ZM8.573 18.3L8.65245 18.8947L8.65273 18.8947L8.573 18.3ZM7.718 20.004L8.09764 20.4686L8.09887 20.4676L7.718 20.004ZM8.44 19.435L8.78123 19.9285L8.78167 19.9282L8.44 19.435ZM7.869 18.614L8.21077 19.1072L8.21198 19.1063L7.869 18.614ZM7.084 19.23L6.7041 18.7655L6.69766 18.7709L7.084 19.23ZM6.866 20.565L6.68378 19.9933L6.68311 19.9936L6.866 20.565ZM7.289 20.342L6.94175 19.8527L6.94134 19.853L7.289 20.342ZM6.709 19.527L6.35063 19.0458L6.3426 19.0518L6.33477 19.058L6.709 19.527ZM6.561 19.612L6.74374 20.1835L6.7608 20.178L6.7775 20.1716L6.561 19.612ZM6.211 19.595L5.93845 20.1295L5.95583 20.1384L5.97374 20.1461L6.211 19.595ZM5.021 19.869L4.59674 20.2933L4.59674 20.2933L5.021 19.869ZM5.414 20.249L5.01834 20.7001L5.01944 20.701L5.414 20.249ZM6.072 19.495L6.49216 19.0667L6.48439 19.0591L6.47636 19.0517L6.072 19.495ZM5.728 19.162L6.15794 18.7434L6.15226 18.7377L5.728 19.162ZM4.128 18.976L3.70232 19.3988L3.70374 19.4003L4.128 18.976ZM4.835 18.269L5.25931 17.8447L5.25287 17.8384L4.835 18.269ZM3.484 18.184L2.93335 18.4223L2.93381 18.4234L3.484 18.184ZM3.749 18.583L3.29722 18.9778L3.29794 18.9787L3.749 18.583ZM4.501 17.925L4.9437 17.52L4.93676 17.5124L4.92956 17.5051L4.501 17.925ZM4.401 17.786L3.8506 18.0249L3.85808 18.0421L3.86662 18.0588L4.401 17.786ZM3.432 17.131L2.8639 16.9377L2.86055 16.9481L3.432 17.131ZM4.384 17.436L3.82561 17.2165L3.81815 17.2354L3.812 17.2549L4.384 17.436ZM3.993 16.279L3.52939 15.8981L3.52837 15.8994L3.993 16.279ZM3.655 16.708L4.13544 17.0674L4.13995 17.0614L4.1443 17.0552L3.655 16.708ZM4.47 17.288L4.93723 17.6644L4.94853 17.6504L4.95897 17.6357L4.47 17.288ZM4.767 16.913L5.23078 17.2937L5.23144 17.2929L4.767 16.913ZM4.706 15.291L5.29784 15.3896L5.29939 15.3803L5.30064 15.371L4.706 15.291ZM4.562 15.557L5.0542 15.9001L5.05522 15.8987L4.562 15.557ZM5.383 16.128L4.89146 15.7839L4.88985 15.7862L5.383 16.128ZM5.697 15.424L5.10232 15.3443L5.10228 15.3446L5.697 15.424ZM4.514 14.827L4.13909 15.2956L4.14976 15.3038L4.514 14.827ZM5.12 14.032L5.48388 13.5549L5.00667 13.1909L4.64282 13.6683L5.12 14.032ZM4.224 14.74L4.33157 14.1497L4.33084 14.1496L4.224 14.74ZM5.12 14.031L5.5974 14.3944L5.9607 13.9172L5.48363 13.5537L5.12 14.031ZM4.4 13.756L4.29429 14.3466L4.29493 14.3467L4.4 13.756ZM3.41 13.636L3.46941 13.0389L2.87224 12.9795L2.81294 13.5767L3.41 13.636ZM2.311 14.426L2.03571 14.9591L2.03699 14.9598L2.311 14.426ZM2.769 14.567L2.87147 13.9758L2.86826 13.9753L2.769 14.567ZM3.411 13.637L4.008 13.6969L4.06874 13.0919L3.46298 13.0393L3.411 13.637ZM2.934 13.581L3.02188 12.9875L3.01152 12.9859L3.00111 12.9848L2.934 13.581ZM2.77 13.537L2.49562 14.0706L2.51238 14.0792L2.52965 14.0868L2.77 13.537ZM1.604 13.644L1.38375 13.0859L0.825564 13.3062L1.04592 13.8643L1.604 13.644ZM2.534 13.277L3.09158 13.0554L2.87053 12.4992L2.31375 12.7189L2.534 13.277ZM1.51 13.178L2.10951 13.1538L2.1092 13.1462L2.10871 13.1386L1.51 13.178ZM2.535 13.279L2.75525 13.8371L3.2776 13.631L3.10645 13.0961L2.535 13.279ZM2.508 13.111L3.10798 13.1056L3.10787 13.0944L3.10735 13.0831L2.508 13.111ZM2.5 12.631L3.09995 12.6389L3.10793 12.0304L2.4994 12.031L2.5 12.631ZM2.5 12.632V13.232H3.1V12.632H2.5ZM1.605 10.353L1.04701 10.1321L1.04287 10.1432L1.605 10.353ZM1.51 10.823L2.10869 10.8626L2.10917 10.8553L2.10948 10.848L1.51 10.823ZM2.508 10.889L3.10645 10.9321L3.10782 10.9131L3.10798 10.8941L2.508 10.889ZM2.535 10.721L1.97742 10.4994L1.96988 10.5184L1.96364 10.5378L2.535 10.721ZM2.312 9.572L2.04639 9.03389L2.03691 9.03878L2.312 9.572ZM2.771 10.461L2.50265 9.92431L2.49662 9.92741L2.771 10.461ZM2.77 9.43L2.85539 10.024L2.86541 10.0224L2.77 9.43ZM2.935 10.417L3.0318 11.0092L3.03712 11.0082L2.935 10.417ZM3.411 10.361L3.35144 9.76396L3.34944 9.76417L3.411 10.361ZM4.515 9.171L4.15067 8.69409L4.14018 8.70248L4.515 9.171ZM4.225 9.258L4.33184 9.84841L4.33257 9.84828L4.225 9.258ZM4.402 10.242L4.29693 9.65127L4.29629 9.65139L4.402 10.242ZM5.122 9.966L4.75776 9.48921L4.75694 9.48984L5.122 9.966ZM4.707 8.707L5.30164 8.62699L5.30038 8.61765L5.29884 8.60836L4.707 8.707ZM3.994 7.718L4.45818 7.33782L4.45749 7.33697L3.994 7.718ZM4.564 8.441L5.05722 8.09933L5.0562 8.09787L4.564 8.441ZM5.384 7.87L4.89085 8.21177L4.89169 8.21298L5.384 7.87ZM4.768 7.085L5.23248 6.70511L5.22756 6.69925L4.768 7.085ZM3.433 6.866L4.0057 6.68703L4.00452 6.68334L3.433 6.866ZM3.656 7.29L3.16698 7.63766L3.16803 7.63912L3.656 7.29ZM4.471 6.709L4.95269 6.35126L4.94525 6.34125L4.93741 6.33155L4.471 6.709ZM4.385 6.562L3.813 6.74314L3.81949 6.76364L3.82743 6.78362L4.385 6.562ZM3.485 5.814L2.93878 5.56546L2.93428 5.57586L3.485 5.814ZM4.403 6.212L3.86968 5.93709L3.86054 5.95483L3.8526 5.97314L4.403 6.212ZM4.129 5.022L4.55185 5.44768L4.5535 5.44603L4.129 5.022ZM3.749 5.415L4.19126 5.82047L4.19659 5.81466L4.20176 5.80871L3.749 5.415ZM4.503 6.073L4.93031 6.4942L4.93927 6.48511L4.94783 6.47565L4.503 6.073ZM4.836 5.729L5.25295 6.16058L5.2605 6.15303L4.836 5.729ZM5.022 4.128L5.4465 4.55203L5.44768 4.55084L5.022 4.128ZM5.729 4.835L5.30607 4.4094L5.3045 4.41097L5.729 4.835ZM5.814 3.485L5.57512 2.93449L5.56523 2.939L5.814 3.485ZM5.415 3.749L5.81075 4.20016L5.82025 4.19147L5.415 3.749ZM6.073 4.502L5.6779 4.05045L5.67675 4.05146L6.073 4.502ZM6.212 4.402L5.97314 3.8516L5.96351 3.85577L5.95404 3.86028L6.212 4.402ZM6.867 3.432L7.06114 2.86414L7.04936 2.86038L6.867 3.432ZM6.562 4.385L6.77896 3.8256L6.76125 3.81873L6.74314 3.813L6.562 4.385ZM7.719 3.994L8.10687 3.5361L8.09863 3.52937L7.719 3.994ZM7.29 3.656L6.92948 4.13561L6.93605 4.14055L6.94275 4.1453L7.29 3.656ZM6.71 4.47L6.33615 4.9393L6.34723 4.94812L6.35871 4.95641L6.71 4.47ZM7.086 4.768L7.46659 4.30415L7.46536 4.30315L7.086 4.768ZM8.707 4.707L8.60836 5.29884L8.61807 5.30045L8.62782 5.30175L8.707 4.707ZM8.441 4.563L8.08568 5.04647L8.09244 5.05144L8.09933 5.05622L8.441 4.563ZM7.87 5.384L7.52716 5.8764L7.5275 5.87664L7.87 5.384ZM8.574 5.698L8.49232 6.29242L8.49363 6.29259L8.574 5.698ZM9.171 4.514L8.70248 4.13918L8.69786 4.14496L8.69338 4.15085L9.171 4.514ZM9.967 5.121L10.4438 5.48519L10.4443 5.48463L9.967 5.121ZM9.258 4.224L9.84828 4.33157L9.84832 4.33133L9.258 4.224ZM10.242 4.401L9.65139 4.29529L9.65127 4.29593L10.242 4.401ZM10.362 3.411L10.9591 3.47041L11.0185 2.87329L10.4213 2.81394L10.362 3.411ZM9.572 2.312L9.03862 2.03722L9.03822 2.03799L9.572 2.312ZM9.43 2.77L8.83827 2.67074L8.83816 2.67136L9.43 2.77ZM10.361 3.412L10.301 4.00899L10.9061 4.0698L10.9587 3.46397L10.361 3.412ZM10.417 2.935L11.0105 3.02288L11.0121 3.0122L11.0133 3.00147L10.417 2.935ZM10.461 2.771L9.92741 2.49662L9.91894 2.51309L9.9115 2.53006L10.461 2.771ZM10.354 1.605L10.1425 1.04341L10.1334 1.04702L10.354 1.605ZM10.721 2.535L10.5378 1.96364L10.5184 1.96988L10.4994 1.97742L10.721 2.535ZM10.822 1.51L10.8462 2.10951L10.8538 2.1092L10.8614 2.10871L10.822 1.51ZM10.889 2.508L10.8941 3.10798L10.9133 3.10782L10.9325 3.10642L10.889 2.508ZM11.369 2.5V3.1H11.9696L11.969 2.4994L11.369 2.5ZM11.368 2.5H10.768V3.1H11.368V2.5ZM13.647 1.605L14.2049 1.82576L14.43 1.25688L13.8569 1.0429L13.647 1.605ZM13.177 1.51L13.1374 2.10869L13.1447 2.10918L13.1521 2.10948L13.177 1.51ZM13.111 2.508L13.0679 3.10645L13.0852 3.10769L13.1025 3.10794L13.111 2.508ZM14.428 2.312L14.7033 2.84513L15.2364 2.56986L14.9611 2.03672L14.428 2.312ZM13.646 1.605L13.8663 1.04692L13.3082 0.826564L13.0879 1.38475L13.646 1.605ZM13.539 2.771L13.0054 3.04538L13.2803 3.57985L13.8143 3.30413L13.539 2.771ZM15.5 11.999H16.1H15.5ZM12 8.499V7.899V8.499ZM12 7.499V6.899V7.499ZM8.5 11.999H7.9H8.5ZM7.5 11.999H6.9H7.5ZM21.235 14.0749L21.185 13.5779L19.991 13.6981L20.041 14.1951L21.235 14.0749ZM20.5481 13.0393L20.5331 13.0403L20.6129 14.2377L20.6279 14.2367L20.5481 13.0393ZM20.4688 13.0481L20.4518 13.0511L20.6602 14.2329L20.6772 14.2299L20.4688 13.0481ZM19.9641 13.7404L20.0461 14.2334L21.2299 14.0366L21.1479 13.5436L19.9641 13.7404ZM20.041 14.1949L20.091 14.6929L21.285 14.5731L21.235 14.0751L20.041 14.1949ZM20.7581 15.2289L20.7751 15.2269L20.6349 14.0351L20.6179 14.0371L20.7581 15.2289ZM20.8156 15.2207L20.8316 15.2177L20.6104 14.0383L20.5944 14.0413L20.8156 15.2207ZM21.3127 14.5284L21.2297 14.0354L20.0463 14.2346L20.1293 14.7276L21.3127 14.5284ZM17.0622 19.9972L17.3792 19.6102L16.4508 18.8498L16.1338 19.2368L17.0622 19.9972ZM17.2237 18.7155L17.2187 18.7125L16.6013 19.7415L16.6063 19.7445L17.2237 18.7155ZM16.4415 18.8522L16.1295 19.2422L17.0665 19.9918L17.3785 19.6018L16.4415 18.8522ZM16.1338 19.2368L15.8168 19.6238L16.7452 20.3842L17.0622 19.9972L16.1338 19.2368ZM15.9061 20.4724L15.9111 20.4764L16.6609 19.5396L16.6559 19.5356L15.9061 20.4724ZM16.755 20.3822L17.067 19.9912L16.129 19.2428L15.817 19.6338L16.755 20.3822ZM7.86568 19.2362L7.54868 18.8502L6.62132 19.6118L6.93832 19.9978L7.86568 19.2362ZM6.6945 18.7755L6.6875 18.7815L7.4685 19.6925L7.4755 19.6865L6.6945 18.7755ZM6.6829 18.7855L6.6749 18.7925L7.46511 19.6955L7.4731 19.6885L6.6829 18.7855ZM6.62182 19.6429L6.95382 20.0159L7.85018 19.2181L7.51818 18.8451L6.62182 19.6429ZM6.93736 19.9966L7.25436 20.3846L8.18364 19.6254L7.86664 19.2374L6.93736 19.9966ZM8.11409 20.4566L8.12209 20.4496L7.33191 19.5464L7.32391 19.5534L8.11409 20.4566ZM8.1175 20.4535L8.1245 20.4475L7.3435 19.5365L7.3365 19.5425L8.1175 20.4535ZM8.18324 19.5943L7.85124 19.2193L6.95276 20.0147L7.28476 20.3897L8.18324 19.5943ZM3.961 9.863V9.363H2.761V9.863H3.961ZM3.361 8.763H3.337V9.963H3.361V8.763ZM3.28916 8.76491L3.26416 8.76691L3.35984 9.96309L3.38484 9.96109L3.28916 8.76491ZM2.71488 9.42375L2.76388 9.92175L3.95812 9.80425L3.90912 9.30625L2.71488 9.42375ZM2.761 9.863V10.363H3.961V9.863H2.761ZM3.361 10.963H3.386V9.763H3.361V10.963ZM3.45749 10.9587L3.48249 10.9557L3.33951 9.76427L3.31451 9.76727L3.45749 10.9587ZM4.00799 10.2999L3.95799 9.80294L2.76401 9.92306L2.81401 10.4201L4.00799 10.2999ZM15.23 3.26057C15.2139 3.066 15.1913 2.87203 15.1624 2.67896L13.9756 2.85704C14.0007 3.02381 14.0201 3.19137 14.034 3.35943L15.23 3.26057ZM15.1629 2.68263C15.131 2.46079 15.0642 2.2454 14.965 2.04443L13.889 2.57557C13.9322 2.66305 13.9612 2.75681 13.9751 2.85337L15.1629 2.68263ZM14.1517 1.77687L13.2627 2.23587L13.8133 3.30213L14.7023 2.84313L14.1517 1.77687ZM13.0013 3.03733C12.9998 3.03428 12.9978 3.03011 12.9956 3.02518C12.9933 3.02028 12.9913 3.01543 12.9894 3.01072C12.9856 3.0012 12.9834 2.99443 12.9825 2.99139C12.9817 2.98858 12.9822 2.98977 12.9836 2.99611C12.985 3.00246 12.9872 3.01335 12.9899 3.02979L14.1741 2.83621C14.1505 2.69166 14.1192 2.58967 14.0747 2.50067L13.0013 3.03733ZM12.9908 3.03512C13.0053 3.11932 13.0169 3.23491 13.0412 3.47056L14.2348 3.34744C14.2131 3.13709 14.1967 2.96668 14.1732 2.83088L12.9908 3.03512ZM13.6975 4.00605L14.6915 3.90705L14.5725 2.71295L13.5785 2.81195L13.6975 4.00605ZM15.2965 4.13818C15.3111 4.15637 15.3223 4.17281 15.3307 4.18617C15.3391 4.19964 15.3454 4.21113 15.3498 4.21984C15.3585 4.23684 15.3616 4.24633 15.3609 4.2442C15.3602 4.24234 15.3567 4.23201 15.3513 4.21043C15.3459 4.18899 15.339 4.15806 15.3313 4.11543L14.1507 4.33057C14.1918 4.5559 14.2472 4.74744 14.3595 4.88782L15.2965 4.13818ZM15.334 4.13192C15.2898 3.84388 15.2563 3.5532 15.2319 3.2602L14.0361 3.3598C14.0626 3.67778 14.0991 3.99614 14.148 4.31408L15.334 4.13192ZM14.5747 2.71294L13.5787 2.81194L13.6973 4.00606L14.6933 3.90706L14.5747 2.71294ZM13.041 3.46855C13.08 3.8604 13.1153 4.21926 13.1663 4.50532L14.3477 4.29468C14.3067 4.06474 14.2759 3.7596 14.235 3.34945L13.041 3.46855ZM13.1663 4.50547C13.2158 4.78251 13.3059 5.15614 13.556 5.48397L14.51 4.75603C14.4381 4.66186 14.3882 4.52149 14.3477 4.29453L13.1663 4.50547ZM14.3971 5.59689L15.1921 4.98989L14.4639 4.03611L13.6689 4.64311L14.3971 5.59689ZM15.212 4.11036C15.2295 4.10801 15.2473 4.11032 15.2636 4.11706L14.8047 5.22588C14.984 5.30007 15.1797 5.32551 15.372 5.29964L15.212 4.11036ZM15.2636 4.11706C15.2799 4.12381 15.2941 4.13474 15.3048 4.14876L14.3512 4.87724C14.469 5.03142 14.6255 5.1517 14.8047 5.22588L15.2636 4.11706ZM14.4646 4.0356L13.6686 4.6416L14.3954 5.5964L15.1914 4.9904L14.4646 4.0356ZM13.5549 5.48283C13.7797 5.77765 14.0786 6.00769 14.4211 6.14957L14.8803 5.04092C14.7335 4.98011 14.6055 4.88152 14.5091 4.75517L13.5549 5.48283ZM14.4211 6.14957C14.7637 6.29146 15.1377 6.34012 15.5051 6.29063L15.3449 5.10137C15.1874 5.12258 15.0271 5.10172 14.8803 5.04092L14.4211 6.14957ZM15.8991 3.52839C15.5668 3.80144 15.3666 3.96385 15.2168 4.06748L15.8992 5.05452C16.0994 4.91615 16.3432 4.71656 16.6609 4.45561L15.8991 3.52839ZM15.2163 4.06778C15.1445 4.11758 15.1103 4.13493 15.1047 4.13759C15.1026 4.13863 15.1099 4.13494 15.1253 4.12976C15.1332 4.12712 15.1432 4.1241 15.1551 4.1211C15.1674 4.11802 15.1802 4.11536 15.1934 4.11316L15.3906 5.29684C15.5394 5.27204 15.6959 5.19537 15.8997 5.05422L15.2163 4.06778ZM15.5044 6.29072C15.9126 6.2362 16.2405 6.03558 16.472 5.87431L15.786 4.88969C15.5955 5.02242 15.4614 5.0858 15.3456 5.10128L15.5044 6.29072ZM16.4723 5.87408C16.7104 5.70798 16.9875 5.48102 17.2939 5.23044L16.5341 4.30156C16.2145 4.56298 15.9776 4.75602 15.7857 4.88992L16.4723 5.87408ZM16.9498 2.85934C16.7064 2.93691 16.5138 3.05662 16.3613 3.16499L17.0567 4.14301C17.1602 4.06937 17.2376 4.02708 17.3142 4.00266L16.9498 2.85934ZM16.3618 3.1647C16.2171 3.26735 16.0574 3.3991 15.9004 3.52737L16.6596 4.45663C16.8306 4.3169 16.9529 4.21665 17.0562 4.1433L16.3618 3.1647ZM17.2947 5.22978C17.4729 5.08345 17.5673 5.00736 17.6367 4.95797L16.9413 3.98003C16.8307 4.05864 16.7011 4.16455 16.5333 4.30222L17.2947 5.22978ZM17.6654 4.93623C17.6627 4.93839 17.6597 4.94013 17.6565 4.94139L17.2175 3.82461C17.1074 3.86786 17.0046 3.9276 16.9126 4.00177L17.6654 4.93623ZM18.4233 2.93235C17.9569 2.73051 17.4331 2.70464 16.9491 2.85955L17.3149 4.00245C17.5223 3.93605 17.7468 3.94714 17.9467 4.03365L18.4233 2.93235ZM17.6181 4.955C17.5951 4.96229 17.5703 4.96101 17.5481 4.9514L18.0259 3.8506C17.7824 3.74493 17.5089 3.73087 17.2559 3.811L17.6181 4.955ZM19.4013 3.70274C19.2578 3.55924 19.1121 3.41209 18.9797 3.29594L18.1883 4.19806C18.2839 4.28191 18.3962 4.39476 18.5527 4.55126L19.4013 3.70274ZM18.9895 3.30479C18.8247 3.15363 18.637 3.02945 18.4334 2.93685L17.9366 4.02915C18.0251 4.06944 18.1068 4.12346 18.1785 4.18921L18.9895 3.30479ZM17.5506 4.95249C17.5444 4.9498 17.5379 4.94686 17.5315 4.94369C17.5251 4.94054 17.5193 4.9375 17.5142 4.93467C17.5041 4.92905 17.4978 4.92485 17.4958 4.92345C17.4938 4.92212 17.4956 4.92324 17.5017 4.92804C17.5078 4.93282 17.5173 4.94066 17.5309 4.95255L18.3211 4.04945C18.2195 3.96058 18.1269 3.89391 18.0234 3.84951L17.5506 4.95249ZM17.5328 4.95423C17.5957 5.00881 17.6796 5.0921 17.8457 5.25826L18.6943 4.40974C18.5424 4.2579 18.4223 4.13719 18.3192 4.04777L17.5328 4.95423ZM20.2943 4.59574L19.4013 3.70274L18.5527 4.55126L19.4457 5.44426L20.2943 4.59574ZM17.8457 5.25826L18.7387 6.15126L19.5873 5.30274L18.6943 4.40974L17.8457 5.25826ZM21.0597 5.56254C20.9666 5.35902 20.8421 5.17146 20.6906 5.00677L19.8074 5.81923C19.8735 5.89101 19.9278 5.97275 19.9683 6.06146L21.0597 5.56254ZM20.7001 5.01734C20.5844 4.88553 20.4369 4.73929 20.2957 4.59716L19.4443 5.44284C19.6011 5.60071 19.7136 5.71247 19.7979 5.80866L20.7001 5.01734ZM18.7387 6.15126C18.9014 6.31388 18.9889 6.40276 19.0492 6.47029L19.9448 5.67171C19.8571 5.57324 19.7427 5.45812 19.5873 5.30274L18.7387 6.15126ZM19.0455 6.4661C19.0569 6.47915 19.0642 6.48811 19.0684 6.4935C19.0726 6.49888 19.0732 6.50001 19.0714 6.49739C19.0696 6.49459 19.0653 6.48796 19.0598 6.47791C19.0571 6.47291 19.0543 6.46752 19.0515 6.46181C19.0488 6.45605 19.0464 6.45079 19.0445 6.44635L20.1475 5.97365C20.105 5.87457 20.0424 5.78319 19.9485 5.6759L19.0455 6.4661ZM21.1374 7.04789C21.2924 6.56387 21.2665 6.0401 21.0646 5.57369L19.9634 6.05031C20.0499 6.25019 20.0609 6.47467 19.9946 6.68211L21.1374 7.04789ZM19.0449 6.44726C19.0354 6.4251 19.0342 6.40024 19.0415 6.37726L20.1845 6.74274C20.2653 6.48996 20.252 6.21649 20.1471 5.97274L19.0449 6.44726ZM20.4696 8.09663C20.5979 7.93964 20.7296 7.7799 20.8323 7.63525L19.8537 6.94075C19.7804 7.0441 19.6801 7.16636 19.5404 7.33737L20.4696 8.09663ZM20.8338 7.63311C20.9381 7.48477 21.0597 7.29185 21.1377 7.04722L19.9943 6.68278C19.9703 6.75815 19.9279 6.83523 19.8522 6.94289L20.8338 7.63311ZM19.0535 6.34319C19.0548 6.33988 19.0566 6.33679 19.0588 6.33403L19.9972 7.08197C20.0707 6.98972 20.1298 6.88682 20.1725 6.77681L19.0535 6.34319ZM19.0468 6.34964C18.9586 6.46801 18.867 6.58374 18.7719 6.69665L19.6901 7.46935C19.8004 7.33821 19.9069 7.20382 20.0092 7.06636L19.0468 6.34964ZM19.8838 8.80364C19.8816 8.8168 19.879 8.82961 19.8759 8.84188C19.8729 8.85379 19.8699 8.86378 19.8672 8.87166C19.8621 8.88711 19.8584 8.89444 19.8594 8.89228C19.8621 8.88675 19.8794 8.85255 19.9292 8.78067L18.9428 8.09733C18.8016 8.3011 18.725 8.4576 18.7002 8.60636L19.8838 8.80364ZM19.9295 8.78023C20.0331 8.63035 20.1956 8.43024 20.4686 8.09787L19.5414 7.33613C19.2804 7.65376 19.0809 7.89764 18.9425 8.09777L19.9295 8.78023ZM18.7666 6.70314C18.5172 7.00802 18.2877 7.28686 18.1218 7.52624L19.1082 8.20976C19.2403 8.01914 19.4328 7.78399 19.6954 7.46286L18.7666 6.70314ZM18.1235 7.52392C17.9609 7.75612 17.7608 8.08481 17.7063 8.49255L18.8957 8.65145C18.9112 8.53519 18.9751 8.39988 19.1065 8.21208L18.1235 7.52392ZM19.8482 8.69221C19.8623 8.70292 19.8732 8.71714 19.8799 8.73344L18.7711 9.19226C18.8453 9.37154 18.9656 9.52801 19.1198 9.64579L19.8482 8.69221ZM19.8799 8.73344C19.8867 8.74974 19.889 8.76753 19.8866 8.78501L18.6974 8.62499C18.6715 8.81727 18.6969 9.01298 18.7711 9.19226L19.8799 8.73344ZM17.7063 8.49227C17.6571 8.85949 17.7059 9.2332 17.8478 9.57546L18.9563 9.11596C18.8955 8.96927 18.8746 8.80911 18.8957 8.65173L17.7063 8.49227ZM17.8478 9.57546C17.9896 9.91773 18.2195 10.2164 18.5141 10.4411L19.2419 9.48693C19.1156 9.39063 19.0171 9.26265 18.9563 9.11596L17.8478 9.57546ZM20.7468 8.76699C20.3156 8.72377 20.0614 8.69827 19.8808 8.66559L19.6672 9.84641C19.9066 9.88973 20.2204 9.92023 20.6272 9.96101L20.7468 8.76699ZM19.8816 8.66572C19.8389 8.65795 19.808 8.65107 19.7866 8.64569C19.765 8.64027 19.7547 8.63679 19.7528 8.63614C19.7507 8.63539 19.7602 8.63854 19.7772 8.64717C19.7859 8.65159 19.7974 8.65786 19.8108 8.66631C19.8242 8.67469 19.8406 8.68593 19.8588 8.70048L19.1092 9.63752C19.2496 9.74983 19.4411 9.80521 19.6664 9.84628L19.8816 8.66572ZM18.5144 10.4413C18.8411 10.6902 19.2148 10.7802 19.4907 10.8303L19.7053 9.64968C19.4752 9.60784 19.3349 9.5578 19.2416 9.48674L18.5144 10.4413ZM19.4923 10.8306C19.7771 10.8816 20.1337 10.9178 20.5286 10.9571L20.6474 9.76295C20.2383 9.72224 19.9329 9.69041 19.7037 9.64939L19.4923 10.8306ZM21.1851 10.4193L21.2841 9.42335L20.0899 9.30465L19.9909 10.3007L21.1851 10.4193ZM21.9526 9.03197C21.7516 8.93278 21.5362 8.86599 21.3144 8.83411L21.1436 10.0219C21.2402 10.0358 21.334 10.0648 21.4214 10.108L21.9526 9.03197ZM21.3276 8.83616C21.1539 8.8072 20.9494 8.78725 20.7467 8.76698L20.6273 9.96102C20.8446 9.98275 21.0041 9.9988 21.1304 10.0198L21.3276 8.83616ZM20.09 9.304L19.99 10.299L21.184 10.419L21.284 9.424L20.09 9.304ZM20.5257 10.9559C20.7622 10.9801 20.8778 10.9917 20.9619 11.0062L21.1661 9.82376C21.0302 9.80028 20.8598 9.78386 20.6483 9.76214L20.5257 10.9559ZM20.9969 11.0112C20.9937 11.0109 20.9906 11.01 20.9876 11.0088L21.4684 9.90924C21.3611 9.86236 21.2474 9.83186 21.1311 9.81876L20.9969 11.0112ZM22.9519 10.1302C22.765 9.65803 22.4134 9.26959 21.9621 9.03678L21.4119 10.1032C21.6053 10.203 21.756 10.3695 21.8361 10.5718L22.9519 10.1302ZM20.9536 10.9926C20.9321 10.9815 20.9153 10.9631 20.9064 10.9406L22.0216 10.4974C21.9234 10.2502 21.7389 10.047 21.5024 9.92541L20.9536 10.9926ZM23.099 11.366C23.099 11.1616 23.0993 10.9566 23.0877 10.7806L21.8903 10.8594C21.8987 10.9874 21.899 11.1484 21.899 11.366H23.099ZM23.0885 10.7948C23.0791 10.5712 23.0344 10.3505 22.956 10.1409L21.832 10.5611C21.866 10.6522 21.8854 10.748 21.8895 10.8452L23.0885 10.7948ZM20.9033 10.9326C20.9013 10.9273 20.8992 10.9216 20.8973 10.9156C20.8953 10.9097 20.8937 10.9042 20.8923 10.8993C20.8896 10.8894 20.8883 10.883 20.888 10.881C20.8876 10.8793 20.8881 10.8817 20.889 10.8894C20.8899 10.8971 20.8911 10.9092 20.8923 10.9269L22.0897 10.8471C22.0806 10.7109 22.0621 10.6035 22.0247 10.5054L20.9033 10.9326ZM20.8917 10.9162C20.8989 11.0633 20.9013 11.2106 20.8991 11.3578L22.0989 11.3762C22.1016 11.2034 22.0987 11.0305 22.0903 10.8578L20.8917 10.9162ZM21.4996 11.967L22.4996 11.966L22.4984 10.766L21.4984 10.767L21.4996 11.967ZM23.099 12.63V11.366H21.899V12.63H23.099ZM22.499 10.766H21.499V11.966H22.499V10.766ZM20.899 11.366V12.63H22.099V11.366H20.899ZM22.9516 13.8656C23.046 13.6279 23.0757 13.4023 23.0878 13.2131L21.8902 13.1369C21.8823 13.2617 21.866 13.3481 21.8364 13.4224L22.9516 13.8656ZM23.0877 13.2146C23.0993 13.0395 23.099 12.8342 23.099 12.63H21.899C21.899 12.8478 21.8987 13.0085 21.8903 13.1354L23.0877 13.2146ZM20.899 12.63C20.899 12.8641 20.8986 12.9818 20.8926 13.0659L22.0894 13.1521C22.0994 13.0142 22.099 12.8439 22.099 12.63H20.899ZM20.891 13.1038C20.8911 13.1005 20.8916 13.0972 20.8926 13.094L22.0354 13.46C22.0712 13.3482 22.09 13.2316 22.091 13.1142L20.891 13.1038ZM21.9623 14.9591C22.4138 14.726 22.7655 14.337 22.9521 13.8643L21.8359 13.4237C21.7559 13.6263 21.6052 13.793 21.4117 13.8929L21.9623 14.9591ZM20.9064 13.0554C20.9153 13.0329 20.9321 13.0145 20.9536 13.0034L21.5024 14.0706C21.7389 13.949 21.9234 13.7457 22.0216 13.4986L20.9064 13.0554ZM20.6949 13.8123L21.1539 14.7013L22.2201 14.1507L21.7611 13.2617L20.6949 13.8123ZM20.7467 15.229C20.9522 15.2085 21.1559 15.1876 21.3283 15.1587L21.1297 13.9753C21.0041 13.9964 20.8418 14.0135 20.6273 14.035L20.7467 15.229ZM21.3245 15.1593C21.5146 15.1287 21.7342 15.076 21.9586 14.9615L21.4134 13.8925C21.3398 13.93 21.2534 13.9553 21.1335 13.9747L21.3245 15.1593ZM22.2195 14.1525L21.7615 13.2625L20.6945 13.8115L21.1525 14.7015L22.2195 14.1525ZM20.9872 12.9874C20.9904 12.986 20.9939 12.9851 20.9974 12.9847L21.1306 14.1773C21.2473 14.1643 21.3613 14.1337 21.4688 14.0866L20.9872 12.9874ZM20.9619 12.9898C20.8777 13.0043 20.7621 13.0159 20.5264 13.0402L20.6496 14.2338C20.8599 14.2121 21.0303 14.1957 21.1661 14.1722L20.9619 12.9898ZM19.8598 15.2955C19.8266 15.3221 19.7982 15.3384 19.7811 15.3472C19.7638 15.3561 19.7539 15.3595 19.7552 15.359C19.7564 15.3586 19.766 15.3553 19.7869 15.3501C19.8076 15.3449 19.8379 15.3382 19.8799 15.3308L19.6701 14.1492C19.4385 14.1904 19.2494 14.2471 19.1102 14.3585L19.8598 15.2955ZM19.8818 15.3304C20.0624 15.2977 20.3185 15.271 20.7456 15.2291L20.6284 14.0349C20.2195 14.075 19.9076 14.1063 19.6682 14.1496L19.8818 15.3304ZM20.5284 13.04C20.139 13.0788 19.7773 13.1133 19.4895 13.1657L19.7045 14.3463C19.9327 14.3047 20.235 14.2752 20.6476 14.234L20.5284 13.04ZM19.4915 13.1653C19.2138 13.2149 18.8425 13.305 18.5155 13.5529L19.2405 14.5091C19.3355 14.437 19.4762 14.3871 19.7025 14.3467L19.4915 13.1653ZM19.8868 15.2118C19.8891 15.2293 19.8867 15.2471 19.88 15.2634L18.772 14.8026C18.6974 14.9818 18.6716 15.1777 18.6972 15.3702L19.8868 15.2118ZM19.88 15.2634C19.8732 15.2797 19.8622 15.2939 19.8482 15.3046L19.1218 14.3494C18.9673 14.4669 18.8466 14.6233 18.772 14.8026L19.88 15.2634ZM18.5142 13.5539C18.2194 13.7787 17.9893 14.0776 17.8474 14.4201L18.9561 14.8793C19.0169 14.7325 19.1155 14.6045 19.2418 14.5081L18.5142 13.5539ZM17.8474 14.4201C17.7055 14.7627 17.6569 15.1367 17.7064 15.5041L18.8956 15.3439C18.8744 15.1864 18.8953 15.0261 18.9561 14.8793L17.8474 14.4201ZM18.3808 16.0187L19.3718 15.8857L19.2122 14.6963L18.2212 14.8293L18.3808 16.0187ZM20.4632 15.8916C20.2742 15.6681 20.0929 15.4381 19.9197 15.202L18.9523 15.912C19.1417 16.1702 19.34 16.4218 19.5468 16.6664L20.4632 15.8916ZM19.9283 15.214C19.8791 15.1433 19.8621 15.1097 19.8597 15.1047C19.8588 15.1028 19.8625 15.1102 19.8676 15.1256C19.8702 15.1335 19.8732 15.1433 19.8761 15.155C19.8791 15.1671 19.8817 15.1796 19.8838 15.1924L18.7002 15.3896C18.7248 15.5375 18.8007 15.6947 18.9437 15.9L19.9283 15.214ZM19.2115 14.6964L18.2215 14.8304L18.3825 16.0196L19.3725 15.8856L19.2115 14.6964ZM17.7073 15.5044C17.7618 15.9127 17.9627 16.2398 18.1216 16.4694L19.1084 15.7866C18.9753 15.5942 18.9122 15.4613 18.8967 15.3456L17.7073 15.5044ZM18.1237 16.4724C18.2894 16.7088 18.5152 16.9855 18.7672 17.2926L19.6948 16.5314C19.4348 16.2145 19.2406 15.9752 19.1063 15.7836L18.1237 16.4724ZM21.1342 16.9384C21.0624 16.7265 20.9576 16.5272 20.8237 16.3479L19.8623 17.0661C19.9207 17.1443 19.9664 17.2312 19.9978 17.3236L21.1342 16.9384ZM20.8253 16.3501C20.7097 16.1938 20.5892 16.0413 20.464 15.8926L19.546 16.6654C19.655 16.7949 19.76 16.9278 19.8607 17.0639L20.8253 16.3501ZM18.7662 17.2914C18.9153 17.4742 18.9888 17.5643 19.0372 17.6332L20.0188 16.9428C19.9392 16.8297 19.8307 16.6978 19.6959 16.5326L18.7662 17.2914ZM19.0594 17.6627C19.0573 17.6601 19.0557 17.6573 19.0545 17.6542L20.1715 17.2158C20.1287 17.1068 20.0698 17.0048 19.9966 16.9133L19.0594 17.6627ZM21.0646 18.4223C21.2665 17.9559 21.2924 17.4321 21.1374 16.9481L19.9946 17.3139C20.0609 17.5213 20.0499 17.7458 19.9634 17.9457L21.0646 18.4223ZM19.0417 17.6184C19.0343 17.5954 19.0355 17.5704 19.0451 17.5482L20.1469 18.0238C20.2524 17.7794 20.2657 17.505 20.1843 17.2516L19.0417 17.6184ZM20.2953 19.3993C20.4396 19.2549 20.5843 19.1106 20.7001 18.9787L19.7979 18.1873C19.7137 18.2834 19.6004 18.3971 19.4467 18.5507L20.2953 19.3993ZM20.7008 18.9778C20.8233 18.8377 20.9625 18.6587 21.0647 18.4221L19.9633 17.9459C19.9315 18.0193 19.8827 18.0903 19.7972 18.1882L20.7008 18.9778ZM19.0627 17.5111C19.0643 17.508 19.0663 17.5052 19.0687 17.5028L19.9233 18.3452C20.0059 18.2614 20.0754 18.1655 20.1293 18.0609L19.0627 17.5111ZM19.0526 17.5198C18.9531 17.6289 18.8504 17.735 18.7446 17.838L19.5814 18.698C19.7044 18.5784 19.8238 18.455 19.9394 18.3282L19.0526 17.5198ZM19.4013 20.2933L20.2953 19.3993L19.4467 18.5507L18.5527 19.4447L19.4013 20.2933ZM18.7385 17.844L17.8455 18.738L18.6945 19.586L19.5875 18.692L18.7385 17.844ZM17.8457 19.5863L18.5527 20.2933L19.4013 19.4447L18.6943 18.7377L17.8457 19.5863ZM18.4244 21.0622C18.6568 20.9611 18.8355 20.825 18.9788 20.6998L18.1892 19.7962C18.0945 19.879 18.0212 19.9289 17.9456 19.9618L18.4244 21.0622ZM18.9797 20.6991C19.1121 20.5829 19.2578 20.4358 19.4013 20.2923L18.5527 19.4437C18.3962 19.6002 18.2839 19.7131 18.1883 19.7969L18.9797 20.6991ZM19.401 19.4434L18.694 18.7374L17.846 19.5866L18.553 20.2926L19.401 19.4434ZM17.8457 18.7377C17.6824 18.9011 17.5953 18.9868 17.5297 19.0445L18.3223 19.9455C18.4227 19.8572 18.5396 19.7409 18.6943 19.5863L17.8457 18.7377ZM17.5062 19.0663C17.5085 19.0641 17.5111 19.0622 17.514 19.0607L18.06 20.1293C18.1651 20.0756 18.2615 20.0063 18.3458 19.9237L17.5062 19.0663ZM16.9496 21.1366C17.4338 21.2911 17.9576 21.2647 18.4238 21.0624L17.9462 19.9616C17.7463 20.0483 17.5219 20.0596 17.3144 19.9934L16.9496 21.1366ZM17.5497 19.0439C17.5719 19.0344 17.5968 19.0332 17.6197 19.0405L17.2543 20.1835C17.507 20.2643 17.7805 20.251 18.0243 20.1461L17.5497 19.0439ZM15.9004 20.4676C16.0574 20.5959 16.2171 20.7276 16.3618 20.8303L17.0562 19.8517C16.9529 19.7784 16.8306 19.6781 16.6596 19.5384L15.9004 20.4676ZM16.3613 20.83C16.5115 20.9368 16.7048 21.0586 16.9498 21.1367L17.3142 19.9933C17.2392 19.9694 17.1625 19.9272 17.0567 19.852L16.3613 20.83ZM17.6538 19.0525C17.6571 19.0538 17.6602 19.0556 17.663 19.0578L16.915 19.9962C17.0073 20.0697 17.1102 20.1288 17.2202 20.1715L17.6538 19.0525ZM17.6481 19.0463C17.5297 18.9579 17.414 18.8659 17.3011 18.7706L16.5269 19.6874C16.658 19.7981 16.7924 19.9049 16.9299 20.0077L17.6481 19.0463ZM15.2257 19.8873C15.2009 19.8846 15.1806 19.8806 15.1655 19.8771C15.1501 19.8735 15.1377 19.8698 15.1286 19.8669C15.1109 19.861 15.1023 19.8567 15.1044 19.8577C15.1062 19.8586 15.116 19.8634 15.1348 19.8747C15.1535 19.886 15.1799 19.9029 15.215 19.9273L15.901 18.9427C15.7122 18.8112 15.5362 18.7144 15.3583 18.6947L15.2257 19.8873ZM15.2168 19.9285C15.367 20.0324 15.5669 20.1947 15.9 20.4673L16.66 19.5387C16.3431 19.2793 16.099 19.0796 15.8992 18.9415L15.2168 19.9285ZM17.293 18.7638C16.9886 18.5159 16.7103 18.287 16.4723 18.1209L15.7857 19.1051C15.9777 19.239 16.2134 19.4321 16.535 19.6942L17.293 18.7638ZM16.4715 18.1204C16.2405 17.9597 15.9119 17.7597 15.5044 17.7053L15.3456 18.8947C15.4621 18.9103 15.5975 18.9743 15.7865 19.1056L16.4715 18.1204ZM15.3048 19.8472C15.2941 19.8613 15.2799 19.8722 15.2636 19.8789L14.8047 18.7701C14.6255 18.8443 14.469 18.9646 14.3512 19.1188L15.3048 19.8472ZM15.2636 19.8789C15.2473 19.8857 15.2295 19.888 15.212 19.8856L15.372 18.6964C15.1797 18.6705 14.984 18.6959 14.8047 18.7701L15.2636 19.8789ZM15.505 17.7054C15.1379 17.656 14.7643 17.7045 14.422 17.8462L14.8809 18.955C15.0275 18.8943 15.1877 18.8735 15.345 18.8946L15.505 17.7054ZM14.422 17.8462C14.0798 17.9878 13.7811 18.2174 13.5562 18.5118L14.5098 19.2402C14.6062 19.1141 14.7342 19.0157 14.8809 18.955L14.422 17.8462ZM15.23 20.7458C15.2732 20.3146 15.2987 20.0604 15.3314 19.8798L14.1506 19.6662C14.1073 19.9056 14.0768 20.2194 14.036 20.6262L15.23 20.7458ZM15.3313 19.8806C15.339 19.8379 15.3459 19.807 15.3513 19.7856C15.3567 19.764 15.3602 19.7537 15.3609 19.7518C15.3616 19.7497 15.3585 19.7592 15.3498 19.7762C15.3454 19.7849 15.3391 19.7964 15.3307 19.8098C15.3223 19.8232 15.3111 19.8396 15.2965 19.8578L14.3595 19.1082C14.2472 19.2486 14.1918 19.4401 14.1507 19.6654L15.3313 19.8806ZM13.5557 18.5124C13.3067 18.8393 13.2168 19.2142 13.1668 19.4883L14.3472 19.7037C14.3892 19.4738 14.4393 19.3327 14.5103 19.2396L13.5557 18.5124ZM13.1664 19.4903C13.1154 19.7751 13.0792 20.1317 13.0399 20.5266L14.2341 20.6454C14.2748 20.2363 14.3066 19.9309 14.3476 19.7017L13.1664 19.4903ZM14.9608 21.96C15.0775 21.7326 15.1288 21.5118 15.1597 21.3273L13.9763 21.1287C13.9552 21.2542 13.9305 21.3394 13.8932 21.412L14.9608 21.96ZM15.1592 21.3305C15.1897 21.1544 15.2098 20.9478 15.23 20.7457L14.036 20.6263C14.0142 20.8442 13.9983 21.0016 13.9768 21.1255L15.1592 21.3305ZM13.0393 20.534C13.0262 20.6841 13.0098 20.831 12.9885 20.9752L14.1755 21.1508C14.2011 20.9782 14.22 20.8069 14.2347 20.638L13.0393 20.534ZM12.9857 20.996C12.9861 20.9928 12.987 20.9895 12.9883 20.9865L14.0877 21.4675C14.1347 21.3602 14.1652 21.2464 14.1783 21.13L12.9857 20.996ZM13.8668 22.9509C14.339 22.764 14.7274 22.4124 14.9602 21.9611L13.8938 21.4109C13.794 21.6043 13.6275 21.755 13.4252 21.8351L13.8668 22.9509ZM13.0044 20.9526C13.0155 20.9311 13.0339 20.9143 13.0564 20.9054L13.4996 22.0206C13.7467 21.9224 13.95 21.7379 14.0716 21.5014L13.0044 20.9526ZM12.631 23.098C12.8354 23.098 13.0404 23.0983 13.2164 23.0867L13.1376 21.8893C13.0096 21.8977 12.8486 21.898 12.631 21.898V23.098ZM13.2154 23.0868C13.403 23.0747 13.6297 23.0451 13.8676 22.9506L13.4244 21.8354C13.3503 21.8649 13.263 21.8813 13.1386 21.8892L13.2154 23.0868ZM13.095 20.8916C13.0982 20.8906 13.1015 20.8901 13.1048 20.89L13.1152 22.09C13.2326 22.089 13.3492 22.0702 13.461 22.0344L13.095 20.8916ZM13.0665 20.8916C12.9837 20.8976 12.8654 20.898 12.63 20.898V22.098C12.8446 22.098 13.0163 22.0984 13.1535 22.0884L13.0665 20.8916ZM11.367 23.098H12.631V21.898H11.367V23.098ZM12.63 20.898H11.367V22.098H12.63V20.898ZM10.1316 22.9511C10.3694 23.045 10.5943 23.0747 10.7839 23.0868L10.8601 21.8892C10.7357 21.8813 10.6486 21.865 10.5724 21.8349L10.1316 22.9511ZM10.7824 23.0867C10.9575 23.0983 11.1628 23.098 11.367 23.098V21.898C11.1492 21.898 10.9885 21.8977 10.8616 21.8893L10.7824 23.0867ZM11.367 20.898C11.1329 20.898 11.0152 20.8976 10.9311 20.8916L10.8449 22.0884C10.9828 22.0984 11.1531 22.098 11.367 22.098V20.898ZM10.8934 20.89C10.8966 20.8901 10.8998 20.8906 10.9029 20.8915L10.5371 22.0345C10.6489 22.0702 10.7653 22.0889 10.8826 22.09L10.8934 20.89ZM9.03778 21.9611C9.27059 22.4124 9.65903 22.764 10.1312 22.9509L10.5728 21.8351C10.3705 21.755 10.204 21.6043 10.1042 21.4109L9.03778 21.9611ZM10.9416 20.9054C10.9641 20.9143 10.9825 20.9311 10.9936 20.9526L9.92641 21.5014C10.048 21.7379 10.2513 21.9224 10.4984 22.0206L10.9416 20.9054ZM8.76798 20.7457C8.7886 20.9519 8.80925 21.1534 8.83664 21.3234L10.0214 21.1326C10.0007 21.0046 9.9834 20.8401 9.96202 20.6263L8.76798 20.7457ZM8.83727 21.3273C8.86872 21.5147 8.92135 21.7343 9.03722 21.96L10.1048 21.412C10.0666 21.3377 10.0413 21.2513 10.0207 21.1287L8.83727 21.3273ZM11.0098 20.9867C11.011 20.9896 11.0119 20.9927 11.0122 20.9959L9.81977 21.1301C9.83286 21.2464 9.86336 21.3601 9.91024 21.4674L11.0098 20.9867ZM11.0095 20.975C10.9878 20.8288 10.9706 20.682 10.9577 20.5348L9.76227 20.6392C9.77721 20.8103 9.79729 20.981 9.82248 21.151L11.0095 20.975ZM8.70148 19.8578C8.68693 19.8396 8.67569 19.8232 8.66731 19.8098C8.65886 19.7964 8.65259 19.7849 8.64817 19.7762C8.63954 19.7592 8.63639 19.7497 8.63714 19.7518C8.63779 19.7537 8.64127 19.764 8.64669 19.7856C8.65207 19.807 8.65895 19.8379 8.66672 19.8806L9.84728 19.6654C9.80621 19.4401 9.75083 19.2486 9.63852 19.1082L8.70148 19.8578ZM8.66659 19.8798C8.69927 20.0604 8.72474 20.3154 8.76801 20.746L9.96199 20.626C9.92126 20.2206 9.89073 19.9056 9.84741 19.6662L8.66659 19.8798ZM10.957 20.5274C10.9179 20.1356 10.8827 19.7767 10.8317 19.4907L9.65032 19.7013C9.69131 19.9313 9.72205 20.2364 9.76296 20.6466L10.957 20.5274ZM10.8317 19.4905C10.7822 19.2135 10.6921 18.8399 10.442 18.512L9.488 19.24C9.55986 19.3341 9.60981 19.4745 9.65034 19.7015L10.8317 19.4905ZM8.78601 19.8856C8.76853 19.888 8.75074 19.8857 8.73444 19.8789L9.19326 18.7701C9.01398 18.6959 8.81827 18.6705 8.62599 18.6964L8.78601 19.8856ZM8.73444 19.8789C8.71814 19.8722 8.70392 19.8613 8.69321 19.8472L9.64679 19.1188C9.52901 18.9646 9.37254 18.8443 9.19326 18.7701L8.73444 19.8789ZM10.4421 18.5121C10.2166 18.2165 9.91757 17.9881 9.57646 17.8468L9.11696 18.9553C9.26481 19.0166 9.39239 19.1146 9.48793 19.2399L10.4421 18.5121ZM9.57646 17.8468C9.2342 17.7049 8.86049 17.6561 8.49327 17.7053L8.65273 18.8947C8.81011 18.8736 8.97027 18.8945 9.11696 18.9553L9.57646 17.8468ZM8.09887 20.4676C8.43124 20.1946 8.63135 20.0322 8.78123 19.9285L8.09877 18.9415C7.89864 19.0799 7.65476 19.2794 7.33713 19.5404L8.09887 20.4676ZM8.78167 19.9282C8.81734 19.9035 8.84418 19.8864 8.86328 19.8749C8.88251 19.8634 8.89252 19.8584 8.89459 19.8574C8.89695 19.8563 8.88838 19.8606 8.87062 19.8665C8.86155 19.8695 8.849 19.8733 8.83337 19.8769C8.81808 19.8805 8.7974 19.8845 8.77226 19.8873L8.63974 18.6947C8.46109 18.7145 8.28532 18.8122 8.09833 18.9418L8.78167 19.9282ZM8.49355 17.7053C8.08545 17.7598 7.75751 17.9604 7.52602 18.1217L8.21198 19.1063C8.40249 18.9736 8.53655 18.9102 8.65245 18.8947L8.49355 17.7053ZM7.52724 18.1208C7.28786 18.2867 7.00902 18.5162 6.70414 18.7656L7.46386 19.6944C7.78499 19.4318 8.02014 19.2393 8.21076 19.1072L7.52724 18.1208ZM7.04822 21.1367C7.29159 21.0591 7.48424 20.9394 7.63666 20.831L6.94134 19.853C6.83776 19.9266 6.76041 19.9689 6.68378 19.9933L7.04822 21.1367ZM7.63625 20.8313C7.7809 20.7286 7.94064 20.5969 8.09763 20.4686L7.33837 19.5394C7.16736 19.6791 7.0451 19.7794 6.94175 19.8527L7.63625 20.8313ZM6.69766 18.7709C6.58474 18.866 6.46901 18.9576 6.35063 19.0458L7.06737 20.0082C7.20482 19.9059 7.33921 19.7994 7.47034 19.6891L6.69766 18.7709ZM6.33477 19.058C6.33771 19.0557 6.34099 19.0538 6.3445 19.0524L6.7775 20.1716C6.88775 20.1289 6.99084 20.0697 7.08323 19.996L6.33477 19.058ZM5.57469 21.0646C6.04219 21.267 6.56601 21.291 7.04889 21.1364L6.68311 19.9936C6.47453 20.0603 6.2501 20.0494 6.05131 19.9634L5.57469 21.0646ZM6.37826 19.0405C6.40124 19.0332 6.4261 19.0344 6.44826 19.0439L5.97374 20.1461C6.21749 20.251 6.49096 20.2643 6.74374 20.1835L6.37826 19.0405ZM4.59674 20.2933C4.74024 20.4368 4.88593 20.5839 5.01834 20.7001L5.80966 19.7979C5.71407 19.7141 5.60176 19.6012 5.44526 19.4447L4.59674 20.2933ZM5.01944 20.701C5.15918 20.823 5.33945 20.9623 5.57363 21.0642L6.05237 19.9638C5.97855 19.9317 5.90482 19.881 5.80856 19.797L5.01944 20.701ZM6.48355 19.0605C6.48672 19.0621 6.48962 19.0642 6.49216 19.0667L5.65184 19.9233C5.73635 20.0062 5.83299 20.0758 5.93845 20.1295L6.48355 19.0605ZM6.47636 19.0517C6.36719 18.9521 6.26099 18.8493 6.1579 18.7435L5.2981 19.5805C5.41772 19.7034 5.54095 19.8227 5.66764 19.9383L6.47636 19.0517ZM3.70374 19.4003L4.59674 20.2933L5.44526 19.4447L4.55226 18.5517L3.70374 19.4003ZM6.15226 18.7377L5.25926 17.8447L4.41074 18.6933L5.30374 19.5863L6.15226 18.7377ZM2.93381 18.4234C3.03557 18.6573 3.17368 18.8365 3.29722 18.9778L4.20078 18.1882C4.11632 18.0915 4.06643 18.0187 4.03419 17.9446L2.93381 18.4234ZM3.29794 18.9787C3.41357 19.1105 3.56113 19.2567 3.70232 19.3988L4.55368 18.5532C4.39687 18.3953 4.28443 18.2835 4.20006 18.1873L3.29794 18.9787ZM5.25287 17.8384C5.14668 17.7354 5.04358 17.6292 4.9437 17.52L4.0583 18.33C4.17422 18.4567 4.29389 18.58 4.41713 18.6996L5.25287 17.8384ZM4.92956 17.5051C4.9319 17.5075 4.93386 17.5102 4.93538 17.5132L3.86662 18.0588C3.92035 18.1641 3.98975 18.2605 4.07244 18.3449L4.92956 17.5051ZM2.86055 16.9481C2.70564 17.4321 2.73151 17.9559 2.93335 18.4223L4.03465 17.9457C3.94814 17.7458 3.93705 17.5213 4.00345 17.3139L2.86055 16.9481ZM4.9514 17.5471C4.96243 17.5726 4.9622 17.5976 4.956 17.6171L3.812 17.2549C3.73296 17.5045 3.74351 17.7781 3.8506 18.0249L4.9514 17.5471ZM3.52837 15.8994C3.4001 16.0564 3.26835 16.2161 3.1657 16.3608L4.1443 17.0552C4.21765 16.9519 4.3179 16.8296 4.45763 16.6586L3.52837 15.8994ZM3.17456 16.3486C3.04076 16.5274 2.93596 16.7262 2.86399 16.9377L4.00001 17.3243C4.03139 17.2321 4.07709 17.1454 4.13544 17.0674L3.17456 16.3486ZM4.94239 17.6555C4.94113 17.6587 4.93939 17.6617 4.93723 17.6644L4.00277 16.9116C3.9286 17.0036 3.86886 17.1064 3.82561 17.2165L4.94239 17.6555ZM4.95897 17.6357C5.00836 17.5663 5.08445 17.4719 5.23078 17.2937L4.30322 16.5323C4.16555 16.7001 4.05964 16.8297 3.98103 16.9403L4.95897 17.6357ZM4.11416 15.1924C4.11636 15.1792 4.11902 15.1664 4.1221 15.1541C4.1251 15.1422 4.12812 15.1322 4.13076 15.1243C4.13594 15.1089 4.13963 15.1016 4.13859 15.1037C4.13593 15.1093 4.11858 15.1434 4.06878 15.2153L5.05522 15.8987C5.19637 15.6949 5.27304 15.5384 5.29784 15.3896L4.11416 15.1924ZM4.0698 15.2139C3.96419 15.3654 3.80102 15.5675 3.52939 15.8981L4.45661 16.6599C4.71898 16.3405 4.91581 16.0986 5.0542 15.9001L4.0698 15.2139ZM5.23144 17.2929C5.4808 16.988 5.71026 16.7091 5.87615 16.4698L4.88985 15.7862C4.75774 15.9769 4.5652 16.212 4.30256 16.5331L5.23144 17.2929ZM5.87454 16.4721C6.03707 16.2399 6.23725 15.9112 6.29172 15.5034L5.10228 15.3446C5.08675 15.4608 5.02293 15.5961 4.89146 15.7839L5.87454 16.4721ZM4.14976 15.3038C4.13574 15.2931 4.12481 15.2789 4.11806 15.2626L5.22688 14.8037C5.1527 14.6245 5.03242 14.468 4.87824 14.3502L4.14976 15.3038ZM4.11806 15.2626C4.11132 15.2463 4.10901 15.2285 4.11136 15.211L5.30064 15.371C5.32651 15.1787 5.30107 14.983 5.22688 14.8037L4.11806 15.2626ZM6.29168 15.5037C6.34091 15.1365 6.29212 14.7628 6.15025 14.4205L5.04171 14.88C5.10251 15.0267 5.12342 15.1869 5.10232 15.3443L6.29168 15.5037ZM6.15025 14.4205C6.00837 14.0783 5.77847 13.7796 5.48388 13.5549L4.75612 14.5091C4.88238 14.6054 4.9809 14.7334 5.04171 14.88L6.15025 14.4205ZM4.64282 13.6683L4.03682 14.4633L4.99118 15.1907L5.59718 14.3957L4.64282 13.6683ZM3.25257 15.2301C3.68263 15.2722 3.93714 15.2978 4.11716 15.3304L4.33084 14.1496C4.09086 14.1062 3.77737 14.0758 3.36943 14.0359L3.25257 15.2301ZM4.11643 15.3303C4.15906 15.338 4.18999 15.3449 4.21143 15.3503C4.23301 15.3557 4.24334 15.3592 4.2452 15.3599C4.24733 15.3606 4.23784 15.3575 4.22084 15.3488C4.21213 15.3444 4.20064 15.3381 4.18717 15.3297C4.17381 15.3213 4.15737 15.3101 4.13918 15.2955L4.88882 14.3585C4.74844 14.2462 4.5569 14.1908 4.33157 14.1497L4.11643 15.3303ZM4.9914 15.1904L5.5974 14.3944L4.6426 13.6676L4.0366 14.4636L4.9914 15.1904ZM5.48363 13.5537C5.15665 13.3046 4.78288 13.2147 4.50507 13.1653L4.29493 14.3467C4.52312 14.3873 4.66335 14.4374 4.75637 14.5083L5.48363 13.5537ZM4.50571 13.1654C4.22089 13.1144 3.86434 13.0782 3.46941 13.0389L3.35059 14.2331C3.75966 14.2738 4.06511 14.3056 4.29429 14.3466L4.50571 13.1654ZM2.81294 13.5767L2.71394 14.5737L3.90806 14.6923L4.00706 13.6953L2.81294 13.5767ZM2.03699 14.9598C2.26441 15.0765 2.48518 15.1278 2.66974 15.1587L2.86826 13.9753C2.74282 13.9542 2.65759 13.9295 2.58501 13.8922L2.03699 14.9598ZM2.66653 15.1582C2.84162 15.1885 3.04452 15.2094 3.25158 15.2301L3.37042 14.0359C3.15548 14.0146 2.99638 13.9975 2.87147 13.9758L2.66653 15.1582ZM3.908 14.6929L4.008 13.6969L2.814 13.5771L2.714 14.5731L3.908 14.6929ZM3.46298 13.0393C3.31546 13.0264 3.16836 13.0092 3.02188 12.9875L2.84612 14.1745C3.01645 14.1997 3.18749 14.2198 3.35902 14.2347L3.46298 13.0393ZM3.00111 12.9848C3.0043 12.9851 3.00741 12.986 3.01035 12.9872L2.52965 14.0868C2.6369 14.1336 2.75058 14.1641 2.86689 14.1772L3.00111 12.9848ZM1.04592 13.8643C1.23252 14.337 1.58419 14.726 2.03572 14.9591L2.58628 13.8929C2.39277 13.793 2.24206 13.6263 2.16208 13.4237L1.04592 13.8643ZM3.04438 13.0034C3.06589 13.0145 3.08265 13.0329 3.09158 13.0554L1.97642 13.4986C2.07464 13.7457 2.25909 13.949 2.49562 14.0706L3.04438 13.0034ZM2.31375 12.7189L1.38375 13.0859L1.82425 14.2021L2.75425 13.8351L2.31375 12.7189ZM0.9 12.632C0.9 12.8364 0.899719 13.0414 0.911294 13.2174L2.10871 13.1386C2.10028 13.0106 2.1 12.8496 2.1 12.632H0.9ZM0.91049 13.2022C0.91955 13.4263 0.964453 13.6475 1.04349 13.8574L2.16651 13.4346C2.13264 13.3446 2.11339 13.2498 2.10951 13.1538L0.91049 13.2022ZM1.82525 14.2041L2.75525 13.8371L2.31475 12.7209L1.38475 13.0879L1.82525 14.2041ZM3.10645 13.0961C3.10743 13.0992 3.10795 13.1024 3.10798 13.1056L1.90802 13.1164C1.90908 13.2337 1.9278 13.3502 1.96355 13.4619L3.10645 13.0961ZM3.10735 13.0831C3.10047 12.9352 3.09801 12.787 3.09995 12.6389L1.90005 12.6231C1.8978 12.7951 1.90066 12.9671 1.90865 13.1389L3.10735 13.0831ZM2.4994 12.031L1.4994 12.032L1.5006 13.232L2.5006 13.231L2.4994 12.031ZM0.9 11.368V12.632H2.1V11.368H0.9ZM1.5 13.232H2.5V12.032H1.5V13.232ZM3.1 12.632V11.368H1.9V12.632H3.1ZM1.04287 10.1432C0.964525 10.3531 0.919856 10.5741 0.910521 10.798L2.10948 10.848C2.11355 10.7505 2.133 10.6542 2.16713 10.5628L1.04287 10.1432ZM0.911311 10.7834C0.899714 10.9585 0.9 11.1638 0.9 11.368H2.1C2.1 11.1502 2.10029 10.9895 2.10869 10.8626L0.911311 10.7834ZM3.1 11.368C3.1 11.1339 3.10039 11.0162 3.10645 10.9321L1.90955 10.8459C1.89961 10.9838 1.9 11.1541 1.9 11.368H3.1ZM3.10798 10.8941C3.10795 10.8975 3.1074 10.9009 3.10636 10.9042L1.96364 10.5378C1.92777 10.6497 1.90902 10.7664 1.90802 10.8839L3.10798 10.8941ZM2.03691 9.03878C1.58564 9.27159 1.234 9.66003 1.04711 10.1322L2.16289 10.5738C2.24298 10.3715 2.39368 10.205 2.58709 10.1052L2.03691 9.03878ZM3.09258 10.9426C3.08365 10.9651 3.06689 10.9835 3.04538 10.9946L2.49662 9.92741C2.26009 10.049 2.07564 10.2523 1.97742 10.4994L3.09258 10.9426ZM3.2523 8.76798C3.04292 8.78892 2.84348 8.81043 2.67459 8.83764L2.86541 10.0224C2.99452 10.0016 3.16108 9.98308 3.3717 9.96202L3.2523 8.76798ZM2.68463 8.8361C2.46279 8.86799 2.2474 8.93478 2.04643 9.03397L2.57757 10.11C2.66505 10.0668 2.75881 10.0378 2.85537 10.0239L2.68463 8.8361ZM3.03933 10.9977C3.03628 10.9992 3.03211 11.0012 3.02718 11.0034C3.02228 11.0057 3.01743 11.0077 3.01272 11.0096C3.0032 11.0134 2.99643 11.0156 2.99339 11.0165C2.99058 11.0173 2.99177 11.0168 2.99811 11.0154C3.00446 11.014 3.01535 11.0118 3.03179 11.0091L2.83821 9.82486C2.69366 9.84849 2.59167 9.87984 2.50267 9.92434L3.03933 10.9977ZM3.03712 11.0082C3.12132 10.9937 3.23691 10.9821 3.47256 10.9578L3.34944 9.76417C3.13909 9.78586 2.96868 9.8023 2.83288 9.82576L3.03712 11.0082ZM4.14018 8.70248C4.15837 8.68793 4.17481 8.67669 4.18817 8.66831C4.20164 8.65986 4.21313 8.65359 4.22184 8.64917C4.23884 8.64054 4.24833 8.63739 4.2462 8.63814C4.24434 8.63879 4.23401 8.64227 4.21243 8.64769C4.19099 8.65307 4.16006 8.65995 4.11743 8.66772L4.33257 9.84828C4.5579 9.80721 4.74944 9.75183 4.88982 9.63952L4.14018 8.70248ZM4.11816 8.66759C3.93798 8.70019 3.68557 8.72455 3.25216 8.76799L3.37184 9.96201C3.77643 9.92145 4.09202 9.89181 4.33184 9.84841L4.11816 8.66759ZM3.47055 10.958C3.86204 10.919 4.22235 10.8837 4.50771 10.8326L4.29629 9.65139C4.06765 9.69231 3.76196 9.72301 3.35145 9.76396L3.47055 10.958ZM4.50707 10.8327C4.78489 10.7833 5.15953 10.6933 5.48706 10.4422L4.75694 9.48984C4.66447 9.56073 4.52511 9.61068 4.29693 9.65127L4.50707 10.8327ZM4.11236 8.78701C4.11001 8.76953 4.11232 8.75174 4.11906 8.73544L5.22788 9.19426C5.30207 9.01498 5.32751 8.81928 5.30164 8.62699L4.11236 8.78701ZM4.11906 8.73544C4.12581 8.71914 4.13674 8.70492 4.15076 8.69421L4.87924 9.64779C5.03342 9.53001 5.1537 9.37354 5.22788 9.19426L4.11906 8.73544ZM5.48624 10.4428C5.78058 10.2179 6.01021 9.91922 6.15183 9.57696L5.04301 9.11814C4.98232 9.26482 4.8839 9.39284 4.75776 9.48921L5.48624 10.4428ZM6.15183 9.57696C6.29353 9.23452 6.34201 8.85988 6.29264 8.49299L5.10336 8.65301C5.12455 8.81054 5.10363 8.97165 5.04301 9.11814L6.15183 9.57696ZM3.52982 8.09818C3.80294 8.43165 3.96624 8.63271 4.0718 8.78413L5.0562 8.09787C4.91776 7.89929 4.71906 7.65635 4.45818 7.33782L3.52982 8.09818ZM4.07078 8.78267C4.12015 8.85393 4.13675 8.88726 4.13883 8.89164C4.13956 8.89318 4.13574 8.88539 4.13057 8.86958C4.12793 8.86152 4.12503 8.85164 4.12221 8.84008C4.11927 8.82807 4.11696 8.81643 4.11516 8.80564L5.29884 8.60836C5.27452 8.46247 5.20125 8.30725 5.05722 8.09933L4.07078 8.78267ZM6.29272 8.49355C6.23814 8.08498 6.03707 7.75778 5.87631 7.52702L4.89169 8.21298C5.02493 8.40422 5.08786 8.53702 5.10328 8.65245L6.29272 8.49355ZM5.87715 7.52824C5.71126 7.28886 5.4818 7.01002 5.23244 6.70514L4.30356 7.46486C4.5662 7.78598 4.75874 8.02114 4.89085 8.21176L5.87715 7.52824ZM2.86031 7.04497C2.93728 7.29127 3.05951 7.48648 3.16699 7.63766L4.14501 6.94234C4.07049 6.83752 4.02872 6.76074 4.00569 6.68704L2.86031 7.04497ZM3.16803 7.63912C3.26998 7.78161 3.39965 7.93984 3.53051 8.09903L4.45749 7.33697C4.32035 7.17016 4.21802 7.04439 4.14397 6.94088L3.16803 7.63912ZM5.22756 6.69925C5.13251 6.58601 5.04084 6.46996 4.95269 6.35126L3.98931 7.06674C4.09166 7.20454 4.19808 7.33927 4.30844 7.47075L5.22756 6.69925ZM4.93741 6.33155C4.93956 6.33422 4.94131 6.3372 4.94257 6.34038L3.82743 6.78362C3.87087 6.89292 3.9306 6.99502 4.00459 7.08645L4.93741 6.33155ZM2.93428 5.57586C2.73278 6.04186 2.70692 6.56507 2.86148 7.04866L4.00452 6.68334C3.93828 6.47608 3.94936 6.25185 4.03572 6.05214L2.93428 5.57586ZM4.957 6.38086C4.96429 6.40386 4.96301 6.42873 4.9534 6.45086L3.8526 5.97314C3.74693 6.21662 3.73287 6.4901 3.813 6.74314L4.957 6.38086ZM3.70616 4.59632C3.56163 4.73989 3.41379 4.8861 3.29624 5.02129L4.20176 5.80871C4.28421 5.7139 4.39637 5.60211 4.55184 5.44768L3.70616 4.59632ZM3.30674 5.00953C3.15563 5.17434 3.03148 5.36198 2.93888 5.56551L4.03112 6.06249C4.07144 5.9739 4.12548 5.89222 4.19126 5.82047L3.30674 5.00953ZM4.93632 6.48691C4.9363 6.48694 4.93624 6.48705 4.93613 6.48724C4.93601 6.48743 4.93579 6.48778 4.93542 6.48829C4.93474 6.48925 4.93316 6.4913 4.93031 6.4942L4.07569 5.6518C3.99021 5.73852 3.92168 5.83622 3.86968 5.93709L4.93632 6.48691ZM4.94783 6.47565C5.04597 6.36723 5.14771 6.26213 5.25289 6.16052L4.41911 5.29749C4.29467 5.41771 4.17429 5.54207 4.05817 5.67035L4.94783 6.47565ZM4.5975 3.70397L3.7045 4.59797L4.5535 5.44603L5.4465 4.55203L4.5975 3.70397ZM5.2605 6.15303L6.1535 5.25903L5.3045 4.41097L4.4115 5.30497L5.2605 6.15303ZM5.56523 2.939C5.36194 3.03163 5.17449 3.15565 5.00975 3.30653L5.82025 4.19147C5.89217 4.12559 5.97402 4.07144 6.06277 4.031L5.56523 2.939ZM5.01934 3.29794C4.88749 3.4136 4.7435 3.55699 4.59632 3.70516L5.44768 4.55084C5.5985 4.39901 5.71451 4.2844 5.81066 4.20006L5.01934 3.29794ZM6.15192 5.2606C6.31842 5.09515 6.40368 5.01021 6.46925 4.95254L5.67675 4.05146C5.57632 4.13979 5.45758 4.25885 5.30608 4.4094L6.15192 5.2606ZM6.4681 4.95355C6.49458 4.93038 6.50441 4.92403 6.50132 4.92613C6.49933 4.92747 6.4945 4.93063 6.48718 4.93475C6.48361 4.93676 6.48006 4.93866 6.47667 4.94039C6.47332 4.94211 6.4708 4.94332 6.46996 4.94372L5.95404 3.86028C5.87362 3.89858 5.79022 3.95217 5.6779 4.05045L6.4681 4.95355ZM7.04936 2.86038C6.56517 2.70591 6.04139 2.73228 5.57516 2.93458L6.05284 4.03542C6.25265 3.94871 6.47713 3.93741 6.68464 4.00362L7.04936 2.86038ZM6.45086 4.9524C6.42545 4.96343 6.40042 4.9632 6.38086 4.957L6.74314 3.813C6.49355 3.73396 6.2199 3.74451 5.97314 3.8516L6.45086 4.9524ZM8.09863 3.52937C7.94164 3.40109 7.7819 3.26935 7.63725 3.1667L6.94275 4.1453C7.0461 4.21865 7.16836 4.31891 7.33937 4.45863L8.09863 3.52937ZM7.65052 3.17639C7.4717 3.04197 7.27278 2.93663 7.0611 2.86426L6.6729 3.99974C6.76505 4.03124 6.85164 4.07709 6.92948 4.13561L7.65052 3.17639ZM6.34504 4.9444C6.34184 4.94316 6.33884 4.94144 6.33615 4.9393L7.08385 4.00071C6.99165 3.92726 6.88885 3.86822 6.77896 3.8256L6.34504 4.9444ZM6.35871 4.95641C6.43102 5.00864 6.52721 5.08642 6.70664 5.23285L7.46536 4.30315C7.29679 4.16558 7.16898 4.06136 7.06129 3.98359L6.35871 4.95641ZM8.80564 4.11516C8.8188 4.11736 8.83161 4.12002 8.84387 4.1231C8.85579 4.1261 8.86577 4.12912 8.87366 4.13176C8.88911 4.13694 8.89644 4.14063 8.89428 4.13959C8.88875 4.13693 8.85455 4.11958 8.78267 4.06978L8.09933 5.05622C8.3031 5.19737 8.4596 5.27404 8.60836 5.29884L8.80564 4.11516ZM8.79632 4.07953C8.55945 3.90544 8.32955 3.72485 8.10681 3.53617L7.33119 4.45183C7.57653 4.65964 7.82825 4.85728 8.08568 5.04647L8.79632 4.07953ZM6.70541 5.23184C7.01104 5.48261 7.28944 5.71089 7.52716 5.8764L8.21284 4.8916C8.02256 4.75911 7.78496 4.56539 7.46659 4.30416L6.70541 5.23184ZM7.5275 5.87664C7.75876 6.03742 8.08638 6.23664 8.49232 6.29242L8.65568 5.10359C8.53762 5.08736 8.40124 5.02258 8.2125 4.89136L7.5275 5.87664ZM8.69338 4.15085C8.70406 4.1368 8.71828 4.12582 8.73458 4.11904L9.19544 5.22702C9.37473 5.15244 9.53109 5.03173 9.64862 4.87715L8.69338 4.15085ZM8.73458 4.11904C8.75088 4.11226 8.76868 4.10992 8.78618 4.11225L8.62782 5.30175C8.82031 5.32738 9.01615 5.30159 9.19544 5.22702L8.73458 4.11904ZM8.49363 6.29259C8.86249 6.34245 9.2363 6.29219 9.57738 6.15116L9.11884 5.04222C8.97059 5.10352 8.81025 5.12448 8.65437 5.10341L8.49363 6.29259ZM9.57738 6.15116C9.91991 6.00952 10.2188 5.77976 10.4438 5.48519L9.49017 4.75681C9.39375 4.88305 9.26564 4.98152 9.11884 5.04222L9.57738 6.15116ZM8.76901 3.25201C8.72573 3.68276 8.70027 3.93739 8.66768 4.11667L9.84832 4.33133C9.89173 4.09261 9.92227 3.77724 9.96299 3.37198L8.76901 3.25201ZM8.66772 4.11643C8.65995 4.15906 8.65307 4.18999 8.64769 4.21143C8.64227 4.23301 8.63879 4.24334 8.63814 4.2452C8.63739 4.24733 8.64054 4.23784 8.64917 4.22083C8.65359 4.21213 8.65986 4.20064 8.66831 4.18717C8.6767 4.1738 8.68793 4.15737 8.70248 4.13918L9.63952 4.88882C9.75182 4.74844 9.80721 4.55691 9.84828 4.33157L8.66772 4.11643ZM10.4443 5.48463C10.6934 5.15765 10.7833 4.78388 10.8327 4.50607L9.65127 4.29593C9.61068 4.52412 9.56061 4.66435 9.48974 4.75737L10.4443 5.48463ZM10.8326 4.50671C10.8836 4.22189 10.9198 3.86534 10.9591 3.47041L9.76495 3.35159C9.72425 3.76066 9.69241 4.06611 9.65139 4.29529L10.8326 4.50671ZM10.4213 2.81394L9.42535 2.71494L9.30665 3.90906L10.3027 4.00806L10.4213 2.81394ZM9.03822 2.03799C8.92235 2.26371 8.86972 2.48326 8.83827 2.67074L10.0217 2.86926C10.0423 2.74674 10.0676 2.66029 10.1058 2.58601L9.03822 2.03799ZM8.83816 2.67136C8.8092 2.84513 8.78929 3.04824 8.76895 3.25258L9.96305 3.37142C9.98471 3.15376 10.0008 2.99487 10.0218 2.86864L8.83816 2.67136ZM9.306 3.90899L10.301 4.00899L10.421 2.81501L9.426 2.71501L9.306 3.90899ZM10.9587 3.46397C10.9716 3.31646 10.9888 3.16936 11.0105 3.02288L9.82347 2.84712C9.79825 3.01744 9.77817 3.18849 9.76326 3.36003L10.9587 3.46397ZM11.0133 3.00147C11.0129 3.00509 11.012 3.00862 11.0105 3.01194L9.9115 2.53006C9.86433 2.63765 9.83371 2.75177 9.82069 2.86853L11.0133 3.00147ZM10.1334 1.04702C9.66134 1.23364 9.27191 1.58437 9.03862 2.03722L10.1054 2.58678C10.2048 2.39383 10.3711 2.24343 10.5746 2.16298L10.1334 1.04702ZM10.9946 3.04538C10.9835 3.06688 10.9651 3.08365 10.9426 3.09258L10.4994 1.97742C10.2522 2.07564 10.049 2.26009 9.92741 2.49662L10.9946 3.04538ZM11.368 0.9C11.1636 0.9 10.9586 0.899719 10.7826 0.911294L10.8614 2.10871C10.9894 2.10028 11.1504 2.1 11.368 2.1V0.9ZM10.7978 0.91049C10.5737 0.91955 10.3525 0.964453 10.1426 1.04349L10.5654 2.16651C10.6554 2.13264 10.7502 2.11339 10.8462 2.10951L10.7978 0.91049ZM10.9042 3.10636C10.9009 3.1074 10.8975 3.10795 10.8941 3.10798L10.8839 1.90802C10.7664 1.90902 10.6497 1.92777 10.5378 1.96364L10.9042 3.10636ZM10.9325 3.10642C11.0153 3.1004 11.1336 3.1 11.369 3.1V1.9C11.1544 1.9 10.9827 1.8996 10.8455 1.90958L10.9325 3.10642ZM11.969 2.4994L11.968 1.4994L10.768 1.5006L10.769 2.5006L11.969 2.4994ZM12.632 0.9H11.368V2.1H12.632V0.9ZM10.768 1.5V2.5H11.968V1.5H10.768ZM11.368 3.1H12.632V1.9H11.368V3.1ZM13.8569 1.0429C13.6469 0.96451 13.4259 0.919832 13.2019 0.910518L13.1521 2.10948C13.2495 2.11354 13.3458 2.13298 13.4371 2.1671L13.8569 1.0429ZM13.2166 0.911311C13.0415 0.899714 12.8362 0.9 12.632 0.9V2.1C12.8498 2.1 13.0105 2.10029 13.1374 2.10869L13.2166 0.911311ZM12.632 3.1C12.8661 3.1 12.9838 3.10039 13.0679 3.10645L13.1541 1.90955C13.0162 1.89961 12.8459 1.9 12.632 1.9V3.1ZM13.1025 3.10794C13.1013 3.10792 13.1002 3.10774 13.0991 3.10739L13.4589 1.96261C13.349 1.92807 13.2347 1.90969 13.1195 1.90806L13.1025 3.10794ZM13.8369 2.75576L14.2049 1.82576L13.0891 1.38424L12.7211 2.31424L13.8369 2.75576ZM14.9611 2.03672C14.728 1.58519 14.339 1.23352 13.8663 1.04692L13.4257 2.16308C13.6283 2.24306 13.795 2.39377 13.8949 2.58728L14.9611 2.03672ZM13.0879 1.38475L12.7209 2.31475L13.8371 2.75525L14.2041 1.82524L13.0879 1.38475ZM13.0574 3.09258C13.0349 3.08365 13.0165 3.06688 13.0054 3.04538L14.0726 2.49662C13.951 2.26009 13.7478 2.07564 13.5006 1.97742L13.0574 3.09258ZM13.8143 3.30413L14.7033 2.84513L14.1527 1.77887L13.2637 2.23787L13.8143 3.30413ZM14.9 11.999C14.9 12.7681 14.5945 13.5058 14.0506 14.0496L14.8991 14.8981C15.668 14.1292 16.1 13.0864 16.1 11.999H14.9ZM14.0506 14.0496C13.5068 14.5935 12.7691 14.899 12 14.899V16.099C13.0874 16.099 14.1302 15.667 14.8991 14.8981L14.0506 14.0496ZM12 17.099C13.3526 17.099 14.6498 16.5617 15.6062 15.6052L14.7577 14.7567C14.0263 15.4881 13.0343 15.899 12 15.899V17.099ZM15.6062 15.6052C16.5627 14.6488 17.1 13.3516 17.1 11.999H15.9C15.9 13.0333 15.4891 14.0253 14.7577 14.7567L15.6062 15.6052ZM12 9.099C12.7691 9.099 13.5068 9.40453 14.0506 9.94839L14.8991 9.09986C14.1302 8.33096 13.0874 7.899 12 7.899V9.099ZM14.0506 9.94839C14.5945 10.4922 14.9 11.2299 14.9 11.999H16.1C16.1 10.9116 15.668 9.86876 14.8991 9.09986L14.0506 9.94839ZM17.1 11.999C17.1 10.6464 16.5627 9.34919 15.6062 8.39276L14.7577 9.24128C15.4891 9.97268 15.9 10.9647 15.9 11.999H17.1ZM15.6062 8.39276C14.6498 7.43632 13.3526 6.899 12 6.899V8.099C13.0343 8.099 14.0263 8.50989 14.7577 9.24128L15.6062 8.39276ZM9.1 11.999C9.1 11.2299 9.40553 10.4922 9.94939 9.94839L9.10086 9.09986C8.33196 9.86876 7.9 10.9116 7.9 11.999H9.1ZM9.94939 9.94839C10.4932 9.40453 11.2309 9.099 12 9.099V7.899C10.9126 7.899 9.86976 8.33096 9.10086 9.09986L9.94939 9.94839ZM12 6.899C10.6474 6.899 9.35019 7.43632 8.39376 8.39276L9.24228 9.24128C9.97368 8.50989 10.9657 8.099 12 8.099V6.899ZM8.39376 8.39276C7.43732 9.34919 6.9 10.6464 6.9 11.999H8.1C8.1 10.9647 8.51089 9.97268 9.24228 9.24128L8.39376 8.39276ZM12 14.899C11.2309 14.899 10.4932 14.5935 9.94939 14.0496L9.10086 14.8981C9.86976 15.667 10.9126 16.099 12 16.099V14.899ZM9.94939 14.0496C9.40553 13.5058 9.1 12.7681 9.1 11.999H7.9C7.9 13.0864 8.33196 14.1292 9.10086 14.8981L9.94939 14.0496ZM6.9 11.999C6.9 13.3516 7.43732 14.6488 8.39376 15.6052L9.24228 14.7567C8.51089 14.0253 8.1 13.0333 8.1 11.999H6.9ZM8.39376 15.6052C9.35019 16.5617 10.6474 17.099 12 17.099V15.899C10.9657 15.899 9.97368 15.4881 9.24228 14.7567L8.39376 15.6052Z" fill="black" mask="url(#path-1-outside-1_1562_10935)"/>
</svg>
