<svg width="24" height="24" viewBox="0 0 24 24" fill="none" xmlns="http://www.w3.org/2000/svg">
<g clip-path="url(#clip0_1562_10909)">
<path d="M14.3004 6.05935L14.3007 6.04877L13.2405 5.33146V5.03146H13.2392H3.09361C2.95535 5.02033 2.8162 5.03714 2.68449 5.08096C2.54785 5.12642 2.42222 5.19993 2.31566 5.29678C2.2091 5.39363 2.12396 5.51168 2.0657 5.64337C2.00744 5.77505 1.97734 5.91746 1.97734 6.06146C1.97734 6.20546 2.00744 6.34786 2.0657 6.47955C2.12396 6.61123 2.2091 6.72929 2.31566 6.82614C2.42222 6.92299 2.54785 6.9965 2.68449 7.04196C2.8162 7.08578 2.95535 7.10259 3.09361 7.09146H7.03385V17.9981V18.0125L7.03523 18.0268C7.05965 18.2809 7.17787 18.5168 7.36682 18.6885C7.55577 18.8602 7.8019 18.9553 8.05719 18.9553C8.31247 18.9553 8.5586 18.8602 8.74755 18.6885C8.9365 18.5168 9.05472 18.2809 9.07914 18.0268L9.08052 18.0125V17.9981V7.09146H13.2404C13.2405 7.09146 13.2405 7.09146 13.2405 7.09146C13.5168 7.09153 13.7823 6.98369 13.9803 6.79092L13.771 6.57598L13.9803 6.79092C14.1783 6.59812 14.2931 6.33562 14.3004 6.05935Z" stroke="black" stroke-width="0.6"/>
<path d="M20.8694 9.7756C20.7807 9.74608 20.6886 9.72881 20.5956 9.72409L20.571 9.69943H20.4467H14.1131C13.9749 9.68829 13.8357 9.70511 13.704 9.74893C13.5674 9.79438 13.4418 9.8679 13.3352 9.96475C13.2286 10.0616 13.1435 10.1797 13.0852 10.3113C13.027 10.443 12.9969 10.5854 12.9969 10.7294C12.9969 10.8734 13.027 11.0158 13.0852 11.1475C13.1435 11.2792 13.2286 11.3973 13.3352 11.4941L13.537 11.2721L13.3352 11.4941C13.4418 11.591 13.5674 11.6645 13.704 11.7099C13.8357 11.7537 13.9749 11.7706 14.1131 11.7594H16.3667V17.6661V17.6805L16.3681 17.6948C16.3925 17.9489 16.5107 18.1848 16.6997 18.3565C16.8886 18.5281 17.1348 18.6232 17.39 18.6232C17.6453 18.6232 17.8915 18.5281 18.0804 18.3565C18.2694 18.1848 18.3876 17.9489 18.412 17.6948L18.4134 17.6805V17.6661V11.7861H20.4603C20.5986 11.7972 20.7377 11.7804 20.8694 11.7366C21.0061 11.6911 21.1317 11.6176 21.2382 11.5208C21.3448 11.4239 21.4299 11.3059 21.4882 11.1742C21.5465 11.0425 21.5766 10.9001 21.5766 10.7561C21.5766 10.6121 21.5465 10.4697 21.4882 10.338C21.4299 10.2063 21.3448 10.0883 21.2382 9.99141C21.1317 9.89456 21.0061 9.82105 20.8694 9.7756Z" stroke="black" stroke-width="0.6"/>
</g>
<defs>
<clipPath id="clip0_1562_10909">
<rect width="24" height="24" fill="white"/>
</clipPath>
</defs>
</svg>
