<svg width="24" height="24" viewBox="0 0 24 24" fill="none" xmlns="http://www.w3.org/2000/svg">
<g clip-path="url(#clip0_1562_10915)">
<path d="M3.7 19.1097V19.1093C3.70016 18.9867 3.72642 18.8655 3.77706 18.7538C3.82732 18.6429 3.90046 18.5439 3.99166 18.4633C4.50331 17.9987 4.95109 17.4684 5.32329 16.8861C5.73123 16.0843 5.9765 15.2097 6.04495 14.3127V11.5397V11.5393H6.34495C6.34198 10.0657 6.87317 8.64083 7.84015 7.52876C8.80713 6.41668 10.1444 5.69272 11.6042 5.49096L3.7 19.1097ZM3.7 19.1097V19.8763C3.7 20.1054 3.791 20.3251 3.95297 20.487C4.11494 20.649 4.33462 20.74 4.56369 20.74H20.2343C20.4633 20.74 20.683 20.649 20.845 20.487C21.0069 20.3251 21.0979 20.1054 21.0979 19.8763L21.0979 19.1097L21.0979 19.1093M3.7 19.1097L21.0979 19.1093M21.0979 19.1093C21.0978 18.9867 21.0715 18.8655 21.0209 18.7538C20.9704 18.6425 20.8969 18.5432 20.8053 18.4624C20.2859 17.9993 19.8306 17.4688 19.4516 16.8852L21.0979 19.1093ZM11.3042 4.75253V5.23499L18.7304 11.5401L18.4304 11.5393H18.7304V11.5397C18.7343 9.98177 18.1691 8.47603 17.1411 7.30536C16.1714 6.20107 14.8528 5.46664 13.4092 5.2211V4.75253C13.4092 4.47338 13.2983 4.20566 13.1009 4.00828C12.9036 3.81089 12.6358 3.7 12.3567 3.7C12.0775 3.7 11.8098 3.81089 11.6124 4.00828C11.4151 4.20566 11.3042 4.47338 11.3042 4.75253ZM18.7304 14.3127C18.7302 14.309 18.7299 14.3053 18.7296 14.3016L18.4304 14.324H18.7304V14.3127ZM18.002 17.7817C18.2767 18.2169 18.5864 18.6286 18.9278 19.0126H5.87576C6.21721 18.6286 6.5269 18.2169 6.80158 17.7817L6.80742 17.7724L6.81258 17.7627C7.37664 16.7052 7.70575 15.5383 7.77743 14.3419L7.77796 14.3329V14.324V11.5393H7.77814L7.77779 11.5292C7.7568 10.9088 7.86086 10.2905 8.08379 9.71119C8.30671 9.13184 8.64394 8.60329 9.0754 8.15699C9.50685 7.71069 10.0237 7.35578 10.5952 7.11339C11.1666 6.87099 11.781 6.74608 12.4018 6.74608C13.0225 6.74608 13.6369 6.87099 14.2084 7.11339C14.7799 7.35578 15.2967 7.71069 15.7282 8.15699C16.1596 8.60329 16.4969 9.13184 16.7198 9.71119C16.9427 10.2905 17.0468 10.9088 17.0258 11.5292L17.0256 11.5292V11.5393V14.324V14.3329L17.0262 14.3419C17.0978 15.5383 17.4269 16.7052 17.991 17.7627L17.9962 17.7724L18.002 17.7817Z" stroke="black" stroke-width="0.6"/>
<path d="M11.9996 22.8559C12.4195 22.8463 12.8225 22.6884 13.1373 22.4102C13.4521 22.132 13.6583 21.7515 13.7196 21.3359H10.2129C10.2759 21.7628 10.4918 22.1523 10.8204 22.4319C11.1491 22.7115 11.5681 22.8622 11.9996 22.8559Z" fill="black"/>
</g>
<defs>
<clipPath id="clip0_1562_10915">
<rect width="24" height="24" fill="white"/>
</clipPath>
</defs>
</svg>
