<svg width="17" height="18" viewBox="0 0 17 18" fill="none" xmlns="http://www.w3.org/2000/svg">
<mask id="path-1-outside-1_1562_10901" maskUnits="userSpaceOnUse" x="0" y="0" width="17" height="18" fill="black">
<rect fill="white" width="17" height="18"/>
<path d="M15.4005 9.00093H13.8007C13.5886 9.00093 13.3851 9.08521 13.2351 9.23522C13.0851 9.38523 13.0008 9.58869 13.0008 9.80084C13.0008 10.013 13.0851 10.2164 13.2351 10.3665C13.3851 10.5165 13.5886 10.6007 13.8007 10.6007V12.2006H12.852C12.947 11.9444 12.9971 11.6738 13 11.4007C13 10.8724 12.8257 10.3589 12.5041 9.93986C12.1825 9.52078 11.7316 9.21953 11.2214 9.08281C10.7111 8.94608 10.17 8.98154 9.682 9.18368C9.19396 9.38581 8.78626 9.74333 8.52211 10.2008C8.46876 10.2918 8.43394 10.3925 8.41965 10.497C8.40536 10.6015 8.41188 10.7078 8.43885 10.8098C8.46581 10.9118 8.51268 11.0074 8.57676 11.0912C8.64084 11.175 8.72086 11.2453 8.81222 11.2981C8.90358 11.3508 9.00447 11.385 9.10908 11.3986C9.21369 11.4122 9.31996 11.4049 9.42176 11.3773C9.52357 11.3497 9.6189 11.3022 9.70228 11.2375C9.78565 11.1729 9.85541 11.0924 9.90755 11.0007C9.97776 10.8791 10.0787 10.7781 10.2003 10.7079C10.3219 10.6377 10.4599 10.6007 10.6003 10.6007C10.8124 10.6007 11.0159 10.685 11.1659 10.835C11.3159 10.985 11.4002 11.1885 11.4002 11.4007C11.4002 11.6128 11.3159 11.8163 11.1659 11.9663C11.0159 12.1163 10.8124 12.2006 10.6003 12.2006C10.3881 12.2006 10.1847 12.2848 10.0347 12.4348C9.88464 12.5849 9.80037 12.7883 9.80037 13.0005C9.80037 13.2126 9.88464 13.4161 10.0347 13.5661C10.1847 13.7161 10.3881 13.8004 10.6003 13.8004C10.8124 13.8004 11.0159 13.8846 11.1659 14.0347C11.3159 14.1847 11.4002 14.3881 11.4002 14.6003C11.4002 14.8124 11.3159 15.0159 11.1659 15.1659C11.0159 15.3159 10.8124 15.4002 10.6003 15.4002C10.4599 15.4002 10.3219 15.3632 10.2003 15.293C10.0787 15.2228 9.97776 15.1218 9.90755 15.0002C9.85541 14.9085 9.78565 14.828 9.70228 14.7634C9.6189 14.6988 9.52357 14.6513 9.42176 14.6236C9.31996 14.596 9.21369 14.5888 9.10908 14.6024C9.00447 14.616 8.90358 14.6501 8.81222 14.7029C8.72086 14.7556 8.64084 14.8259 8.57676 14.9097C8.51268 14.9935 8.46581 15.0891 8.43885 15.1911C8.41188 15.2931 8.40536 15.3994 8.41965 15.504C8.43394 15.6085 8.46876 15.7091 8.52211 15.8001C8.78626 16.2576 9.19396 16.6151 9.682 16.8173C10.17 17.0194 10.7111 17.0548 11.2214 16.9181C11.7316 16.7814 12.1825 16.4801 12.5041 16.0611C12.8257 15.642 13 15.1285 13 14.6003C12.9971 14.3271 12.947 14.0565 12.852 13.8004H13.7999V16.2001C13.7999 16.4122 13.8842 16.6157 14.0342 16.7657C14.1842 16.9157 14.3877 17 14.5998 17C14.812 17 15.0154 16.9157 15.1654 16.7657C15.3154 16.6157 15.3997 16.4122 15.3997 16.2001V10.6007C15.6119 10.6007 15.8153 10.5165 15.9653 10.3665C16.1153 10.2164 16.1996 10.013 16.1996 9.80084C16.1996 9.58869 16.1153 9.38523 15.9653 9.23522C15.8153 9.08521 15.6127 9.00093 15.4005 9.00093ZM5.82483 8.3954C5.84974 8.49794 5.89469 8.59454 5.9571 8.67964C6.01951 8.76473 6.09814 8.83663 6.18846 8.8912C6.27878 8.94578 6.37901 8.98194 6.48336 8.9976C6.58772 9.01327 6.69415 9.00814 6.79651 8.98249C6.89887 8.95685 6.99515 8.91121 7.07979 8.84819C7.16444 8.78518 7.23578 8.70603 7.2897 8.61533C7.34363 8.52462 7.37907 8.42414 7.394 8.31967C7.40892 8.21521 7.40302 8.10882 7.37665 8.00664L5.97121 2.3833C5.8729 1.98829 5.64526 1.63753 5.32455 1.38685C5.00383 1.13618 4.60847 1 4.20142 1C3.79436 1 3.399 1.13618 3.07829 1.38685C2.75757 1.63753 2.52994 1.98829 2.43162 2.3833L1.02539 8.00664C0.999012 8.10882 0.993116 8.21521 1.00804 8.31967C1.02296 8.42414 1.0584 8.52462 1.11233 8.61533C1.16625 8.70603 1.23759 8.78518 1.32224 8.84819C1.40688 8.91121 1.50316 8.95685 1.60552 8.98249C1.70789 9.00814 1.81431 9.01327 1.91867 8.9976C2.02303 8.98194 2.12325 8.94578 2.21357 8.8912C2.30389 8.83663 2.38252 8.76473 2.44493 8.67964C2.50734 8.59454 2.55229 8.49794 2.57721 8.3954L3.02515 6.60121H5.37688L5.82483 8.3954ZM3.42591 5.00139L3.98344 2.77205C4.00026 2.72775 4.03015 2.6896 4.06915 2.66269C4.10816 2.63577 4.15443 2.62136 4.20182 2.62136C4.24921 2.62136 4.29547 2.63577 4.33448 2.66269C4.37348 2.6896 4.40338 2.72775 4.42019 2.77205L4.97773 5.00139H3.42591ZM9.80117 5.00139H10.6011C10.8132 5.00161 11.0165 5.08595 11.1665 5.23592C11.3164 5.38588 11.4008 5.58922 11.401 5.8013V6.60121C11.401 6.81336 11.4853 7.01682 11.6353 7.16683C11.7853 7.31684 11.9887 7.40112 12.2009 7.40112C12.413 7.40112 12.6165 7.31684 12.7665 7.16683C12.9165 7.01682 13.0008 6.81336 13.0008 6.60121V5.8013C13.0002 5.16505 12.7471 4.55504 12.2972 4.10514C11.8473 3.65525 11.2373 3.40222 10.6011 3.40158H9.80117C9.58902 3.40158 9.38556 3.48586 9.23555 3.63587C9.08554 3.78588 9.00126 3.98934 9.00126 4.20149C9.00126 4.41364 9.08554 4.61709 9.23555 4.76711C9.38556 4.91712 9.58902 5.00139 9.80117 5.00139ZM6.60154 12.2006H5.80163C5.58955 12.2003 5.38621 12.116 5.23625 11.966C5.08628 11.8161 5.00194 11.6127 5.00172 11.4007V10.6007C5.00172 10.3886 4.91745 10.1851 4.76744 10.0351C4.61742 9.88511 4.41397 9.80084 4.20182 9.80084C3.98967 9.80084 3.78621 9.88511 3.6362 10.0351C3.48619 10.1851 3.40191 10.3886 3.40191 10.6007V11.4007C3.40254 12.0369 3.65558 12.6469 4.10547 13.0968C4.55537 13.5467 5.16538 13.7997 5.80163 13.8004H6.60154C6.81369 13.8004 7.01715 13.7161 7.16716 13.5661C7.31717 13.4161 7.40144 13.2126 7.40144 13.0005C7.40144 12.7883 7.31717 12.5849 7.16716 12.4348C7.01715 12.2848 6.81369 12.2006 6.60154 12.2006Z"/>
</mask>
<path d="M15.4005 9.00093H13.8007C13.5886 9.00093 13.3851 9.08521 13.2351 9.23522C13.0851 9.38523 13.0008 9.58869 13.0008 9.80084C13.0008 10.013 13.0851 10.2164 13.2351 10.3665C13.3851 10.5165 13.5886 10.6007 13.8007 10.6007V12.2006H12.852C12.947 11.9444 12.9971 11.6738 13 11.4007C13 10.8724 12.8257 10.3589 12.5041 9.93986C12.1825 9.52078 11.7316 9.21953 11.2214 9.08281C10.7111 8.94608 10.17 8.98154 9.682 9.18368C9.19396 9.38581 8.78626 9.74333 8.52211 10.2008C8.46876 10.2918 8.43394 10.3925 8.41965 10.497C8.40536 10.6015 8.41188 10.7078 8.43885 10.8098C8.46581 10.9118 8.51268 11.0074 8.57676 11.0912C8.64084 11.175 8.72086 11.2453 8.81222 11.2981C8.90358 11.3508 9.00447 11.385 9.10908 11.3986C9.21369 11.4122 9.31996 11.4049 9.42176 11.3773C9.52357 11.3497 9.6189 11.3022 9.70228 11.2375C9.78565 11.1729 9.85541 11.0924 9.90755 11.0007C9.97776 10.8791 10.0787 10.7781 10.2003 10.7079C10.3219 10.6377 10.4599 10.6007 10.6003 10.6007C10.8124 10.6007 11.0159 10.685 11.1659 10.835C11.3159 10.985 11.4002 11.1885 11.4002 11.4007C11.4002 11.6128 11.3159 11.8163 11.1659 11.9663C11.0159 12.1163 10.8124 12.2006 10.6003 12.2006C10.3881 12.2006 10.1847 12.2848 10.0347 12.4348C9.88464 12.5849 9.80037 12.7883 9.80037 13.0005C9.80037 13.2126 9.88464 13.4161 10.0347 13.5661C10.1847 13.7161 10.3881 13.8004 10.6003 13.8004C10.8124 13.8004 11.0159 13.8846 11.1659 14.0347C11.3159 14.1847 11.4002 14.3881 11.4002 14.6003C11.4002 14.8124 11.3159 15.0159 11.1659 15.1659C11.0159 15.3159 10.8124 15.4002 10.6003 15.4002C10.4599 15.4002 10.3219 15.3632 10.2003 15.293C10.0787 15.2228 9.97776 15.1218 9.90755 15.0002C9.85541 14.9085 9.78565 14.828 9.70228 14.7634C9.6189 14.6988 9.52357 14.6513 9.42176 14.6236C9.31996 14.596 9.21369 14.5888 9.10908 14.6024C9.00447 14.616 8.90358 14.6501 8.81222 14.7029C8.72086 14.7556 8.64084 14.8259 8.57676 14.9097C8.51268 14.9935 8.46581 15.0891 8.43885 15.1911C8.41188 15.2931 8.40536 15.3994 8.41965 15.504C8.43394 15.6085 8.46876 15.7091 8.52211 15.8001C8.78626 16.2576 9.19396 16.6151 9.682 16.8173C10.17 17.0194 10.7111 17.0548 11.2214 16.9181C11.7316 16.7814 12.1825 16.4801 12.5041 16.0611C12.8257 15.642 13 15.1285 13 14.6003C12.9971 14.3271 12.947 14.0565 12.852 13.8004H13.7999V16.2001C13.7999 16.4122 13.8842 16.6157 14.0342 16.7657C14.1842 16.9157 14.3877 17 14.5998 17C14.812 17 15.0154 16.9157 15.1654 16.7657C15.3154 16.6157 15.3997 16.4122 15.3997 16.2001V10.6007C15.6119 10.6007 15.8153 10.5165 15.9653 10.3665C16.1153 10.2164 16.1996 10.013 16.1996 9.80084C16.1996 9.58869 16.1153 9.38523 15.9653 9.23522C15.8153 9.08521 15.6127 9.00093 15.4005 9.00093ZM5.82483 8.3954C5.84974 8.49794 5.89469 8.59454 5.9571 8.67964C6.01951 8.76473 6.09814 8.83663 6.18846 8.8912C6.27878 8.94578 6.37901 8.98194 6.48336 8.9976C6.58772 9.01327 6.69415 9.00814 6.79651 8.98249C6.89887 8.95685 6.99515 8.91121 7.07979 8.84819C7.16444 8.78518 7.23578 8.70603 7.2897 8.61533C7.34363 8.52462 7.37907 8.42414 7.394 8.31967C7.40892 8.21521 7.40302 8.10882 7.37665 8.00664L5.97121 2.3833C5.8729 1.98829 5.64526 1.63753 5.32455 1.38685C5.00383 1.13618 4.60847 1 4.20142 1C3.79436 1 3.399 1.13618 3.07829 1.38685C2.75757 1.63753 2.52994 1.98829 2.43162 2.3833L1.02539 8.00664C0.999012 8.10882 0.993116 8.21521 1.00804 8.31967C1.02296 8.42414 1.0584 8.52462 1.11233 8.61533C1.16625 8.70603 1.23759 8.78518 1.32224 8.84819C1.40688 8.91121 1.50316 8.95685 1.60552 8.98249C1.70789 9.00814 1.81431 9.01327 1.91867 8.9976C2.02303 8.98194 2.12325 8.94578 2.21357 8.8912C2.30389 8.83663 2.38252 8.76473 2.44493 8.67964C2.50734 8.59454 2.55229 8.49794 2.57721 8.3954L3.02515 6.60121H5.37688L5.82483 8.3954ZM3.42591 5.00139L3.98344 2.77205C4.00026 2.72775 4.03015 2.6896 4.06915 2.66269C4.10816 2.63577 4.15443 2.62136 4.20182 2.62136C4.24921 2.62136 4.29547 2.63577 4.33448 2.66269C4.37348 2.6896 4.40338 2.72775 4.42019 2.77205L4.97773 5.00139H3.42591ZM9.80117 5.00139H10.6011C10.8132 5.00161 11.0165 5.08595 11.1665 5.23592C11.3164 5.38588 11.4008 5.58922 11.401 5.8013V6.60121C11.401 6.81336 11.4853 7.01682 11.6353 7.16683C11.7853 7.31684 11.9887 7.40112 12.2009 7.40112C12.413 7.40112 12.6165 7.31684 12.7665 7.16683C12.9165 7.01682 13.0008 6.81336 13.0008 6.60121V5.8013C13.0002 5.16505 12.7471 4.55504 12.2972 4.10514C11.8473 3.65525 11.2373 3.40222 10.6011 3.40158H9.80117C9.58902 3.40158 9.38556 3.48586 9.23555 3.63587C9.08554 3.78588 9.00126 3.98934 9.00126 4.20149C9.00126 4.41364 9.08554 4.61709 9.23555 4.76711C9.38556 4.91712 9.58902 5.00139 9.80117 5.00139ZM6.60154 12.2006H5.80163C5.58955 12.2003 5.38621 12.116 5.23625 11.966C5.08628 11.8161 5.00194 11.6127 5.00172 11.4007V10.6007C5.00172 10.3886 4.91745 10.1851 4.76744 10.0351C4.61742 9.88511 4.41397 9.80084 4.20182 9.80084C3.98967 9.80084 3.78621 9.88511 3.6362 10.0351C3.48619 10.1851 3.40191 10.3886 3.40191 10.6007V11.4007C3.40254 12.0369 3.65558 12.6469 4.10547 13.0968C4.55537 13.5467 5.16538 13.7997 5.80163 13.8004H6.60154C6.81369 13.8004 7.01715 13.7161 7.16716 13.5661C7.31717 13.4161 7.40144 13.2126 7.40144 13.0005C7.40144 12.7883 7.31717 12.5849 7.16716 12.4348C7.01715 12.2848 6.81369 12.2006 6.60154 12.2006Z" stroke="black" stroke-width="1.2" mask="url(#path-1-outside-1_1562_10901)"/>
</svg>
