<svg width="21" height="22" viewBox="0 0 21 22" fill="none" xmlns="http://www.w3.org/2000/svg">
<path d="M9.3 12.5C9.3 12.3343 9.16569 12.2 9 12.2H1C0.834315 12.2 0.7 12.3343 0.7 12.5V20.5C0.7 20.6657 0.834315 20.8 1 20.8H9C9.16569 20.8 9.3 20.6657 9.3 20.5V12.5ZM10.256 0.843565C10.2015 0.754389 10.1045 0.7 10 0.7C9.89549 0.7 9.79851 0.754389 9.74402 0.843565L4.24402 9.84356C4.18743 9.93616 4.18526 10.0521 4.23834 10.1467C4.29142 10.2414 4.39148 10.3 4.5 10.3H15.5C15.6085 10.3 15.7086 10.2414 15.7617 10.1467C15.8147 10.0521 15.8126 9.93616 15.756 9.84356L10.256 0.843565ZM3.3 18.2V14.8H6.7V18.2H3.3ZM11.3849 7.7H8.61508L10 5.43508L11.3849 7.7ZM20.3 16.5C20.3 13.8343 18.1657 11.7 15.5 11.7C12.8343 11.7 10.7 13.8343 10.7 16.5C10.7 19.1657 12.8343 21.3 15.5 21.3C18.1657 21.3 20.3 19.1657 20.3 16.5ZM13.9444 14.9444C14.3569 14.5318 14.9165 14.3 15.5 14.3C16.0835 14.3 16.6431 14.5318 17.0556 14.9444C17.4682 15.3569 17.7 15.9165 17.7 16.5C17.7 17.0835 17.4682 17.6431 17.0556 18.0556C16.6431 18.4682 16.0835 18.7 15.5 18.7C14.9165 18.7 14.3569 18.4682 13.9444 18.0556C13.5318 17.6431 13.3 17.0835 13.3 16.5C13.3 15.9165 13.5318 15.3569 13.9444 14.9444Z" stroke="black" stroke-width="0.6" stroke-linejoin="round"/>
</svg>
