<svg width="12" height="14" viewBox="0 0 12 14" fill="none" xmlns="http://www.w3.org/2000/svg">
<path d="M10.001 13.3346C9.53879 13.3346 9.14523 13.1724 8.82034 12.848C8.49545 12.5244 8.33301 12.1311 8.33301 11.668C8.33301 11.5791 8.34079 11.4873 8.35634 11.3926C8.37145 11.2975 8.39434 11.2082 8.42501 11.1246L3.26367 8.0833C3.10056 8.2673 2.91079 8.41063 2.69434 8.5133C2.47834 8.61641 2.24679 8.66797 1.99967 8.66797C1.53656 8.66797 1.14323 8.50619 0.819674 8.18264C0.49523 7.85864 0.333008 7.4653 0.333008 7.00264C0.333008 6.54041 0.49523 6.14686 0.819674 5.82197C1.14279 5.49708 1.53612 5.33464 1.99967 5.33464C2.24679 5.33464 2.47834 5.38619 2.69434 5.4893C2.91079 5.59197 3.10056 5.7353 3.26367 5.9193L8.42501 2.87797C8.39434 2.79441 8.37145 2.70508 8.35634 2.60997C8.34079 2.5153 8.33301 2.42352 8.33301 2.33464C8.33301 1.87152 8.49501 1.47819 8.81901 1.15464C9.14256 0.830191 9.53567 0.667969 9.99834 0.667969C10.4606 0.667969 10.8541 0.829969 11.179 1.15397C11.5039 1.47752 11.6663 1.87064 11.6663 2.3333C11.6663 2.79552 11.5041 3.18908 11.1797 3.51397C10.8561 3.83886 10.4628 4.0013 9.99967 4.0013C9.75256 4.0013 9.52101 3.94975 9.30501 3.84664C9.08856 3.74397 8.89879 3.60064 8.73567 3.41664L3.57434 6.45797C3.60501 6.54152 3.6279 6.63041 3.64301 6.72464C3.65856 6.8193 3.66634 6.91064 3.66634 6.99864C3.66634 7.08664 3.65856 7.17886 3.64301 7.2753C3.6279 7.3713 3.60501 7.46108 3.57434 7.54463L8.73567 10.586C8.89879 10.402 9.08856 10.2586 9.30501 10.156C9.52101 10.0529 9.75256 10.0013 9.99967 10.0013C10.4628 10.0013 10.8561 10.1633 11.1797 10.4873C11.5041 10.8109 11.6663 11.204 11.6663 11.6666C11.6663 12.1289 11.5046 12.5224 11.181 12.8473C10.857 13.1722 10.4637 13.3346 10.001 13.3346Z" fill="black"/>
</svg>
