<svg width="16" height="16" viewBox="0 0 16 16" fill="none" xmlns="http://www.w3.org/2000/svg">
<rect width="16" height="16" rx="8" fill="#EBF4FF"/>
<path d="M7 11.2C7 10.9878 7.08429 10.7843 7.23431 10.6343C7.38434 10.4843 7.58783 10.4 7.8 10.4C8.01217 10.4 8.21566 10.4843 8.36569 10.6343C8.51571 10.7843 8.6 10.9878 8.6 11.2C8.6 11.4122 8.51571 11.6157 8.36569 11.7657C8.21566 11.9157 8.01217 12 7.8 12C7.58783 12 7.38434 11.9157 7.23431 11.7657C7.08429 11.6157 7 11.4122 7 11.2ZM7 8C7 7.78783 7.08429 7.58434 7.23431 7.43431C7.38434 7.28429 7.58783 7.2 7.8 7.2C8.01217 7.2 8.21566 7.28429 8.36569 7.43431C8.51571 7.58434 8.6 7.78783 8.6 8C8.6 8.21217 8.51571 8.41566 8.36569 8.56569C8.21566 8.71571 8.01217 8.8 7.8 8.8C7.58783 8.8 7.38434 8.71571 7.23431 8.56569C7.08429 8.41566 7 8.21217 7 8ZM7 4.8C7 4.58783 7.08429 4.38434 7.23431 4.23431C7.38434 4.08429 7.58783 4 7.8 4C8.01217 4 8.21566 4.08429 8.36569 4.23431C8.51571 4.38434 8.6 4.58783 8.6 4.8C8.6 5.01217 8.51571 5.21566 8.36569 5.36569C8.21566 5.51571 8.01217 5.6 7.8 5.6C7.58783 5.6 7.38434 5.51571 7.23431 5.36569C7.08429 5.21566 7 5.01217 7 4.8Z" fill="black"/>
</svg>
