<svg width="14" height="14" viewBox="0 0 14 14" fill="none" xmlns="http://www.w3.org/2000/svg">
<path d="M12.8333 1.16667V3.5H1.16667V1.16667H12.8333ZM12.8333 0H1.16667C0.857247 0 0.560501 0.122916 0.341709 0.341709C0.122916 0.560501 0 0.857247 0 1.16667V3.5C0 3.80942 0.122916 4.10616 0.341709 4.32496C0.560501 4.54375 0.857247 4.66667 1.16667 4.66667H12.8333C13.1428 4.66667 13.4395 4.54375 13.6583 4.32496C13.8771 4.10616 14 3.80942 14 3.5V1.16667C14 0.857247 13.8771 0.560501 13.6583 0.341709C13.4395 0.122916 13.1428 0 12.8333 0ZM3.5 7V12.8333H1.16667V7H3.5ZM3.5 5.83333H1.16667C0.857247 5.83333 0.560501 5.95625 0.341709 6.17504C0.122916 6.39383 0 6.69058 0 7V12.8333C0 13.1428 0.122916 13.4395 0.341709 13.6583C0.560501 13.8771 0.857247 14 1.16667 14H3.5C3.80942 14 4.10616 13.8771 4.32496 13.6583C4.54375 13.4395 4.66667 13.1428 4.66667 12.8333V7C4.66667 6.69058 4.54375 6.39383 4.32496 6.17504C4.10616 5.95625 3.80942 5.83333 3.5 5.83333ZM12.8333 7V12.8333H7V7H12.8333ZM12.8333 5.83333H7C6.69058 5.83333 6.39383 5.95625 6.17504 6.17504C5.95625 6.39383 5.83333 6.69058 5.83333 7V12.8333C5.83333 13.1428 5.95625 13.4395 6.17504 13.6583C6.39383 13.8771 6.69058 14 7 14H12.8333C13.1428 14 13.4395 13.8771 13.6583 13.6583C13.8771 13.4395 14 13.1428 14 12.8333V7C14 6.69058 13.8771 6.39383 13.6583 6.17504C13.4395 5.95625 13.1428 5.83333 12.8333 5.83333Z" fill="black"/>
</svg>
