<svg width="12" height="13" viewBox="0 0 12 13" fill="none" xmlns="http://www.w3.org/2000/svg">
<path d="M11.5 2.125H8.875V1.5C8.875 1.13533 8.73013 0.785591 8.47227 0.527728C8.21441 0.269866 7.86467 0.125 7.5 0.125H4.5C4.13533 0.125 3.78559 0.269866 3.52773 0.527728C3.26987 0.785591 3.125 1.13533 3.125 1.5V2.125H0.5C0.400544 2.125 0.305161 2.16451 0.234835 2.23483C0.164509 2.30516 0.125 2.40054 0.125 2.5C0.125 2.59946 0.164509 2.69484 0.234835 2.76517C0.305161 2.83549 0.400544 2.875 0.5 2.875H1.125V12C1.125 12.2321 1.21719 12.4546 1.38128 12.6187C1.54538 12.7828 1.76794 12.875 2 12.875H10C10.2321 12.875 10.4546 12.7828 10.6187 12.6187C10.7828 12.4546 10.875 12.2321 10.875 12V2.875H11.5C11.5995 2.875 11.6948 2.83549 11.7652 2.76517C11.8355 2.69484 11.875 2.59946 11.875 2.5C11.875 2.40054 11.8355 2.30516 11.7652 2.23483C11.6948 2.16451 11.5995 2.125 11.5 2.125ZM3.875 1.5C3.875 1.33424 3.94085 1.17527 4.05806 1.05806C4.17527 0.940848 4.33424 0.875 4.5 0.875H7.5C7.66576 0.875 7.82473 0.940848 7.94194 1.05806C8.05915 1.17527 8.125 1.33424 8.125 1.5V2.125H3.875V1.5ZM10.125 12C10.125 12.0332 10.1118 12.0649 10.0884 12.0884C10.0649 12.1118 10.0332 12.125 10 12.125H2C1.96685 12.125 1.93505 12.1118 1.91161 12.0884C1.88817 12.0649 1.875 12.0332 1.875 12V2.875H10.125V12ZM4.875 5.5V9.5C4.875 9.59946 4.83549 9.69484 4.76516 9.76517C4.69484 9.83549 4.59946 9.875 4.5 9.875C4.40054 9.875 4.30516 9.83549 4.23484 9.76517C4.16451 9.69484 4.125 9.59946 4.125 9.5V5.5C4.125 5.40054 4.16451 5.30516 4.23484 5.23484C4.30516 5.16451 4.40054 5.125 4.5 5.125C4.59946 5.125 4.69484 5.16451 4.76516 5.23484C4.83549 5.30516 4.875 5.40054 4.875 5.5ZM7.875 5.5V9.5C7.875 9.59946 7.83549 9.69484 7.76517 9.76517C7.69484 9.83549 7.59946 9.875 7.5 9.875C7.40054 9.875 7.30516 9.83549 7.23483 9.76517C7.16451 9.69484 7.125 9.59946 7.125 9.5V5.5C7.125 5.40054 7.16451 5.30516 7.23483 5.23484C7.30516 5.16451 7.40054 5.125 7.5 5.125C7.59946 5.125 7.69484 5.16451 7.76517 5.23484C7.83549 5.30516 7.875 5.40054 7.875 5.5Z" fill="black"/>
</svg>
