<svg width="3" height="14" viewBox="0 0 3 14" fill="none" xmlns="http://www.w3.org/2000/svg">
<path d="M0 12.6C0 12.2287 0.1475 11.8726 0.410051 11.6101C0.672602 11.3475 1.0287 11.2 1.4 11.2C1.7713 11.2 2.1274 11.3475 2.38995 11.6101C2.6525 11.8726 2.8 12.2287 2.8 12.6C2.8 12.9713 2.6525 13.3274 2.38995 13.59C2.1274 13.8525 1.7713 14 1.4 14C1.0287 14 0.672602 13.8525 0.410051 13.59C0.1475 13.3274 0 12.9713 0 12.6ZM0 7C0 6.6287 0.1475 6.2726 0.410051 6.01005C0.672602 5.7475 1.0287 5.6 1.4 5.6C1.7713 5.6 2.1274 5.7475 2.38995 6.01005C2.6525 6.2726 2.8 6.6287 2.8 7C2.8 7.3713 2.6525 7.7274 2.38995 7.98995C2.1274 8.2525 1.7713 8.4 1.4 8.4C1.0287 8.4 0.672602 8.2525 0.410051 7.98995C0.1475 7.7274 0 7.3713 0 7ZM0 1.4C0 1.0287 0.1475 0.672601 0.410051 0.410051C0.672602 0.1475 1.0287 0 1.4 0C1.7713 0 2.1274 0.1475 2.38995 0.410051C2.6525 0.672601 2.8 1.0287 2.8 1.4C2.8 1.7713 2.6525 2.1274 2.38995 2.38995C2.1274 2.6525 1.7713 2.8 1.4 2.8C1.0287 2.8 0.672602 2.6525 0.410051 2.38995C0.1475 2.1274 0 1.7713 0 1.4Z" fill="white"/>
</svg>
