<svg width="18" height="18" viewBox="0 0 18 18" fill="none" xmlns="http://www.w3.org/2000/svg">
<path d="M17.25 13.2891V13.1854L17.1766 13.1122L12.04 7.98312C12.1008 7.76847 12.1489 7.55026 12.1844 7.32856C12.2281 7.05499 12.25 6.77876 12.25 6.5L12.25 6.49745C12.2446 5.96724 12.1769 5.45916 12.0461 4.97397C11.9151 4.48847 11.7213 4.02986 11.4649 3.59874C11.2096 3.16973 10.9078 2.78084 10.5596 2.4326C10.2113 2.08436 9.82483 1.78494 9.40043 1.53466C8.97477 1.28363 8.51699 1.09031 8.02785 0.954433C7.53648 0.817943 7.02695 0.75 6.5 0.749987L6.49745 0.750013C5.96724 0.755423 5.45916 0.823098 4.97397 0.953935C4.48847 1.08486 4.02986 1.27866 3.59874 1.53515C3.16973 1.79038 2.78084 2.09217 2.4326 2.44041C2.08436 2.78865 1.78494 3.17517 1.53466 3.59957C1.28363 4.02523 1.09031 4.48301 0.954433 4.97215C0.817943 5.46352 0.75 5.97305 0.749987 6.5L0.750013 6.50255C0.755423 7.03276 0.823098 7.54084 0.953935 8.02603C1.08486 8.51153 1.27866 8.97014 1.53515 9.40126C1.79038 9.83027 2.09217 10.2192 2.44041 10.5674C2.78865 10.9156 3.17517 11.2151 3.59957 11.4653C4.02523 11.7164 4.48301 11.9097 4.97215 12.0456C5.46352 12.1821 5.97305 12.25 6.5 12.25C6.95756 12.25 7.40737 12.1955 7.84899 12.0865C8.15869 12.01 8.45908 11.908 8.75 11.7806V13V13.25H9H10.75V15V15.25H11H12.75V17V17.25H13H17H17.25V17V13.2891ZM10.3761 8.23029L10.3176 8.38206L10.4326 8.49709L15.75 13.8145V15.75H14.25V14V13.75H14H12.25V12V11.75H12H10.25V10V9.75H10H9.30469H9.21565L9.14666 9.80628C8.77318 10.111 8.35829 10.3442 7.90077 10.5066C7.4431 10.669 6.97691 10.7499 6.50105 10.75C5.90789 10.7449 5.35816 10.6314 4.84928 10.4112C4.33544 10.1888 3.88491 9.88582 3.49596 9.50179C3.10819 9.11892 2.80336 8.66955 2.58135 8.15152C2.361 7.63737 2.25013 7.08802 2.25 6.50104C2.25507 5.90788 2.36863 5.35816 2.58882 4.84928C2.81115 4.33544 3.11418 3.88491 3.49821 3.49596C3.88108 3.10819 4.33045 2.80336 4.84848 2.58135C5.36263 2.361 5.91198 2.25013 6.49896 2.25C7.09212 2.25507 7.64184 2.36863 8.15072 2.58882C8.66456 2.81115 9.11509 3.11418 9.50404 3.49821C9.89181 3.88108 10.1966 4.33045 10.4187 4.84848C10.6391 5.36294 10.75 5.91262 10.75 6.5C10.75 6.80395 10.7157 7.09376 10.6478 7.37006C10.5776 7.6562 10.4871 7.94293 10.3761 8.23029ZM5.49031 3.84886C5.33812 3.78269 5.17528 3.75059 5.00474 3.75001C4.8313 3.74408 4.66382 3.77816 4.50521 3.85086C4.35585 3.91932 4.2238 4.00858 4.11229 4.1201C4.00061 4.23177 3.9129 4.3624 3.84886 4.50969C3.78269 4.66188 3.75059 4.82472 3.75001 4.99526C3.74408 5.1687 3.77816 5.33618 3.85086 5.49479C3.91932 5.64415 4.00858 5.7762 4.1201 5.88771C4.23177 5.99939 4.3624 6.0871 4.50969 6.15114C4.66188 6.21731 4.82471 6.24941 4.99525 6.24999C5.16869 6.25592 5.33618 6.22184 5.49479 6.14914C5.64415 6.08068 5.7762 5.99142 5.88771 5.8799C5.99939 5.76823 6.0871 5.6376 6.15114 5.49031C6.21731 5.33812 6.24941 5.17529 6.24999 5.00475C6.25592 4.83131 6.22184 4.66382 6.14914 4.50521C6.08068 4.35585 5.99142 4.2238 5.8799 4.11229C5.76823 4.00061 5.6376 3.9129 5.49031 3.84886Z" stroke="black" stroke-width="0.5"/>
</svg>
