<svg width="13" height="13" viewBox="0 0 13 13" fill="none" xmlns="http://www.w3.org/2000/svg">
<path d="M9.99717 7.62861L7.96997 6.61501C7.93007 6.59512 7.88564 6.58612 7.84115 6.5889C7.79665 6.59168 7.75368 6.60615 7.71657 6.63084L6.66243 7.33403C6.08297 7.05614 5.61567 6.58884 5.33778 6.00938L6.04097 4.95524C6.06566 4.91812 6.08013 4.87515 6.08291 4.83066C6.08569 4.78617 6.07668 4.74173 6.0568 4.70184L5.0432 2.67464C5.02218 2.63232 4.98974 2.59673 4.94955 2.57188C4.90936 2.54703 4.86303 2.53391 4.81578 2.534C4.21092 2.534 3.63084 2.77428 3.20315 3.20197C2.77545 3.62967 2.53518 4.20975 2.53518 4.8146C2.53669 6.22546 3.09782 7.5781 4.09544 8.57573C5.09307 9.57336 6.44572 10.1345 7.85658 10.136C8.46143 10.136 9.04151 9.89572 9.4692 9.46803C9.8969 9.04033 10.1372 8.46025 10.1372 7.8554C10.1372 7.80832 10.1241 7.76217 10.0994 7.72211C10.0747 7.68205 10.0393 7.64967 9.99717 7.62861ZM7.85658 9.6292C6.58008 9.62786 5.35624 9.12018 4.45362 8.21755C3.551 7.31493 3.04332 6.0911 3.04198 4.8146C3.0419 4.37065 3.20831 3.9428 3.50833 3.61557C3.80835 3.28834 4.22018 3.08551 4.66247 3.04713L5.5367 4.79623L4.83985 5.84404C4.81662 5.87861 4.80228 5.91837 4.79808 5.95981C4.79388 6.00124 4.79996 6.04307 4.81578 6.0816C5.15245 6.882 5.78918 7.51873 6.58958 7.8554C6.62814 7.87142 6.67006 7.87766 6.71162 7.87358C6.75317 7.86949 6.79307 7.85519 6.82777 7.83196L7.87558 7.13511L9.62467 8.00934C9.58614 8.45163 9.38316 8.86339 9.05581 9.16329C8.72845 9.4632 8.30054 9.62945 7.85658 9.6292ZM6.33618 1.09447e-07C5.23331 -0.000204868 4.14949 0.287513 3.19194 0.834693C2.23438 1.38187 1.43626 2.16956 0.876528 3.11983C0.316795 4.0701 0.0148405 5.15004 0.00053322 6.25282C-0.0137741 7.35559 0.260061 8.443 0.794953 9.40747L0.0410879 11.6684C-0.00358112 11.8024 -0.0100636 11.9461 0.0223671 12.0835C0.0547977 12.221 0.12486 12.3466 0.224701 12.4465C0.324542 12.5463 0.450215 12.6164 0.587637 12.6488C0.725058 12.6812 0.868796 12.6748 1.00274 12.6301L3.2637 11.8762C4.10946 12.3449 5.05126 12.6137 6.01696 12.6621C6.98265 12.7105 7.94662 12.5372 8.83499 12.1554C9.72336 11.7737 10.5126 11.1937 11.1421 10.4599C11.7717 9.726 12.225 8.85777 12.4671 7.92168C12.7093 6.98559 12.734 6.00648 12.5393 5.05938C12.3446 4.11227 11.9357 3.2223 11.3439 2.45766C10.7521 1.69301 9.99311 1.07397 9.1251 0.647973C8.25709 0.221976 7.30308 0.000324374 6.33618 1.09447e-07ZM6.33618 12.1632C5.31147 12.1635 4.30479 11.8937 3.41764 11.3808C3.37909 11.3586 3.33543 11.3468 3.29094 11.3466C3.26358 11.3466 3.23639 11.3511 3.21049 11.3599L0.842465 12.1493C0.797817 12.1642 0.749905 12.1663 0.704097 12.1555C0.65829 12.1447 0.616399 12.1213 0.583118 12.0881C0.549838 12.0548 0.526484 12.0129 0.515674 11.9671C0.504864 11.9213 0.507025 11.8734 0.521914 11.8287L1.31126 9.46069C1.32264 9.42665 1.32667 9.39058 1.32306 9.35486C1.31946 9.31915 1.30831 9.28461 1.29035 9.25353C0.647793 8.14285 0.389737 6.85115 0.556217 5.57884C0.722698 4.30652 1.30441 3.12471 2.2111 2.21674C3.11779 1.30877 4.29879 0.725399 5.57087 0.55713C6.84295 0.388862 8.135 0.645101 9.24659 1.2861C10.3582 1.92709 11.2272 2.91701 11.7187 4.10228C12.2103 5.28755 12.297 6.60192 11.9653 7.84147C11.6336 9.08103 10.9022 10.1765 9.88435 10.9579C8.86656 11.7393 7.61934 12.163 6.33618 12.1632Z" fill="#3485BB"/>
</svg>
