<svg width="16" height="16" viewBox="0 0 16 16" fill="none" xmlns="http://www.w3.org/2000/svg">
<path d="M2.27888 14.67C1.91462 14.67 1.61054 14.5481 1.36664 14.3042C1.12221 14.0597 1 13.7554 1 13.3911V5.6545C1 5.29024 1.12221 4.98616 1.36664 4.74226C1.61054 4.49784 1.91462 4.37563 2.27888 4.37563H5.75125V3.27888C5.75125 2.91462 5.87346 2.61054 6.11789 2.36664C6.36179 2.12221 6.66587 2 7.03013 2H9.22362C9.58788 2 9.89223 2.12221 10.1367 2.36664C10.3806 2.61054 10.5025 2.91462 10.5025 3.27888V4.37563H13.9749C14.3391 4.37563 14.6432 4.49784 14.8871 4.74226C15.1315 4.98616 15.2537 5.29024 15.2537 5.6545V13.3911C15.2537 13.7554 15.1318 14.0595 14.8879 14.3034C14.6435 14.5478 14.3391 14.67 13.9749 14.67H2.27888ZM2.27888 13.8781H13.9749C14.0963 13.8781 14.2079 13.8274 14.3098 13.7261C14.4112 13.6242 14.4619 13.5125 14.4619 13.3911V5.6545C14.4619 5.53308 14.4112 5.42143 14.3098 5.31954C14.2079 5.21818 14.0963 5.1675 13.9749 5.1675H2.27888C2.15746 5.1675 2.0458 5.21818 1.94391 5.31954C1.84255 5.42143 1.79188 5.53308 1.79188 5.6545V13.3911C1.79188 13.5125 1.84255 13.6242 1.94391 13.7261C2.0458 13.8274 2.15746 13.8781 2.27888 13.8781ZM6.54313 4.37563H9.71062V3.27888C9.71062 3.15746 9.65994 3.0458 9.55859 2.94391C9.4567 2.84255 9.34504 2.79188 9.22362 2.79188H7.03013C6.90871 2.79188 6.79705 2.84255 6.69517 2.94391C6.59381 3.0458 6.54313 3.15746 6.54313 3.27888V4.37563Z" fill="#828282"/>
</svg>
