<svg width="3" height="13" viewBox="0 0 3 13" fill="none" xmlns="http://www.w3.org/2000/svg">
<path fill-rule="evenodd" clip-rule="evenodd" d="M2.71081 1.35541C2.71081 2.10398 2.10398 2.71081 1.35541 2.71081C0.606836 2.71081 0 2.10398 0 1.35541C0 0.606836 0.606836 0 1.35541 0C2.10398 0 2.71081 0.606836 2.71081 1.35541ZM2.71081 6.1015C2.71081 6.85007 2.10398 7.45691 1.35541 7.45691C0.606836 7.45691 0 6.85007 0 6.1015C0 5.35293 0.606836 4.74609 1.35541 4.74609C2.10398 4.74609 2.71081 5.35293 2.71081 6.1015ZM1.35541 12.1991C2.10398 12.1991 2.71081 11.5923 2.71081 10.8437C2.71081 10.0951 2.10398 9.48828 1.35541 9.48828C0.606836 9.48828 0 10.0951 0 10.8437C0 11.5923 0.606836 12.1991 1.35541 12.1991Z" fill="#0A1629"/>
</svg>
