<svg width="21" height="21" viewBox="0 0 21 21" fill="none" xmlns="http://www.w3.org/2000/svg">
<path d="M16.3095 12.4454L13.0023 10.7918C12.9372 10.7594 12.8647 10.7447 12.7921 10.7492C12.7196 10.7538 12.6495 10.7774 12.5889 10.8176L10.8692 11.9648C9.92383 11.5115 9.16148 10.7491 8.70812 9.80378L9.85531 8.08404C9.8956 8.02349 9.9192 7.95339 9.92374 7.88081C9.92827 7.80822 9.91358 7.73573 9.88115 7.67064L8.22755 4.36344C8.19324 4.2944 8.14032 4.23634 8.07476 4.1958C8.0092 4.15525 7.9336 4.13385 7.85652 4.134C6.86975 4.134 5.92341 4.52599 5.22566 5.22374C4.52791 5.92149 4.13592 6.86783 4.13592 7.8546C4.13838 10.1563 5.05382 12.363 6.68136 13.9906C8.30891 15.6181 10.5156 16.5335 12.8173 16.536C13.8041 16.536 14.7504 16.144 15.4482 15.4463C16.1459 14.7485 16.5379 13.8022 16.5379 12.8154C16.538 12.7386 16.5166 12.6633 16.4763 12.5979C16.4359 12.5326 16.3782 12.4798 16.3095 12.4454ZM12.8173 15.7092C10.7348 15.707 8.73824 14.8788 7.2657 13.4062C5.79315 11.9337 4.96491 9.9371 4.96272 7.8546C4.9626 7.13033 5.23407 6.43234 5.72353 5.89849C6.21299 5.36463 6.88485 5.03373 7.60641 4.97113L9.03264 7.82463L7.89579 9.53404C7.8579 9.59044 7.8345 9.6553 7.82764 9.7229C7.8208 9.7905 7.83071 9.85875 7.85652 9.9216C8.40577 11.2274 9.44454 12.2661 10.7503 12.8154C10.8132 12.8415 10.8816 12.8517 10.9494 12.8451C11.0172 12.8384 11.0823 12.8151 11.1389 12.7772L12.8483 11.6403L15.7018 13.0665C15.639 13.7881 15.3078 14.4598 14.7738 14.9491C14.2397 15.4384 13.5416 15.7096 12.8173 15.7092ZM10.3369 1.78554e-07C8.53768 -0.000334225 6.76953 0.469052 5.20736 1.36173C3.64519 2.25441 2.34314 3.53944 1.42998 5.08973C0.516823 6.64002 0.024211 8.40184 0.000869903 10.2009C-0.0224712 12 0.424267 13.774 1.2969 15.3475L0.0670314 19.036C-0.00584228 19.2546 -0.0164178 19.4891 0.0364899 19.7132C0.0893976 19.9374 0.203698 20.1425 0.36658 20.3053C0.529461 20.4682 0.734487 20.5825 0.958678 20.6354C1.18287 20.6883 1.41737 20.6778 1.63588 20.6049L5.32444 19.375C6.70422 20.1395 8.24069 20.5781 9.81614 20.657C11.3916 20.736 12.9642 20.4533 14.4135 19.8305C15.8628 19.2078 17.1503 18.2616 18.1774 17.0643C19.2045 15.8671 19.944 14.4507 20.339 12.9235C20.7341 11.3964 20.7744 9.79905 20.4568 8.25393C20.1391 6.70882 19.472 5.25691 18.5066 4.00945C17.5411 2.76199 16.3029 1.75209 14.8868 1.05711C13.4707 0.362134 11.9143 0.000529187 10.3369 1.78554e-07ZM10.3369 19.8432C8.6652 19.8437 7.02289 19.4035 5.57559 18.5668C5.51269 18.5306 5.44146 18.5114 5.36889 18.511C5.32424 18.511 5.27989 18.5183 5.23763 18.5327L1.37441 19.8205C1.30157 19.8448 1.2234 19.8483 1.14867 19.8306C1.07394 19.813 1.0056 19.7749 0.951307 19.7206C0.897013 19.6663 0.858913 19.598 0.841277 19.5232C0.823641 19.4485 0.827167 19.3703 0.851458 19.2975L2.1392 15.4343C2.15777 15.3788 2.16434 15.3199 2.15846 15.2616C2.15258 15.2034 2.13439 15.147 2.10509 15.0963C1.05682 13.2843 0.635823 11.1771 0.90742 9.10139C1.17902 7.02571 2.12803 5.09769 3.60722 3.61641C5.08641 2.13514 7.0131 1.18342 9.08839 0.908909C11.1637 0.634394 13.2716 1.05243 15.085 2.09815C16.8985 3.14388 18.3161 4.75885 19.1181 6.69251C19.92 8.62618 20.0614 10.7704 19.5203 12.7927C18.9792 14.8149 17.7859 16.602 16.1255 17.8768C14.465 19.1516 12.4303 19.8428 10.3369 19.8432Z" fill="black"/>
</svg>
