<svg width="17" height="20" viewBox="0 0 17 20" fill="none" xmlns="http://www.w3.org/2000/svg">
<path d="M3.22656 7.83333C3.22656 4.9224 5.58646 2.5625 8.4974 2.5625C11.4083 2.5625 13.7682 4.9224 13.7682 7.83333C13.7682 10.7443 11.4083 13.1042 8.4974 13.1042C5.58646 13.1042 3.22656 10.7443 3.22656 7.83333Z" fill="url(#paint0_linear_1340_34226)"/>
<path fill-rule="evenodd" clip-rule="evenodd" d="M11.8529 14.7303C14.4059 13.4859 16.1654 10.8658 16.1654 7.83464C16.1654 3.60024 12.7331 0.167969 8.4987 0.167969C4.26478 0.167969 0.832031 3.60024 0.832031 7.83464C0.832031 10.8663 2.59153 13.4869 5.14501 14.7308V18.8555C5.145 18.9422 5.16854 19.0273 5.21311 19.1018C5.25769 19.1762 5.32164 19.2371 5.39812 19.278C5.47461 19.319 5.56078 19.3384 5.64743 19.3341C5.73407 19.3299 5.81795 19.3023 5.89012 19.2541L8.4987 17.5148L11.1078 19.2541C11.1799 19.3023 11.2638 19.3299 11.3505 19.3341C11.4371 19.3384 11.5233 19.319 11.5998 19.278C11.6762 19.2371 11.7402 19.1762 11.7848 19.1018C11.8293 19.0273 11.8529 18.9422 11.8529 18.8555V14.7303ZM8.4987 14.543C12.2036 14.543 15.207 11.5396 15.207 7.83464C15.207 4.12972 12.2036 1.1263 8.4987 1.1263C4.79378 1.1263 1.79036 4.12972 1.79036 7.83464C1.79036 11.5396 4.79378 14.543 8.4987 14.543Z" fill="url(#paint1_linear_1340_34226)"/>
<defs>
<linearGradient id="paint0_linear_1340_34226" x1="4.54427" y1="2.5625" x2="12.4505" y2="13.1042" gradientUnits="userSpaceOnUse">
<stop offset="0.4375" stop-color="#F6B801"/>
<stop offset="1" stop-color="#FF8024"/>
</linearGradient>
<linearGradient id="paint1_linear_1340_34226" x1="2.7487" y1="0.167969" x2="17.6916" y2="16.107" gradientUnits="userSpaceOnUse">
<stop offset="0.4375" stop-color="#F6B801"/>
<stop offset="1" stop-color="#FF8024"/>
</linearGradient>
</defs>
</svg>
