<svg width="24" height="24" viewBox="0 0 24 24" fill="none" xmlns="http://www.w3.org/2000/svg">
<g clip-path="url(#clip0_1060_21998)">
<path d="M10.827 9.56C12.1404 9.56 13.2775 9.08895 14.2069 8.15957C15.136 7.23034 15.6072 6.09337 15.6072 4.77985C15.6072 3.46678 15.1361 2.32966 14.2067 1.40013C13.2774 0.47105 12.1402 0 10.827 0C9.51351 0 8.37654 0.47105 7.44731 1.40028C6.51808 2.32951 6.04688 3.46663 6.04688 4.77985C6.04688 6.09337 6.51808 7.23049 7.44731 8.15972C8.37684 9.0888 9.51396 9.56 10.827 9.56ZM8.26979 2.22261C8.9828 1.5096 9.81921 1.16301 10.827 1.16301C11.8347 1.16301 12.6713 1.5096 13.3844 2.22261C14.0974 2.93577 14.4442 3.77234 14.4442 4.77985C14.4442 5.78766 14.0974 6.62408 13.3844 7.33724C12.6713 8.0504 11.8347 8.39699 10.827 8.39699C9.81951 8.39699 8.9831 8.05025 8.26979 7.33724C7.55663 6.62423 7.20989 5.78766 7.20989 4.77985C7.20989 3.77234 7.55663 2.93577 8.26979 2.22261Z" fill="gray"/>
<path d="M21.0998 17.8619C21.0673 17.3942 21.0018 16.8841 20.9053 16.3454C20.8079 15.8027 20.6825 15.2896 20.5323 14.8207C20.377 14.336 20.1663 13.8574 19.9054 13.3987C19.6349 12.9226 19.317 12.5081 18.9604 12.1669C18.5874 11.8101 18.1307 11.5231 17.6026 11.3138C17.0764 11.1057 16.4932 11.0002 15.8694 11.0002C15.6244 11.0002 15.3874 11.1007 14.9298 11.3986C14.6482 11.5823 14.3188 11.7947 13.9511 12.0296C13.6368 12.2299 13.2109 12.4176 12.6848 12.5875C12.1715 12.7536 11.6504 12.8378 11.1359 12.8378C10.6217 12.8378 10.1006 12.7536 9.58702 12.5875C9.06151 12.4178 8.63542 12.2301 8.32158 12.0298C7.95738 11.7971 7.6278 11.5847 7.34197 11.3984C6.88475 11.1005 6.64782 11 6.40282 11C5.7788 11 5.19579 11.1057 4.66973 11.314C4.14202 11.5229 3.68518 11.8099 3.31182 12.1671C2.95514 12.5084 2.63727 12.9228 2.367 13.3987C2.10644 13.8574 1.89551 14.3358 1.74023 14.8209C1.59027 15.2898 1.46484 15.8027 1.36743 16.3454C1.27075 16.8834 1.20538 17.3937 1.17297 17.8624C1.14111 18.3207 1.125 18.7977 1.125 19.2796C1.125 20.5325 1.52325 21.5467 2.30859 22.2947C3.08422 23.0328 4.11035 23.407 5.35857 23.407H16.9147C18.1626 23.407 19.1887 23.0328 19.9645 22.2947C20.75 21.5472 21.1483 20.5326 21.1483 19.2795C21.1481 18.7959 21.1318 18.3189 21.0998 17.8619ZM18.9948 21.2757C18.4823 21.7635 17.8018 22.0006 16.9145 22.0006H5.35857C4.47106 22.0006 3.79064 21.7635 3.27832 21.2759C2.77569 20.7974 2.53143 20.1443 2.53143 19.2796C2.53143 18.8299 2.54626 18.3859 2.57592 17.9596C2.60486 17.5414 2.664 17.082 2.75171 16.5939C2.83831 16.1117 2.94854 15.6593 3.07965 15.2497C3.20544 14.8569 3.37701 14.468 3.58978 14.0934C3.79284 13.7363 4.02648 13.43 4.2843 13.1832C4.52545 12.9523 4.8294 12.7633 5.18755 12.6216C5.51879 12.4905 5.89104 12.4187 6.29516 12.4079C6.34441 12.4341 6.43212 12.4841 6.57421 12.5767C6.86333 12.7651 7.19658 12.9801 7.56499 13.2154C7.98027 13.4802 8.51531 13.7193 9.15453 13.9257C9.80803 14.137 10.4745 14.2443 11.1361 14.2443C11.7976 14.2443 12.4643 14.137 13.1175 13.9258C13.7572 13.7191 14.2921 13.4802 14.7079 13.215C15.0849 12.9741 15.4088 12.7653 15.698 12.5767C15.8401 12.4843 15.9278 12.4341 15.977 12.4079C16.3813 12.4187 16.7536 12.4905 17.085 12.6216C17.443 12.7633 17.7469 12.9524 17.9881 13.1832C18.2459 13.4298 18.4795 13.7361 18.6826 14.0936C18.8955 14.468 19.0673 14.8571 19.1929 15.2495C19.3242 15.6597 19.4346 16.1119 19.521 16.5937C19.6085 17.0828 19.6679 17.5423 19.6968 17.9598V17.9602C19.7266 18.3848 19.7417 18.8287 19.7418 19.2796C19.7417 20.1445 19.4974 20.7974 18.9948 21.2757Z" fill="#808080"/>
<path d="M22.6933 6.076H20.1373V8.668H19.1173V6.076H16.5733V5.152H19.1173V2.548H20.1373V5.152H22.6933V6.076Z" fill="gray"/>
</g>
<defs>
<clipPath id="clip0_1060_21998">
<rect width="24" height="24" fill="white"/>
</clipPath>
</defs>
</svg>
