<svg width="25" height="24" viewBox="0 0 25 24" fill="none" xmlns="http://www.w3.org/2000/svg">
<g clip-path="url(#clip0_1060_22024)">
<path d="M12.3275 11.5609C13.9158 11.5609 15.2909 10.9913 16.4148 9.86735C17.5383 8.74364 18.1081 7.3687 18.1081 5.78026C18.1081 4.19237 17.5385 2.81726 16.4146 1.69317C15.2907 0.56964 13.9156 0 12.3275 0C10.7391 0 9.36413 0.56964 8.24041 1.69336C7.1167 2.81707 6.54688 4.19219 6.54688 5.78026C6.54688 7.3687 7.1167 8.74382 8.24041 9.86753C9.3645 10.9911 10.7396 11.5609 12.3275 11.5609ZM9.23504 2.6878C10.0973 1.82556 11.1088 1.40643 12.3275 1.40643C13.5461 1.40643 14.5577 1.82556 15.4201 2.6878C16.2824 3.55023 16.7017 4.56188 16.7017 5.78026C16.7017 6.99901 16.2824 8.01048 15.4201 8.87291C14.5577 9.73533 13.5461 10.1545 12.3275 10.1545C11.1091 10.1545 10.0976 9.73515 9.23504 8.87291C8.37262 8.01067 7.95331 6.99901 7.95331 5.78026C7.95331 4.56188 8.37262 3.55023 9.23504 2.6878Z" fill="#808080"/>
<path d="M22.4435 18.4556C22.4111 17.988 22.3455 17.4778 22.249 16.9391C22.1516 16.3964 22.0262 15.8834 21.8761 15.4144C21.7208 14.9297 21.51 14.4511 21.2491 13.9924C20.9787 13.5164 20.6608 13.1018 20.3041 12.7607C19.9311 12.4038 19.4745 12.1169 18.9464 11.9076C18.4201 11.6994 17.8369 11.5939 17.2131 11.5939C16.9681 11.5939 16.7312 11.6945 16.2736 11.9924C15.992 12.176 15.6626 12.3884 15.2949 12.6234C14.9805 12.8237 14.5546 13.0113 14.0285 13.1813C13.5153 13.3473 12.9942 13.4316 12.4797 13.4316C11.9655 13.4316 11.4444 13.3473 10.9308 13.1813C10.4053 13.0115 9.97917 12.8239 9.66533 12.6235C9.30113 12.3908 8.97155 12.1784 8.68572 11.9922C8.2285 11.6943 7.99157 11.5938 7.74657 11.5938C7.12255 11.5938 6.53954 11.6994 6.01348 11.9078C5.48577 12.1167 5.02893 12.4036 4.65557 12.7609C4.29889 13.1022 3.98102 13.5165 3.71075 13.9924C3.45019 14.4511 3.23926 14.9296 3.08398 15.4146C2.93402 15.8835 2.80859 16.3964 2.71118 16.9391C2.6145 17.4771 2.54913 17.9874 2.51672 18.4562C2.48486 18.9145 2.46875 19.3915 2.46875 19.8734C2.46875 21.1262 2.867 22.1404 3.65234 22.8884C4.42797 23.6265 5.4541 24.0008 6.70232 24.0008H18.2585C19.5063 24.0008 20.5324 23.6265 21.3083 22.8884C22.0938 22.141 22.492 21.1264 22.492 19.8732C22.4918 19.3896 22.4755 18.9126 22.4435 18.4556ZM20.3385 21.8694C19.826 22.3572 19.1456 22.5943 18.2583 22.5943H6.70232C5.81481 22.5943 5.13439 22.3572 4.62207 21.8696C4.11944 21.3912 3.87518 20.738 3.87518 19.8734C3.87518 19.4237 3.89001 18.9797 3.91967 18.5534C3.94861 18.1352 4.00775 17.6758 4.09546 17.1876C4.18206 16.7055 4.29229 16.253 4.4234 15.8434C4.54919 15.4507 4.72076 15.0618 4.93353 14.6871C5.13659 14.3301 5.37023 14.0237 5.62805 13.7769C5.8692 13.546 6.17315 13.3571 6.5313 13.2153C6.86254 13.0842 7.23479 13.0124 7.63891 13.0016C7.68816 13.0278 7.77587 13.0778 7.91796 13.1705C8.20708 13.3589 8.54033 13.5738 8.90874 13.8091C9.32402 14.0739 9.85906 14.313 10.4983 14.5194C11.1518 14.7307 11.8183 14.838 12.4798 14.838C13.1414 14.838 13.8081 14.7307 14.4612 14.5196C15.101 14.3129 15.6358 14.0739 16.0517 13.8088C16.4287 13.5678 16.7526 13.3591 17.0417 13.1705C17.1838 13.078 17.2715 13.0278 17.3208 13.0016C17.7251 13.0124 18.0973 13.0842 18.4287 13.2153C18.7867 13.3571 19.0907 13.5462 19.3318 13.7769C19.5896 14.0236 19.8233 14.3299 20.0263 14.6873C20.2393 15.0618 20.411 15.4509 20.5366 15.8433C20.6679 16.2534 20.7783 16.7057 20.8648 17.1874C20.9523 17.6765 21.0116 18.1361 21.0406 18.5536V18.5539C21.0704 18.9786 21.0854 19.4224 21.0856 19.8734C21.0854 20.7382 20.8412 21.3912 20.3385 21.8694Z" fill="gray"/>
</g>
<defs>
<clipPath id="clip0_1060_22024">
<rect width="24" height="24" fill="white" transform="translate(0.5)"/>
</clipPath>
</defs>
</svg>
