<svg width="63" height="62" viewBox="0 0 63 62" fill="none" xmlns="http://www.w3.org/2000/svg">
<rect x="2.59961" y="2" width="58" height="58" rx="29" fill="#F6B801"/>
<rect x="2.59961" y="2" width="58" height="58" rx="29" stroke="white" stroke-width="4"/>
<g clip-path="url(#clip0_1060_22031)">
<path d="M30.3928 21.6446C31.9572 21.6432 33.4869 22.1058 34.7884 22.9739C36.0899 23.842 37.1046 25.0766 37.7043 26.5216C38.304 27.9665 38.4616 29.5568 38.1573 31.0914C37.853 32.6259 37.1003 34.0357 35.9946 35.1424C34.8889 36.2492 33.4798 37.0031 31.9455 37.3088C30.4113 37.6145 28.8208 37.4583 27.3753 36.86C25.9298 36.2616 24.6943 35.248 23.825 33.9473C22.9557 32.6467 22.4917 31.1174 22.4917 29.553C22.5012 27.4597 23.3364 25.4548 24.8159 23.9739C26.2954 22.4931 28.2996 21.656 30.3928 21.6446ZM30.3928 20.1641C28.5359 20.1641 26.7206 20.7147 25.1766 21.7464C23.6326 22.778 22.4292 24.2444 21.7186 25.96C21.008 27.6756 20.822 29.5634 21.1843 31.3846C21.5466 33.2059 22.4408 34.8788 23.7539 36.1919C25.0669 37.505 26.7399 38.3992 28.5611 38.7614C30.3824 39.1237 32.2702 38.9378 33.9858 38.2272C35.7014 37.5165 37.1677 36.3131 38.1994 34.7691C39.231 33.2251 39.7817 31.4099 39.7817 29.553C39.7817 27.0629 38.7925 24.6748 37.0317 22.914C35.271 21.1532 32.8829 20.1641 30.3928 20.1641Z" fill="white"/>
<path d="M43.8776 42.0425L38.5549 36.6836L37.5293 37.7019L42.8521 43.0608C42.9189 43.1282 42.9984 43.1817 43.086 43.2183C43.1735 43.2549 43.2674 43.2739 43.3623 43.2743C43.4572 43.2746 43.5512 43.2562 43.639 43.2202C43.7268 43.1842 43.8067 43.1313 43.874 43.0644C43.9414 42.9976 43.9949 42.9181 44.0315 42.8305C44.0681 42.743 44.0871 42.6491 44.0875 42.5542C44.0878 42.4593 44.0695 42.3653 44.0334 42.2775C43.9974 42.1897 43.9445 42.1098 43.8776 42.0425Z" fill="white"/>
</g>
<defs>
<clipPath id="clip0_1060_22031">
<rect width="26" height="26" fill="white" transform="translate(18.5996 18)"/>
</clipPath>
</defs>
</svg>
